<svg width="654" height="733" viewBox="0 0 654 733" fill="none" xmlns="http://www.w3.org/2000/svg">
<mask id="mask0_157_1531" style="mask-type:luminance" maskUnits="userSpaceOnUse" x="572" y="172" width="62" height="101">
<path d="M572.939 172H633.953V272.959H572.939V172Z" fill="white"/>
</mask>
<g mask="url(#mask0_157_1531)">
<path d="M603.473 175.557C599.993 175.557 596.602 176.728 593.391 179.044C590.187 181.349 587.297 184.668 584.801 188.921C582.264 193.238 580.262 198.284 578.866 203.902C577.413 209.755 576.674 215.979 576.674 222.397C576.674 228.818 577.413 235.039 578.866 240.895C580.262 246.52 582.264 251.559 584.801 255.873C587.297 260.129 590.187 263.449 593.391 265.754C596.602 268.069 599.993 269.237 603.473 269.237C606.953 269.237 610.351 268.069 613.561 265.754C616.765 263.449 619.656 260.129 622.152 255.873C624.688 251.559 626.683 246.52 628.079 240.895C629.54 235.039 630.279 228.818 630.279 222.397C630.279 215.979 629.54 209.755 628.079 203.902C626.683 198.284 624.688 193.238 622.152 188.921C619.656 184.668 616.765 181.349 613.561 179.044C610.351 176.728 606.953 175.557 603.473 175.557ZM603.473 272.785C601.338 272.785 599.2 272.417 597.13 271.702C595.135 271.004 593.18 269.969 591.318 268.627C587.716 266.036 584.488 262.349 581.74 257.671C579.03 253.057 576.902 247.705 575.428 241.75C573.902 235.614 573.126 229.108 573.126 222.397C573.126 215.689 573.902 209.183 575.428 203.047C576.902 197.099 579.03 191.74 581.74 187.127C584.488 182.448 587.716 178.761 591.318 176.17C593.18 174.828 595.135 173.793 597.13 173.102C599.2 172.38 601.338 172.013 603.473 172.013C605.615 172.013 607.743 172.38 609.816 173.102C611.811 173.793 613.776 174.828 615.635 176.17C619.241 178.761 622.458 182.448 625.206 187.127C627.923 191.74 630.044 197.099 631.528 203.047C633.05 209.183 633.82 215.689 633.82 222.397C633.82 229.108 633.05 235.614 631.528 241.75C630.044 247.705 627.923 253.057 625.206 257.671C622.458 262.349 619.241 266.036 615.635 268.627C613.776 269.969 611.811 271.004 609.816 271.702C607.743 272.417 605.615 272.785 603.473 272.785Z" fill="#040606"/>
</g>
<path d="M603.504 195.639C597.082 195.639 590.855 196.378 584.999 197.839C579.367 199.235 574.328 201.226 570.007 203.763C565.755 206.259 562.432 209.153 560.123 212.346C557.815 215.564 556.637 218.955 556.637 222.432C556.637 225.908 557.815 229.296 560.123 232.506C562.432 235.707 565.755 238.594 570.007 241.09C574.328 243.633 579.367 245.625 584.999 247.024C590.855 248.475 597.082 249.214 603.504 249.214C609.929 249.214 616.153 248.475 622.012 247.024C627.634 245.625 632.683 243.633 637 241.09C641.256 238.594 644.576 235.707 646.884 232.506C649.2 229.296 650.371 225.908 650.371 222.432C650.371 218.955 649.2 215.564 646.884 212.346C644.576 209.153 641.256 206.259 637 203.763C632.683 201.226 627.634 199.235 622.012 197.839C616.153 196.378 609.929 195.639 603.504 195.639ZM603.504 252.758C596.789 252.758 590.283 251.982 584.141 250.46C578.189 248.986 572.826 246.858 568.21 244.151C563.531 241.406 559.841 238.179 557.25 234.576C555.908 232.717 554.87 230.763 554.178 228.771C553.457 226.698 553.089 224.566 553.089 222.432C553.089 220.297 553.457 218.162 554.178 216.088C554.87 214.097 555.908 212.135 557.25 210.276C559.841 206.674 563.531 203.457 568.21 200.709C572.826 197.995 578.189 195.874 584.141 194.393C590.283 192.871 596.789 192.102 603.504 192.102C610.218 192.102 616.728 192.871 622.867 194.393C628.825 195.874 634.181 197.995 638.798 200.709C643.476 203.457 647.167 206.674 649.758 210.276C651.103 212.135 652.138 214.097 652.829 216.088C653.551 218.162 653.919 220.297 653.919 222.432C653.919 224.566 653.551 226.698 652.829 228.771C652.138 230.763 651.103 232.717 649.758 234.576C647.167 238.179 643.476 241.406 638.798 244.151C634.181 246.858 628.825 248.986 622.867 250.46C616.728 251.982 610.218 252.758 603.504 252.758Z" fill="#040606"/>
<mask id="mask1_157_1531" style="mask-type:luminance" maskUnits="userSpaceOnUse" x="552" y="172" width="103" height="101">
<path d="M552.893 172H654.001V272.959H552.893V172Z" fill="white"/>
</mask>
<g mask="url(#mask1_157_1531)">
<path d="M603.505 175.557C597.175 175.557 591.036 176.8 585.265 179.238C582.487 180.416 579.807 181.866 577.305 183.555C574.823 185.234 572.49 187.157 570.362 189.275C568.245 191.403 566.321 193.732 564.639 196.211C562.95 198.717 561.5 201.393 560.322 204.168C557.88 209.935 556.638 216.074 556.638 222.397C556.638 228.723 557.88 234.858 560.322 240.626C561.5 243.405 562.95 246.081 564.639 248.583C566.321 251.065 568.245 253.401 570.362 255.522C572.49 257.64 574.823 259.564 577.305 261.242C579.807 262.928 582.487 264.388 585.265 265.56C591.036 267.997 597.175 269.237 603.505 269.237C609.834 269.237 615.973 267.997 621.744 265.56C624.526 264.388 627.202 262.928 629.708 261.242C632.187 259.564 634.526 257.64 636.647 255.522C638.768 253.401 640.692 251.065 642.37 248.583C644.059 246.081 645.52 243.405 646.691 240.626C649.132 234.858 650.372 228.723 650.372 222.397C650.372 216.074 649.132 209.935 646.691 204.168C645.52 201.393 644.059 198.717 642.37 196.211C640.692 193.732 638.768 191.403 636.647 189.275C634.526 187.157 632.187 185.234 629.708 183.555C627.202 181.866 624.526 180.416 621.744 179.238C615.973 176.8 609.834 175.557 603.505 175.557ZM603.505 272.785C596.698 272.785 590.093 271.45 583.883 268.821C580.893 267.558 578.01 265.999 575.316 264.177C572.647 262.379 570.134 260.309 567.86 258.025C565.575 255.75 563.509 253.238 561.704 250.568C559.882 247.878 558.32 244.998 557.053 242.009C554.425 235.802 553.09 229.203 553.09 222.397C553.09 215.594 554.425 209.002 557.053 202.789C558.32 199.799 559.882 196.919 561.704 194.226C563.509 191.56 565.575 189.057 567.86 186.772C570.134 184.488 572.647 182.425 575.316 180.62C578.01 178.798 580.893 177.239 583.883 175.976C590.093 173.344 596.698 172.013 603.505 172.013C610.314 172.013 616.916 173.344 623.127 175.976C626.119 177.239 629 178.798 631.693 180.62C634.362 182.425 636.875 184.488 639.153 186.772C641.438 189.057 643.501 191.56 645.309 194.226C647.13 196.919 648.693 199.799 649.956 202.789C652.585 209.002 653.92 215.594 653.92 222.397C653.92 229.203 652.585 235.802 649.956 242.009C648.693 244.998 647.13 247.878 645.309 250.568C643.501 253.238 641.438 255.75 639.153 258.025C636.875 260.309 634.362 262.379 631.693 264.177C629 265.999 626.119 267.558 623.127 268.821C616.916 271.45 610.314 272.785 603.505 272.785Z" fill="#040606"/>
</g>
<mask id="mask2_157_1531" style="mask-type:luminance" maskUnits="userSpaceOnUse" x="534" y="241" width="19" height="52">
<path d="M534.602 241.581H552.021V292.285H534.602V241.581Z" fill="white"/>
</mask>
<g mask="url(#mask2_157_1531)">
<path d="M511.207 403.653C511.207 476.948 475.273 528.142 423.813 528.142C372.353 528.142 336.415 476.948 336.415 403.653C336.415 368.202 345.224 336.285 361.209 313.797C377.116 291.407 398.774 279.582 423.813 279.582C448.852 279.582 470.496 291.407 486.414 313.797C502.399 336.285 511.207 368.202 511.207 403.653ZM516.468 288.441C493.308 258.584 460.401 242.136 423.813 242.136C387.402 242.136 354.624 258.584 331.506 288.448C308.918 317.641 296.474 358.556 296.474 403.653C296.474 448.933 308.918 489.974 331.506 519.218C354.6 549.119 387.378 565.588 423.813 565.588C460.415 565.588 493.329 549.119 516.478 519.218C539.106 490.005 551.558 448.957 551.558 403.653C551.558 358.525 539.1 317.61 516.468 288.441Z" fill="#040606"/>
</g>
<path d="M77.7247 469.096C63.3769 469.096 50.4217 466.471 38.8556 461.224C27.2963 455.977 18.0352 448.108 11.0724 437.622C4.1164 427.128 0.4256 414.067 0 398.439H27.3065C27.5142 411.289 32.0085 422.368 40.7895 431.684C49.567 440.992 61.8788 445.643 77.7247 445.643C93.5673 445.643 105.501 441.258 113.53 432.487C121.565 423.71 125.583 413.107 125.583 400.686C125.583 390.193 123.066 381.626 118.038 374.987C113.005 368.351 106.26 363.431 97.7994 360.224C89.3453 357.01 80.0843 355.403 70.0163 355.403H53.3191V332.59H70.0163C84.5786 332.59 95.9813 329.274 104.228 322.635C112.471 315.999 116.594 306.683 116.594 294.688C116.594 284.63 113.325 276.336 106.788 269.806C100.258 263.269 90.571 260 77.7247 260C65.304 260 55.3484 263.698 47.8578 271.086C40.3673 278.478 36.1896 287.739 35.3282 298.869H8.03532C8.66862 286.667 11.9338 275.853 17.8275 266.428C23.7178 257.004 31.8042 249.673 42.0833 244.433C52.359 239.187 64.2417 236.562 77.7247 236.562C92.287 236.562 104.439 239.132 114.183 244.27C123.924 249.411 131.309 256.265 136.342 264.835C141.371 273.398 143.887 282.819 143.887 293.095C143.887 304.436 140.782 314.763 134.571 324.078C128.368 333.394 119.059 339.659 106.638 342.873C119.91 345.651 130.938 351.967 139.719 361.817C148.497 371.671 152.889 384.626 152.889 400.686C152.889 413.107 150.049 424.513 144.377 434.898C138.701 445.276 130.295 453.57 119.154 459.78C108.021 465.99 94.2108 469.096 77.7247 469.096Z" fill="black"/>
<path d="M268.817 469.095C252.546 469.095 238.841 466.044 227.701 459.943C216.567 453.841 207.63 445.653 200.885 435.374C194.136 425.098 189.213 413.59 186.108 400.849C183.003 388.101 181.45 375.092 181.45 361.816C181.45 336.985 184.875 315.205 191.733 296.471C198.587 277.731 208.488 263.063 221.436 252.468C234.391 241.865 250.077 236.561 268.49 236.561C282.627 236.561 294.724 239.346 304.786 244.909C314.854 250.476 322.831 257.915 328.715 267.231C334.605 276.546 338.302 286.88 339.801 298.228H314.741C312.389 286.025 307.145 276.608 299.011 269.968C290.874 263.322 280.598 259.999 268.177 259.999C251.262 259.999 237.074 267.977 225.617 283.928C214.157 299.883 208.001 324.772 207.15 358.602C212.287 348.544 220.476 339.821 231.719 332.44C242.958 325.051 256.499 321.354 272.345 321.354C285.191 321.354 297.234 324.35 308.476 330.342C319.726 336.335 328.881 344.738 335.946 355.551C343.008 366.365 346.542 379.055 346.542 393.617C346.542 406.249 343.437 418.346 337.227 429.912C331.016 441.472 322.075 450.893 310.41 458.172C298.742 465.451 284.878 469.095 268.817 469.095ZM266.897 445.329C276.955 445.329 285.943 443.191 293.863 438.915C301.789 434.631 308 428.686 312.494 421.087C316.995 413.481 319.249 404.751 319.249 394.897C319.249 379.698 314.268 367.55 304.309 358.452C294.346 349.348 281.878 344.792 266.897 344.792C256.826 344.792 247.83 347.094 239.904 351.697C231.984 356.3 225.726 362.456 221.123 370.165C216.52 377.873 214.218 386.229 214.218 395.224C214.218 404.86 216.52 413.481 221.123 421.087C225.726 428.686 231.984 434.631 239.904 438.915C247.83 443.191 256.826 445.329 266.897 445.329Z" fill="black"/>
<path d="M469.223 469.095C449.312 469.095 432.128 464.226 417.674 454.481C403.218 444.74 392.138 431.145 384.43 413.692C376.721 396.242 372.867 375.953 372.867 352.828C372.867 329.702 376.721 309.416 384.43 291.963C392.138 274.514 403.218 260.918 417.674 251.174C432.128 241.433 449.312 236.561 469.223 236.561C489.141 236.561 506.274 241.433 520.622 251.174C534.966 260.918 545.994 274.514 553.703 291.963C561.411 309.416 565.266 329.702 565.266 352.828C565.266 375.953 561.411 396.242 553.703 413.692C545.994 431.145 534.966 444.74 520.622 454.481C506.274 464.226 489.141 469.095 469.223 469.095ZM469.223 445.329C482.287 445.329 494.01 441.638 504.388 434.257C514.772 426.868 522.91 416.266 528.793 402.456C534.684 388.639 537.632 372.095 537.632 352.828C537.632 333.553 534.684 317.064 528.793 303.363C522.91 289.662 514.772 279.121 504.388 271.739C494.01 264.351 482.287 260.653 469.223 260.653C455.948 260.653 444.17 264.351 433.895 271.739C423.616 279.121 415.482 289.662 409.489 303.363C403.497 317.064 400.501 333.553 400.501 352.828C400.501 372.095 403.497 388.639 409.489 402.456C415.482 416.266 423.616 426.868 433.895 434.257C444.17 441.638 455.948 445.329 469.223 445.329Z" fill="black"/>
</svg>
