<svg width="1001" height="455" viewBox="0 0 1001 455" fill="none" xmlns="http://www.w3.org/2000/svg">
<g clip-path="url(#clip0_153_1499)">
<mask id="mask0_153_1499" style="mask-type:luminance" maskUnits="userSpaceOnUse" x="876" y="0" width="94" height="155">
<path d="M876.427 0H969.76V154.438H876.427V0Z" fill="white"/>
</mask>
<g mask="url(#mask0_153_1499)">
<path d="M923.135 5.44238C917.812 5.44238 912.624 7.23405 907.713 10.7757C902.812 14.3018 898.39 19.3799 894.572 25.8851C890.692 32.4893 887.63 40.208 885.494 48.8018C883.27 57.7549 882.14 67.2757 882.14 77.0934C882.14 86.9163 883.27 96.432 885.494 105.39C887.63 113.994 890.692 121.703 894.572 128.302C898.39 134.812 902.812 139.89 907.713 143.416C912.624 146.958 917.812 148.744 923.135 148.744C928.458 148.744 933.656 146.958 938.567 143.416C943.468 139.89 947.89 134.812 951.708 128.302C955.588 121.703 958.64 113.994 960.775 105.39C963.01 96.432 964.14 86.9163 964.14 77.0934C964.14 67.2757 963.01 57.7549 960.775 48.8018C958.64 40.208 955.588 32.4893 951.708 25.8851C947.89 19.3799 943.468 14.3018 938.567 10.7757C933.656 7.23405 928.458 5.44238 923.135 5.44238ZM923.135 154.172C919.869 154.172 916.598 153.609 913.432 152.515C910.38 151.448 907.39 149.864 904.541 147.812C899.031 143.849 894.093 138.208 889.89 131.052C885.744 123.994 882.489 115.807 880.234 106.698C877.9 97.3122 876.713 87.3591 876.713 77.0934C876.713 66.833 877.9 56.8799 880.234 47.4945C882.489 38.3955 885.744 30.1976 889.89 23.1403C894.093 15.984 899.031 10.3434 904.541 6.37988C907.39 4.3278 910.38 2.74447 913.432 1.68717C916.598 0.583008 919.869 0.0205078 923.135 0.0205078C926.411 0.0205078 929.666 0.583008 932.838 1.68717C935.89 2.74447 938.895 4.3278 941.739 6.37988C947.255 10.3434 952.176 15.984 956.38 23.1403C960.536 30.1976 963.781 38.3955 966.051 47.4945C968.38 56.8799 969.557 66.833 969.557 77.0934C969.557 87.3591 968.38 97.3122 966.051 106.698C963.781 115.807 960.536 123.994 956.38 131.052C952.176 138.208 947.255 143.849 941.739 147.812C938.895 149.864 935.89 151.448 932.838 152.515C929.666 153.609 926.411 154.172 923.135 154.172Z" fill="#040606"/>
</g>
<path d="M923.182 36.1615C913.359 36.1615 903.833 37.2917 894.875 39.526C886.26 41.6615 878.552 44.7083 871.943 48.5885C865.437 52.4063 860.354 56.8333 856.823 61.7188C853.292 66.6406 851.49 71.8281 851.49 77.1458C851.49 82.4635 853.292 87.6458 856.823 92.5573C860.354 97.4531 865.437 101.87 871.943 105.688C878.552 109.578 886.26 112.625 894.875 114.766C903.833 116.984 913.359 118.115 923.182 118.115C933.01 118.115 942.531 116.984 951.495 114.766C960.094 112.625 967.818 109.578 974.422 105.688C980.932 101.87 986.01 97.4531 989.542 92.5573C993.083 87.6458 994.875 82.4635 994.875 77.1458C994.875 71.8281 993.083 66.6406 989.542 61.7188C986.01 56.8333 980.932 52.4063 974.422 48.5885C967.818 44.7083 960.094 41.6615 951.495 39.526C942.531 37.2917 933.01 36.1615 923.182 36.1615ZM923.182 123.536C912.911 123.536 902.958 122.349 893.563 120.021C884.458 117.766 876.255 114.51 869.193 110.37C862.036 106.172 856.391 101.234 852.427 95.724C850.375 92.8802 848.786 89.8906 847.729 86.8438C846.625 83.6719 846.062 80.4115 846.062 77.1458C846.062 73.8802 846.625 70.6146 847.729 67.4427C848.786 64.3958 850.375 61.3958 852.427 58.5521C856.391 53.0417 862.036 48.1198 869.193 43.9167C876.255 39.7656 884.458 36.5208 893.563 34.2552C902.958 31.9271 912.911 30.75 923.182 30.75C933.453 30.75 943.411 31.9271 952.802 34.2552C961.917 36.5208 970.109 39.7656 977.172 43.9167C984.328 48.1198 989.974 53.0417 993.938 58.5521C995.995 61.3958 997.578 64.3958 998.635 67.4427C999.74 70.6146 1000.3 73.8802 1000.3 77.1458C1000.3 80.4115 999.74 83.6719 998.635 86.8438C997.578 89.8906 995.995 92.8802 993.938 95.724C989.974 101.234 984.328 106.172 977.172 110.37C970.109 114.51 961.917 117.766 952.802 120.021C943.411 122.349 933.453 123.536 923.182 123.536Z" fill="#040606"/>
<mask id="mask1_153_1499" style="mask-type:luminance" maskUnits="userSpaceOnUse" x="845" y="0" width="156" height="155">
<path d="M845.76 0H1000.43V154.438H845.76V0Z" fill="white"/>
</mask>
<g mask="url(#mask1_153_1499)">
<path d="M923.181 5.44238C913.499 5.44238 904.108 7.34343 895.28 11.0726C891.03 12.8747 886.931 15.0934 883.103 17.6768C879.306 20.2445 875.739 23.1872 872.483 26.4268C869.244 29.682 866.301 33.2445 863.728 37.0361C861.145 40.8695 858.926 44.9632 857.124 49.208C853.39 58.0309 851.489 67.4216 851.489 77.0934C851.489 86.7705 853.39 96.1559 857.124 104.979C858.926 109.229 861.145 113.323 863.728 117.151C866.301 120.948 869.244 124.521 872.483 127.765C875.739 131.005 879.306 133.948 883.103 136.515C886.931 139.093 891.03 141.328 895.28 143.119C904.108 146.849 913.499 148.744 923.181 148.744C932.864 148.744 942.254 146.849 951.082 143.119C955.338 141.328 959.431 139.093 963.265 136.515C967.056 133.948 970.634 131.005 973.879 127.765C977.124 124.521 980.067 120.948 982.634 117.151C985.218 113.323 987.452 109.229 989.244 104.979C992.978 96.1559 994.874 86.7705 994.874 77.0934C994.874 67.4216 992.978 58.0309 989.244 49.208C987.452 44.9632 985.218 40.8695 982.634 37.0361C980.067 33.2445 977.124 29.682 973.879 26.4268C970.634 23.1872 967.056 20.2445 963.265 17.6768C959.431 15.0934 955.338 12.8747 951.082 11.0726C942.254 7.34343 932.864 5.44238 923.181 5.44238ZM923.181 154.172C912.77 154.172 902.666 152.13 893.166 148.109C888.593 146.177 884.181 143.791 880.062 141.005C875.978 138.255 872.134 135.088 868.655 131.593C865.16 128.114 861.999 124.271 859.239 120.187C856.452 116.073 854.062 111.666 852.124 107.093C848.103 97.5986 846.062 87.5049 846.062 77.0934C846.062 66.6872 848.103 56.6038 852.124 47.0986C854.062 42.5257 856.452 38.1195 859.239 33.9997C861.999 29.9216 865.16 26.0934 868.655 22.5986C872.134 19.1038 875.978 15.9476 880.062 13.1872C884.181 10.4007 888.593 8.0153 893.166 6.08301C902.666 2.05697 912.77 0.0205078 923.181 0.0205078C933.598 0.0205078 943.697 2.05697 953.197 6.08301C957.775 8.0153 962.181 10.4007 966.301 13.1872C970.384 15.9476 974.228 19.1038 977.713 22.5986C981.207 26.0934 984.364 29.9216 987.129 33.9997C989.916 38.1195 992.306 42.5257 994.239 47.0986C998.259 56.6038 1000.3 66.6872 1000.3 77.0934C1000.3 87.5049 998.259 97.5986 994.239 107.093C992.306 111.666 989.916 116.073 987.129 120.187C984.364 124.271 981.207 128.114 977.713 131.593C974.228 135.088 970.384 138.255 966.301 141.005C962.181 143.791 957.775 146.177 953.197 148.109C943.697 152.13 933.598 154.172 923.181 154.172Z" fill="#040606"/>
</g>
<mask id="mask2_153_1499" style="mask-type:luminance" maskUnits="userSpaceOnUse" x="817" y="106" width="28" height="78">
<path d="M817.781 106.438H844.427V184H817.781V106.438Z" fill="white"/>
</mask>
<g mask="url(#mask2_153_1499)">
<path d="M781.995 354.359C781.995 466.479 727.026 544.791 648.307 544.791C569.589 544.791 514.615 466.479 514.615 354.359C514.615 300.13 528.089 251.307 552.542 216.906C576.875 182.656 610.005 164.567 648.307 164.567C686.609 164.567 719.719 182.656 744.068 216.906C768.521 251.307 781.995 300.13 781.995 354.359ZM790.042 178.119C754.615 132.448 704.276 107.286 648.307 107.286C592.609 107.286 542.469 132.448 507.104 178.13C472.552 222.786 453.516 285.375 453.516 354.359C453.516 423.625 472.552 486.406 507.104 531.14C542.432 576.88 592.573 602.073 648.307 602.073C704.297 602.073 754.646 576.88 790.057 531.14C824.672 486.453 843.719 423.661 843.719 354.359C843.719 285.328 824.661 222.739 790.042 178.119Z" fill="#040606"/>
</g>
<path d="M118.896 454.468C96.9479 454.468 77.1302 450.452 59.4375 442.426C41.7552 434.4 27.5885 422.364 16.9375 406.322C6.29687 390.27 0.651041 370.291 0 346.385H41.7708C42.0885 366.041 48.9635 382.989 62.3958 397.239C75.8229 411.479 94.6563 418.593 118.896 418.593C143.13 418.593 161.385 411.885 173.667 398.468C185.958 385.041 192.104 368.822 192.104 349.822C192.104 333.77 188.255 320.666 180.563 310.51C172.865 300.359 162.547 292.833 149.604 287.926C136.672 283.01 122.505 280.551 107.104 280.551H81.5625V245.656H107.104C129.38 245.656 146.823 240.583 159.438 230.426C172.047 220.275 178.354 206.025 178.354 187.676C178.354 172.291 173.354 159.604 163.354 149.614C153.365 139.614 138.547 134.614 118.896 134.614C99.8958 134.614 84.6667 140.27 73.2083 151.572C61.75 162.88 55.3594 177.046 54.0417 194.072H12.2917C13.2604 175.406 18.2552 158.864 27.2708 144.447C36.2813 130.031 48.651 118.817 64.375 110.801C80.0938 102.775 98.2708 98.7598 118.896 98.7598C141.172 98.7598 159.76 102.692 174.667 110.551C189.568 118.416 200.865 128.9 208.563 142.01C216.255 155.109 220.104 169.52 220.104 185.239C220.104 202.588 215.354 218.385 205.854 232.635C196.365 246.885 182.125 256.468 163.125 261.385C183.427 265.635 200.297 275.296 213.729 290.364C227.156 305.437 233.875 325.255 233.875 349.822C233.875 368.822 229.531 386.27 220.854 402.156C212.172 418.031 199.313 430.718 182.271 440.218C165.24 449.718 144.115 454.468 118.896 454.468Z" fill="black"/>
<path d="M411.213 454.468C386.323 454.468 365.359 449.801 348.317 440.468C331.286 431.135 317.614 418.609 307.297 402.885C296.974 387.166 289.442 369.562 284.692 350.072C279.942 330.572 277.567 310.671 277.567 290.364C277.567 252.38 282.807 219.062 293.297 190.406C303.781 161.739 318.927 139.301 338.734 123.093C358.552 106.874 382.547 98.7598 410.713 98.7598C432.338 98.7598 450.843 103.02 466.234 111.531C481.635 120.046 493.838 131.426 502.838 145.676C511.849 159.926 517.505 175.734 519.797 193.093H481.463C477.864 174.426 469.843 160.02 457.401 149.864C444.953 139.697 429.234 134.614 410.234 134.614C384.359 134.614 362.656 146.817 345.13 171.218C327.599 195.624 318.182 233.697 316.88 285.447C324.739 270.062 337.265 256.718 354.463 245.426C371.656 234.124 392.369 228.468 416.609 228.468C436.26 228.468 454.682 233.051 471.88 242.218C489.088 251.385 503.093 264.239 513.901 280.781C524.703 297.322 530.109 316.734 530.109 339.01C530.109 358.333 525.359 376.838 515.859 394.531C506.359 412.213 492.682 426.624 474.838 437.76C456.989 448.895 435.781 454.468 411.213 454.468ZM408.276 418.114C423.661 418.114 437.411 414.843 449.526 408.301C461.651 401.749 471.151 392.656 478.026 381.031C484.911 369.395 488.359 356.041 488.359 340.968C488.359 317.718 480.739 299.135 465.505 285.218C450.265 271.291 431.192 264.322 408.276 264.322C392.869 264.322 379.109 267.843 366.984 274.885C354.869 281.926 345.297 291.343 338.255 303.135C331.213 314.926 327.692 327.708 327.692 341.468C327.692 356.208 331.213 369.395 338.255 381.031C345.297 392.656 354.869 401.749 366.984 408.301C379.109 414.843 392.869 418.114 408.276 418.114Z" fill="black"/>
<path d="M717.77 454.468C687.312 454.468 661.025 447.02 638.916 432.114C616.801 417.213 599.853 396.416 588.062 369.718C576.27 343.025 570.374 311.989 570.374 276.614C570.374 241.239 576.27 210.208 588.062 183.51C599.853 156.817 616.801 136.02 638.916 121.114C661.025 106.213 687.312 98.7598 717.77 98.7598C748.239 98.7598 774.447 106.213 796.395 121.114C818.338 136.02 835.207 156.817 846.999 183.51C858.791 210.208 864.687 241.239 864.687 276.614C864.687 311.989 858.791 343.025 846.999 369.718C835.207 396.416 818.338 417.213 796.395 432.114C774.447 447.02 748.239 454.468 717.77 454.468ZM717.77 418.114C737.754 418.114 755.687 412.468 771.562 401.176C787.447 389.874 799.895 373.656 808.895 352.531C817.905 331.395 822.416 306.088 822.416 276.614C822.416 247.13 817.905 221.906 808.895 200.947C799.895 179.989 787.447 163.864 771.562 152.572C755.687 141.27 737.754 135.614 717.77 135.614C697.463 135.614 679.447 141.27 663.728 152.572C648.004 163.864 635.562 179.989 626.395 200.947C617.228 221.906 612.645 247.13 612.645 276.614C612.645 306.088 617.228 331.395 626.395 352.531C635.562 373.656 648.004 389.874 663.728 401.176C679.447 412.468 697.463 418.114 717.77 418.114Z" fill="black"/>
</g>
<defs>
<clipPath id="clip0_153_1499">
<rect width="1001" height="455" fill="white"/>
</clipPath>
</defs>
</svg>
