<?xml version="1.0" encoding="UTF-8"?>
<svg id="Layer_2" data-name="Layer 2" xmlns="http://www.w3.org/2000/svg" viewBox="0 0 1137.98 292.69">
  <defs>
    <style>
      .cls-1 {
        fill: #111313;
      }

      .cls-1, .cls-2, .cls-3, .cls-4, .cls-5, .cls-6 {
        stroke-width: 0px;
      }

      .cls-2 {
        fill: #14894b;
      }

      .cls-3 {
        fill: #cf3438;
      }

      .cls-4 {
        fill: #030303;
      }

      .cls-5 {
        fill: #010101;
      }

      .cls-6 {
        fill: #020202;
      }
    </style>
  </defs>
  <g id="m360">
    <path class="cls-3" d="m399.3,187.82c-2.43,6.07-4.48,11.07-6.43,16.1-3.64,9.36-7.2,18.76-10.86,28.12-4.37,11.19-8.87,22.32-13.21,33.52-3.54,9.14-9.77,15.9-18.18,20.67-16.65,9.44-33.08,8.47-48.51-2.43-8.88-6.27-14.13-15.45-16.57-26.17-2.55-11.19.42-21.47,4.46-31.74,7.1-18.01,13.89-36.13,20.91-54.17,4.75-12.21,9.72-24.34,14.46-36.56,6.22-16.03,12.28-32.12,18.49-48.16,3.79-9.78,7.88-19.44,11.56-29.25,1.58-4.21,2.69-8.57,4.8-12.6,3.8-7.26,9.14-13.11,16.13-17.22,19.4-11.43,46.86-5.94,59.45,13.24,4.57,6.96,6.19,14.85,9.14,22.31,11.25,28.42,22.2,56.95,33.26,85.44,5.26,13.53,10.52,27.06,15.79,40.59,5.77,14.81,11.62,29.59,17.28,44.44,3.53,9.26,3.5,18.69.42,28.07-6.15,18.72-24.15,30.3-41.08,30.34-11.47.03-21.51-3.8-30.04-10.77-5.52-4.51-9.26-11.05-11.94-17.83-5.31-13.41-10.42-26.89-15.6-40.35-4.44-11.53-8.89-23.06-13.72-35.61Z"/>
    <path class="cls-2" d="m43.15,292.37c-18.93.14-35.66-12.73-41.35-31.19-3.67-11.91-1.27-22.96,3.09-34.03,11.23-28.49,22.39-57,33.52-85.53,11.8-30.25,23.83-60.41,35.16-90.83,6.68-17.94,24.1-29.37,42.05-29.01,23.76.48,41.88,19.16,43.07,41.57.54,10.2-3.11,19.05-6.63,28.12-13.86,35.63-27.67,71.28-41.54,106.9-8.78,22.55-17.35,45.18-26.57,67.55-6.75,16.4-22.96,26.45-40.79,26.45Z"/>
    <path class="cls-5" d="m257.89,22.36c22.78-.55,39.45,16.15,43.11,36.69,1.83,10.27-1.18,19.71-4.86,29.13-18.49,47.35-36.82,94.77-55.27,142.14-4.84,12.44-9.4,25.01-14.92,37.15-11.02,24.2-44.48,33.81-66.74,15.44-8.29-6.84-13.38-15.47-15.49-25.93-2.05-10.14-.06-19.7,3.78-29.14,4.42-10.86,8.36-21.91,12.63-32.83,3.88-9.92,8.02-19.73,11.86-29.66,4.4-11.39,8.3-22.98,12.99-34.25,3.09-7.43,6.03-14.91,8.9-22.41,5-13.08,10.4-26,15.05-39.21,2.64-7.5,5.71-14.88,9.1-22.08,7.91-16.79,21.57-24.7,39.87-25.04Z"/>
    <path class="cls-6" d="m732.38,175.41c4.48-7.38,10.29-13.4,16.98-18.67,15.4-12.12,33.07-15.56,51.92-12.64,24.04,3.72,41.71,16.73,51.97,38.95,5.67,12.28,6.42,25.35,3.78,38.53-4.25,21.19-15.99,37.1-34.78,47.67-10.59,5.95-22.2,8.02-34.28,8.2-9.89.14-19.74-.69-28.9-4.13-11.56-4.35-21.66-11.07-29.32-21.34-6.95-9.33-12.06-19.38-15.48-30.42-2.7-8.73-4.08-17.66-5.26-26.71-1.18-9.06-.82-18.12-.53-27.08.4-12.12,2.32-24.2,5.49-36.03,2.56-9.57,6.22-18.71,10.91-27.34,3.23-5.95,7.28-11.44,12.03-16.49,5.9-6.28,12.17-11.92,20.02-15.35,11.05-4.83,22.57-7.01,34.82-6.01,9.07.74,17.75,2.1,26,6.11,10.56,5.12,18.91,12.58,25,22.56,4.73,7.74,7.69,16.14,9.24,25.09.28,1.65-.09,1.92-1.54,1.91-6.37-.04-12.75-.08-19.12.02-1.99.03-2.11-1.17-2.43-2.57-1.73-7.41-4.86-14.17-10.21-19.67-16.69-17.14-45.43-16.67-62.96.82-10.54,10.51-16.16,23.52-19.48,37.69-2.82,12.07-4.09,24.35-3.87,36.91Zm53.75-10.82c-3.32.32-6.92.39-10.51.99-28.73,4.8-45.96,38.05-33.1,64.31,8.72,17.79,23.79,25.57,42.99,25.8,37.21.45,56.11-31.86,44.91-63.45-5.96-16.8-23.61-27.61-44.28-27.65Z"/>
    <path class="cls-6" d="m1057.08,171.71c-.13,20.96-3.26,40.85-12.43,59.37-7.68,15.52-18.65,28.14-34.11,36.52-13.98,7.58-29,10.12-44.74,9.78-17.25-.37-32.97-5.38-46.83-15.54-10.41-7.64-18.02-17.85-23.81-29.33-5.96-11.83-9.44-24.41-11.39-37.53-1.47-9.95-1.41-19.88-1.33-29.85.12-14.3,2.57-28.2,7.4-41.63,4.1-11.41,9.95-21.76,18.04-31.03,14.27-16.34,32.32-24.02,53.54-25.84,15.75-1.35,30.89.59,45.17,7.32,19.4,9.14,32.31,24.55,40.5,44.05,5.32,12.66,8.29,25.91,9.26,39.68.34,4.85.43,9.69.73,14.05Zm-149.55,1.91c-.09,19.45,3.83,39.77,16.33,57.92,16.55,24.02,49.62,31.63,74.27,16.49,15.84-9.73,24.66-24.69,29.56-42.12,4.51-16.05,5.24-32.5,3.61-49.01-1.92-19.56-7.93-37.52-21.93-52.03-13.43-13.92-30.03-18.85-48.8-16.06-19.28,2.86-32.25,14.78-41.5,31.18-9.02,16-11.57,33.53-11.54,53.63Z"/>
    <path class="cls-4" d="m642.04,162.31c3.28,2.25,6.83,2.59,9.92,4.1,18.94,9.27,29.3,24.03,30.11,45.42.53,14.12-2.31,27.12-10.41,38.9-6.81,9.9-15.94,16.61-26.81,21.47-10.17,4.54-20.9,4.74-31.66,5.19-8.8.37-17.58-.8-25.79-3.4-8.54-2.7-16.85-6.56-23.48-13.23-5.21-5.25-10.38-10.42-13.61-17.21-2.47-5.21-4.22-10.63-5.4-16.28-.77-3.65-.67-7.34-1.11-11-.27-2.24.24-3.11,2.7-3.05,6.37.16,12.75.15,19.12,0,2.34-.05,2.97.83,3.07,3.02.45,10.9,5.01,20,12.54,27.72,7.98,8.18,18.03,11.49,29.14,12.02,7.95.38,15.89.09,23.32-3.2,12.05-5.34,20.1-14.44,22.65-27.33,1.81-9.16,2.38-18.72-2.16-27.55-4.13-8.04-10.06-14.11-18.64-17.73-11.79-4.97-23.99-6.54-36.63-6.17-6.86.2-6.87.04-6.87-7.01,0-3.62.14-7.25-.05-10.87-.11-2.21.7-2.67,2.75-2.64,8.23.14,16.44.01,24.63-1.23,9.33-1.42,17.22-5.59,23.34-12.53,3.46-3.93,5.25-8.86,5.63-14.49.17-2.47.63-5.21.78-7.78.38-6.41-1.91-11.99-5.73-17.17-4.93-6.68-11.38-10.5-19.49-11.77-13.41-2.09-26.3-1.32-36.53,8.85-6.07,6.02-10.35,13.37-11.13,22.25-.2,2.32-1.16,3.35-3.77,3.25-5.86-.22-11.74-.07-17.62-.07-3.95,0-4.74-.82-4.04-4.78,1.82-10.31,5.06-20.09,11.4-28.61,7.37-9.9,16.88-16.62,28.88-19.9,15.78-4.32,31.51-4.68,47.19.19,8.59,2.67,16.18,7.14,22.53,13.66,7.97,8.18,11.9,18.04,13.01,29.31,1.37,13.83-2.46,26.08-10.9,36.86-5.19,6.62-12.6,10.1-20.86,12.78Z"/>
    <path class="cls-1" d="m1090.68,91.46c-23.76.59-44.66-21.32-44.36-45.76.31-25.09,19.92-46.09,46.28-45.69,25.14.38,46.02,20.31,45.37,47.42-.57,23.51-20.46,44.92-47.29,44.03Zm-13.82-85.14c-11.59,4.44-19.53,12.55-24.11,24.02-.22.39-.45.8.03,1.14.03.02.38-.4.59-.61,4.23-3.26,8.66-6.18,13.68-8.1.97-.37,1.64-.88,2.01-1.96,1.82-5.2,4.98-9.64,8.25-14,.32-.1.75-.19.47-.63-.07-.1-.6.09-.92.14Zm-23.19,54.54c-.34-.24-.69-.48-1.03-.72-.31.61-.14,1.11.35,1.54,3.91,11,16.52,22.93,24.75,23.43-3.83-4.48-5.67-10.44-9.21-14.72-3.56-4.29-10.46-5.35-14.86-9.52Zm19.96-40.48c3.67-.56,7.33-1.21,11.01-1.67,8.84-1.11,17.55.02,26.23,1.61.15.14.3.27.45.41.02-.29.05-.59.07-.88-1.68-4.35-4.15-8.22-7.51-11.44-6.81-6.54-15.71-6.73-22.74-.43-3.65,3.27-6.34,7.29-7.92,11.99-.34.24-.54.52-.09.82.06.04.33-.26.5-.4Zm18.7,49.68c6.27.03,12.44-.7,18.5-2.37,1.75-.48,2.72-1.18,3.22-3.05,3.33-12.47,3.35-24.89.05-37.36-.47-1.79-1.2-2.8-3.03-3.28-12.59-3.29-25.16-3.29-37.73.05-1.59.42-2.46,1.25-2.9,2.95-3.26,12.59-3.36,25.15.04,37.73.45,1.65,1.31,2.41,2.97,2.87,6.19,1.72,12.47,2.49,18.87,2.45Zm25.08-4.9c11.01-4.06,17.94-12.27,17.32-20.15-.6-7.68-8.58-16.19-17.28-18.15,1.51,6.31,2.39,12.58,2.43,18.94.04,6.38-.97,12.64-2.48,19.35Zm-5.85,5.73c-12.87,3.43-25.58,3.2-38.55.11,3.97,10.66,11.53,17.31,19.23,17.34,7.73.03,15.45-6.82,19.32-17.45Zm-44.34-5.8c-3.52-12.99-3.16-25.55-.21-38.24-9.19,2.34-16.77,10.72-17.09,18.53-.33,7.85,6.38,15.74,17.3,19.7Zm64.61-33.44c-1.44-9.87-16.32-24.86-24.73-24.69,3.73,4.38,6.62,8.98,8.45,14.18.26.75.83,1.15,1.59,1.45,5.36,2.11,10.25,5.04,14.7,9.06Zm-25.71,53.85c10.77-2.33,24.55-15.89,24.9-24.69-4.63,3.85-9.47,6.5-14.61,8.56-.94.38-.99,1.39-1.31,2.16-2.07,4.96-4.66,9.61-8.98,13.96Z"/>
  </g>
</svg>