<?xml version="1.0" encoding="UTF-8"?>
<svg id="Layer_2" data-name="Layer 2" xmlns="http://www.w3.org/2000/svg" viewBox="0 0 879.13 407.62">
  <defs>
    <style>
      .cls-1 {
        fill: #fff;
        stroke-width: 0px;
      }
    </style>
  </defs>
  <g id="MPay-white">
    <path class="cls-1" d="m214.35,407.58c-59.37,0-118.75.12-178.12-.08-17.49-.06-31.91-11.48-35.02-28.02-.62-3.28-1.15-6.64-1.15-9.96C0,258.64-.03,147.76.05,36.87.06,20.07,9.92,6.72,24.88,2.36,29.36,1.06,34.14.14,38.78.13c117.75-.12,235.5-.25,353.25.05,20.51.05,36.52,13.85,36.77,36.23.12,10.87.02,21.75.02,32.63,0,100.39.01,200.77,0,301.16,0,15.17-6.03,27.07-20.15,33.51-5.06,2.31-11.01,3.7-16.56,3.72-59.25.26-118.5.16-177.75.16Zm.26-8.46c59.12,0,118.25-.24,177.37.16,15.92.11,28.93-12.26,28.89-29.02-.25-110.88-.26-221.77,0-332.65.04-16.44-12.54-29.16-29.2-29.12-118.25.27-236.49.14-354.74.15-17.19,0-28.65,11.44-28.65,28.72-.02,111.01.08,222.02-.11,333.03-.03,16.57,12.94,29.02,29.07,28.9,59.12-.41,118.25-.16,177.37-.17Z"/>
    <path class="cls-1" d="m471.86,150.84h19.66v19.67c4.8-4.3,8.86-8.72,13.66-12.1,24.62-17.35,56.24-13.36,76.43,9.36,25.69,28.91,21.66,74.13-8.72,97.98-22.49,17.65-55.54,15.33-75.41-5.3-1.73-1.79-3.42-3.62-5.69-6.03v90.45h-19.92v-194.03Zm19.72,62.05c.36,25.86,19.4,45.16,44.29,44.87,24.06-.28,43.36-20.94,42.99-46.03-.36-24.52-20.47-44.42-44.52-44.06-24.14.36-43.09,20.41-42.75,45.22Z"/>
    <path class="cls-1" d="m742.92,274.48h-19.24v-20.47c-3.49,3.45-6.33,6.49-9.42,9.26-25.51,22.84-67.61,18.79-88.28-15.4-18.46-30.53-9.74-71.46,19.7-90.99,23.73-15.75,55.33-10.93,74.85,11.42.79.91,1.59,1.81,2.89,3.28v-20.65h19.5v123.56Zm-63.29-106.84c-24.21.07-43.72,20.18-43.57,44.91.16,25.56,19.15,45.2,43.69,45.21,23.99,0,43.96-20.68,43.78-45.34-.18-24.65-19.99-44.85-43.91-44.78Z"/>
    <path class="cls-1" d="m759.74,150.64c7.39,0,14.22-.12,21.04.14.97.04,2.19,1.75,2.77,2.95,12.06,25.08,24.05,50.19,36.06,75.29.62,1.3,1.31,2.56,2.32,4.52,2.44-5.68,4.59-10.67,6.72-15.66,9.07-21.22,18.18-42.43,27.16-63.7,1.12-2.66,2.43-3.81,5.48-3.65,5.73.3,11.48.09,17.84.09-.5,1.45-.81,2.58-1.27,3.64-27.62,62.68-55.25,125.36-82.95,188.01-.51,1.15-1.85,2.71-2.85,2.75-7.2.24-14.42.13-22.1.13.58-1.47.92-2.48,1.36-3.45,12.92-28.12,25.83-56.24,38.84-84.32,1-2.15.98-3.76-.09-5.88-16.2-32.22-32.31-64.49-48.43-96.75-.59-1.19-1.12-2.41-1.9-4.11Z"/>
    <path class="cls-1" d="m359.62,281.98c-9.64-8.33-10.01-18.91-10.07-29.26-.25-42.62-.21-85.25-.23-127.87,0-18.37-.08-36.75.25-55.12.09-5.18.78-10.59,2.52-15.42,1.53-4.23,4.91-7.78,7.53-11.71-.41-.04-1.44-.23-2.46-.23-22.75-.01-45.5.06-68.24-.07-3.3-.02-4.87,1.15-6.01,4.18-21.81,57.72-43.7,115.41-65.6,173.09-.44,1.15-1.02,2.24-2.57,3.6-27.11-67.52-54.22-135.04-81.57-203.18,2.11-.22,3.41-.47,4.71-.47,82.62-.02,165.24-.02,247.85,0,11.48,0,18.91,4.67,22.01,13.94.77,2.31.97,4.9.98,7.37.05,80.75.04,161.5.04,242.26,0,13.9-8.16,22.03-22.21,22.03-39.5.03-78.99.01-118.49.01-5.62,0-11.25-.08-16.87.03-2.43.05-3.9-.68-4.84-3.1-3.76-9.66-7.8-19.21-11.48-28.9-.63-1.67-.54-4.04.13-5.71,22.79-57.07,45.69-114.09,68.57-171.13,2.19-5.45,4.29-10.93,6.5-16.37.42-1.04,1.14-1.95,1.72-2.92.3.08.6.17.9.25.1,1.19.27,2.38.27,3.56,0,54-.02,108-.06,162,0,4,.01,8.01-.3,11.99-.74,9.54-.48,19.44-9.3,27.15h56.32Z"/>
    <path class="cls-1" d="m114.14,81.66c8.15,19.69,16.3,39.38,24.44,59.08,15.74,38.08,31.17,76.3,47.34,114.2,7.13,16.71,20.7,25.85,38.89,27.68,2.47.25,3.82,1.09,4.69,3.4,2.23,5.92,4.66,11.77,7.24,18.23-1.98.19-3.28.43-4.58.43-63.12.02-126.25-.02-189.37.04-13.89.01-22.1-9.92-22.05-21.98.29-80.38.27-160.76.01-241.15-.04-11.33,7.64-21.42,20.9-21.45,25.87-.04,51.75,0,77.62-.05,2.42,0,3.84.74,4.74,3.2,2.18,5.93,4.68,11.75,7.43,18.51H62.9c.83,1.37,1.01,2.05,1.44,2.3,7.97,4.55,9.57,12.38,10.38,20.48.47,4.72.54,9.49.54,14.23.03,54.88.07,109.76-.04,164.64-.02,7.48-.75,14.96-1.33,22.42-.49,6.2-3.08,11.48-8.07,15.46,2.68,1.77,53.45,2.08,57.44.5-.19-.43-.27-1-.59-1.24-6.29-4.69-8.04-11.56-8.79-18.76-.55-5.34-.8-10.73-.8-16.09-.05-53.38-.03-106.76-.03-160.14,0-1.3,0-2.6,0-3.9.37-.02.73-.04,1.1-.06Z"/>
    <path class="cls-1" d="m97.55,369.08h-7.8c0-9.24.04-18.3-.02-27.36-.02-3.12-.18-6.25-.51-9.34-.62-5.91-5.78-9.14-11.39-7.18-1.63.57-3.21,1.33-4.75,2.14-4.35,2.28-6.45,5.53-6.23,10.83.41,10.2.12,20.44.12,30.89h-8.1c0-11.49.21-22.67-.06-33.85-.22-8.95-5.87-12.45-14.15-9.22-6.53,2.54-8.86,5.95-8.86,12.96,0,5.75-.08,11.49.03,17.24.07,4.08.38,8.16.61,12.7h-8.67c.32-14.91,1.76-29.77-1.05-45.17,2.25-.8,5.21-1.86,8.73-3.12.15,1.96.16,3.4.41,4.8.16.91.47,2.21,1.09,2.49.61.28,1.76-.41,2.57-.85,3.35-1.85,6.49-4.25,10.04-5.55,6.03-2.21,11.26-.25,15.03,5.07,1.7,2.41,3.09,2.63,5.4.66,4.42-3.78,9.26-6.75,15.48-6.48,6.39.28,10.4,3.34,11.48,9.66.6,3.54.56,7.21.58,10.82.07,9.09.02,18.18.02,27.88Z"/>
    <path class="cls-1" d="m286.27,323.7c2.56-.92,5.65-2.04,9.63-3.47v49.06c-1.62,0-3.85.22-6-.12-.81-.13-1.81-1.47-2.03-2.42-.82-3.53-1.25-3.82-4.2-1.58-4.54,3.44-9.43,5.56-15.28,4.92-6.68-.73-10.66-4.79-10.93-12.01-.3-7.86-.03-15.74-.24-23.61-.09-3.41-.77-6.8-1.25-10.79,2.29-.83,5.26-1.92,8.81-3.21.2,1.99.45,3.4.46,4.81.04,9.5-.02,18.99.05,28.49.02,2.1.21,4.27.76,6.29.88,3.23,3.01,5.38,6.45,6.05,7.14,1.39,15.28-5.18,15.29-12.38,0-6.75.13-13.5-.07-20.24-.09-3.03-.87-6.04-1.45-9.79Z"/>
    <path class="cls-1" d="m359.19,322.32h9.43c3.46,8.93,6.73,17.38,10,25.84.81,2.1,1.55,4.22,2.47,6.27.32.72,1.01,1.63,1.65,1.73.57.09,1.64-.68,1.89-1.31,3.69-9.13,7.33-18.29,10.83-27.49.5-1.32.23-2.93.34-4.85h6.4c-4.76,11.15-9.54,22.36-14.33,33.56-3.29,7.69-6.49,15.41-9.93,23.03-1.8,3.99-4.61,7.46-9.08,8.28-2.61.48-5.71.02-8.18-1.01-2.24-.94-3.98-3.2-2.26-6.15,1.68-2.89,4.25-2.68,6.9-1.87.79.24,1.44.97,2.15,1.48,3.12,2.22,5.12,2.02,7.2-1.22,2.86-4.47,4.88-8.85,2.27-14.6-6.17-13.6-11.74-27.46-17.74-41.67Z"/>
    <path class="cls-1" d="m151.32,359.54c-4.63,8.67-14.33,12.3-24.8,10.03-8.84-1.92-16.55-10.06-17.77-18.75-1.72-12.31,3.3-23.02,13.04-27.85,13.09-6.49,28.24,1.09,30.91,15.29.55,2.92-.53,3.56-3.02,3.55-8.87-.03-17.73-.04-26.6-.01-5.34.02-6.22.99-5.35,6.23.45,2.7.95,5.46,1.95,7.98,4.77,12.08,16.68,15.17,27.12,7.17,1.53-1.18,3.01-2.42,4.52-3.63Zm-20.43-20.08s0-.04,0-.06c3.23,0,6.47.07,9.7-.02,2.22-.07,3.36-1.24,3.24-3.61-.23-4.78-2.07-8.74-6.15-11.29-4.01-2.51-8.36-2.44-12.36-.01-4.61,2.79-6.7,7.28-6.81,12.53-.02.8,1.92,2.23,3.06,2.35,3.07.33,6.21.11,9.32.11Z"/>
    <path class="cls-1" d="m244.95,358.25c-2.9,7.13-12.78,12.43-21.54,11.92-16.3-.95-26.27-17.57-20.06-33.43,5.51-14.08,22.63-20.37,35.78-13.02,1.76.99,3.32,2.63,4.5,4.3,1.41,1.98.89,4.05-1.05,5.63-1.99,1.62-4.16,2.01-6.04.07-1.35-1.4-2.54-3.1-3.33-4.88-3.84-8.68-14.15-7.32-18.36-.64-4.79,7.6-5.58,22.55.56,30.99,5.42,7.46,14.92,9.4,22.85,4.24,2.23-1.45,4.23-3.27,6.68-5.19Z"/>
    <path class="cls-1" d="m322.45,369.1h-7.58c0-7.73.24-15.28-.07-22.81-.3-7.37,1.7-14.99-2.2-22.32,2.98-1.06,5.86-2.09,9.49-3.39.14,2.39.13,4.3.41,6.17.15,1.01.79,1.94,1.21,2.91.96-.42,2.05-.68,2.86-1.3,2.85-2.2,5.36-4.96,8.47-6.65,2.11-1.15,5.04-1.33,7.52-1.1,2.92.26,4.3,3.04,3.59,5.9-.61,2.47-3.64,4.13-6.17,3.38-.48-.14-.92-.39-1.38-.57-8.89-3.48-16.13,1.55-16.15,11.23-.02,9.32,0,18.65,0,28.55Z"/>
    <path class="cls-1" d="m176.28,369.04h-9.11c.37-15.17,1.69-30.04-.94-45.34,2.19-.79,5.08-1.84,9.05-3.28,0,2.62-.09,4.63.04,6.63.06.91.57,1.79.88,2.69.97-.37,2.09-.55,2.88-1.16,2.85-2.2,5.41-4.83,8.44-6.72,1.78-1.11,4.32-1.7,6.37-1.43,1.8.24,3.9,1.7,4.88,3.24.63.99-.09,3.46-1,4.65-1.44,1.87-3.54,2.25-6.04,1.22-6.84-2.83-10.29-2.06-14.24,3.36-1.23,1.69-2.04,4.06-2.11,6.14-.25,7.61-.16,15.24-.05,22.86.03,2.2.57,4.39.94,7.12Z"/>
  </g>
</svg>