<svg width="880" height="733" viewBox="0 0 880 733" fill="none" xmlns="http://www.w3.org/2000/svg">
<g clip-path="url(#clip0_157_1881)">
<path d="M214.351 570.58C154.981 570.58 95.6005 570.7 36.2305 570.5C18.7405 570.44 4.3205 559.02 1.2105 542.48C0.590497 539.2 0.060497 535.84 0.060497 532.52C0.000497051 421.64 -0.0295029 310.76 0.0504971 199.87C0.0604971 183.07 9.9205 169.72 24.8805 165.36C29.3605 164.06 34.1405 163.14 38.7805 163.13C156.53 163.01 274.28 162.88 392.03 163.18C412.54 163.23 428.55 177.03 428.8 199.41C428.92 210.28 428.82 221.16 428.82 232.04C428.82 332.43 428.83 432.81 428.82 533.2C428.82 548.37 422.791 560.27 408.671 566.71C403.611 569.02 397.66 570.41 392.11 570.43C332.86 570.69 273.611 570.59 214.361 570.59L214.351 570.58ZM214.611 562.12C273.731 562.12 332.861 561.88 391.98 562.28C407.9 562.39 420.91 550.02 420.87 533.26C420.62 422.38 420.61 311.49 420.87 200.61C420.91 184.17 408.331 171.45 391.671 171.49C273.421 171.76 155.18 171.63 36.9305 171.64C19.7405 171.64 8.2805 183.08 8.2805 200.36C8.2605 311.37 8.3605 422.38 8.1705 533.39C8.1405 549.96 21.1105 562.41 37.2405 562.29C96.3605 561.88 155.491 562.13 214.611 562.12Z" fill="#1E8E53"/>
<path d="M471.861 313.84H491.521V333.51C496.321 329.21 500.381 324.79 505.181 321.41C529.801 304.06 561.421 308.05 581.611 330.77C607.301 359.68 603.271 404.9 572.891 428.75C550.401 446.4 517.351 444.08 497.481 423.45C495.751 421.66 494.061 419.83 491.791 417.42V507.87H471.871V313.84H471.861ZM491.581 375.89C491.941 401.75 510.981 421.05 535.871 420.76C559.931 420.48 579.231 399.82 578.861 374.73C578.501 350.21 558.391 330.31 534.341 330.67C510.201 331.03 491.251 351.08 491.591 375.89H491.581Z" fill="black"/>
<path d="M742.921 437.48H723.681V417.01C720.191 420.46 717.351 423.5 714.261 426.27C688.751 449.11 646.651 445.06 625.981 410.87C607.521 380.34 616.241 339.41 645.681 319.88C669.411 304.13 701.011 308.95 720.531 331.3C721.321 332.21 722.121 333.11 723.421 334.58V313.93H742.921V437.49V437.48ZM679.631 330.64C655.421 330.71 635.911 350.82 636.061 375.55C636.221 401.11 655.211 420.75 679.751 420.76C703.741 420.76 723.711 400.08 723.531 375.42C723.351 350.77 703.541 330.57 679.621 330.64H679.631Z" fill="black"/>
<path d="M759.74 313.64C767.13 313.64 773.96 313.52 780.78 313.78C781.75 313.82 782.97 315.53 783.55 316.73C795.61 341.81 807.6 366.92 819.61 392.02C820.23 393.32 820.92 394.58 821.93 396.54C824.37 390.86 826.52 385.87 828.65 380.88C837.72 359.66 846.83 338.45 855.81 317.18C856.93 314.52 858.24 313.37 861.29 313.53C867.02 313.83 872.77 313.62 879.13 313.62C878.63 315.07 878.32 316.2 877.86 317.26C850.24 379.94 822.61 442.62 794.91 505.27C794.4 506.42 793.06 507.98 792.06 508.02C784.86 508.26 777.64 508.15 769.96 508.15C770.54 506.68 770.88 505.67 771.32 504.7C784.24 476.58 797.15 448.46 810.16 420.38C811.16 418.23 811.14 416.62 810.07 414.5C793.87 382.28 777.76 350.01 761.64 317.75C761.05 316.56 760.52 315.34 759.74 313.64Z" fill="black"/>
<path d="M359.62 444.98C349.98 436.65 349.61 426.07 349.55 415.72C349.3 373.1 349.34 330.47 349.32 287.85C349.32 269.48 349.24 251.1 349.57 232.73C349.66 227.55 350.35 222.14 352.09 217.31C353.62 213.08 357 209.53 359.62 205.6C359.21 205.56 358.18 205.37 357.16 205.37C334.41 205.37 311.66 205.43 288.92 205.3C285.62 205.28 284.05 206.45 282.91 209.48C261.1 267.2 239.21 324.89 217.31 382.57C216.87 383.72 216.29 384.81 214.74 386.17C187.63 318.65 160.52 251.13 133.17 182.99C135.28 182.77 136.58 182.52 137.88 182.52C220.5 182.5 303.12 182.5 385.73 182.52C397.21 182.52 404.64 187.19 407.74 196.46C408.51 198.77 408.71 201.36 408.72 203.83C408.77 284.58 408.76 365.33 408.76 446.09C408.76 459.99 400.6 468.12 386.55 468.12C347.05 468.15 307.56 468.13 268.06 468.13C262.44 468.13 256.81 468.05 251.19 468.16C248.76 468.21 247.29 467.48 246.35 465.06C242.59 455.4 238.55 445.85 234.87 436.16C234.24 434.49 234.33 432.12 235 430.45C257.79 373.38 280.69 316.36 303.57 259.32C305.76 253.87 307.86 248.39 310.07 242.95C310.49 241.91 311.21 241 311.79 240.03C312.09 240.11 312.39 240.2 312.69 240.28C312.79 241.47 312.96 242.66 312.96 243.84C312.96 297.84 312.94 351.84 312.9 405.84C312.9 409.84 312.91 413.85 312.6 417.83C311.86 427.37 312.12 437.27 303.3 444.98H359.62Z" fill="black"/>
<path d="M114.14 244.66C122.29 264.35 130.44 284.04 138.58 303.74C154.32 341.82 169.75 380.04 185.92 417.94C193.05 434.65 206.62 443.79 224.81 445.62C227.28 445.87 228.63 446.71 229.5 449.02C231.73 454.94 234.16 460.79 236.74 467.25C234.76 467.44 233.46 467.68 232.16 467.68C169.04 467.7 105.91 467.66 42.7905 467.72C28.9005 467.73 20.6905 457.8 20.7405 445.74C21.0305 365.36 21.0105 284.98 20.7505 204.59C20.7105 193.26 28.3905 183.17 41.6505 183.14C67.5205 183.1 93.4005 183.14 119.27 183.09C121.69 183.09 123.11 183.83 124.01 186.29C126.19 192.22 128.69 198.04 131.44 204.8H62.9005C63.7305 206.17 63.9105 206.85 64.3405 207.1C72.3105 211.65 73.9105 219.48 74.7205 227.58C75.1905 232.3 75.2605 237.07 75.2605 241.81C75.2905 296.69 75.3305 351.57 75.2205 406.45C75.2005 413.93 74.4705 421.41 73.8905 428.87C73.4005 435.07 70.8105 440.35 65.8205 444.33C68.5005 446.1 119.27 446.41 123.26 444.83C123.07 444.4 122.99 443.83 122.67 443.59C116.38 438.9 114.63 432.03 113.88 424.83C113.33 419.49 113.08 414.1 113.08 408.74C113.03 355.36 113.05 301.98 113.05 248.6V244.7C113.42 244.68 113.78 244.66 114.15 244.64V244.66H114.14Z" fill="#D1353C"/>
<path d="M97.5507 532.08H89.7507C89.7507 522.84 89.7907 513.78 89.7307 504.72C89.7107 501.6 89.5507 498.47 89.2207 495.38C88.6007 489.47 83.4407 486.24 77.8307 488.2C76.2007 488.77 74.6207 489.53 73.0807 490.34C68.7307 492.62 66.6307 495.87 66.8507 501.17C67.2607 511.37 66.9707 521.61 66.9707 532.06H58.8707C58.8707 520.57 59.0807 509.39 58.8107 498.21C58.5907 489.26 52.9407 485.76 44.6607 488.99C38.1307 491.53 35.8007 494.94 35.8007 501.95C35.8007 507.7 35.7207 513.44 35.8307 519.19C35.9007 523.27 36.2107 527.35 36.4407 531.89H27.7707C28.0907 516.98 29.5307 502.12 26.7207 486.72C28.9707 485.92 31.9307 484.86 35.4507 483.6C35.6007 485.56 35.6107 487 35.8607 488.4C36.0207 489.31 36.3307 490.61 36.9507 490.89C37.5607 491.17 38.7107 490.48 39.5207 490.04C42.8707 488.19 46.0107 485.79 49.5607 484.49C55.5907 482.28 60.8207 484.24 64.5907 489.56C66.2907 491.97 67.6807 492.19 69.9907 490.22C74.4107 486.44 79.2507 483.47 85.4707 483.74C91.8607 484.02 95.8707 487.08 96.9507 493.4C97.5507 496.94 97.5107 500.61 97.5307 504.22C97.6007 513.31 97.5507 522.4 97.5507 532.1V532.08Z" fill="#1E8E53"/>
<path d="M286.271 486.7C288.831 485.78 291.921 484.66 295.901 483.23V532.29C294.281 532.29 292.051 532.51 289.901 532.17C289.091 532.04 288.091 530.7 287.871 529.75C287.051 526.22 286.621 525.93 283.671 528.17C279.131 531.61 274.241 533.73 268.391 533.09C261.711 532.36 257.731 528.3 257.461 521.08C257.161 513.22 257.431 505.34 257.221 497.47C257.131 494.06 256.451 490.67 255.971 486.68C258.261 485.85 261.231 484.76 264.781 483.47C264.981 485.46 265.231 486.87 265.241 488.28C265.281 497.78 265.221 507.27 265.291 516.77C265.311 518.87 265.501 521.04 266.051 523.06C266.931 526.29 269.061 528.44 272.501 529.11C279.641 530.5 287.781 523.93 287.791 516.73C287.791 509.98 287.921 503.23 287.721 496.49C287.631 493.46 286.851 490.45 286.271 486.7Z" fill="#1E8E53"/>
<path d="M359.191 485.32H368.621C372.081 494.25 375.351 502.7 378.621 511.16C379.431 513.26 380.171 515.38 381.091 517.43C381.411 518.15 382.101 519.06 382.741 519.16C383.311 519.25 384.381 518.48 384.631 517.85C388.321 508.72 391.961 499.56 395.461 490.36C395.961 489.04 395.691 487.43 395.801 485.51H402.201C397.441 496.66 392.661 507.87 387.871 519.07C384.581 526.76 381.381 534.48 377.941 542.1C376.141 546.09 373.331 549.56 368.861 550.38C366.251 550.86 363.151 550.4 360.681 549.37C358.441 548.43 356.701 546.17 358.421 543.22C360.101 540.33 362.671 540.54 365.321 541.35C366.111 541.59 366.761 542.32 367.471 542.83C370.591 545.05 372.591 544.85 374.671 541.61C377.531 537.14 379.551 532.76 376.941 527.01C370.771 513.41 365.201 499.55 359.201 485.34V485.32H359.191Z" fill="#1E8E53"/>
<path d="M151.32 522.539C146.69 531.209 136.99 534.839 126.52 532.569C117.68 530.649 109.97 522.509 108.75 513.819C107.03 501.509 112.05 490.799 121.79 485.969C134.88 479.479 150.03 487.059 152.7 501.259C153.25 504.179 152.17 504.819 149.68 504.809C140.81 504.779 131.95 504.769 123.08 504.799C117.74 504.819 116.86 505.789 117.73 511.029C118.18 513.729 118.68 516.489 119.68 519.009C124.45 531.089 136.36 534.179 146.8 526.179C148.33 524.999 149.81 523.759 151.32 522.549V522.539ZM130.89 502.459V502.399C134.12 502.399 137.36 502.469 140.59 502.379C142.81 502.309 143.95 501.139 143.83 498.769C143.6 493.989 141.76 490.029 137.68 487.479C133.67 484.969 129.32 485.039 125.32 487.469C120.71 490.259 118.62 494.749 118.51 499.999C118.49 500.799 120.43 502.229 121.57 502.349C124.64 502.679 127.78 502.459 130.89 502.459Z" fill="#1E8E53"/>
<path d="M244.95 521.249C242.05 528.379 232.17 533.679 223.41 533.169C207.11 532.219 197.14 515.599 203.35 499.739C208.86 485.659 225.98 479.369 239.13 486.719C240.89 487.709 242.45 489.349 243.63 491.019C245.04 492.999 244.52 495.069 242.58 496.649C240.59 498.269 238.42 498.659 236.54 496.719C235.19 495.319 234 493.619 233.21 491.839C229.37 483.159 219.06 484.519 214.85 491.199C210.06 498.799 209.27 513.749 215.41 522.189C220.83 529.649 230.33 531.589 238.26 526.429C240.49 524.979 242.49 523.159 244.94 521.239L244.95 521.249Z" fill="#1E8E53"/>
<path d="M322.45 532.1H314.87C314.87 524.37 315.11 516.82 314.8 509.29C314.5 501.92 316.5 494.3 312.6 486.97C315.58 485.91 318.46 484.88 322.09 483.58C322.23 485.97 322.22 487.88 322.5 489.75C322.65 490.76 323.29 491.69 323.71 492.66C324.67 492.24 325.76 491.98 326.57 491.36C329.42 489.16 331.93 486.4 335.04 484.71C337.15 483.56 340.08 483.38 342.56 483.61C345.48 483.87 346.86 486.65 346.15 489.51C345.54 491.98 342.51 493.64 339.98 492.89C339.5 492.75 339.06 492.5 338.6 492.32C329.71 488.84 322.47 493.87 322.45 503.55C322.43 512.87 322.45 522.2 322.45 532.1Z" fill="#1E8E53"/>
<path d="M176.28 532.04H167.17C167.54 516.87 168.86 502 166.23 486.7C168.42 485.91 171.31 484.86 175.28 483.42C175.28 486.04 175.19 488.05 175.32 490.05C175.38 490.96 175.89 491.84 176.2 492.74C177.17 492.37 178.29 492.19 179.08 491.58C181.93 489.38 184.49 486.75 187.52 484.86C189.3 483.75 191.84 483.16 193.89 483.43C195.69 483.67 197.79 485.13 198.77 486.67C199.4 487.66 198.68 490.13 197.77 491.32C196.33 493.19 194.23 493.57 191.73 492.54C184.89 489.71 181.44 490.48 177.49 495.9C176.26 497.59 175.45 499.96 175.38 502.04C175.13 509.65 175.22 517.28 175.33 524.9C175.36 527.1 175.9 529.29 176.27 532.02V532.04H176.28Z" fill="#1E8E53"/>
</g>
<defs>
<clipPath id="clip0_157_1881">
<rect width="879.13" height="407.62" fill="white" transform="translate(0 163)"/>
</clipPath>
</defs>
</svg>
