<svg width="40" height="40" viewBox="0 0 40 40" fill="none" xmlns="http://www.w3.org/2000/svg">
<path d="M7.19922 3.2002C4.99961 3.2002 3.19922 5.00058 3.19922 7.2002V32.8002C3.19922 34.9998 4.99961 36.8002 7.19922 36.8002H20.6648C20.7512 36.8145 20.8394 36.8145 20.9258 36.8002H25.4648C25.5512 36.8145 25.6394 36.8145 25.7258 36.8002H32.7992C34.9988 36.8002 36.7992 34.9998 36.7992 32.8002V7.2002C36.7992 5.00058 34.9988 3.2002 32.7992 3.2002H7.19922ZM7.19922 4.8002H32.7992C34.134 4.8002 35.1992 5.86541 35.1992 7.2002V32.8002C35.1992 34.135 34.134 35.2002 32.7992 35.2002H26.3992V24.0002H29.4555L30.5758 18.4002H26.3992V16.8002C26.3992 16.3542 26.4417 16.3193 26.5914 16.2221C26.7412 16.1248 27.2039 16.0002 27.9992 16.0002H30.3992V11.4955L29.943 11.2783C29.943 11.2783 28.1053 10.4002 25.5992 10.4002C23.7992 10.4002 22.3205 11.1174 21.3742 12.3002C20.4279 13.483 19.9992 15.0669 19.9992 16.8002V18.4002H17.5992V24.0002H19.9992V35.2002H7.19922C5.86443 35.2002 4.79922 34.135 4.79922 32.8002V7.2002C4.79922 5.86541 5.86443 4.8002 7.19922 4.8002ZM25.5992 12.0002C27.2625 12.0002 28.3091 12.367 28.7992 12.5611V14.4002H27.9992C27.0786 14.4002 26.3408 14.4764 25.7195 14.8799C25.0983 15.2834 24.7992 16.0494 24.7992 16.8002V20.0002H28.6227L28.143 22.4002H24.7992V35.2002H21.5992V22.4002H19.1992V20.0002H21.5992V16.8002C21.5992 15.3335 21.9705 14.1174 22.6242 13.3002C23.2779 12.483 24.1992 12.0002 25.5992 12.0002Z" fill="black"/>
</svg>
