<svg width="40" height="40" viewBox="0 0 40 40" fill="none" xmlns="http://www.w3.org/2000/svg">
<path d="M12.7984 2.3999C7.06442 2.3999 2.39844 7.06589 2.39844 12.7999V27.1999C2.39844 32.9339 7.06442 37.5999 12.7984 37.5999H27.1984C32.9325 37.5999 37.5984 32.9339 37.5984 27.1999V12.7999C37.5984 7.06589 32.9325 2.3999 27.1984 2.3999H12.7984ZM12.7984 3.9999H27.1984C32.0676 3.9999 35.9984 7.93072 35.9984 12.7999V27.1999C35.9984 32.0691 32.0676 35.9999 27.1984 35.9999H12.7984C7.92925 35.9999 3.99844 32.0691 3.99844 27.1999V12.7999C3.99844 7.93072 7.92925 3.9999 12.7984 3.9999ZM29.5984 8.7999C29.1741 8.7999 28.7671 8.96847 28.4671 9.26853C28.167 9.56859 27.9984 9.97556 27.9984 10.3999C27.9984 10.8242 28.167 11.2312 28.4671 11.5313C28.7671 11.8313 29.1741 11.9999 29.5984 11.9999C30.0228 11.9999 30.4298 11.8313 30.7298 11.5313C31.0299 11.2312 31.1984 10.8242 31.1984 10.3999C31.1984 9.97556 31.0299 9.56859 30.7298 9.26853C30.4298 8.96847 30.0228 8.7999 29.5984 8.7999ZM19.9984 11.1999C15.1478 11.1999 11.1984 15.1493 11.1984 19.9999C11.1984 24.8505 15.1478 28.7999 19.9984 28.7999C24.8491 28.7999 28.7984 24.8505 28.7984 19.9999C28.7984 15.1493 24.8491 11.1999 19.9984 11.1999ZM19.9984 12.7999C23.9844 12.7999 27.1984 16.014 27.1984 19.9999C27.1984 23.9858 23.9844 27.1999 19.9984 27.1999C16.0125 27.1999 12.7984 23.9858 12.7984 19.9999C12.7984 16.014 16.0125 12.7999 19.9984 12.7999Z" fill="black"/>
</svg>
