<svg width="40" height="40" viewBox="0 0 40 40" fill="none" xmlns="http://www.w3.org/2000/svg">
<path d="M7.19922 3.2002C4.99961 3.2002 3.19922 5.00058 3.19922 7.2002V32.8002C3.19922 34.9998 4.99961 36.8002 7.19922 36.8002H32.7992C34.9988 36.8002 36.7992 34.9998 36.7992 32.8002V7.2002C36.7992 5.00058 34.9988 3.2002 32.7992 3.2002H7.19922ZM7.19922 4.8002H32.7992C34.134 4.8002 35.1992 5.86541 35.1992 7.2002V32.8002C35.1992 34.135 34.134 35.2002 32.7992 35.2002H7.19922C5.86443 35.2002 4.79922 34.135 4.79922 32.8002V7.2002C4.79922 5.86541 5.86443 4.8002 7.19922 4.8002ZM11.1992 8.80957C10.323 8.80957 9.53459 9.07146 8.95078 9.5627C8.36697 10.0539 8.00859 10.7878 8.00859 11.5736C8.00859 13.0674 9.30425 14.2319 10.9523 14.3471L10.9555 14.3486C11.034 14.3754 11.1163 14.3896 11.1992 14.3908C13.0176 14.3908 14.3898 13.1171 14.3898 11.5736C14.3897 11.5596 14.3892 11.5455 14.3883 11.5314C14.3069 10.0113 12.9516 8.80957 11.1992 8.80957ZM11.1992 10.3908C12.313 10.3908 12.7528 10.8882 12.8008 11.5939C12.7911 12.2789 12.3673 12.8096 11.1992 12.8096C10.0909 12.8096 9.58984 12.242 9.58984 11.5736C9.58984 11.2395 9.71178 10.9876 9.96797 10.7721C10.2242 10.5565 10.6354 10.3908 11.1992 10.3908ZM8.79922 15.2002C8.58705 15.2002 8.38358 15.2845 8.23356 15.4345C8.08353 15.5846 7.99924 15.788 7.99922 16.0002V31.2002C7.99924 31.4124 8.08353 31.6158 8.23356 31.7659C8.38358 31.9159 8.58705 32.0002 8.79922 32.0002H13.5992C13.8114 32.0002 14.0149 31.9159 14.1649 31.7659C14.3149 31.6158 14.3992 31.4124 14.3992 31.2002V26.508V16.0002C14.3992 15.788 14.3149 15.5846 14.1649 15.4345C14.0149 15.2845 13.8114 15.2002 13.5992 15.2002H8.79922ZM15.9992 15.2002C15.7871 15.2002 15.5836 15.2845 15.4336 15.4345C15.2835 15.5846 15.1992 15.788 15.1992 16.0002V31.2002C15.1992 31.4124 15.2835 31.6158 15.4336 31.7659C15.5836 31.9159 15.7871 32.0002 15.9992 32.0002H20.7992C21.0114 32.0002 21.2149 31.9159 21.3649 31.7659C21.5149 31.6158 21.5992 31.4124 21.5992 31.2002V23.2002C21.5992 22.5365 21.7803 21.8762 22.0992 21.4439C22.4181 21.0117 22.8204 20.7522 23.5852 20.7658C24.3738 20.7794 24.7912 21.0495 25.107 21.4736C25.4228 21.8977 25.5992 22.5335 25.5992 23.2002V31.2002C25.5992 31.4124 25.6835 31.6158 25.8336 31.7659C25.9836 31.9159 26.187 32.0002 26.3992 32.0002H31.1992C31.4114 32.0002 31.6149 31.9159 31.7649 31.7659C31.9149 31.6158 31.9992 31.4124 31.9992 31.2002V22.6096C31.9992 20.2403 31.2974 18.3637 30.0945 17.0939C28.8916 15.8242 27.2186 15.2002 25.4492 15.2002C23.7676 15.2002 22.4879 15.7641 21.5992 16.3393V16.0002C21.5992 15.788 21.5149 15.5846 21.3649 15.4345C21.2149 15.2845 21.0114 15.2002 20.7992 15.2002H15.9992ZM9.59922 16.8002H12.7992V26.508V30.4002H9.59922V16.8002ZM16.7992 16.8002H19.9992V18.0486C19.9993 18.2164 20.052 18.3799 20.1501 18.516C20.2481 18.6521 20.3865 18.754 20.5455 18.8072C20.7046 18.8604 20.8764 18.8622 21.0366 18.8125C21.1968 18.7627 21.3373 18.6639 21.4383 18.5299C21.4383 18.5299 22.6946 16.8002 25.4492 16.8002C26.8519 16.8002 28.0547 17.2663 28.9336 18.1939C29.8125 19.1216 30.3992 20.5508 30.3992 22.6096V30.4002H27.1992V23.2002C27.1992 22.2669 26.9756 21.3019 26.3914 20.5174C25.8072 19.7329 24.8247 19.1867 23.6133 19.1658C22.3956 19.1442 21.3972 19.7018 20.8117 20.4955C20.2262 21.2892 19.9992 22.2639 19.9992 23.2002V30.4002H16.7992V16.8002Z" fill="black"/>
</svg>
