<svg width="300" height="200" viewBox="0 0 300 200" fill="none" xmlns="http://www.w3.org/2000/svg">
<g clip-path="url(#clip0_158_5733)">
<path d="M62.4623 74.1055C62.3718 74.1055 62.2812 74.1055 62.1907 74.1055H62.1002H62.0097H61.9191H61.8286C60.5613 74.2856 59.5655 75.1863 59.2939 76.4472C54.6771 94.1002 45.5341 107.43 34.3995 112.113C44.5383 110.762 53.5003 104.098 59.5655 94.2803C57.6645 101.486 54.315 108.151 49.6077 114.005C44.6288 116.256 39.2879 117.427 33.8564 117.427C22.0881 117.427 11.3156 111.933 2.71575 102.837C2.44418 102.476 1.99155 102.296 1.53893 102.296C1.4484 102.296 1.35788 102.296 1.26735 102.296C1.17683 102.296 1.0863 102.296 0.995776 102.386C0.905251 102.386 0.814725 102.476 0.7242 102.476C0.633675 102.566 0.54315 102.566 0.452625 102.656C0.18105 102.747 0.0905251 102.837 0 102.927C7.42305 115.356 19.3724 124.092 33.2227 125.803C26.0712 128.325 18.1955 128.055 11.2251 125.083C13.1261 127.064 15.2082 128.776 17.5619 130.307C17.7429 130.397 17.924 130.487 18.0145 130.577H18.105C18.2861 130.667 18.3766 130.757 18.5576 130.847C18.5576 130.847 18.6482 130.847 18.6482 130.937C18.8292 131.027 18.9197 131.117 19.1008 131.207L19.1913 131.298C19.3724 131.388 19.4629 131.478 19.6439 131.478C19.7345 131.478 19.7345 131.568 19.825 131.568C20.006 131.658 20.0966 131.748 20.2776 131.748C20.3681 131.748 20.3681 131.748 20.4587 131.838C20.6397 131.928 20.7302 131.928 20.9113 132.018C21.0018 132.018 21.0018 132.018 21.0923 132.108C21.2734 132.198 21.3639 132.198 21.545 132.288C21.545 132.288 21.6355 132.288 21.6355 132.378C22.2692 132.649 22.9028 132.919 23.627 133.099L23.8081 133.189C23.8986 133.189 24.0797 133.279 24.1702 133.279C24.2607 133.279 24.3512 133.369 24.4418 133.369C24.5323 133.369 24.6228 133.459 24.8039 133.459C24.8944 133.459 24.9849 133.549 25.0754 133.549C25.166 133.549 25.2565 133.639 25.347 133.639C25.4375 133.639 25.5281 133.729 25.6186 133.729C25.7091 133.729 25.7996 133.729 25.8902 133.819C25.9807 133.819 26.0712 133.819 26.1617 133.909C26.2523 133.909 26.3428 133.909 26.4333 134C26.5238 134 26.6144 134 26.7954 134.09C26.8859 134.09 26.9765 134.09 27.067 134.09C27.1575 134.09 27.248 134.09 27.4291 134.18C27.5196 134.18 27.6101 134.18 27.7007 134.18C27.7912 134.18 27.9722 134.18 28.0628 134.18C28.1533 134.18 28.2438 134.18 28.3343 134.18C28.4249 134.18 28.6059 134.18 28.6964 134.18C28.787 134.18 28.8775 134.18 28.968 134.18C29.1491 134.18 29.2396 134.18 29.4206 134.18C29.5112 134.18 29.6017 134.18 29.6017 134.18C29.7827 134.18 30.0543 134.18 30.2354 134.18C42.5468 134 53.4098 123.552 59.656 107.79C63.0054 98.9637 64.8159 89.6869 64.997 80.23C64.997 80.0498 64.997 79.9598 64.997 79.7796C64.997 79.1492 64.997 78.5187 64.997 77.8883V77.3479C65.0875 75.8167 64.0012 74.4657 62.4623 74.1055Z" fill="#E30613"/>
<path d="M0 102.926C0.090525 102.836 0.18105 102.746 0.3621 102.656C1.0863 102.116 2.08208 102.206 2.62523 102.926C11.2251 112.113 22.0881 117.517 33.7658 117.517C43.1804 117.517 52.0519 114.004 59.656 107.88C57.3024 114.094 53.8624 119.859 49.3361 124.812C45.8057 125.803 42.0941 126.253 38.4731 126.253C22.4502 126.163 8.3283 116.977 0 102.926Z" fill="#FFD618"/>
<path d="M64.997 77.8883V77.3479C64.997 76.6273 64.7254 75.8167 64.2728 75.2763C64.1823 75.0962 64.0012 75.0061 63.9107 74.9161L63.8202 74.826C63.7296 74.7359 63.6391 74.6459 63.5486 74.5558C63.4581 74.4657 63.3675 74.4657 63.277 74.4657C63.1865 74.4657 63.096 74.3757 63.096 74.3757C62.8244 74.1955 62.6433 74.1955 62.4623 74.1055C62.2812 74.1055 62.1002 74.1055 62.0097 74.1055C61.9191 74.1055 61.9191 74.1055 61.8286 74.1055C61.7381 74.1055 61.7381 74.1055 61.6476 74.1055C60.4707 74.3757 59.475 75.2763 59.2034 76.4472C54.5866 94.1002 43.9952 106.8 34.309 112.113C44.4478 110.762 53.4098 104.098 59.475 94.2803C56.6687 104.368 51.5087 112.924 44.9004 118.868C41.1889 120.219 37.2963 120.94 33.4037 120.94C20.5492 120.94 9.14303 113.735 1.53893 102.296C1.0863 102.206 0.7242 102.386 0.3621 102.656C0.18105 102.747 0.090525 102.837 0 102.927C7.42305 115.356 19.3724 124.092 33.2227 125.803C26.0712 128.325 18.1955 128.055 11.3156 125.083C11.7683 125.533 12.2209 125.984 12.583 126.344C12.6735 126.434 12.764 126.524 12.8546 126.614C13.0356 126.794 13.3072 126.974 13.4882 127.154C13.5788 127.245 13.6693 127.335 13.8503 127.425C14.1219 127.605 14.303 127.875 14.5745 128.055C14.5745 128.055 14.6651 128.055 14.6651 128.145C15.5703 128.866 16.4756 129.496 17.4713 130.127C17.5619 130.217 17.6524 130.217 17.7429 130.307C18.0145 130.487 18.1955 130.577 18.4671 130.757C18.5576 130.847 18.7387 130.937 18.8292 131.027C19.0103 131.117 19.2818 131.298 19.4629 131.388C19.6439 131.478 19.7345 131.568 19.9155 131.658C20.0966 131.748 20.3681 131.838 20.5492 131.928C20.7302 132.018 20.9113 132.108 21.0923 132.198C21.2734 132.288 21.545 132.378 21.726 132.468C21.9071 132.558 22.0881 132.649 22.2692 132.649C22.4502 132.739 22.6313 132.829 22.9028 132.829C23.0839 132.919 23.2649 132.919 23.446 133.009C23.627 133.099 23.8081 133.099 24.0797 133.189C24.2607 133.279 24.5323 133.279 24.7133 133.369C24.8944 133.459 25.0754 133.459 25.2565 133.549C25.4375 133.639 25.7091 133.639 25.8902 133.729C26.0712 133.729 26.2523 133.819 26.4333 133.819C26.7049 133.819 26.8859 133.909 27.1575 133.909C27.3386 133.909 27.5196 134 27.7007 134C27.9722 134 28.2438 134.09 28.5154 134.09C28.6964 134.09 28.787 134.09 28.968 134.09C29.4206 134.09 29.7827 134.09 30.2354 134.09C37.2963 134.09 43.9046 130.667 49.4267 124.813C49.7888 124.362 50.2414 124.002 50.6035 123.552C50.694 123.462 50.7845 123.372 50.7845 123.282C51.1466 122.831 51.5087 122.381 51.8708 121.931C51.9614 121.841 52.0519 121.751 52.1424 121.66C52.5045 121.21 52.8666 120.76 53.1382 120.309C53.2287 120.219 53.3193 120.129 53.4098 119.949C53.7719 119.499 54.0434 118.958 54.4055 118.508C54.4961 118.418 54.5866 118.238 54.6771 118.148C54.9487 117.698 55.3108 117.157 55.5824 116.707C55.6729 116.527 55.7634 116.437 55.854 116.256C56.1255 115.716 56.3971 115.266 56.6687 114.725C56.7592 114.545 56.8497 114.455 56.9403 114.275C57.2118 113.735 57.4834 113.194 57.755 112.744C57.8455 112.564 57.936 112.384 58.0266 112.203C58.2981 111.663 58.5697 111.123 58.7508 110.582C58.8413 110.492 58.8413 110.402 58.9318 110.222C62.6433 101.396 64.7254 91.9386 65.0875 82.3916C65.0875 82.3916 65.0875 82.3916 65.0875 82.3015C65.0875 81.9412 65.0875 81.671 65.0875 81.3108C65.0875 81.0406 65.0875 80.8604 65.0875 80.5902C64.997 79.5995 64.997 78.6988 64.997 77.8883Z" fill="#E30613"/>
<path d="M11.2256 68.251C11.2256 68.251 50.0608 70.5928 33.6758 111.483C33.6758 111.573 94.3276 53.9305 11.2256 68.251Z" fill="#E30613"/>
<path fill-rule="evenodd" clip-rule="evenodd" d="M80.1148 95.2709H89.801C91.6115 95.2709 93.8747 95.9915 93.8747 98.6935C93.9652 100.585 92.5168 102.116 90.7063 102.206C90.5252 102.206 90.4347 102.206 90.2537 102.206H80.1148V95.2709ZM72.5107 117.787H80.1148V107.61H89.62C91.9736 107.61 93.6936 108.601 93.6936 112.474C93.6936 115.356 93.6936 116.527 94.4178 117.787H102.746C101.388 116.346 101.298 113.104 101.298 111.753C101.298 109.051 100.755 104.818 97.4957 104.278V104.187C100.664 103.017 102.022 100.855 102.022 97.5226C102.022 94.6405 100.755 89.957 92.9694 89.957H72.5107V117.787Z" fill="#E30613"/>
<path fill-rule="evenodd" clip-rule="evenodd" d="M122.934 106.98H114.153L118.498 95.9014L122.934 106.98ZM127.188 117.787H135.426L123.115 89.957H113.972L101.66 117.787H109.807L112.071 112.023H124.925L127.188 117.787Z" fill="#E30613"/>
<path d="M144.026 101.936V89.957H136.422V117.787H144.026V109.501L148.462 105.719L157.967 117.787H168.287L154.436 101.125L167.291 89.957H157.062L144.026 101.936Z" fill="#E30613"/>
<path fill-rule="evenodd" clip-rule="evenodd" d="M179.602 105.899H190.013C192.638 105.899 194.086 107.07 194.086 109.231C194.267 110.853 193.09 112.294 191.461 112.474C191.28 112.474 191.099 112.474 190.827 112.474H179.602V105.899ZM171.998 117.788H191.914C200.332 117.788 202.052 113.104 202.052 109.321C202.052 106.349 200.332 103.107 197.073 102.567V102.476C199.427 101.666 200.876 99.4142 200.785 96.8924C200.785 91.7586 196.983 89.8672 192.909 89.8672H171.998V117.788ZM179.602 95.001H189.107C192.276 95.001 193 96.2619 193 97.9731C193 100.045 191.914 100.945 190.103 100.945H179.512L179.602 95.001Z" fill="#E30613"/>
<path fill-rule="evenodd" clip-rule="evenodd" d="M221.334 106.98H212.553L216.989 95.9014L221.334 106.98ZM225.589 117.787H233.736L221.424 89.957H212.281L200.061 117.787H208.208L210.471 112.023H223.325L225.589 117.787Z" fill="#E30613"/>
<path d="M258.449 109.411H258.359L243.694 89.957H234.822V117.787H242.245V98.4233L257.544 117.787H265.782V89.957H258.449V109.411Z" fill="#E30613"/>
<path d="M275.74 101.936V89.957H268.136V117.787H275.74V109.501L280.176 105.719L289.771 117.787H300.001L286.15 101.125L299.005 89.957H288.775L275.74 101.936Z" fill="#E30613"/>
</g>
<defs>
<clipPath id="clip0_158_5733">
<rect width="300" height="68" fill="white" transform="translate(0 66)"/>
</clipPath>
</defs>
</svg>
