<svg width="300" height="200" viewBox="0 0 300 200" fill="none" xmlns="http://www.w3.org/2000/svg">
<g clip-path="url(#clip0_158_5749)">
<path d="M291.827 110.289C295.227 108.496 297.134 105.431 298.487 101.984C294.863 101.159 291.249 101.013 287.852 102.806C284.459 104.599 282.554 107.661 281.203 111.111C284.823 111.93 288.43 112.082 291.827 110.289Z" fill="url(#paint0_radial_158_5749)"/>
<path d="M287.041 99.0323C284.06 103.758 280.104 105.612 276.605 106.655C276.023 103.055 275.987 98.702 278.972 93.9765C281.95 89.251 285.904 87.3964 289.405 86.3574C289.983 89.9501 290.015 94.3099 287.041 99.0354V99.0323Z" fill="url(#paint1_radial_158_5749)"/>
<path d="M275.475 90.9581C275.583 84.2132 272.344 79.1284 270.227 76.293C267.899 79.2254 264.62 84.0739 264.506 90.7834C264.406 97.0011 267.107 101.927 269.751 105.452C272.501 101.963 275.371 97.1952 275.475 90.9615V90.9581Z" fill="url(#paint2_radial_158_5749)"/>
<path d="M258.957 87.1367C254.872 79.5889 248.28 75.5042 243.968 73.0703C243.744 78.1324 243.361 85.5768 247.531 93.2799C251.328 100.294 257.09 104.174 262.518 107.343C262.937 101.109 262.674 94.008 258.957 87.1367Z" fill="url(#paint3_radial_158_5749)"/>
<path d="M238.528 92.5191C229.1 87.2013 218.329 85.9843 211.263 86.0684C214.663 91.9105 221.213 100.601 230.857 106.039C240.137 111.272 250.634 112.573 258.119 112.489C254.163 105.893 247.819 97.7626 238.528 92.5191Z" fill="url(#paint4_radial_158_5749)"/>
<path d="M220.654 110.625C208.922 110.625 195.81 114.098 185.338 118.93C195.972 123.74 208.594 127.239 220.654 127.239C230.262 127.239 241.748 125.374 255.966 118.93C240.412 111.962 229.629 110.625 220.654 110.625Z" fill="url(#paint5_radial_158_5749)"/>
<path d="M133.021 88.5184C125.806 88.5184 122.419 93.8525 122.419 100.452C122.419 107.508 126.812 112.295 133.878 112.295C138.661 112.295 141.554 110.434 141.947 110.233L140.07 105.996C139.765 106.203 137.732 107.56 134.573 107.56C130.93 107.56 128.553 105.414 128.319 102.413H143.071C143.142 101.989 143.399 100.63 143.399 99.4097C143.395 93.0789 139.613 88.5184 133.024 88.5184H133.021ZM128.316 98.1247C128.345 95.5613 129.754 93.027 133.021 93.027C136.08 93.027 137.684 95.2539 137.732 98.1247H128.316ZM33.6853 96.3965V111.783H28.1977V97.4905C28.1977 94.9399 26.8762 93.299 24.1779 93.299C22.1679 93.299 20.2294 94.3217 19.9566 94.4707C20.0021 94.7036 20.2943 95.9141 20.2943 97.9469V111.787H14.8034V97.4517C14.8034 94.9011 13.3975 93.299 10.7965 93.299C8.78007 93.299 6.94546 94.1696 6.71815 94.2797C6.74739 94.4124 6.90649 95.1665 6.90649 96.4903V111.783H1.42862V93.7651C1.42862 92.4607 1.08118 91.0818 1 90.8457C1.57149 90.6288 6.88375 88.5184 11.3388 88.5184C16.0438 88.5184 17.7518 90.5155 18.0051 90.755C18.3818 90.5284 21.5315 88.5184 25.1292 88.5184C30.2662 88.5184 33.6887 91.4283 33.6887 96.3965H33.6853ZM78.3331 105.155C78.3331 110.155 74.0015 112.288 69.2444 112.288C65.3543 112.288 62.1008 110.939 61.6982 110.786L63.3023 106.508C63.4126 106.569 65.8285 107.87 68.2865 107.87C70.9329 107.87 72.2545 106.776 72.2545 105.281C72.2545 104.2 71.5434 103.268 69.6828 102.527C69.0625 102.281 68.0723 101.895 67.3903 101.64C65.0264 100.759 62.2956 99.1379 62.2956 95.3252C62.2956 90.8132 66.4747 88.5281 70.6245 88.5121C74.3586 88.4893 76.7355 89.6222 77.3233 89.8844L75.7777 94.1113C75.6087 94.0402 73.3099 93.0692 70.7674 93.0692C69.2346 93.0692 67.9099 93.6615 67.9099 95.0273C67.9099 96.2865 68.8255 96.9533 70.4914 97.6038C71.1472 97.8627 72.0824 98.2123 72.8131 98.5035C75.7614 99.6654 78.3331 101.507 78.3331 105.148V105.155ZM158.943 88.5184C151.458 88.5184 146.652 93.3961 146.652 100.358C146.652 107.32 151.763 112.292 157.933 112.292C159.306 112.292 160.725 112.013 162.131 111.518V122.037L167.622 121.357V94.2084C167.622 92.6517 167.784 90.6449 167.898 90.153C167.356 89.9458 163.07 88.5184 158.946 88.5184H158.943ZM162.134 96.6878V106.916C161.219 107.323 160.128 107.556 159.128 107.556C155.056 107.556 152.776 104.197 152.776 100.4C152.776 96.6037 154.507 93.2602 158.803 93.2602C160.852 93.2602 162.138 93.7716 162.355 93.8525C162.316 94.0466 162.138 95.267 162.138 96.6878H162.134ZM102.589 96.5777V111.783H97.0981V97.5844C97.0981 94.8752 95.546 93.2602 92.877 93.2602C90.8474 93.2602 88.7888 94.4124 88.0062 94.9368V111.78H82.5218V78.6273L88.0062 77.3457V90.2986C88.2888 90.14 90.88 88.5153 94.4193 88.5153C99.699 88.5184 102.589 91.6224 102.589 96.5809V96.5777ZM57.36 96.8366C57.36 91.4315 54.0189 88.5153 48.3687 88.5153C44.18 88.5153 40.2283 90.2889 39.8094 90.4767L41.6764 94.6196C41.9688 94.4966 44.8944 93.1534 48.044 93.1534C50.3722 93.1534 51.879 94.0305 51.879 95.267C51.879 96.5906 50.5704 97.1149 48.5897 97.5844C44.4008 98.552 37.7085 99.0312 37.7085 105.226C37.7085 110.554 43.0013 112.295 47.9466 112.295C52.8921 112.295 57.4379 110.628 57.7692 110.524C57.6684 110.123 57.3632 109.159 57.3632 106.822V96.84H57.36V96.8366ZM47.8719 107.809C45.758 107.809 43.745 107.045 43.745 104.954C43.745 103.252 45.5762 102.582 47.5635 102.122C49.2357 101.727 51.0964 101.242 51.8756 100.63V104.517C51.8756 106.045 52.0185 106.906 52.0574 107.106C51.853 107.174 50.093 107.812 47.8719 107.812V107.809ZM117.818 88.5153C119.224 88.5153 120.792 88.7031 122.016 89.0136L120.364 93.7035C119.636 93.4931 118.354 93.2602 117.341 93.2602C115.123 93.2602 113.24 93.8071 113.025 93.8784C113.058 94.0272 113.282 95.0564 113.282 96.9921V111.783H107.81V95.4968C107.81 92.8945 107.417 91.1789 107.388 91.0204C108.002 90.7873 112.912 88.5153 117.818 88.5153Z" fill="url(#paint6_radial_158_5749)"/>
</g>
<defs>
<radialGradient id="paint0_radial_158_5749" cx="0" cy="0" r="1" gradientUnits="userSpaceOnUse" gradientTransform="translate(282.465 111.299) scale(20.5727 20.5064)">
<stop stop-color="#FFDC04"/>
<stop offset="0.21" stop-color="#F8B00D"/>
<stop offset="0.46" stop-color="#F08218"/>
<stop offset="0.69" stop-color="#EB6020"/>
<stop offset="0.88" stop-color="#E84B25"/>
<stop offset="1" stop-color="#E74427"/>
</radialGradient>
<radialGradient id="paint1_radial_158_5749" cx="0" cy="0" r="1" gradientUnits="userSpaceOnUse" gradientTransform="translate(277.843 106.821) scale(24.1654 24.0875)">
<stop stop-color="#FFDC04"/>
<stop offset="0.21" stop-color="#F8B00D"/>
<stop offset="0.46" stop-color="#F08218"/>
<stop offset="0.69" stop-color="#EB6020"/>
<stop offset="0.88" stop-color="#E84B25"/>
<stop offset="1" stop-color="#E74427"/>
</radialGradient>
<radialGradient id="paint2_radial_158_5749" cx="0" cy="0" r="1" gradientUnits="userSpaceOnUse" gradientTransform="translate(270.964 105.614) scale(30.2336 30.1363)">
<stop stop-color="#FFDC04"/>
<stop offset="0.21" stop-color="#F8B00D"/>
<stop offset="0.46" stop-color="#F08218"/>
<stop offset="0.69" stop-color="#EB6020"/>
<stop offset="0.88" stop-color="#E84B25"/>
<stop offset="1" stop-color="#E74427"/>
</radialGradient>
<radialGradient id="paint3_radial_158_5749" cx="0" cy="0" r="1" gradientUnits="userSpaceOnUse" gradientTransform="translate(263.695 107.518) scale(39.1151 38.989)">
<stop stop-color="#FFDC04"/>
<stop offset="0.21" stop-color="#F8B00D"/>
<stop offset="0.46" stop-color="#F08218"/>
<stop offset="0.69" stop-color="#EB6020"/>
<stop offset="0.88" stop-color="#E84B25"/>
<stop offset="1" stop-color="#E74427"/>
</radialGradient>
<radialGradient id="paint4_radial_158_5749" cx="0" cy="0" r="1" gradientUnits="userSpaceOnUse" gradientTransform="translate(260.306 113.016) scale(56.4612 56.2791)">
<stop stop-color="#FFDC04"/>
<stop offset="0.2" stop-color="#F8B00D"/>
<stop offset="0.44" stop-color="#F08218"/>
<stop offset="0.65" stop-color="#EB6020"/>
<stop offset="0.83" stop-color="#E84B25"/>
<stop offset="0.94" stop-color="#E74427"/>
</radialGradient>
<radialGradient id="paint5_radial_158_5749" cx="0" cy="0" r="1" gradientUnits="userSpaceOnUse" gradientTransform="translate(258.426 119.079) scale(72.7728 72.5382)">
<stop stop-color="#FFDC04"/>
<stop offset="0.18" stop-color="#F8B00D"/>
<stop offset="0.4" stop-color="#F08218"/>
<stop offset="0.6" stop-color="#EB6020"/>
<stop offset="0.76" stop-color="#E84B25"/>
<stop offset="0.87" stop-color="#E74427"/>
</radialGradient>
<radialGradient id="paint6_radial_158_5749" cx="0" cy="0" r="1" gradientUnits="userSpaceOnUse" gradientTransform="translate(333.719 -3.5378) rotate(-119.98) scale(266.755 350.015)">
<stop stop-color="#FFDC04"/>
<stop offset="0.18" stop-color="#F8B00D"/>
<stop offset="0.4" stop-color="#F08218"/>
<stop offset="0.6" stop-color="#EB6020"/>
<stop offset="0.76" stop-color="#E84B25"/>
<stop offset="0.87" stop-color="#E74427"/>
</radialGradient>
<clipPath id="clip0_158_5749">
<rect width="298" height="55" fill="white" transform="translate(1 73)"/>
</clipPath>
</defs>
</svg>
