<svg width="300" height="200" viewBox="0 0 300 200" fill="none" xmlns="http://www.w3.org/2000/svg">
<g clip-path="url(#clip0_158_5759)">
<path fill-rule="evenodd" clip-rule="evenodd" d="M273.486 73.043H283.664L296.173 90.1696L283.664 107.294L273.5 107.275L285.983 90.1619L273.486 73.043Z" fill="#FF6666"/>
<path fill-rule="evenodd" clip-rule="evenodd" d="M215.515 80.71V73.0521H207.689V107.295H215.515V94.0961C215.515 85.0825 220.308 80.6454 227.161 80.6454H227.615V72.4073C221.6 72.1528 217.651 75.6246 215.515 80.71ZM253.128 73.0439L253.121 73.0485L240.63 90.1541H240.618V62.8242H232.819V107.295H240.618V90.1706L253.127 107.295H263.304L263.292 107.276H263.304L250.807 90.163L263.305 73.0488L253.128 73.0439ZM195.31 90.234C195.31 96.0925 191.299 101.046 184.957 101.046C178.878 101.046 174.541 96.0279 174.541 90.1038V89.9741C174.541 84.0566 178.554 79.1631 184.828 79.1631C190.975 79.1631 195.31 84.1192 195.31 90.1038V90.234ZM184.957 72.3421C174.479 72.3421 166.712 80.3864 166.712 90.1038V90.2342C166.712 99.8897 174.416 107.804 184.828 107.804C195.372 107.804 203.134 99.7557 203.134 90.1039V89.9741C203.134 80.2582 195.437 72.3421 184.957 72.3421ZM149.762 96.9677L140.887 73.0649H133.073L124.365 97.4217L115.325 73.0649H107.506L120.839 107.295H128.028L136.977 83.4698L145.928 107.295H153.593L166.451 73.0625H158.636L149.762 96.9677ZM56.4431 86.6151C57.4358 81.9062 60.6612 78.7131 65.1223 78.7131C69.937 78.7131 72.8423 82.1037 73.6426 86.6151H56.4431ZM65.1923 72.3421C55.4225 72.3421 48.4967 80.3259 48.4967 90.0382V90.1704C48.4967 100.659 56.1306 107.803 66.0298 107.803C72.3034 107.803 76.769 105.291 80.0007 101.431L75.4083 97.3764C72.6938 100.012 69.9773 101.431 66.1629 101.431C61.114 101.431 57.1691 98.3397 56.3255 92.8085H81.4281C81.4907 92.0365 81.5582 91.3265 81.5582 90.6217C81.5582 80.8381 76.0579 72.3421 65.1923 72.3421ZM36.2837 94.7794L12.9524 62.8253H3.82715V107.289H11.5347V73.386L36.2837 107.289H43.9923V62.8253H36.2837V94.7794ZM94.0753 96.7009V79.5589H103.124V73.0521H94.0753V62.8242H86.362V97.9726C86.362 105.325 90.3769 107.803 96.0477 107.803C98.9205 107.803 101.49 107.167 103.405 106.089L103.43 100.27C101.901 101.031 99.8809 101.227 98.1622 101.227C95.5452 101.227 94.0753 99.6807 94.0753 96.7009Z" fill="#003366"/>
<path fill-rule="evenodd" clip-rule="evenodd" d="M295.591 90.1543H295.579L295.585 90.1626L295.591 90.1543Z" fill="#FF6666"/>
<path fill-rule="evenodd" clip-rule="evenodd" d="M5.13694 135.486V123.941H3.82715V135.486H5.13694Z" fill="#003366"/>
<path fill-rule="evenodd" clip-rule="evenodd" d="M8.31836 126.961H9.59507V128.446C10.158 127.522 11.0534 126.779 12.5293 126.779C14.6012 126.779 15.8115 128.165 15.8115 130.193V135.487H14.5346V130.506C14.5346 128.922 13.6725 127.934 12.1641 127.934C10.6883 127.934 9.59507 129.005 9.59507 130.606V135.487H8.31836V126.961Z" fill="#003366"/>
<path fill-rule="evenodd" clip-rule="evenodd" d="M18.9765 133.228V128.082H17.7832V126.961H18.9765V124.389H20.2533V126.961H22.9713V128.082H20.2533V133.063C20.2533 134.102 20.8337 134.481 21.6956 134.481C22.1265 134.481 22.4918 134.398 22.9389 134.184V135.272C22.4917 135.504 22.0107 135.635 21.3971 135.635C20.0213 135.635 18.9765 134.959 18.9765 133.228Z" fill="#003366"/>
<path fill-rule="evenodd" clip-rule="evenodd" d="M31.2617 130.72C31.1122 129.171 30.217 127.851 28.5261 127.851C27.0508 127.851 25.923 129.072 25.7415 130.72H31.2617ZM28.7581 134.579C29.9349 134.579 30.764 134.101 31.4602 133.375L32.2559 134.085C31.3937 135.041 30.3501 135.684 28.7252 135.684C26.3706 135.684 24.4482 133.886 24.4482 131.232C24.4482 128.758 26.1886 126.779 28.5591 126.779C31.0957 126.779 32.554 128.791 32.554 131.297C32.554 131.413 32.5539 131.545 32.5352 131.742H25.7387C25.9201 133.541 27.2493 134.579 28.7581 134.579Z" fill="#003366"/>
<path fill-rule="evenodd" clip-rule="evenodd" d="M34.791 126.96H36.0678V129.186C36.6974 127.768 37.9412 126.745 39.5656 126.812V128.181H39.4668C37.5934 128.181 36.068 129.516 36.068 132.089V135.486H34.7912L34.791 126.96Z" fill="#003366"/>
<path fill-rule="evenodd" clip-rule="evenodd" d="M41.5049 126.961H42.7806V128.446C43.3442 127.522 44.2405 126.779 45.7158 126.779C47.7872 126.779 48.9976 128.165 48.9976 130.193V135.487H47.7218V130.506C47.7218 128.922 46.8591 127.934 45.3508 127.934C43.8754 127.934 42.7806 129.005 42.7806 130.606V135.487H41.5049V126.961Z" fill="#003366"/>
<path fill-rule="evenodd" clip-rule="evenodd" d="M57.3682 132.353V131.561C56.7381 131.38 55.9089 131.199 54.8652 131.199C53.2733 131.199 52.3617 131.891 52.3617 132.914V132.945C52.3617 134.017 53.3564 134.645 54.5167 134.645C56.0915 134.645 57.3682 133.706 57.3682 132.353ZM51.0684 133.013V132.982C51.0684 131.15 52.5606 130.195 54.7321 130.195C55.8258 130.195 56.5891 130.344 57.3512 130.558V130.293C57.3512 128.777 56.423 127.985 54.8146 127.985C53.8039 127.985 53.0083 128.233 52.2126 128.596L51.8311 127.556C52.7763 127.127 53.688 126.83 54.9473 126.83C56.158 126.83 57.1027 127.161 57.7164 127.77C58.313 128.365 58.6121 129.189 58.6121 130.277V135.488H57.3513V134.218C56.7547 134.977 55.7769 135.669 54.2681 135.669C52.6603 135.669 51.0684 134.761 51.0684 133.013Z" fill="#003366"/>
<path fill-rule="evenodd" clip-rule="evenodd" d="M61.6801 133.228V128.082H60.4863V126.961H61.6801V124.389H62.9568V126.961H65.6754V128.082H62.9568V133.063C62.9568 134.102 63.5372 134.481 64.3986 134.481C64.8289 134.481 65.1938 134.398 65.6424 134.184V135.272C65.194 135.504 64.7138 135.635 64.1001 135.635C62.7243 135.635 61.6801 134.959 61.6801 133.228Z" fill="#003366"/>
<path fill-rule="evenodd" clip-rule="evenodd" d="M68.0576 135.486H69.5393V126.96H68.0576V135.486ZM67.9619 125.344H69.655V123.941H67.9619V125.344Z" fill="#003366"/>
<path fill-rule="evenodd" clip-rule="evenodd" d="M79.3834 131.263V131.232C79.3834 129.402 78.0076 127.901 76.2002 127.901C74.3438 127.901 73.067 129.401 73.067 131.199V131.231C73.067 133.061 74.4274 134.545 76.2337 134.545C78.0906 134.545 79.3834 133.062 79.3834 131.263ZM71.7578 131.263V131.232C71.7578 128.824 73.6476 126.779 76.2337 126.779C78.8033 126.779 80.6932 128.791 80.6932 131.199V131.231C80.6932 133.638 78.7868 135.683 76.2002 135.683C73.6312 135.683 71.7578 133.672 71.7578 131.263Z" fill="#003366"/>
<path fill-rule="evenodd" clip-rule="evenodd" d="M82.9961 126.961H84.2719V128.446C84.8355 127.522 85.7312 126.779 87.206 126.779C89.2785 126.779 90.4888 128.165 90.4888 130.193V135.487H89.212V130.506C89.212 128.922 88.3503 127.934 86.842 127.934C85.3661 127.934 84.2719 129.005 84.2719 130.606V135.487H82.9961V126.961Z" fill="#003366"/>
<path fill-rule="evenodd" clip-rule="evenodd" d="M98.8589 132.353V131.561C98.2293 131.38 97.3996 131.199 96.3559 131.199C94.7641 131.199 93.8529 131.891 93.8529 132.914V132.945C93.8529 134.017 94.8471 134.645 96.0073 134.645C97.5827 134.645 98.8589 133.706 98.8589 132.353ZM92.5596 133.013V132.982C92.5596 131.15 94.0514 130.195 96.2229 130.195C97.3171 130.195 98.0798 130.344 98.842 130.558V130.293C98.842 128.777 97.9138 127.985 96.3059 127.985C95.2947 127.985 94.499 128.233 93.7029 128.596L93.3226 127.556C94.2673 127.127 95.179 126.83 96.4388 126.83C97.649 126.83 98.5937 127.161 99.2073 127.77C99.8046 128.365 100.103 129.189 100.103 130.277V135.488H98.8422V134.218C98.2462 134.977 97.2679 135.669 95.7591 135.669C94.1512 135.669 92.5596 134.761 92.5596 133.013Z" fill="#003366"/>
<path fill-rule="evenodd" clip-rule="evenodd" d="M104.196 135.486V123.941H102.92V135.486H104.196Z" fill="#003366"/>
<path fill-rule="evenodd" clip-rule="evenodd" d="M116.528 130.226C118.451 130.226 119.712 129.203 119.712 127.685V127.654C119.712 126.004 118.468 125.147 116.594 125.147H113.661V130.226L116.528 130.226ZM112.352 123.941H116.694C119.313 123.941 121.037 125.327 121.037 127.604V127.635C121.037 130.127 118.949 131.412 116.478 131.412H113.661V135.485H112.352V123.941Z" fill="#003366"/>
<path fill-rule="evenodd" clip-rule="evenodd" d="M128.695 132.353V131.561C128.065 131.38 127.236 131.199 126.191 131.199C124.6 131.199 123.688 131.891 123.688 132.914V132.945C123.688 134.017 124.684 134.645 125.844 134.645C127.418 134.645 128.695 133.706 128.695 132.353ZM122.395 133.013V132.982C122.395 131.15 123.887 130.195 126.059 130.195C127.154 130.195 127.915 130.344 128.678 130.558V130.293C128.678 128.777 127.75 127.985 126.142 127.985C125.131 127.985 124.335 128.233 123.539 128.596L123.158 127.556C124.103 127.127 125.014 126.83 126.275 126.83C127.485 126.83 128.43 127.161 129.043 127.77C129.64 128.365 129.938 129.189 129.938 130.277V135.488H128.679V134.218C128.081 134.977 127.103 135.669 125.595 135.669C123.987 135.669 122.395 134.761 122.395 133.013Z" fill="#003366"/>
<path fill-rule="evenodd" clip-rule="evenodd" d="M131.81 137.746L132.241 136.739C132.656 136.954 133.037 137.053 133.583 137.053C134.347 137.053 134.827 136.657 135.341 135.454L131.445 126.961H132.854L135.97 134.068L138.722 126.961H140.082L136.484 135.767C135.755 137.531 134.927 138.175 133.633 138.175C132.921 138.175 132.39 138.026 131.81 137.746Z" fill="#003366"/>
<path fill-rule="evenodd" clip-rule="evenodd" d="M142.104 126.961H143.38V128.396C143.943 127.554 144.708 126.779 146.148 126.779C147.541 126.779 148.436 127.522 148.9 128.478C149.514 127.537 150.426 126.779 151.918 126.779C153.89 126.779 155.1 128.099 155.1 130.209V135.487H153.824V130.506C153.824 128.857 152.995 127.934 151.603 127.934C150.31 127.934 149.231 128.89 149.231 130.573V135.487H147.972V130.474C147.972 128.874 147.126 127.934 145.768 127.934C144.408 127.934 143.38 129.054 143.38 130.622V135.487H142.104V126.961Z" fill="#003366"/>
<path fill-rule="evenodd" clip-rule="evenodd" d="M164.15 130.72C164 129.171 163.105 127.851 161.413 127.851C159.94 127.851 158.811 129.072 158.629 130.72H164.15ZM161.646 134.579C162.823 134.579 163.651 134.101 164.348 133.375L165.144 134.085C164.283 135.041 163.238 135.684 161.613 135.684C159.259 135.684 157.336 133.886 157.336 131.232C157.336 128.758 159.076 126.779 161.447 126.779C163.983 126.779 165.444 128.791 165.444 131.297C165.444 131.413 165.444 131.545 165.425 131.742H158.628C158.81 133.541 160.138 134.579 161.646 134.579Z" fill="#003366"/>
<path fill-rule="evenodd" clip-rule="evenodd" d="M167.68 126.961H168.956V128.446C169.52 127.522 170.415 126.779 171.89 126.779C173.963 126.779 175.173 128.165 175.173 130.193V135.487H173.896V130.506C173.896 128.922 173.034 127.934 171.525 127.934C170.05 127.934 168.956 129.005 168.956 130.606V135.487H167.68V126.961Z" fill="#003366"/>
<path fill-rule="evenodd" clip-rule="evenodd" d="M178.338 133.228V128.082H177.145V126.961H178.338V124.389H179.615V126.961H182.333V128.082H179.615V133.063C179.615 134.102 180.194 134.481 181.057 134.481C181.488 134.481 181.853 134.398 182.299 134.184V135.272C181.853 135.504 181.371 135.635 180.759 135.635C179.383 135.635 178.338 134.959 178.338 133.228Z" fill="#003366"/>
<path fill-rule="evenodd" clip-rule="evenodd" d="M189.013 133.804L189.825 132.846C191.035 133.935 192.195 134.479 193.803 134.479C195.362 134.479 196.389 133.655 196.389 132.516V132.485C196.389 131.413 195.81 130.803 193.373 130.291C190.704 129.714 189.477 128.857 189.477 126.961V126.929C189.477 125.115 191.084 123.779 193.29 123.779C194.981 123.779 196.191 124.258 197.368 125.198L196.604 126.204C195.527 125.329 194.45 124.95 193.256 124.95C191.748 124.95 190.787 125.775 190.787 126.814V126.845C190.787 127.935 191.383 128.545 193.936 129.089C196.522 129.649 197.716 130.588 197.716 132.354V132.385C197.716 134.363 196.058 135.65 193.754 135.65C191.913 135.65 190.406 135.04 189.013 133.804Z" fill="#003366"/>
<path fill-rule="evenodd" clip-rule="evenodd" d="M207.264 131.263V131.232C207.264 129.402 205.888 127.901 204.081 127.901C202.224 127.901 200.947 129.401 200.947 131.199V131.231C200.947 133.061 202.307 134.545 204.114 134.545C205.971 134.545 207.264 133.062 207.264 131.263ZM199.639 131.263V131.232C199.639 128.824 201.528 126.779 204.114 126.779C206.683 126.779 208.573 128.791 208.573 131.199V131.231C208.573 133.638 206.667 135.683 204.081 135.683C201.511 135.683 199.639 133.672 199.639 131.263Z" fill="#003366"/>
<path fill-rule="evenodd" clip-rule="evenodd" d="M212.267 135.486V123.941H210.991V135.486H212.267Z" fill="#003366"/>
<path fill-rule="evenodd" clip-rule="evenodd" d="M215.103 132.254V126.961H216.379V131.941C216.379 133.525 217.242 134.514 218.749 134.514C220.209 134.514 221.319 133.442 221.319 131.842V126.961H222.58V135.487H221.319V134.002C220.74 134.926 219.86 135.668 218.386 135.668C216.312 135.668 215.103 134.283 215.103 132.254Z" fill="#003366"/>
<path fill-rule="evenodd" clip-rule="evenodd" d="M225.892 133.228V128.082H224.7V126.961H225.892V124.389H227.169V126.961H229.888V128.082H227.169V133.063C227.169 134.102 227.75 134.481 228.612 134.481C229.043 134.481 229.407 134.398 229.855 134.184V135.272C229.407 135.504 228.927 135.635 228.313 135.635C226.938 135.635 225.892 134.959 225.892 133.228Z" fill="#003366"/>
<path fill-rule="evenodd" clip-rule="evenodd" d="M232.271 135.486H233.754V126.96H232.271V135.486ZM232.176 125.344H233.869V123.941H232.176V125.344Z" fill="#003366"/>
<path fill-rule="evenodd" clip-rule="evenodd" d="M243.597 131.263V131.232C243.597 129.402 242.221 127.901 240.414 127.901C238.557 127.901 237.28 129.401 237.28 131.199V131.231C237.28 133.061 238.639 134.545 240.448 134.545C242.304 134.545 243.597 133.062 243.597 131.263ZM235.972 131.263V131.232C235.972 128.824 237.861 126.779 240.448 126.779C243.017 126.779 244.906 128.791 244.906 131.199V131.231C244.906 133.638 243 135.683 240.414 135.683C237.844 135.683 235.972 133.672 235.972 131.263Z" fill="#003366"/>
<path fill-rule="evenodd" clip-rule="evenodd" d="M247.209 126.961H248.487V128.446C249.049 127.522 249.945 126.779 251.42 126.779C253.492 126.779 254.702 128.165 254.702 130.193V135.487H253.426V130.506C253.426 128.922 252.564 127.934 251.054 127.934C249.58 127.934 248.487 129.005 248.487 130.606V135.487H247.209V126.961Z" fill="#003366"/>
<path fill-rule="evenodd" clip-rule="evenodd" d="M256.707 134.398L257.354 133.492C258.282 134.184 259.31 134.579 260.321 134.579C261.35 134.579 262.095 134.052 262.095 133.228V133.196C262.095 132.339 261.084 132.009 259.958 131.696C258.614 131.317 257.122 130.854 257.122 129.288V129.257C257.122 127.789 258.349 126.816 260.04 126.816C261.084 126.816 262.244 127.179 263.123 127.756L262.543 128.713C261.747 128.201 260.836 127.888 260.005 127.888C258.995 127.888 258.349 128.415 258.349 129.125V129.156C258.349 129.964 259.409 130.277 260.554 130.623C261.88 131.02 263.305 131.529 263.305 133.064V133.095C263.305 134.712 261.963 135.652 260.255 135.652C259.028 135.652 257.669 135.174 256.707 134.398Z" fill="#003366"/>
</g>
<defs>
<clipPath id="clip0_158_5759">
<rect width="294" height="77" fill="white" transform="translate(3 62)"/>
</clipPath>
</defs>
</svg>
