<svg width="300" height="200" viewBox="0 0 300 200" fill="none" xmlns="http://www.w3.org/2000/svg">
<g clip-path="url(#clip0_158_5476)">
<path d="M57.4843 139C78.7311 139.102 98.1239 121.614 98.1239 100.339C98.1239 77.0736 78.7311 60.9923 57.4843 61H39.199C17.6977 60.9923 0 77.0784 0 100.339C0 121.619 17.6977 139.102 39.199 139H57.4843Z" fill="#0079BE"/>
<path d="M39.2856 64.2246C19.6383 64.2308 3.71752 80.21 3.71289 99.9314C3.71752 119.649 19.6382 135.627 39.2856 135.633C58.9376 135.627 74.8616 119.649 74.8644 99.9314C74.8615 80.21 58.9376 64.2308 39.2856 64.2246ZM16.7371 99.9314C16.7556 90.2944 22.754 82.0766 31.2126 78.8109V121.047C22.754 117.783 16.7554 109.57 16.7371 99.9314ZM47.3556 121.056V78.8095C55.8173 82.0673 61.825 90.2898 61.8404 99.9314C61.825 109.576 55.8173 117.792 47.3556 121.056Z" fill="white"/>
<path d="M110.584 77.7816C110.584 74.0919 108.667 74.3349 106.828 74.2948V73.2285C108.422 73.3074 110.055 73.3074 111.652 73.3074C113.368 73.3074 115.699 73.2285 118.725 73.2285C129.309 73.2285 135.073 80.3228 135.073 87.5872C135.073 91.6497 132.704 101.862 118.233 101.862C116.149 101.862 114.226 101.782 112.305 101.782C110.467 101.782 108.667 101.822 106.828 101.862V100.798C109.279 100.55 110.467 100.468 110.584 97.6776L110.584 77.7816ZM114.591 97.023C114.591 100.182 116.842 100.55 118.844 100.55C127.676 100.55 130.575 93.8628 130.575 87.7497C130.575 80.0812 125.669 74.5438 117.781 74.5438C116.103 74.5438 115.332 74.6646 114.592 74.708L114.591 97.023Z" fill="#211E1F"/>
<path d="M136.507 100.796H137.281C138.424 100.796 139.243 100.796 139.243 99.4389V88.3241C139.243 86.5212 138.631 86.2704 137.118 85.4548V84.797C139.038 84.2182 141.33 83.4444 141.491 83.3206C141.779 83.1566 142.023 83.1132 142.228 83.1132C142.43 83.1132 142.515 83.3609 142.515 83.6905V99.4389C142.515 100.796 143.414 100.796 144.558 100.796H145.252V101.863C143.861 101.863 142.43 101.781 140.961 101.781C139.49 101.781 138.017 101.821 136.507 101.863V100.796H136.507ZM140.88 76.7972C139.815 76.7972 138.878 75.8131 138.878 74.7467C138.878 73.719 139.859 72.7734 140.88 72.7734C141.939 72.7734 142.883 73.6387 142.883 74.7467C142.883 75.8547 141.981 76.7972 140.88 76.7972Z" fill="#211E1F"/>
<path d="M149.136 88.5686C149.136 87.052 148.684 86.6434 146.767 85.8634V85.0851C148.524 84.5109 150.198 83.977 152.161 83.1134C152.283 83.1134 152.403 83.197 152.403 83.5236V86.1915C154.737 84.5109 156.741 83.1133 159.483 83.1133C162.953 83.1133 164.179 85.6574 164.179 88.8563V99.4391C164.179 100.796 165.079 100.796 166.225 100.796H166.96V101.863C165.526 101.863 164.096 101.781 162.628 101.781C161.155 101.781 159.682 101.821 158.212 101.863V100.796H158.946C160.093 100.796 160.906 100.796 160.906 99.4391V88.8176C160.906 86.4761 159.483 85.3293 157.149 85.3293C155.843 85.3293 153.757 86.3958 152.403 87.2994V99.4388C152.403 100.796 153.307 100.796 154.453 100.796H155.187V101.863C153.757 101.863 152.324 101.781 150.853 101.781C149.383 101.781 147.909 101.821 146.438 101.863V100.796H147.176C148.32 100.796 149.136 100.796 149.136 99.4388V88.5686H149.136Z" fill="#211E1F"/>
<path d="M170.069 90.5403C169.984 90.9103 169.984 91.5246 170.069 92.9205C170.309 96.8159 172.81 100.015 176.075 100.015C178.325 100.015 180.086 98.7846 181.597 97.268L182.167 97.8437C180.286 100.345 177.956 102.477 174.606 102.477C168.105 102.477 166.797 96.1582 166.797 93.5351C166.797 85.4935 172.192 83.1133 175.052 83.1133C178.365 83.1133 181.924 85.2043 181.962 89.5529C181.962 89.8021 181.962 90.0451 181.924 90.2942L181.553 90.5403H170.069ZM177.306 89.2265C178.325 89.2265 178.446 88.6926 178.446 88.202C178.446 86.1095 177.179 84.4272 174.889 84.4272C172.398 84.4272 170.681 86.2704 170.19 89.2265H177.306Z" fill="#211E1F"/>
<path d="M182.903 100.797H184.008C185.149 100.797 185.966 100.797 185.966 99.4391V87.914C185.966 86.6434 184.457 86.3958 183.841 86.0677V85.4548C186.826 84.1811 188.462 83.1133 188.834 83.1133C189.076 83.1133 189.196 83.2371 189.196 83.6488V87.3398H189.283C190.302 85.7411 192.022 83.1133 194.513 83.1133C195.536 83.1133 196.842 83.8097 196.842 85.2877C196.842 86.3958 196.068 87.3832 194.924 87.3832C193.651 87.3832 193.651 86.3958 192.223 86.3958C191.527 86.3958 189.24 87.3398 189.24 89.8021V99.4391C189.24 100.796 190.055 100.796 191.202 100.796H193.489V101.863C191.24 101.821 189.53 101.781 187.768 101.781C186.093 101.781 184.375 101.821 182.903 101.863L182.903 100.797Z" fill="#211E1F"/>
<path d="M198.642 96.158C199.174 98.8663 200.807 101.165 203.793 101.165C206.2 101.165 207.1 99.6883 207.1 98.2521C207.1 93.4111 198.191 94.9696 198.191 88.3659C198.191 86.0677 200.033 83.1133 204.527 83.1133C205.834 83.1133 207.591 83.4847 209.184 84.3065L209.474 88.4868H208.532C208.124 85.9052 206.695 84.4274 204.076 84.4274C202.441 84.4274 200.889 85.3716 200.889 87.1341C200.889 91.938 210.372 90.4569 210.372 96.8965C210.372 99.6033 208.204 102.477 203.34 102.477C201.705 102.477 199.784 101.903 198.355 101.084L197.904 96.3659L198.642 96.158Z" fill="#211E1F"/>
<path d="M247.284 80.6524H246.264C245.487 75.8547 242.093 73.9249 237.517 73.9249C232.813 73.9249 225.986 77.0818 225.986 86.9264C225.986 95.2185 231.876 101.164 238.169 101.164C242.215 101.164 245.57 98.3755 246.387 94.0671L247.325 94.3116L246.387 100.301C244.67 101.37 240.051 102.477 237.35 102.477C227.787 102.477 221.739 96.2819 221.739 87.0518C221.739 78.642 229.218 72.6094 237.23 72.6094C240.54 72.6094 243.728 73.6803 246.876 74.7884L247.284 80.6524Z" fill="#211E1F"/>
<path d="M248.758 100.797H249.532C250.678 100.797 251.499 100.797 251.499 99.4399V76.5941C251.499 73.926 250.885 73.8438 249.33 73.3935V72.7373C250.965 72.205 252.682 71.4651 253.541 70.9716C253.987 70.7271 254.317 70.5195 254.437 70.5195C254.687 70.5195 254.769 70.7673 254.769 71.0968V99.4399C254.769 100.797 255.666 100.797 256.812 100.797H257.502V101.864C256.118 101.864 254.687 101.782 253.214 101.782C251.744 101.782 250.273 101.822 248.758 101.864V100.797H248.758Z" fill="#211E1F"/>
<path d="M275.005 99.6033C275.005 100.345 275.452 100.385 276.146 100.385C276.638 100.385 277.249 100.345 277.783 100.345V101.208C276.023 101.371 272.671 102.233 271.894 102.477L271.689 102.353V99.0338C269.239 101.042 267.356 102.477 264.452 102.477C262.245 102.477 259.956 101.042 259.956 97.599V87.0938C259.956 86.0274 259.794 85.0012 257.508 84.7971V84.0171C258.981 83.9768 262.245 83.7306 262.778 83.7306C263.232 83.7306 263.232 84.0171 263.232 84.9193V95.5003C263.232 96.7339 263.232 100.261 266.785 100.261C268.175 100.261 270.014 99.1944 271.729 97.7629V86.7222C271.729 85.905 269.768 85.4547 268.3 85.0428V84.3046C271.974 84.057 274.268 83.7305 274.674 83.7305C275.005 83.7305 275.005 84.0168 275.005 84.4702L275.005 99.6033Z" fill="#211E1F"/>
<path d="M283.138 86.0686C284.772 84.6741 286.979 83.1142 289.229 83.1142C293.972 83.1142 296.83 87.2618 296.83 91.7297C296.83 97.1031 292.908 102.478 287.059 102.478C284.035 102.478 282.442 101.492 281.378 101.043L280.153 101.984L279.297 101.535C279.66 99.1149 279.868 96.7347 279.868 94.2337V76.5939C279.868 73.926 279.251 73.8438 277.699 73.3935V72.7373C279.339 72.205 281.051 71.4651 281.91 70.9714C282.361 70.7269 282.686 70.5195 282.812 70.5195C283.056 70.5195 283.138 70.7673 283.138 71.0968V86.0685H283.138V86.0686ZM283.138 97.2254C283.138 98.7854 284.608 101.413 287.347 101.413C291.721 101.413 293.56 97.1031 293.56 93.4509C293.56 89.0216 290.212 85.3306 287.022 85.3306C285.506 85.3306 284.241 86.3164 283.138 87.2618L283.138 97.2254Z" fill="#211E1F"/>
<path d="M106.781 125.713H107.094C107.893 125.713 108.739 125.605 108.739 124.442V112.748C108.739 111.585 107.893 111.475 107.094 111.475H106.781V110.805C107.65 110.805 108.984 110.893 110.077 110.893C111.188 110.893 112.521 110.805 113.566 110.805V111.475H113.253C112.456 111.475 111.609 111.585 111.609 112.748V124.442C111.609 125.605 112.456 125.713 113.253 125.713H113.566V126.386C112.499 126.386 111.162 126.298 110.053 126.298C108.962 126.298 107.65 126.386 106.781 126.386V125.713Z" fill="#211E1F"/>
<path d="M113.567 126.482C112.492 126.482 111.16 126.392 110.052 126.392C108.965 126.392 107.657 126.482 106.782 126.482H106.687V126.386V125.716V125.618H106.782H107.094C107.9 125.6 108.635 125.535 108.642 124.444V112.75C108.635 111.659 107.9 111.586 107.094 111.571H106.687V111.476V110.707H106.782C107.657 110.707 108.989 110.795 110.077 110.795C111.184 110.795 112.515 110.707 113.567 110.707H113.666V110.809V111.571H113.567H113.256C112.449 111.586 111.71 111.659 111.705 112.75V124.444C111.71 125.535 112.449 125.6 113.256 125.618H113.666V125.716V126.482H113.567ZM113.471 126.292V125.815H113.256C112.461 125.815 111.516 125.677 111.511 124.444V112.75C111.516 111.516 112.461 111.377 113.256 111.377H113.471V110.904C112.444 110.904 111.156 110.99 110.077 110.99C109.02 110.99 107.741 110.91 106.881 110.904V111.377H107.094C107.886 111.377 108.835 111.516 108.835 112.75V124.444C108.835 125.677 107.886 125.815 107.094 125.815H106.881V126.292C107.741 126.282 108.998 126.202 110.052 126.202C111.135 126.202 112.423 126.285 113.471 126.292Z" fill="#211E1F"/>
<path d="M128.847 121.986L128.892 121.943V113.574C128.892 111.741 127.623 111.475 126.956 111.475H126.466V110.805C127.513 110.805 128.536 110.893 129.58 110.893C130.491 110.893 131.408 110.805 132.318 110.805V111.475H131.984C131.048 111.475 130.002 111.653 130.002 114.309V124.467C130.002 125.247 130.025 126.027 130.135 126.719H129.288L117.836 113.906V123.104C117.836 125.046 118.211 125.713 119.926 125.713H120.302V126.386C119.347 126.386 118.393 126.298 117.435 126.298C116.437 126.298 115.413 126.386 114.41 126.386V125.713H114.722C116.256 125.713 116.722 124.667 116.722 122.883V113.481C116.722 112.232 115.697 111.475 114.7 111.475H114.41V110.805C115.255 110.805 116.122 110.893 116.966 110.893C117.634 110.893 118.28 110.805 118.946 110.805L128.847 121.986Z" fill="#211E1F"/>
<path d="M130.135 126.817L129.217 126.782L117.929 114.159V123.104C117.956 125.045 118.25 125.596 119.925 125.617H120.402V125.713V126.481H120.303C119.341 126.481 118.383 126.391 117.434 126.391C116.438 126.391 115.417 126.481 114.408 126.481H114.311V126.385V125.617H114.408H114.721C116.191 125.609 116.61 124.662 116.627 122.883V113.482C116.624 112.294 115.653 111.573 114.699 111.569H114.311V111.47V110.709H114.408C115.258 110.709 116.129 110.794 116.963 110.794C117.625 110.794 118.27 110.709 119.02 110.741L128.795 121.784V113.575C128.783 111.799 127.603 111.585 126.955 111.569H126.366V111.47V110.709H126.465C127.515 110.709 128.539 110.794 129.579 110.794C130.484 110.794 131.396 110.709 132.315 110.709H132.412V110.805V111.569H132.315H131.984C131.066 111.596 130.123 111.676 130.097 114.309V124.466C130.097 125.246 130.12 126.026 130.228 126.702L130.25 126.816H130.135V126.817ZM129.289 126.62H130.025C129.925 125.95 129.908 125.207 129.908 124.466V114.309C129.908 111.63 131.026 111.376 131.984 111.376H132.218V110.902C131.342 110.908 130.463 110.989 129.58 110.989C128.562 110.989 127.571 110.908 126.564 110.902L126.563 111.376H126.956C127.639 111.376 128.989 111.682 128.989 113.575L128.958 122.01L128.913 122.056L128.838 122.126L118.946 110.902C118.286 110.902 117.641 110.989 116.964 110.989C116.148 110.989 115.314 110.908 114.507 110.902L114.502 111.376H114.7C115.744 111.376 116.816 112.176 116.816 113.482V122.882C116.816 124.667 116.321 125.809 114.721 125.815L114.507 125.809V126.29C115.471 126.281 116.461 126.2 117.434 126.2C118.363 126.2 119.287 126.281 120.206 126.29V125.815H119.926C118.175 125.809 117.74 125.044 117.738 123.104V113.655L129.289 126.62ZM128.796 121.942V121.934L128.777 121.918L128.796 121.942Z" fill="#211E1F"/>
<path d="M135.648 111.919C133.977 111.919 133.914 112.321 133.581 113.949H132.913C133.001 113.326 133.112 112.702 133.18 112.052C133.269 111.427 133.312 110.804 133.312 110.158H133.848C134.027 110.828 134.582 110.805 135.185 110.805H146.659C147.26 110.805 147.816 110.783 147.862 110.111L148.393 110.201C148.306 110.805 148.217 111.407 148.149 112.01C148.109 112.612 148.109 113.216 148.109 113.816L147.439 114.065C147.393 113.24 147.282 111.919 145.794 111.919H142.146V123.795C142.146 125.516 142.925 125.713 143.989 125.713H144.413V126.386C143.546 126.386 141.987 126.298 140.789 126.298C139.454 126.298 137.895 126.386 137.027 126.386V125.713H137.451C138.677 125.713 139.297 125.603 139.297 123.842V111.919H135.648Z" fill="#211E1F"/>
<path d="M144.416 126.48C143.54 126.48 141.984 126.391 140.788 126.391C139.456 126.391 137.9 126.48 137.026 126.48H136.934V126.386V125.617H137.026H137.451C138.677 125.588 139.17 125.572 139.198 123.842V112.016H135.648V111.919V111.82H139.391V123.842C139.391 125.632 138.672 125.813 137.451 125.815H137.124V126.285C138.001 126.281 139.498 126.2 140.789 126.2C141.949 126.2 143.435 126.281 144.315 126.285V125.815H143.989C142.914 125.813 142.049 125.549 142.049 123.795V111.82H145.794C147.287 111.826 147.481 113.1 147.53 113.928L148.01 113.75C148.01 113.168 148.013 112.584 148.053 111.996C148.118 111.422 148.2 110.852 148.283 110.283L147.944 110.226C147.84 110.876 147.216 110.908 146.656 110.902H135.185H135.069C134.546 110.902 133.974 110.877 133.775 110.254H133.408C133.405 110.871 133.361 111.47 133.277 112.064C133.212 112.677 133.11 113.267 133.027 113.857H133.504C133.796 112.301 133.988 111.797 135.647 111.82V111.919V112.016C134.003 112.046 134.037 112.324 133.675 113.974L133.658 114.05H133.581H132.802L132.814 113.934C132.904 113.309 133.016 112.686 133.082 112.036C133.175 111.417 133.218 110.798 133.218 110.158V110.06H133.312H133.923L133.939 110.13C134.091 110.693 134.503 110.696 135.069 110.705H135.185H146.656C147.276 110.696 147.726 110.687 147.765 110.103L147.774 109.998L147.874 110.02L148.502 110.119L148.488 110.216C148.399 110.814 148.311 111.417 148.246 112.016C148.201 112.611 148.201 113.214 148.201 113.816V113.886L148.14 113.911L147.351 114.198L147.345 114.068C147.287 113.229 147.199 112.016 145.794 112.016H142.243V123.795C142.263 125.479 142.929 125.595 143.989 125.617H144.51V125.713V126.48L144.416 126.48Z" fill="#211E1F"/>
<path d="M149.104 125.713H149.417C150.216 125.713 151.062 125.605 151.062 124.442V112.748C151.062 111.585 150.216 111.475 149.417 111.475H149.104V110.805C150.458 110.805 152.775 110.893 154.639 110.893C156.512 110.893 158.821 110.805 160.332 110.805C160.295 111.763 160.315 113.239 160.382 114.219L159.711 114.398C159.604 112.948 159.337 111.789 157.001 111.789H153.911V117.634H156.555C157.889 117.634 158.181 116.878 158.312 115.669H158.978C158.935 116.543 158.912 117.413 158.912 118.283C158.912 119.133 158.935 119.979 158.978 120.827L158.312 120.96C158.181 119.622 158.113 118.752 156.577 118.752H153.911V123.95C153.911 125.404 155.196 125.404 156.621 125.404C159.291 125.404 160.468 125.222 161.136 122.681L161.759 122.834C161.468 124.02 161.202 125.201 161.005 126.386C159.58 126.386 157.021 126.298 155.022 126.298C153.017 126.298 150.372 126.386 149.104 126.386V125.713Z" fill="#211E1F"/>
<path d="M161.003 126.481C159.575 126.481 157.018 126.389 155.021 126.389C153.017 126.389 150.373 126.481 149.104 126.481H149.01V126.386V125.713V125.617H149.104H149.415C150.222 125.605 150.953 125.534 150.964 124.443V112.749C150.953 111.659 150.222 111.586 149.415 111.569H149.01V111.475V110.709H149.104C150.461 110.709 152.775 110.794 154.639 110.794C156.51 110.794 158.818 110.709 160.332 110.709H160.433L160.428 110.808C160.413 111.144 160.407 111.54 160.407 111.961C160.407 112.733 160.428 113.577 160.473 114.213L160.476 114.293L160.402 114.315L159.62 114.519L159.615 114.405C159.484 112.956 159.292 111.905 157.001 111.884H154.004L154.001 117.534H156.555C157.836 117.522 158.065 116.864 158.217 115.662L158.224 115.573H158.311H159.077L159.076 115.674C159.033 116.544 159.005 117.413 159.005 118.283C159.005 119.128 159.033 119.975 159.076 120.824L159.077 120.903L158.997 120.922L158.224 121.076L158.217 120.971C158.064 119.609 158.053 118.863 156.575 118.847L154.004 118.845V123.95C154.006 125.306 155.172 125.298 156.622 125.306C159.299 125.291 160.373 125.161 161.044 122.654L161.066 122.564L161.16 122.581L161.872 122.765L161.851 122.858C161.564 124.04 161.297 125.219 161.098 126.402L161.079 126.481H161.003ZM160.922 126.286C161.115 125.161 161.369 124.031 161.642 122.907L161.203 122.796C160.536 125.294 159.246 125.516 156.621 125.5C155.221 125.5 153.817 125.5 153.811 123.95V118.654H156.575C158.128 118.637 158.287 119.578 158.397 120.849L158.878 120.748C158.835 119.926 158.815 119.102 158.815 118.283C158.815 117.443 158.835 116.607 158.878 115.766H158.397C158.274 116.929 157.911 117.746 156.555 117.73H153.811V111.688H157.001C159.315 111.673 159.699 112.871 159.797 114.275L160.277 114.145C160.239 113.515 160.212 112.707 160.212 111.961C160.212 111.579 160.222 111.218 160.234 110.902C158.723 110.908 156.47 110.989 154.64 110.989C152.812 110.989 150.562 110.908 149.199 110.902V111.376H149.415C150.208 111.376 151.155 111.515 151.158 112.749V124.443C151.155 125.673 150.208 125.809 149.415 125.815H149.199V126.286C150.497 126.284 153.066 126.201 155.02 126.201C156.982 126.201 159.487 126.284 160.922 126.286Z" fill="#211E1F"/>
<path d="M164.762 113.171C164.762 111.543 163.873 111.476 163.181 111.476H162.781V110.805C163.494 110.805 164.871 110.894 166.229 110.894C167.563 110.894 168.632 110.805 169.809 110.805C172.609 110.805 175.104 111.565 175.104 114.737C175.104 116.741 173.77 117.97 172.013 118.665L175.815 124.376C176.438 125.32 176.88 125.584 177.973 125.714V126.388C177.238 126.388 176.526 126.299 175.793 126.299C175.104 126.299 174.389 126.388 173.703 126.388C171.991 124.133 170.519 121.722 169.074 119.153H167.611V123.932C167.611 125.653 168.408 125.714 169.43 125.714H169.831V126.388C168.561 126.388 167.276 126.3 166.006 126.3C164.938 126.3 163.892 126.388 162.781 126.388V125.714H163.181C164.007 125.714 164.762 125.34 164.762 124.512V113.171ZM167.61 118.349H168.696C170.922 118.349 172.12 117.501 172.12 114.867C172.12 112.883 170.854 111.609 168.872 111.609C168.204 111.609 167.92 111.679 167.61 111.699V118.349H167.61Z" fill="#211E1F"/>
<path d="M177.972 126.482C177.227 126.482 176.519 126.392 175.788 126.392C175.11 126.392 174.4 126.482 173.624 126.444C171.918 124.199 170.456 121.802 169.019 119.251H167.704V123.928C167.728 125.607 168.4 125.593 169.429 125.618H169.927V125.714V126.482H169.828C168.557 126.482 167.266 126.392 166.003 126.392C164.94 126.392 163.898 126.482 162.781 126.482H162.684V126.386V125.618H162.781H163.18C163.982 125.614 164.658 125.264 164.661 124.512V113.171C164.644 111.586 163.872 111.595 163.18 111.572H162.684V111.476V110.707H162.781C163.501 110.707 164.874 110.795 166.228 110.795C167.556 110.795 168.625 110.707 169.81 110.707C172.612 110.713 175.194 111.49 175.202 114.731C175.202 116.747 173.874 118.005 172.157 118.708L175.895 124.323C176.516 125.248 176.903 125.479 177.986 125.618L178.068 125.631V125.714V126.482H177.972V126.482ZM167.607 119.056H169.128L169.154 119.105C170.604 121.67 172.065 124.078 173.703 126.291C174.382 126.291 175.096 126.2 175.788 126.2C176.499 126.2 177.184 126.277 177.877 126.288V125.799C176.832 125.669 176.344 125.356 175.736 124.429L171.866 118.618L171.975 118.573C173.715 117.886 175.003 116.693 175.005 114.73C175.003 111.633 172.606 110.915 169.81 110.903C168.636 110.903 167.569 110.991 166.228 110.991C164.922 110.991 163.603 110.909 162.875 110.903V111.377H163.18C163.871 111.378 164.855 111.493 164.855 113.171V124.511C164.855 125.407 164.018 125.816 163.18 125.818H162.875V126.288C163.946 126.285 164.959 126.2 166.003 126.2C167.248 126.2 168.502 126.285 169.733 126.288V125.818H169.429C168.414 125.816 167.51 125.689 167.51 123.928V119.056H167.607H167.607ZM167.607 118.443H167.51V111.609L167.595 111.601C167.899 111.578 168.2 111.514 168.872 111.514C170.899 111.514 172.216 112.836 172.219 114.871C172.213 117.536 170.939 118.441 168.696 118.443H167.607V118.443ZM168.696 118.251C170.899 118.233 172.006 117.465 172.029 114.871C172.017 112.921 170.809 111.711 168.872 111.703C168.27 111.703 167.988 111.759 167.704 111.784V118.251H168.696Z" fill="#211E1F"/>
<path d="M193.074 121.986L193.114 121.943V113.574C193.114 111.741 191.848 111.475 191.182 111.475H190.694V110.805C191.738 110.805 192.76 110.893 193.807 110.893C194.72 110.893 195.629 110.805 196.546 110.805V111.475H196.211C195.277 111.475 194.231 111.653 194.231 114.309V124.467C194.231 125.247 194.253 126.027 194.362 126.719H193.519L182.065 113.906V123.104C182.065 125.046 182.442 125.713 184.154 125.713H184.532V126.386C183.577 126.386 182.62 126.298 181.665 126.298C180.661 126.298 179.638 126.386 178.639 126.386V125.713H178.947C180.484 125.713 180.951 124.667 180.951 122.883V113.481C180.951 112.232 179.928 111.475 178.929 111.475H178.639V110.805C179.481 110.805 180.352 110.893 181.196 110.893C181.859 110.893 182.507 110.805 183.175 110.805L193.074 121.986Z" fill="#211E1F"/>
<path d="M194.363 126.816L193.447 126.785L182.158 114.16V123.103C182.185 125.046 182.478 125.597 184.156 125.618H184.626V125.714V126.482H184.529C183.567 126.482 182.613 126.39 181.66 126.39C180.667 126.39 179.639 126.482 178.638 126.482H178.538V126.388V125.618H178.638H178.947C180.415 125.612 180.836 124.663 180.85 122.878V113.482C180.849 112.293 179.879 111.572 178.928 111.57H178.538V111.476V110.707H178.638C179.487 110.707 180.357 110.795 181.196 110.795C181.85 110.795 182.494 110.707 183.241 110.738L193.018 121.785V113.573C193.012 111.799 191.828 111.58 191.181 111.571H190.594V111.476V110.707H190.691C191.743 110.707 192.767 110.795 193.806 110.795C194.714 110.795 195.625 110.707 196.541 110.707H196.638V110.808V111.571H196.541H196.211C195.293 111.595 194.348 111.677 194.325 114.31V124.467C194.325 125.247 194.345 126.021 194.457 126.708L194.47 126.816H194.363ZM193.518 126.621H194.249C194.152 125.951 194.13 125.208 194.13 124.467V114.31C194.132 111.631 195.258 111.383 196.211 111.375H196.444V110.903C195.571 110.91 194.69 110.99 193.806 110.99C192.785 110.99 191.793 110.91 190.786 110.903V111.375H191.181C191.866 111.383 193.214 111.683 193.214 113.573L193.183 122.011L193.14 122.057L193.072 122.128L183.173 110.904C182.513 110.904 181.868 110.99 181.196 110.99C180.372 110.99 179.541 110.91 178.731 110.904V111.376H178.928C179.973 111.383 181.045 112.174 181.045 113.482V122.877C181.045 124.669 180.542 125.81 178.947 125.816L178.731 125.815V126.287C179.692 126.282 180.684 126.202 181.66 126.202C182.593 126.202 183.517 126.282 184.436 126.287V125.816H184.156C182.404 125.815 181.966 125.046 181.963 123.103V113.66L193.518 126.621ZM193.018 121.944V121.936L193.001 121.919L193.018 121.944Z" fill="#211E1F"/>
<path d="M200.122 123.195C199.897 123.952 199.629 124.537 199.629 124.935C199.629 125.606 200.565 125.715 201.296 125.715H201.545V126.388C200.653 126.34 199.745 126.3 198.849 126.3C198.048 126.3 197.252 126.34 196.45 126.388V125.715H196.584C197.451 125.715 198.187 125.202 198.515 124.263L202.078 114.021C202.365 113.194 202.769 112.078 202.904 111.25C203.612 111.008 204.503 110.562 204.924 110.293C204.994 110.269 205.032 110.246 205.102 110.246C205.168 110.246 205.211 110.246 205.26 110.316C205.325 110.492 205.39 110.695 205.461 110.873L209.553 122.548C209.82 123.328 210.083 124.153 210.372 124.825C210.641 125.45 211.109 125.715 211.845 125.715H211.976V126.388C210.975 126.34 209.973 126.3 208.908 126.3C207.818 126.3 206.703 126.34 205.569 126.388V125.715H205.816C206.325 125.715 207.195 125.628 207.195 125.069C207.195 124.78 206.994 124.178 206.746 123.461L205.881 120.872H200.833L200.122 123.195ZM203.368 113.306H203.323L201.255 119.623H205.411L203.368 113.306Z" fill="#211E1F"/>
<path d="M211.97 126.482C210.969 126.437 209.968 126.39 208.909 126.39C207.818 126.39 206.711 126.437 205.572 126.482L205.472 126.488V126.388V125.615H205.569H205.815C206.33 125.615 207.095 125.498 207.095 125.069C207.101 124.815 206.9 124.202 206.655 123.492L205.808 120.968H200.902L200.211 123.223C199.986 123.984 199.719 124.574 199.72 124.937C199.728 125.482 200.559 125.615 201.297 125.615H201.639V125.716V126.488L201.539 126.482C200.649 126.437 199.741 126.39 198.854 126.39C198.056 126.39 197.254 126.437 196.457 126.482L196.354 126.488V126.388V125.615H196.451H196.583C197.411 125.612 198.103 125.14 198.423 124.232L201.985 113.988C202.277 113.16 202.677 112.047 202.87 111.158C203.567 110.921 204.46 110.472 204.889 110.2C204.951 110.179 205.013 110.149 205.104 110.149C205.158 110.147 205.278 110.161 205.349 110.279C205.412 110.463 205.482 110.661 205.549 110.842L209.646 122.516C209.909 123.299 210.174 124.124 210.464 124.783C210.721 125.379 211.13 125.613 211.846 125.616H212.073V125.716V126.488L211.97 126.482ZM205.666 126.282C206.768 126.244 207.846 126.2 208.909 126.2C209.942 126.2 210.909 126.244 211.876 126.282V125.816H211.845C211.083 125.821 210.557 125.521 210.284 124.863C209.994 124.185 209.723 123.357 209.462 122.576L205.367 110.904C205.299 110.726 205.235 110.523 205.176 110.365C205.157 110.343 205.162 110.343 205.144 110.343H205.103C205.057 110.343 205.031 110.357 204.974 110.373C204.545 110.653 203.652 111.091 202.993 111.266C202.856 112.111 202.457 113.225 202.167 114.051L198.607 124.297C198.268 125.266 197.488 125.818 196.583 125.816H196.548V126.282C197.31 126.244 198.081 126.2 198.853 126.2C199.713 126.2 200.592 126.244 201.44 126.282V125.816H201.297C200.573 125.807 199.561 125.725 199.534 124.937C199.535 124.492 199.808 123.921 200.026 123.167L200.123 123.196L200.026 123.164L200.758 120.777H205.944L206.837 123.43C207.087 124.147 207.289 124.741 207.289 125.069C207.258 125.755 206.319 125.803 205.814 125.816H205.666L205.666 126.282ZM201.119 119.719L203.249 113.208H203.323H203.37H203.436L205.548 119.719H201.119ZM201.386 119.525H205.279L203.343 113.544L201.386 119.525Z" fill="#211E1F"/>
<path d="M212.954 111.919C211.285 111.919 211.219 112.321 210.884 113.949H210.216C210.304 113.326 210.416 112.702 210.486 112.052C210.575 111.427 210.616 110.804 210.616 110.158H211.152C211.33 110.828 211.888 110.805 212.485 110.805H223.965C224.562 110.805 225.118 110.783 225.164 110.111L225.696 110.201C225.611 110.805 225.523 111.407 225.455 112.01C225.407 112.612 225.407 113.216 225.407 113.816L224.741 114.065C224.699 113.24 224.588 111.919 223.097 111.919H219.449V123.795C219.449 125.516 220.23 125.713 221.294 125.713H221.716V126.386C220.85 126.386 219.295 126.298 218.092 126.298C216.759 126.298 215.2 126.386 214.333 126.386V125.713H214.754C215.98 125.713 216.603 125.603 216.603 123.842V111.919H212.954Z" fill="#211E1F"/>
<path d="M221.717 126.482C220.844 126.482 219.286 126.393 218.092 126.393C216.762 126.393 215.205 126.482 214.333 126.482H214.235V126.388V125.619H214.333H214.754C215.98 125.589 216.473 125.574 216.503 123.843L216.5 112.018H212.954V111.921V111.822H216.696V123.843C216.696 125.634 215.976 125.81 214.754 125.815H214.427V126.292C215.308 126.282 216.801 126.202 218.092 126.202C219.253 126.202 220.74 126.283 221.62 126.292V125.815H221.291C220.222 125.81 219.355 125.552 219.352 123.797V111.822H223.097C224.59 111.828 224.786 113.101 224.828 113.929L225.314 113.751C225.314 113.17 225.315 112.586 225.358 112.001C225.42 111.427 225.503 110.854 225.585 110.285L225.249 110.227C225.147 110.877 224.519 110.913 223.966 110.904H212.485H212.373C211.848 110.91 211.281 110.879 211.078 110.252H210.715C210.708 110.871 210.667 111.472 210.579 112.066C210.52 112.68 210.411 113.272 210.327 113.858H210.804C211.099 112.303 211.292 111.798 212.954 111.822V111.921L212.954 112.018C211.305 112.046 211.342 112.326 210.978 113.976L210.961 114.052H210.884H210.104L210.117 113.94C210.21 113.31 210.321 112.688 210.386 112.043C210.477 111.419 210.52 110.8 210.52 110.159V110.062H210.616H211.223L211.242 110.131C211.398 110.695 211.803 110.698 212.372 110.707L212.485 110.71H223.965C224.579 110.698 225.028 110.689 225.066 110.107L225.073 110L225.178 110.022L225.809 110.121L225.792 110.218C225.701 110.816 225.616 111.419 225.548 112.018C225.503 112.613 225.503 113.218 225.503 113.818V113.888L225.44 113.913L224.652 114.2L224.647 114.07C224.59 113.232 224.502 112.018 223.097 112.018H219.545V123.797C219.568 125.481 220.233 125.597 221.291 125.619H221.812V125.715V126.482L221.717 126.482Z" fill="#211E1F"/>
<path d="M226.518 125.713H226.829C227.633 125.713 228.473 125.605 228.473 124.442V112.748C228.473 111.585 227.633 111.475 226.829 111.475H226.518V110.805C227.386 110.805 228.719 110.893 229.806 110.893C230.923 110.893 232.257 110.805 233.303 110.805V111.475H232.991C232.191 111.475 231.342 111.585 231.342 112.748V124.442C231.342 125.605 232.191 125.713 232.991 125.713H233.303V126.386C232.234 126.386 230.898 126.298 229.789 126.298C228.697 126.298 227.386 126.386 226.518 126.386V125.713Z" fill="#211E1F"/>
<path d="M233.303 126.481C232.228 126.481 230.897 126.389 229.788 126.389C228.7 126.389 227.386 126.481 226.518 126.481H226.421V126.386V125.713V125.617H226.518H226.83C227.633 125.605 228.371 125.535 228.374 124.443V112.749C228.371 111.659 227.633 111.585 226.83 111.569H226.421V111.475V110.709H226.518C227.386 110.709 228.722 110.794 229.806 110.794C230.915 110.794 232.25 110.709 233.303 110.709H233.397V110.805V111.569H233.303H232.991C232.179 111.585 231.449 111.659 231.438 112.749V124.443C231.449 125.535 232.179 125.605 232.991 125.617H233.397V125.713V126.481H233.303ZM233.203 126.286V125.814H232.991C232.194 125.814 231.25 125.673 231.25 124.443V112.749C231.25 111.515 232.194 111.376 232.991 111.376H233.203V110.902C232.176 110.908 230.891 110.989 229.806 110.989C228.753 110.989 227.477 110.908 226.615 110.902V111.376H226.83C227.621 111.376 228.568 111.515 228.571 112.749V124.443C228.568 125.673 227.621 125.814 226.83 125.814H226.615V126.286C227.473 126.276 228.732 126.2 229.788 126.2C230.866 126.2 232.154 126.281 233.203 126.286Z" fill="#211E1F"/>
<path d="M242.173 110.471C246.914 110.471 250.693 113.42 250.693 118.173C250.693 123.308 247.023 126.721 242.288 126.721C237.569 126.721 233.969 123.506 233.969 118.707C233.969 114.066 237.547 110.471 242.173 110.471ZM242.509 125.738C246.825 125.738 247.576 121.918 247.576 118.664C247.576 115.401 245.824 111.452 242.13 111.452C238.237 111.452 237.081 114.934 237.081 117.922C237.081 121.918 238.904 125.738 242.509 125.738Z" fill="#211E1F"/>
<path d="M233.869 118.707C233.879 114.011 237.5 110.379 242.172 110.373V110.471V110.565C237.6 110.565 234.062 114.114 234.057 118.707C234.068 123.452 237.617 126.618 242.288 126.62C246.977 126.618 250.594 123.254 250.601 118.168C250.597 113.476 246.875 110.571 242.172 110.565V110.471V110.373C246.951 110.376 250.78 113.355 250.79 118.168C250.785 123.357 247.068 126.806 242.288 126.815C237.531 126.806 233.879 123.559 233.869 118.707H233.869V118.707ZM236.985 117.922C236.991 114.92 238.16 111.351 242.13 111.351C245.906 111.361 247.669 115.384 247.675 118.664C247.669 121.918 246.906 125.831 242.51 125.831V125.738V125.642C246.739 125.636 247.472 121.918 247.483 118.664C247.483 115.428 245.746 111.554 242.13 111.549C238.315 111.554 237.185 114.949 237.178 117.922C237.181 121.898 238.987 125.633 242.51 125.642V125.738V125.831C238.817 125.826 236.991 121.942 236.985 117.922Z" fill="#211E1F"/>
<path d="M265.682 121.986L265.727 121.943V113.574C265.727 111.741 264.456 111.475 263.788 111.475H263.307V110.805C264.349 110.805 265.372 110.893 266.415 110.893C267.329 110.893 268.241 110.805 269.154 110.805V111.475H268.818C267.886 111.475 266.839 111.653 266.839 114.309V124.467C266.839 125.247 266.861 126.027 266.973 126.719H266.129L254.672 113.906V123.104C254.672 125.046 255.049 125.713 256.761 125.713H257.142V126.386C256.184 126.386 255.229 126.298 254.273 126.298C253.272 126.298 252.246 126.386 251.245 126.386V125.713H251.558C253.096 125.713 253.557 124.667 253.557 122.883V113.481C253.557 112.232 252.539 111.475 251.535 111.475H251.245V110.805C252.09 110.805 252.959 110.893 253.802 110.893C254.47 110.893 255.114 110.805 255.783 110.805L265.682 121.986Z" fill="#211E1F"/>
<path d="M266.975 126.815L266.055 126.782L254.769 114.158V123.104C254.793 125.045 255.088 125.594 256.758 125.614H257.24V125.715V126.481H257.142C256.178 126.481 255.224 126.391 254.273 126.391C253.275 126.391 252.254 126.481 251.244 126.481H251.151V126.385V125.614H251.244H251.559C253.026 125.61 253.447 124.662 253.465 122.883V113.481C253.462 112.292 252.492 111.571 251.535 111.569H251.151V111.475V110.709H251.244C252.097 110.709 252.964 110.794 253.803 110.794C254.463 110.794 255.105 110.709 255.857 110.742L265.63 121.784V113.575C265.624 111.799 264.439 111.585 263.788 111.57H263.204V111.475V110.709H263.304C264.351 110.709 265.377 110.794 266.412 110.794C267.325 110.794 268.232 110.709 269.154 110.709H269.25V110.805V111.57H269.154H268.818C267.903 111.596 266.957 111.679 266.938 114.309V124.466C266.938 125.246 266.955 126.024 267.063 126.707L267.081 126.815H266.975V126.815ZM266.13 126.62H266.858C266.761 125.95 266.744 125.207 266.744 124.466V114.309C266.744 111.625 267.866 111.382 268.819 111.374H269.059V110.902C268.182 110.908 267.303 110.989 266.413 110.989C265.401 110.989 264.406 110.908 263.399 110.902V111.374H263.789C264.478 111.382 265.82 111.687 265.82 113.575L265.796 122.01L265.754 122.056L265.683 122.127L255.784 110.902C255.128 110.902 254.479 110.989 253.804 110.989C252.984 110.989 252.15 110.909 251.34 110.902V111.374H251.536C252.58 111.382 253.655 112.173 253.655 113.481V122.883C253.655 124.667 253.159 125.809 251.559 125.815L251.34 125.814V126.286C252.306 126.281 253.296 126.201 254.274 126.201C255.201 126.201 256.122 126.281 257.046 126.286V125.815H256.759C255.013 125.814 254.576 125.045 254.576 123.104V113.655L266.13 126.62ZM265.63 121.943V121.935L265.612 121.918L265.63 121.943Z" fill="#211E1F"/>
<path d="M272.729 123.195C272.512 123.952 272.242 124.537 272.242 124.935C272.242 125.606 273.178 125.715 273.908 125.715H274.156V126.388C273.266 126.34 272.353 126.3 271.463 126.3C270.659 126.3 269.862 126.34 269.064 126.388V125.715H269.191C270.062 125.715 270.8 125.202 271.128 124.263L274.691 114.021C274.978 113.194 275.381 112.078 275.511 111.25C276.223 111.008 277.111 110.562 277.538 110.293C277.602 110.269 277.647 110.246 277.714 110.246C277.781 110.246 277.822 110.246 277.867 110.316C277.935 110.492 278.005 110.695 278.071 110.873L282.161 122.548C282.428 123.328 282.694 124.153 282.986 124.825C283.253 125.45 283.722 125.715 284.453 125.715H284.589V126.388C283.587 126.34 282.586 126.3 281.517 126.3C280.429 126.3 279.316 126.34 278.18 126.388V125.715H278.427C278.935 125.715 279.808 125.628 279.808 125.069C279.808 124.78 279.605 124.178 279.357 123.461L278.494 120.872H273.444L272.729 123.195ZM275.981 113.306H275.936L273.865 119.623H278.027L275.981 113.306Z" fill="#211E1F"/>
<path d="M284.579 126.481C283.578 126.44 282.579 126.391 281.516 126.391C280.432 126.391 279.318 126.44 278.183 126.481L278.084 126.487V126.385V125.617H278.18H278.422C278.94 125.617 279.707 125.496 279.708 125.068C279.713 124.814 279.512 124.206 279.264 123.491L278.419 120.967H273.51L272.821 123.221C272.599 123.986 272.334 124.572 272.339 124.933C272.339 125.481 273.171 125.617 273.907 125.617H274.247V125.713V126.487L274.148 126.481C273.258 126.44 272.348 126.391 271.463 126.391C270.665 126.391 269.866 126.44 269.064 126.481L268.967 126.487V126.385V125.617H269.064H269.191C270.02 125.614 270.714 125.136 271.038 124.23L274.598 113.987C274.882 113.159 275.283 112.046 275.48 111.159C276.179 110.916 277.072 110.471 277.504 110.198C277.563 110.178 277.623 110.152 277.714 110.152C277.773 110.145 277.886 110.159 277.958 110.282C278.024 110.457 278.089 110.659 278.163 110.84L282.253 122.514C282.519 123.297 282.785 124.122 283.074 124.786C283.334 125.377 283.74 125.611 284.45 125.617H284.681V125.713V126.487L284.579 126.481ZM278.276 126.284C279.375 126.242 280.458 126.199 281.516 126.199C282.551 126.199 283.521 126.242 284.49 126.281L284.487 125.815H284.45C283.697 125.817 283.171 125.519 282.895 124.862C282.602 124.184 282.337 123.356 282.071 122.577L277.978 110.902C277.911 110.724 277.844 110.521 277.79 110.37C277.771 110.342 277.773 110.342 277.755 110.342H277.714C277.668 110.342 277.643 110.357 277.589 110.373C277.155 110.647 276.264 111.092 275.605 111.264C275.468 112.109 275.064 113.222 274.777 114.05L271.216 124.295C270.878 125.264 270.101 125.817 269.19 125.815H269.158V126.281C269.923 126.242 270.688 126.199 271.462 126.199C272.325 126.199 273.202 126.242 274.058 126.281V125.815H273.907C273.184 125.806 272.169 125.727 272.143 124.933C272.147 124.49 272.423 123.922 272.638 123.166L272.729 123.195L272.638 123.162L273.37 120.776H278.558L279.449 123.428C279.694 124.147 279.896 124.739 279.896 125.068C279.864 125.753 278.931 125.801 278.422 125.815H278.275V126.284H278.276ZM273.731 119.716L275.865 113.207H275.932H275.98H276.05L278.152 119.716H273.731ZM273.998 119.524H277.888L275.954 113.546L273.998 119.524Z" fill="#211E1F"/>
<path d="M290.193 124.198C290.193 125.091 290.81 125.357 291.523 125.448C292.435 125.516 293.436 125.516 294.463 125.403C295.394 125.291 296.197 124.755 296.594 124.198C296.949 123.706 297.15 123.08 297.284 122.59H297.929C297.685 123.862 297.373 125.116 297.105 126.386C295.152 126.386 293.19 126.298 291.236 126.298C289.276 126.298 287.321 126.386 285.364 126.386V125.713H285.669C286.475 125.713 287.345 125.605 287.345 124.219V112.748C287.345 111.585 286.475 111.475 285.669 111.475H285.364V110.805C286.539 110.805 287.698 110.893 288.875 110.893C290.013 110.893 291.124 110.805 292.259 110.805V111.475H291.699C290.857 111.475 290.193 111.5 290.193 112.679V124.198Z" fill="#211E1F"/>
<path d="M297.105 126.481C295.145 126.481 293.188 126.391 291.236 126.391C289.277 126.391 287.32 126.481 285.36 126.481H285.266V126.385V125.617H285.36H285.67C286.477 125.598 287.239 125.543 287.248 124.22V112.744C287.238 111.659 286.481 111.585 285.67 111.569H285.266V111.475V110.709H285.36C286.543 110.709 287.701 110.794 288.876 110.794C290.005 110.794 291.116 110.709 292.259 110.709H292.35V110.805V111.569H292.259H291.701C290.839 111.594 290.302 111.554 290.285 112.679V124.198C290.291 125.029 290.834 125.254 291.528 125.351C291.921 125.379 292.333 125.396 292.762 125.396C293.306 125.396 293.872 125.37 294.446 125.308C295.353 125.201 296.134 124.676 296.516 124.144C296.859 123.667 297.056 123.054 297.189 122.567L297.209 122.493H297.283H298.046L298.026 122.61C297.775 123.887 297.47 125.134 297.2 126.405L297.181 126.481H297.106H297.105V126.481ZM297.025 126.286C297.283 125.075 297.574 123.891 297.813 122.684H297.357C297.218 123.17 297.02 123.769 296.67 124.257C296.255 124.835 295.432 125.38 294.468 125.499C293.885 125.56 293.308 125.591 292.762 125.591C292.331 125.591 291.914 125.57 291.511 125.542C290.788 125.462 290.086 125.152 290.089 124.198V112.679C290.089 111.439 290.871 111.376 291.701 111.376H292.16V110.902C291.064 110.908 289.984 110.99 288.876 110.99C287.724 110.99 286.598 110.908 285.457 110.902V111.376H285.67C286.464 111.376 287.436 111.515 287.436 112.744V124.219C287.436 125.663 286.469 125.813 285.67 125.813H285.457V126.285C287.38 126.284 289.304 126.2 291.236 126.2C293.169 126.2 295.1 126.284 297.025 126.286Z" fill="#211E1F"/>
<path d="M297.659 110.172C298.999 110.172 300 111.206 300 112.53C300 113.849 298.999 114.874 297.659 114.874C296.318 114.874 295.315 113.849 295.315 112.53C295.315 111.206 296.318 110.172 297.659 110.172ZM297.659 114.436C298.706 114.436 299.511 113.538 299.511 112.53C299.511 111.517 298.718 110.611 297.659 110.611C296.605 110.611 295.8 111.517 295.8 112.53C295.8 113.538 296.605 114.436 297.659 114.436ZM296.492 113.769V113.652C296.781 113.612 296.833 113.622 296.833 113.442V111.702C296.833 111.458 296.807 111.375 296.503 111.387V111.268H297.702C298.115 111.268 298.493 111.464 298.493 111.891C298.493 112.241 298.261 112.499 297.939 112.6L298.323 113.139C298.503 113.383 298.706 113.612 298.84 113.693V113.768H298.383C298.164 113.768 297.973 113.306 297.541 112.685H297.282V113.467C297.282 113.621 297.336 113.612 297.624 113.652V113.768L296.492 113.769ZM297.282 112.53H297.558C297.86 112.53 298.002 112.3 298.002 111.93C298.002 111.555 297.783 111.424 297.543 111.424H297.282V112.53Z" fill="#211E1F"/>
<path d="M57.4843 139C78.7311 139.102 98.1239 121.614 98.1239 100.339C98.1239 77.0736 78.7311 60.9923 57.4843 61H39.199C17.6977 60.9923 0 77.0784 0 100.339C0 121.619 17.6977 139.102 39.199 139H57.4843Z" fill="#0079BE"/>
<path d="M39.2856 64.2246C19.6383 64.2308 3.71752 80.21 3.71289 99.9314C3.71752 119.649 19.6382 135.627 39.2856 135.633C58.9376 135.627 74.8616 119.649 74.8644 99.9314C74.8615 80.21 58.9376 64.2308 39.2856 64.2246ZM16.7371 99.9314C16.7556 90.2944 22.754 82.0766 31.2126 78.8109V121.047C22.754 117.783 16.7554 109.57 16.7371 99.9314ZM47.3556 121.056V78.8095C55.8173 82.0673 61.825 90.2898 61.8404 99.9314C61.825 109.576 55.8173 117.792 47.3556 121.056Z" fill="white"/>
<path d="M110.584 77.7816C110.584 74.0919 108.667 74.3349 106.828 74.2948V73.2285C108.422 73.3074 110.055 73.3074 111.652 73.3074C113.368 73.3074 115.699 73.2285 118.725 73.2285C129.309 73.2285 135.073 80.3228 135.073 87.5872C135.073 91.6497 132.704 101.862 118.233 101.862C116.149 101.862 114.226 101.782 112.305 101.782C110.467 101.782 108.667 101.822 106.828 101.862V100.798C109.279 100.55 110.467 100.468 110.584 97.6776L110.584 77.7816ZM114.591 97.023C114.591 100.182 116.842 100.55 118.844 100.55C127.676 100.55 130.575 93.8628 130.575 87.7497C130.575 80.0812 125.669 74.5438 117.781 74.5438C116.103 74.5438 115.332 74.6646 114.592 74.708L114.591 97.023Z" fill="#211E1F"/>
<path d="M136.507 100.796H137.281C138.424 100.796 139.243 100.796 139.243 99.4389V88.3241C139.243 86.5212 138.631 86.2704 137.118 85.4548V84.797C139.038 84.2182 141.33 83.4444 141.491 83.3206C141.779 83.1566 142.023 83.1132 142.228 83.1132C142.43 83.1132 142.515 83.3609 142.515 83.6905V99.4389C142.515 100.796 143.414 100.796 144.558 100.796H145.252V101.863C143.861 101.863 142.43 101.781 140.961 101.781C139.49 101.781 138.017 101.821 136.507 101.863V100.796H136.507ZM140.88 76.7972C139.815 76.7972 138.878 75.8131 138.878 74.7467C138.878 73.719 139.859 72.7734 140.88 72.7734C141.939 72.7734 142.883 73.6387 142.883 74.7467C142.883 75.8547 141.981 76.7972 140.88 76.7972Z" fill="#211E1F"/>
<path d="M149.136 88.5686C149.136 87.052 148.684 86.6434 146.767 85.8634V85.0851C148.524 84.5109 150.198 83.977 152.161 83.1134C152.283 83.1134 152.403 83.197 152.403 83.5236V86.1915C154.737 84.5109 156.741 83.1133 159.483 83.1133C162.953 83.1133 164.179 85.6574 164.179 88.8563V99.4391C164.179 100.796 165.079 100.796 166.225 100.796H166.96V101.863C165.526 101.863 164.096 101.781 162.628 101.781C161.155 101.781 159.682 101.821 158.212 101.863V100.796H158.946C160.093 100.796 160.906 100.796 160.906 99.4391V88.8176C160.906 86.4761 159.483 85.3293 157.149 85.3293C155.843 85.3293 153.757 86.3958 152.403 87.2994V99.4388C152.403 100.796 153.307 100.796 154.453 100.796H155.187V101.863C153.757 101.863 152.324 101.781 150.853 101.781C149.383 101.781 147.909 101.821 146.438 101.863V100.796H147.176C148.32 100.796 149.136 100.796 149.136 99.4388V88.5686H149.136Z" fill="#211E1F"/>
<path d="M170.069 90.5403C169.984 90.9103 169.984 91.5246 170.069 92.9205C170.309 96.8159 172.81 100.015 176.075 100.015C178.325 100.015 180.086 98.7846 181.597 97.268L182.167 97.8437C180.286 100.345 177.956 102.477 174.606 102.477C168.105 102.477 166.797 96.1582 166.797 93.5351C166.797 85.4935 172.192 83.1133 175.052 83.1133C178.365 83.1133 181.924 85.2043 181.962 89.5529C181.962 89.8021 181.962 90.0451 181.924 90.2942L181.553 90.5403H170.069ZM177.306 89.2265C178.325 89.2265 178.446 88.6926 178.446 88.202C178.446 86.1095 177.179 84.4272 174.889 84.4272C172.398 84.4272 170.681 86.2704 170.19 89.2265H177.306Z" fill="#211E1F"/>
<path d="M182.903 100.797H184.008C185.149 100.797 185.966 100.797 185.966 99.4391V87.914C185.966 86.6434 184.457 86.3958 183.841 86.0677V85.4548C186.826 84.1811 188.462 83.1133 188.834 83.1133C189.076 83.1133 189.196 83.2371 189.196 83.6488V87.3398H189.283C190.302 85.7411 192.022 83.1133 194.513 83.1133C195.536 83.1133 196.842 83.8097 196.842 85.2877C196.842 86.3958 196.068 87.3832 194.924 87.3832C193.651 87.3832 193.651 86.3958 192.223 86.3958C191.527 86.3958 189.24 87.3398 189.24 89.8021V99.4391C189.24 100.796 190.055 100.796 191.202 100.796H193.489V101.863C191.24 101.821 189.53 101.781 187.768 101.781C186.093 101.781 184.375 101.821 182.903 101.863L182.903 100.797Z" fill="#211E1F"/>
<path d="M198.642 96.158C199.174 98.8663 200.807 101.165 203.793 101.165C206.2 101.165 207.1 99.6883 207.1 98.2521C207.1 93.4111 198.191 94.9696 198.191 88.3659C198.191 86.0677 200.033 83.1133 204.527 83.1133C205.834 83.1133 207.591 83.4847 209.184 84.3065L209.474 88.4868H208.532C208.124 85.9052 206.695 84.4274 204.076 84.4274C202.441 84.4274 200.889 85.3716 200.889 87.1341C200.889 91.938 210.372 90.4569 210.372 96.8965C210.372 99.6033 208.204 102.477 203.34 102.477C201.705 102.477 199.784 101.903 198.355 101.084L197.904 96.3659L198.642 96.158Z" fill="#211E1F"/>
<path d="M247.284 80.6524H246.264C245.487 75.8547 242.093 73.9249 237.517 73.9249C232.813 73.9249 225.986 77.0818 225.986 86.9264C225.986 95.2185 231.876 101.164 238.169 101.164C242.215 101.164 245.57 98.3755 246.387 94.0671L247.325 94.3116L246.387 100.301C244.67 101.37 240.051 102.477 237.35 102.477C227.787 102.477 221.739 96.2819 221.739 87.0518C221.739 78.642 229.218 72.6094 237.23 72.6094C240.54 72.6094 243.728 73.6803 246.876 74.7884L247.284 80.6524Z" fill="#211E1F"/>
<path d="M248.758 100.797H249.532C250.678 100.797 251.499 100.797 251.499 99.4399V76.5941C251.499 73.926 250.885 73.8438 249.33 73.3935V72.7373C250.965 72.205 252.682 71.4651 253.541 70.9716C253.987 70.7271 254.317 70.5195 254.437 70.5195C254.687 70.5195 254.769 70.7673 254.769 71.0968V99.4399C254.769 100.797 255.666 100.797 256.812 100.797H257.502V101.864C256.118 101.864 254.687 101.782 253.214 101.782C251.744 101.782 250.273 101.822 248.758 101.864V100.797H248.758Z" fill="#211E1F"/>
<path d="M275.005 99.6033C275.005 100.345 275.452 100.385 276.146 100.385C276.638 100.385 277.249 100.345 277.783 100.345V101.208C276.023 101.371 272.671 102.233 271.894 102.477L271.689 102.353V99.0338C269.239 101.042 267.356 102.477 264.452 102.477C262.245 102.477 259.956 101.042 259.956 97.599V87.0938C259.956 86.0274 259.794 85.0012 257.508 84.7971V84.0171C258.981 83.9768 262.245 83.7306 262.778 83.7306C263.232 83.7306 263.232 84.0171 263.232 84.9193V95.5003C263.232 96.7339 263.232 100.261 266.785 100.261C268.175 100.261 270.014 99.1944 271.729 97.7629V86.7222C271.729 85.905 269.768 85.4547 268.3 85.0428V84.3046C271.974 84.057 274.268 83.7305 274.674 83.7305C275.005 83.7305 275.005 84.0168 275.005 84.4702L275.005 99.6033Z" fill="#211E1F"/>
<path d="M283.138 86.0686C284.772 84.6741 286.979 83.1142 289.229 83.1142C293.972 83.1142 296.83 87.2618 296.83 91.7297C296.83 97.1031 292.908 102.478 287.059 102.478C284.035 102.478 282.442 101.492 281.378 101.043L280.153 101.984L279.297 101.535C279.66 99.1149 279.868 96.7347 279.868 94.2337V76.5939C279.868 73.926 279.251 73.8438 277.699 73.3935V72.7373C279.339 72.205 281.051 71.4651 281.91 70.9714C282.361 70.7269 282.686 70.5195 282.812 70.5195C283.056 70.5195 283.138 70.7673 283.138 71.0968V86.0685H283.138V86.0686ZM283.138 97.2254C283.138 98.7854 284.608 101.413 287.347 101.413C291.721 101.413 293.56 97.1031 293.56 93.4509C293.56 89.0216 290.212 85.3306 287.022 85.3306C285.506 85.3306 284.241 86.3164 283.138 87.2618L283.138 97.2254Z" fill="#211E1F"/>
<path d="M106.781 125.713H107.094C107.893 125.713 108.739 125.605 108.739 124.442V112.748C108.739 111.585 107.893 111.475 107.094 111.475H106.781V110.805C107.65 110.805 108.984 110.893 110.077 110.893C111.188 110.893 112.521 110.805 113.566 110.805V111.475H113.253C112.456 111.475 111.609 111.585 111.609 112.748V124.442C111.609 125.605 112.456 125.713 113.253 125.713H113.566V126.386C112.499 126.386 111.162 126.298 110.053 126.298C108.962 126.298 107.65 126.386 106.781 126.386V125.713Z" fill="#211E1F"/>
<path d="M113.567 126.482C112.492 126.482 111.16 126.392 110.052 126.392C108.965 126.392 107.657 126.482 106.782 126.482H106.687V126.386V125.716V125.618H106.782H107.094C107.9 125.6 108.635 125.535 108.642 124.444V112.75C108.635 111.659 107.9 111.586 107.094 111.571H106.687V111.476V110.707H106.782C107.657 110.707 108.989 110.795 110.077 110.795C111.184 110.795 112.515 110.707 113.567 110.707H113.666V110.809V111.571H113.567H113.256C112.449 111.586 111.71 111.659 111.705 112.75V124.444C111.71 125.535 112.449 125.6 113.256 125.618H113.666V125.716V126.482H113.567ZM113.471 126.292V125.815H113.256C112.461 125.815 111.516 125.677 111.511 124.444V112.75C111.516 111.516 112.461 111.377 113.256 111.377H113.471V110.904C112.444 110.904 111.156 110.99 110.077 110.99C109.02 110.99 107.741 110.91 106.881 110.904V111.377H107.094C107.886 111.377 108.835 111.516 108.835 112.75V124.444C108.835 125.677 107.886 125.815 107.094 125.815H106.881V126.292C107.741 126.282 108.998 126.202 110.052 126.202C111.135 126.202 112.423 126.285 113.471 126.292Z" fill="#211E1F"/>
<path d="M128.847 121.986L128.892 121.943V113.574C128.892 111.741 127.623 111.475 126.956 111.475H126.466V110.805C127.513 110.805 128.536 110.893 129.58 110.893C130.491 110.893 131.408 110.805 132.318 110.805V111.475H131.984C131.048 111.475 130.002 111.653 130.002 114.309V124.467C130.002 125.247 130.025 126.027 130.135 126.719H129.288L117.836 113.906V123.104C117.836 125.046 118.211 125.713 119.926 125.713H120.302V126.386C119.347 126.386 118.393 126.298 117.435 126.298C116.437 126.298 115.413 126.386 114.41 126.386V125.713H114.722C116.256 125.713 116.722 124.667 116.722 122.883V113.481C116.722 112.232 115.697 111.475 114.7 111.475H114.41V110.805C115.255 110.805 116.122 110.893 116.966 110.893C117.634 110.893 118.28 110.805 118.946 110.805L128.847 121.986Z" fill="#211E1F"/>
<path d="M130.135 126.817L129.217 126.782L117.929 114.159V123.104C117.956 125.045 118.25 125.596 119.925 125.617H120.402V125.713V126.481H120.303C119.341 126.481 118.383 126.391 117.434 126.391C116.438 126.391 115.417 126.481 114.408 126.481H114.311V126.385V125.617H114.408H114.721C116.191 125.609 116.61 124.662 116.627 122.883V113.482C116.624 112.294 115.653 111.573 114.699 111.569H114.311V111.47V110.709H114.408C115.258 110.709 116.129 110.794 116.963 110.794C117.625 110.794 118.27 110.709 119.02 110.741L128.795 121.784V113.575C128.783 111.799 127.603 111.585 126.955 111.569H126.366V111.47V110.709H126.465C127.515 110.709 128.539 110.794 129.579 110.794C130.484 110.794 131.396 110.709 132.315 110.709H132.412V110.805V111.569H132.315H131.984C131.066 111.596 130.123 111.676 130.097 114.309V124.466C130.097 125.246 130.12 126.026 130.228 126.702L130.25 126.816H130.135V126.817ZM129.289 126.62H130.025C129.925 125.95 129.908 125.207 129.908 124.466V114.309C129.908 111.63 131.026 111.376 131.984 111.376H132.218V110.902C131.342 110.908 130.463 110.989 129.58 110.989C128.562 110.989 127.571 110.908 126.564 110.902L126.563 111.376H126.956C127.639 111.376 128.989 111.682 128.989 113.575L128.958 122.01L128.913 122.056L128.838 122.126L118.946 110.902C118.286 110.902 117.641 110.989 116.964 110.989C116.148 110.989 115.314 110.908 114.507 110.902L114.502 111.376H114.7C115.744 111.376 116.816 112.176 116.816 113.482V122.882C116.816 124.667 116.321 125.809 114.721 125.815L114.507 125.809V126.29C115.471 126.281 116.461 126.2 117.434 126.2C118.363 126.2 119.287 126.281 120.206 126.29V125.815H119.926C118.175 125.809 117.74 125.044 117.738 123.104V113.655L129.289 126.62ZM128.796 121.942V121.934L128.777 121.918L128.796 121.942Z" fill="#211E1F"/>
<path d="M135.648 111.919C133.977 111.919 133.914 112.321 133.581 113.949H132.913C133.001 113.326 133.112 112.702 133.18 112.052C133.269 111.427 133.312 110.804 133.312 110.158H133.848C134.027 110.828 134.582 110.805 135.185 110.805H146.659C147.26 110.805 147.816 110.783 147.862 110.111L148.393 110.201C148.306 110.805 148.217 111.407 148.149 112.01C148.109 112.612 148.109 113.216 148.109 113.816L147.439 114.065C147.393 113.24 147.282 111.919 145.794 111.919H142.146V123.795C142.146 125.516 142.925 125.713 143.989 125.713H144.413V126.386C143.546 126.386 141.987 126.298 140.789 126.298C139.454 126.298 137.895 126.386 137.027 126.386V125.713H137.451C138.677 125.713 139.297 125.603 139.297 123.842V111.919H135.648Z" fill="#211E1F"/>
<path d="M144.416 126.48C143.54 126.48 141.984 126.391 140.788 126.391C139.456 126.391 137.9 126.48 137.026 126.48H136.934V126.386V125.617H137.026H137.451C138.677 125.588 139.17 125.572 139.198 123.842V112.016H135.648V111.919V111.82H139.391V123.842C139.391 125.632 138.672 125.813 137.451 125.815H137.124V126.285C138.001 126.281 139.498 126.2 140.789 126.2C141.949 126.2 143.435 126.281 144.315 126.285V125.815H143.989C142.914 125.813 142.049 125.549 142.049 123.795V111.82H145.794C147.287 111.826 147.481 113.1 147.53 113.928L148.01 113.75C148.01 113.168 148.013 112.584 148.053 111.996C148.118 111.422 148.2 110.852 148.283 110.283L147.944 110.226C147.84 110.876 147.216 110.908 146.656 110.902H135.185H135.069C134.546 110.902 133.974 110.877 133.775 110.254H133.408C133.405 110.871 133.361 111.47 133.277 112.064C133.212 112.677 133.11 113.267 133.027 113.857H133.504C133.796 112.301 133.988 111.797 135.647 111.82V111.919V112.016C134.003 112.046 134.037 112.324 133.675 113.974L133.658 114.05H133.581H132.802L132.814 113.934C132.904 113.309 133.016 112.686 133.082 112.036C133.175 111.417 133.218 110.798 133.218 110.158V110.06H133.312H133.923L133.939 110.13C134.091 110.693 134.503 110.696 135.069 110.705H135.185H146.656C147.276 110.696 147.726 110.687 147.765 110.103L147.774 109.998L147.874 110.02L148.502 110.119L148.488 110.216C148.399 110.814 148.311 111.417 148.246 112.016C148.201 112.611 148.201 113.214 148.201 113.816V113.886L148.14 113.911L147.351 114.198L147.345 114.068C147.287 113.229 147.199 112.016 145.794 112.016H142.243V123.795C142.263 125.479 142.929 125.595 143.989 125.617H144.51V125.713V126.48L144.416 126.48Z" fill="#211E1F"/>
<path d="M149.104 125.713H149.417C150.216 125.713 151.062 125.605 151.062 124.442V112.748C151.062 111.585 150.216 111.475 149.417 111.475H149.104V110.805C150.458 110.805 152.775 110.893 154.639 110.893C156.512 110.893 158.821 110.805 160.332 110.805C160.295 111.763 160.315 113.239 160.382 114.219L159.711 114.398C159.604 112.948 159.337 111.789 157.001 111.789H153.911V117.634H156.555C157.889 117.634 158.181 116.878 158.312 115.669H158.978C158.935 116.543 158.912 117.413 158.912 118.283C158.912 119.133 158.935 119.979 158.978 120.827L158.312 120.96C158.181 119.622 158.113 118.752 156.577 118.752H153.911V123.95C153.911 125.404 155.196 125.404 156.621 125.404C159.291 125.404 160.468 125.222 161.136 122.681L161.759 122.834C161.468 124.02 161.202 125.201 161.005 126.386C159.58 126.386 157.021 126.298 155.022 126.298C153.017 126.298 150.372 126.386 149.104 126.386V125.713Z" fill="#211E1F"/>
<path d="M161.003 126.481C159.575 126.481 157.018 126.389 155.021 126.389C153.017 126.389 150.373 126.481 149.104 126.481H149.01V126.386V125.713V125.617H149.104H149.415C150.222 125.605 150.953 125.534 150.964 124.443V112.749C150.953 111.659 150.222 111.586 149.415 111.569H149.01V111.475V110.709H149.104C150.461 110.709 152.775 110.794 154.639 110.794C156.51 110.794 158.818 110.709 160.332 110.709H160.433L160.428 110.808C160.413 111.144 160.407 111.54 160.407 111.961C160.407 112.733 160.428 113.577 160.473 114.213L160.476 114.293L160.402 114.315L159.62 114.519L159.615 114.405C159.484 112.956 159.292 111.905 157.001 111.884H154.004L154.001 117.534H156.555C157.836 117.522 158.065 116.864 158.217 115.662L158.224 115.573H158.311H159.077L159.076 115.674C159.033 116.544 159.005 117.413 159.005 118.283C159.005 119.128 159.033 119.975 159.076 120.824L159.077 120.903L158.997 120.922L158.224 121.076L158.217 120.971C158.064 119.609 158.053 118.863 156.575 118.847L154.004 118.845V123.95C154.006 125.306 155.172 125.298 156.622 125.306C159.299 125.291 160.373 125.161 161.044 122.654L161.066 122.564L161.16 122.581L161.872 122.765L161.851 122.858C161.564 124.04 161.297 125.219 161.098 126.402L161.079 126.481H161.003ZM160.922 126.286C161.115 125.161 161.369 124.031 161.642 122.907L161.203 122.796C160.536 125.294 159.246 125.516 156.621 125.5C155.221 125.5 153.817 125.5 153.811 123.95V118.654H156.575C158.128 118.637 158.287 119.578 158.397 120.849L158.878 120.748C158.835 119.926 158.815 119.102 158.815 118.283C158.815 117.443 158.835 116.607 158.878 115.766H158.397C158.274 116.929 157.911 117.746 156.555 117.73H153.811V111.688H157.001C159.315 111.673 159.699 112.871 159.797 114.275L160.277 114.145C160.239 113.515 160.212 112.707 160.212 111.961C160.212 111.579 160.222 111.218 160.234 110.902C158.723 110.908 156.47 110.989 154.64 110.989C152.812 110.989 150.562 110.908 149.199 110.902V111.376H149.415C150.208 111.376 151.155 111.515 151.158 112.749V124.443C151.155 125.673 150.208 125.809 149.415 125.815H149.199V126.286C150.497 126.284 153.066 126.201 155.02 126.201C156.982 126.201 159.487 126.284 160.922 126.286Z" fill="#211E1F"/>
<path d="M164.762 113.171C164.762 111.543 163.873 111.476 163.181 111.476H162.781V110.805C163.494 110.805 164.871 110.894 166.229 110.894C167.563 110.894 168.632 110.805 169.809 110.805C172.609 110.805 175.104 111.565 175.104 114.737C175.104 116.741 173.77 117.97 172.013 118.665L175.815 124.376C176.438 125.32 176.88 125.584 177.973 125.714V126.388C177.238 126.388 176.526 126.299 175.793 126.299C175.104 126.299 174.389 126.388 173.703 126.388C171.991 124.133 170.519 121.722 169.074 119.153H167.611V123.932C167.611 125.653 168.408 125.714 169.43 125.714H169.831V126.388C168.561 126.388 167.276 126.3 166.006 126.3C164.938 126.3 163.892 126.388 162.781 126.388V125.714H163.181C164.007 125.714 164.762 125.34 164.762 124.512V113.171ZM167.61 118.349H168.696C170.922 118.349 172.12 117.501 172.12 114.867C172.12 112.883 170.854 111.609 168.872 111.609C168.204 111.609 167.92 111.679 167.61 111.699V118.349H167.61Z" fill="#211E1F"/>
<path d="M177.972 126.482C177.227 126.482 176.519 126.392 175.788 126.392C175.11 126.392 174.4 126.482 173.624 126.444C171.918 124.199 170.456 121.802 169.019 119.251H167.704V123.928C167.728 125.607 168.4 125.593 169.429 125.618H169.927V125.714V126.482H169.828C168.557 126.482 167.266 126.392 166.003 126.392C164.94 126.392 163.898 126.482 162.781 126.482H162.684V126.386V125.618H162.781H163.18C163.982 125.614 164.658 125.264 164.661 124.512V113.171C164.644 111.586 163.872 111.595 163.18 111.572H162.684V111.476V110.707H162.781C163.501 110.707 164.874 110.795 166.228 110.795C167.556 110.795 168.625 110.707 169.81 110.707C172.612 110.713 175.194 111.49 175.202 114.731C175.202 116.747 173.874 118.005 172.157 118.708L175.895 124.323C176.516 125.248 176.903 125.479 177.986 125.618L178.068 125.631V125.714V126.482H177.972V126.482ZM167.607 119.056H169.128L169.154 119.105C170.604 121.67 172.065 124.078 173.703 126.291C174.382 126.291 175.096 126.2 175.788 126.2C176.499 126.2 177.184 126.277 177.877 126.288V125.799C176.832 125.669 176.344 125.356 175.736 124.429L171.866 118.618L171.975 118.573C173.715 117.886 175.003 116.693 175.005 114.73C175.003 111.633 172.606 110.915 169.81 110.903C168.636 110.903 167.569 110.991 166.228 110.991C164.922 110.991 163.603 110.909 162.875 110.903V111.377H163.18C163.871 111.378 164.855 111.493 164.855 113.171V124.511C164.855 125.407 164.018 125.816 163.18 125.818H162.875V126.288C163.946 126.285 164.959 126.2 166.003 126.2C167.248 126.2 168.502 126.285 169.733 126.288V125.818H169.429C168.414 125.816 167.51 125.689 167.51 123.928V119.056H167.607H167.607ZM167.607 118.443H167.51V111.609L167.595 111.601C167.899 111.578 168.2 111.514 168.872 111.514C170.899 111.514 172.216 112.836 172.219 114.871C172.213 117.536 170.939 118.441 168.696 118.443H167.607V118.443ZM168.696 118.251C170.899 118.233 172.006 117.465 172.029 114.871C172.017 112.921 170.809 111.711 168.872 111.703C168.27 111.703 167.988 111.759 167.704 111.784V118.251H168.696Z" fill="#211E1F"/>
<path d="M193.074 121.986L193.114 121.943V113.574C193.114 111.741 191.848 111.475 191.182 111.475H190.694V110.805C191.738 110.805 192.76 110.893 193.807 110.893C194.72 110.893 195.629 110.805 196.546 110.805V111.475H196.211C195.277 111.475 194.231 111.653 194.231 114.309V124.467C194.231 125.247 194.253 126.027 194.362 126.719H193.519L182.065 113.906V123.104C182.065 125.046 182.442 125.713 184.154 125.713H184.532V126.386C183.577 126.386 182.62 126.298 181.665 126.298C180.661 126.298 179.638 126.386 178.639 126.386V125.713H178.947C180.484 125.713 180.951 124.667 180.951 122.883V113.481C180.951 112.232 179.928 111.475 178.929 111.475H178.639V110.805C179.481 110.805 180.352 110.893 181.196 110.893C181.859 110.893 182.507 110.805 183.175 110.805L193.074 121.986Z" fill="#211E1F"/>
<path d="M194.363 126.816L193.447 126.785L182.158 114.16V123.103C182.185 125.046 182.478 125.597 184.156 125.618H184.626V125.714V126.482H184.529C183.567 126.482 182.613 126.39 181.66 126.39C180.667 126.39 179.639 126.482 178.638 126.482H178.538V126.388V125.618H178.638H178.947C180.415 125.612 180.836 124.663 180.85 122.878V113.482C180.849 112.293 179.879 111.572 178.928 111.57H178.538V111.476V110.707H178.638C179.487 110.707 180.357 110.795 181.196 110.795C181.85 110.795 182.494 110.707 183.241 110.738L193.018 121.785V113.573C193.012 111.799 191.828 111.58 191.181 111.571H190.594V111.476V110.707H190.691C191.743 110.707 192.767 110.795 193.806 110.795C194.714 110.795 195.625 110.707 196.541 110.707H196.638V110.808V111.571H196.541H196.211C195.293 111.595 194.348 111.677 194.325 114.31V124.467C194.325 125.247 194.345 126.021 194.457 126.708L194.47 126.816H194.363ZM193.518 126.621H194.249C194.152 125.951 194.13 125.208 194.13 124.467V114.31C194.132 111.631 195.258 111.383 196.211 111.375H196.444V110.903C195.571 110.91 194.69 110.99 193.806 110.99C192.785 110.99 191.793 110.91 190.786 110.903V111.375H191.181C191.866 111.383 193.214 111.683 193.214 113.573L193.183 122.011L193.14 122.057L193.072 122.128L183.173 110.904C182.513 110.904 181.868 110.99 181.196 110.99C180.372 110.99 179.541 110.91 178.731 110.904V111.376H178.928C179.973 111.383 181.045 112.174 181.045 113.482V122.877C181.045 124.669 180.542 125.81 178.947 125.816L178.731 125.815V126.287C179.692 126.282 180.684 126.202 181.66 126.202C182.593 126.202 183.517 126.282 184.436 126.287V125.816H184.156C182.404 125.815 181.966 125.046 181.963 123.103V113.66L193.518 126.621ZM193.018 121.944V121.936L193.001 121.919L193.018 121.944Z" fill="#211E1F"/>
<path d="M200.122 123.195C199.897 123.952 199.629 124.537 199.629 124.935C199.629 125.606 200.565 125.715 201.296 125.715H201.545V126.388C200.653 126.34 199.745 126.3 198.849 126.3C198.048 126.3 197.252 126.34 196.45 126.388V125.715H196.584C197.451 125.715 198.187 125.202 198.515 124.263L202.078 114.021C202.365 113.194 202.769 112.078 202.904 111.25C203.612 111.008 204.503 110.562 204.924 110.293C204.994 110.269 205.032 110.246 205.102 110.246C205.168 110.246 205.211 110.246 205.26 110.316C205.325 110.492 205.39 110.695 205.461 110.873L209.553 122.548C209.82 123.328 210.083 124.153 210.372 124.825C210.641 125.45 211.109 125.715 211.845 125.715H211.976V126.388C210.975 126.34 209.973 126.3 208.908 126.3C207.818 126.3 206.703 126.34 205.569 126.388V125.715H205.816C206.325 125.715 207.195 125.628 207.195 125.069C207.195 124.78 206.994 124.178 206.746 123.461L205.881 120.872H200.833L200.122 123.195ZM203.368 113.306H203.323L201.255 119.623H205.411L203.368 113.306Z" fill="#211E1F"/>
<path d="M211.97 126.482C210.969 126.437 209.968 126.39 208.909 126.39C207.818 126.39 206.711 126.437 205.572 126.482L205.472 126.488V126.388V125.615H205.569H205.815C206.33 125.615 207.095 125.498 207.095 125.069C207.101 124.815 206.9 124.202 206.655 123.492L205.808 120.968H200.902L200.211 123.223C199.986 123.984 199.719 124.574 199.72 124.937C199.728 125.482 200.559 125.615 201.297 125.615H201.639V125.716V126.488L201.539 126.482C200.649 126.437 199.741 126.39 198.854 126.39C198.056 126.39 197.254 126.437 196.457 126.482L196.354 126.488V126.388V125.615H196.451H196.583C197.411 125.612 198.103 125.14 198.423 124.232L201.985 113.988C202.277 113.16 202.677 112.047 202.87 111.158C203.567 110.921 204.46 110.472 204.889 110.2C204.951 110.179 205.013 110.149 205.104 110.149C205.158 110.147 205.278 110.161 205.349 110.279C205.412 110.463 205.482 110.661 205.549 110.842L209.646 122.516C209.909 123.299 210.174 124.124 210.464 124.783C210.721 125.379 211.13 125.613 211.846 125.616H212.073V125.716V126.488L211.97 126.482ZM205.666 126.282C206.768 126.244 207.846 126.2 208.909 126.2C209.942 126.2 210.909 126.244 211.876 126.282V125.816H211.845C211.083 125.821 210.557 125.521 210.284 124.863C209.994 124.185 209.723 123.357 209.462 122.576L205.367 110.904C205.299 110.726 205.235 110.523 205.176 110.365C205.157 110.343 205.162 110.343 205.144 110.343H205.103C205.057 110.343 205.031 110.357 204.974 110.373C204.545 110.653 203.652 111.091 202.993 111.266C202.856 112.111 202.457 113.225 202.167 114.051L198.607 124.297C198.268 125.266 197.488 125.818 196.583 125.816H196.548V126.282C197.31 126.244 198.081 126.2 198.853 126.2C199.713 126.2 200.592 126.244 201.44 126.282V125.816H201.297C200.573 125.807 199.561 125.725 199.534 124.937C199.535 124.492 199.808 123.921 200.026 123.167L200.123 123.196L200.026 123.164L200.758 120.777H205.944L206.837 123.43C207.087 124.147 207.289 124.741 207.289 125.069C207.258 125.755 206.319 125.803 205.814 125.816H205.666L205.666 126.282ZM201.119 119.719L203.249 113.208H203.323H203.37H203.436L205.548 119.719H201.119ZM201.386 119.525H205.279L203.343 113.544L201.386 119.525Z" fill="#211E1F"/>
<path d="M212.954 111.919C211.285 111.919 211.219 112.321 210.884 113.949H210.216C210.304 113.326 210.416 112.702 210.486 112.052C210.575 111.427 210.616 110.804 210.616 110.158H211.152C211.33 110.828 211.888 110.805 212.485 110.805H223.965C224.562 110.805 225.118 110.783 225.164 110.111L225.696 110.201C225.611 110.805 225.523 111.407 225.455 112.01C225.407 112.612 225.407 113.216 225.407 113.816L224.741 114.065C224.699 113.24 224.588 111.919 223.097 111.919H219.449V123.795C219.449 125.516 220.23 125.713 221.294 125.713H221.716V126.386C220.85 126.386 219.295 126.298 218.092 126.298C216.759 126.298 215.2 126.386 214.333 126.386V125.713H214.754C215.98 125.713 216.603 125.603 216.603 123.842V111.919H212.954Z" fill="#211E1F"/>
<path d="M221.717 126.482C220.844 126.482 219.286 126.393 218.092 126.393C216.762 126.393 215.205 126.482 214.333 126.482H214.235V126.388V125.619H214.333H214.754C215.98 125.589 216.473 125.574 216.503 123.843L216.5 112.018H212.954V111.921V111.822H216.696V123.843C216.696 125.634 215.976 125.81 214.754 125.815H214.427V126.292C215.308 126.282 216.801 126.202 218.092 126.202C219.253 126.202 220.74 126.283 221.62 126.292V125.815H221.291C220.222 125.81 219.355 125.552 219.352 123.797V111.822H223.097C224.59 111.828 224.786 113.101 224.828 113.929L225.314 113.751C225.314 113.17 225.315 112.586 225.358 112.001C225.42 111.427 225.503 110.854 225.585 110.285L225.249 110.227C225.147 110.877 224.519 110.913 223.966 110.904H212.485H212.373C211.848 110.91 211.281 110.879 211.078 110.252H210.715C210.708 110.871 210.667 111.472 210.579 112.066C210.52 112.68 210.411 113.272 210.327 113.858H210.804C211.099 112.303 211.292 111.798 212.954 111.822V111.921L212.954 112.018C211.305 112.046 211.342 112.326 210.978 113.976L210.961 114.052H210.884H210.104L210.117 113.94C210.21 113.31 210.321 112.688 210.386 112.043C210.477 111.419 210.52 110.8 210.52 110.159V110.062H210.616H211.223L211.242 110.131C211.398 110.695 211.803 110.698 212.372 110.707L212.485 110.71H223.965C224.579 110.698 225.028 110.689 225.066 110.107L225.073 110L225.178 110.022L225.809 110.121L225.792 110.218C225.701 110.816 225.616 111.419 225.548 112.018C225.503 112.613 225.503 113.218 225.503 113.818V113.888L225.44 113.913L224.652 114.2L224.647 114.07C224.59 113.232 224.502 112.018 223.097 112.018H219.545V123.797C219.568 125.481 220.233 125.597 221.291 125.619H221.812V125.715V126.482L221.717 126.482Z" fill="#211E1F"/>
<path d="M226.518 125.713H226.829C227.633 125.713 228.473 125.605 228.473 124.442V112.748C228.473 111.585 227.633 111.475 226.829 111.475H226.518V110.805C227.386 110.805 228.719 110.893 229.806 110.893C230.923 110.893 232.257 110.805 233.303 110.805V111.475H232.991C232.191 111.475 231.342 111.585 231.342 112.748V124.442C231.342 125.605 232.191 125.713 232.991 125.713H233.303V126.386C232.234 126.386 230.898 126.298 229.789 126.298C228.697 126.298 227.386 126.386 226.518 126.386V125.713Z" fill="#211E1F"/>
<path d="M233.303 126.481C232.228 126.481 230.897 126.389 229.788 126.389C228.7 126.389 227.386 126.481 226.518 126.481H226.421V126.386V125.713V125.617H226.518H226.83C227.633 125.605 228.371 125.535 228.374 124.443V112.749C228.371 111.659 227.633 111.585 226.83 111.569H226.421V111.475V110.709H226.518C227.386 110.709 228.722 110.794 229.806 110.794C230.915 110.794 232.25 110.709 233.303 110.709H233.397V110.805V111.569H233.303H232.991C232.179 111.585 231.449 111.659 231.438 112.749V124.443C231.449 125.535 232.179 125.605 232.991 125.617H233.397V125.713V126.481H233.303ZM233.203 126.286V125.814H232.991C232.194 125.814 231.25 125.673 231.25 124.443V112.749C231.25 111.515 232.194 111.376 232.991 111.376H233.203V110.902C232.176 110.908 230.891 110.989 229.806 110.989C228.753 110.989 227.477 110.908 226.615 110.902V111.376H226.83C227.621 111.376 228.568 111.515 228.571 112.749V124.443C228.568 125.673 227.621 125.814 226.83 125.814H226.615V126.286C227.473 126.276 228.732 126.2 229.788 126.2C230.866 126.2 232.154 126.281 233.203 126.286Z" fill="#211E1F"/>
<path d="M242.173 110.471C246.914 110.471 250.693 113.42 250.693 118.173C250.693 123.308 247.023 126.721 242.288 126.721C237.569 126.721 233.969 123.506 233.969 118.707C233.969 114.066 237.547 110.471 242.173 110.471ZM242.509 125.738C246.825 125.738 247.576 121.918 247.576 118.664C247.576 115.401 245.824 111.452 242.13 111.452C238.237 111.452 237.081 114.934 237.081 117.922C237.081 121.918 238.904 125.738 242.509 125.738Z" fill="#211E1F"/>
<path d="M233.869 118.707C233.879 114.011 237.5 110.379 242.172 110.373V110.471V110.565C237.6 110.565 234.062 114.114 234.057 118.707C234.068 123.452 237.617 126.618 242.288 126.62C246.977 126.618 250.594 123.254 250.601 118.168C250.597 113.476 246.875 110.571 242.172 110.565V110.471V110.373C246.951 110.376 250.78 113.355 250.79 118.168C250.785 123.357 247.068 126.806 242.288 126.815C237.531 126.806 233.879 123.559 233.869 118.707H233.869V118.707ZM236.985 117.922C236.991 114.92 238.16 111.351 242.13 111.351C245.906 111.361 247.669 115.384 247.675 118.664C247.669 121.918 246.906 125.831 242.51 125.831V125.738V125.642C246.739 125.636 247.472 121.918 247.483 118.664C247.483 115.428 245.746 111.554 242.13 111.549C238.315 111.554 237.185 114.949 237.178 117.922C237.181 121.898 238.987 125.633 242.51 125.642V125.738V125.831C238.817 125.826 236.991 121.942 236.985 117.922Z" fill="#211E1F"/>
<path d="M265.682 121.986L265.727 121.943V113.574C265.727 111.741 264.456 111.475 263.788 111.475H263.307V110.805C264.349 110.805 265.372 110.893 266.415 110.893C267.329 110.893 268.241 110.805 269.154 110.805V111.475H268.818C267.886 111.475 266.839 111.653 266.839 114.309V124.467C266.839 125.247 266.861 126.027 266.973 126.719H266.129L254.672 113.906V123.104C254.672 125.046 255.049 125.713 256.761 125.713H257.142V126.386C256.184 126.386 255.229 126.298 254.273 126.298C253.272 126.298 252.246 126.386 251.245 126.386V125.713H251.558C253.096 125.713 253.557 124.667 253.557 122.883V113.481C253.557 112.232 252.539 111.475 251.535 111.475H251.245V110.805C252.09 110.805 252.959 110.893 253.802 110.893C254.47 110.893 255.114 110.805 255.783 110.805L265.682 121.986Z" fill="#211E1F"/>
<path d="M266.975 126.815L266.055 126.782L254.769 114.158V123.104C254.793 125.045 255.088 125.594 256.758 125.614H257.24V125.715V126.481H257.142C256.178 126.481 255.224 126.391 254.273 126.391C253.275 126.391 252.254 126.481 251.244 126.481H251.151V126.385V125.614H251.244H251.559C253.026 125.61 253.447 124.662 253.465 122.883V113.481C253.462 112.292 252.492 111.571 251.535 111.569H251.151V111.475V110.709H251.244C252.097 110.709 252.964 110.794 253.803 110.794C254.463 110.794 255.105 110.709 255.857 110.742L265.63 121.784V113.575C265.624 111.799 264.439 111.585 263.788 111.57H263.204V111.475V110.709H263.304C264.351 110.709 265.377 110.794 266.412 110.794C267.325 110.794 268.232 110.709 269.154 110.709H269.25V110.805V111.57H269.154H268.818C267.903 111.596 266.957 111.679 266.938 114.309V124.466C266.938 125.246 266.955 126.024 267.063 126.707L267.081 126.815H266.975V126.815ZM266.13 126.62H266.858C266.761 125.95 266.744 125.207 266.744 124.466V114.309C266.744 111.625 267.866 111.382 268.819 111.374H269.059V110.902C268.182 110.908 267.303 110.989 266.413 110.989C265.401 110.989 264.406 110.908 263.399 110.902V111.374H263.789C264.478 111.382 265.82 111.687 265.82 113.575L265.796 122.01L265.754 122.056L265.683 122.127L255.784 110.902C255.128 110.902 254.479 110.989 253.804 110.989C252.984 110.989 252.15 110.909 251.34 110.902V111.374H251.536C252.58 111.382 253.655 112.173 253.655 113.481V122.883C253.655 124.667 253.159 125.809 251.559 125.815L251.34 125.814V126.286C252.306 126.281 253.296 126.201 254.274 126.201C255.201 126.201 256.122 126.281 257.046 126.286V125.815H256.759C255.013 125.814 254.576 125.045 254.576 123.104V113.655L266.13 126.62ZM265.63 121.943V121.935L265.612 121.918L265.63 121.943Z" fill="#211E1F"/>
<path d="M272.729 123.195C272.512 123.952 272.242 124.537 272.242 124.935C272.242 125.606 273.178 125.715 273.908 125.715H274.156V126.388C273.266 126.34 272.353 126.3 271.463 126.3C270.659 126.3 269.862 126.34 269.064 126.388V125.715H269.191C270.062 125.715 270.8 125.202 271.128 124.263L274.691 114.021C274.978 113.194 275.381 112.078 275.511 111.25C276.223 111.008 277.111 110.562 277.538 110.293C277.602 110.269 277.647 110.246 277.714 110.246C277.781 110.246 277.822 110.246 277.867 110.316C277.935 110.492 278.005 110.695 278.071 110.873L282.161 122.548C282.428 123.328 282.694 124.153 282.986 124.825C283.253 125.45 283.722 125.715 284.453 125.715H284.589V126.388C283.587 126.34 282.586 126.3 281.517 126.3C280.429 126.3 279.316 126.34 278.18 126.388V125.715H278.427C278.935 125.715 279.808 125.628 279.808 125.069C279.808 124.78 279.605 124.178 279.357 123.461L278.494 120.872H273.444L272.729 123.195ZM275.981 113.306H275.936L273.865 119.623H278.027L275.981 113.306Z" fill="#211E1F"/>
<path d="M284.579 126.481C283.578 126.44 282.579 126.391 281.516 126.391C280.432 126.391 279.318 126.44 278.183 126.481L278.084 126.487V126.385V125.617H278.18H278.422C278.94 125.617 279.707 125.496 279.708 125.068C279.713 124.814 279.512 124.206 279.264 123.491L278.419 120.967H273.51L272.821 123.221C272.599 123.986 272.334 124.572 272.339 124.933C272.339 125.481 273.171 125.617 273.907 125.617H274.247V125.713V126.487L274.148 126.481C273.258 126.44 272.348 126.391 271.463 126.391C270.665 126.391 269.866 126.44 269.064 126.481L268.967 126.487V126.385V125.617H269.064H269.191C270.02 125.614 270.714 125.136 271.038 124.23L274.598 113.987C274.882 113.159 275.283 112.046 275.48 111.159C276.179 110.916 277.072 110.471 277.504 110.198C277.563 110.178 277.623 110.152 277.714 110.152C277.773 110.145 277.886 110.159 277.958 110.282C278.024 110.457 278.089 110.659 278.163 110.84L282.253 122.514C282.519 123.297 282.785 124.122 283.074 124.786C283.334 125.377 283.74 125.611 284.45 125.617H284.681V125.713V126.487L284.579 126.481ZM278.276 126.284C279.375 126.242 280.458 126.199 281.516 126.199C282.551 126.199 283.521 126.242 284.49 126.281L284.487 125.815H284.45C283.697 125.817 283.171 125.519 282.895 124.862C282.602 124.184 282.337 123.356 282.071 122.577L277.978 110.902C277.911 110.724 277.844 110.521 277.79 110.37C277.771 110.342 277.773 110.342 277.755 110.342H277.714C277.668 110.342 277.643 110.357 277.589 110.373C277.155 110.647 276.264 111.092 275.605 111.264C275.468 112.109 275.064 113.222 274.777 114.05L271.216 124.295C270.878 125.264 270.101 125.817 269.19 125.815H269.158V126.281C269.923 126.242 270.688 126.199 271.462 126.199C272.325 126.199 273.202 126.242 274.058 126.281V125.815H273.907C273.184 125.806 272.169 125.727 272.143 124.933C272.147 124.49 272.423 123.922 272.638 123.166L272.729 123.195L272.638 123.162L273.37 120.776H278.558L279.449 123.428C279.694 124.147 279.896 124.739 279.896 125.068C279.864 125.753 278.931 125.801 278.422 125.815H278.275V126.284H278.276ZM273.731 119.716L275.865 113.207H275.932H275.98H276.05L278.152 119.716H273.731ZM273.998 119.524H277.888L275.954 113.546L273.998 119.524Z" fill="#211E1F"/>
<path d="M290.193 124.198C290.193 125.091 290.81 125.357 291.523 125.448C292.435 125.516 293.436 125.516 294.463 125.403C295.394 125.291 296.197 124.755 296.594 124.198C296.949 123.706 297.15 123.08 297.284 122.59H297.929C297.685 123.862 297.373 125.116 297.105 126.386C295.152 126.386 293.19 126.298 291.236 126.298C289.276 126.298 287.321 126.386 285.364 126.386V125.713H285.669C286.475 125.713 287.345 125.605 287.345 124.219V112.748C287.345 111.585 286.475 111.475 285.669 111.475H285.364V110.805C286.539 110.805 287.698 110.893 288.875 110.893C290.013 110.893 291.124 110.805 292.259 110.805V111.475H291.699C290.857 111.475 290.193 111.5 290.193 112.679V124.198Z" fill="#211E1F"/>
<path d="M297.105 126.481C295.145 126.481 293.188 126.391 291.236 126.391C289.277 126.391 287.32 126.481 285.36 126.481H285.266V126.385V125.617H285.36H285.67C286.477 125.598 287.239 125.543 287.248 124.22V112.744C287.238 111.659 286.481 111.585 285.67 111.569H285.266V111.475V110.709H285.36C286.543 110.709 287.701 110.794 288.876 110.794C290.005 110.794 291.116 110.709 292.259 110.709H292.35V110.805V111.569H292.259H291.701C290.839 111.594 290.302 111.554 290.285 112.679V124.198C290.291 125.029 290.834 125.254 291.528 125.351C291.921 125.379 292.333 125.396 292.762 125.396C293.306 125.396 293.872 125.37 294.446 125.308C295.353 125.201 296.134 124.676 296.516 124.144C296.859 123.667 297.056 123.054 297.189 122.567L297.209 122.493H297.283H298.046L298.026 122.61C297.775 123.887 297.47 125.134 297.2 126.405L297.181 126.481H297.106H297.105V126.481ZM297.025 126.286C297.283 125.075 297.574 123.891 297.813 122.684H297.357C297.218 123.17 297.02 123.769 296.67 124.257C296.255 124.835 295.432 125.38 294.468 125.499C293.885 125.56 293.308 125.591 292.762 125.591C292.331 125.591 291.914 125.57 291.511 125.542C290.788 125.462 290.086 125.152 290.089 124.198V112.679C290.089 111.439 290.871 111.376 291.701 111.376H292.16V110.902C291.064 110.908 289.984 110.99 288.876 110.99C287.724 110.99 286.598 110.908 285.457 110.902V111.376H285.67C286.464 111.376 287.436 111.515 287.436 112.744V124.219C287.436 125.663 286.469 125.813 285.67 125.813H285.457V126.285C287.38 126.284 289.304 126.2 291.236 126.2C293.169 126.2 295.1 126.284 297.025 126.286Z" fill="#211E1F"/>
<path d="M297.659 110.172C298.999 110.172 300 111.206 300 112.53C300 113.849 298.999 114.874 297.659 114.874C296.318 114.874 295.315 113.849 295.315 112.53C295.315 111.206 296.318 110.172 297.659 110.172ZM297.659 114.436C298.706 114.436 299.511 113.538 299.511 112.53C299.511 111.517 298.718 110.611 297.659 110.611C296.605 110.611 295.8 111.517 295.8 112.53C295.8 113.538 296.605 114.436 297.659 114.436ZM296.492 113.769V113.652C296.781 113.612 296.833 113.622 296.833 113.442V111.702C296.833 111.458 296.807 111.375 296.503 111.387V111.268H297.702C298.115 111.268 298.493 111.464 298.493 111.891C298.493 112.241 298.261 112.499 297.939 112.6L298.323 113.139C298.503 113.383 298.706 113.612 298.84 113.693V113.768H298.383C298.164 113.768 297.973 113.306 297.541 112.685H297.282V113.467C297.282 113.621 297.336 113.612 297.624 113.652V113.768L296.492 113.769ZM297.282 112.53H297.558C297.86 112.53 298.002 112.3 298.002 111.93C298.002 111.555 297.783 111.424 297.543 111.424H297.282V112.53Z" fill="#211E1F"/>
</g>
<defs>
<clipPath id="clip0_158_5476">
<rect width="300" height="78" fill="white" transform="translate(0 61)"/>
</clipPath>
</defs>
</svg>
