<svg width="300" height="200" viewBox="0 0 300 200" fill="none" xmlns="http://www.w3.org/2000/svg">
<g clip-path="url(#clip0_158_5582)">
<path d="M270.243 69.3025L285.56 99.7172L253.36 130.146L270.243 69.3025Z" fill="#008C44"/>
<path d="M259.637 69.3025L274.932 99.7172L242.753 130.146L259.637 69.3025Z" fill="#F47920"/>
<path d="M14.0605 119.08L29.3325 64.0587H53.7485C61.3792 64.0587 66.4765 65.2667 69.0699 67.7561C71.6445 70.2254 72.1405 74.2561 70.5885 79.9214C69.6499 83.2587 68.2232 86.0601 66.2632 88.2734C64.3192 90.4907 61.7552 92.2441 58.5979 93.5334C61.2765 94.1774 62.9805 95.4561 63.7445 97.3734C64.5045 99.2907 64.4165 102.087 63.4939 105.752L61.6365 113.437L61.6312 113.645C61.0952 115.797 61.2539 116.949 62.1272 117.043L61.5645 119.08H45.0472C45.1032 117.785 45.2059 116.628 45.3152 115.656C45.4352 114.661 45.5832 113.891 45.7299 113.361L47.2699 107.867C48.0459 105.009 48.0939 103.016 47.3739 101.868C46.6472 100.689 45.0205 100.109 42.4525 100.109H35.5112L30.2179 119.08H14.0605ZM38.9459 87.7107H46.3805C48.9859 87.7107 50.9085 87.3387 52.0939 86.5694C53.2845 85.7934 54.1685 84.4827 54.6872 82.5867C55.2245 80.6587 55.0925 79.3147 54.3219 78.5507C53.5525 77.7747 51.7112 77.3974 48.8165 77.3974H41.8085L38.9459 87.7107Z" fill="#1B3281"/>
<path d="M115.92 78.4783L104.661 119.08H90.9797L92.6611 113.132C90.2531 115.497 87.7891 117.293 85.3051 118.441C82.8411 119.609 80.2411 120.184 77.5037 120.184C75.2411 120.184 73.2984 119.773 71.7344 118.958C70.1517 118.146 68.9731 116.912 68.1797 115.284C67.4757 113.858 67.1691 112.098 67.2891 109.996C67.4157 107.926 68.1464 104.436 69.5011 99.5476L75.3357 78.4783H90.3011L84.4784 99.4489C83.6277 102.518 83.4251 104.676 83.8397 105.85C84.2717 107.036 85.4251 107.648 87.2971 107.648C89.1824 107.648 90.7677 106.965 92.0771 105.572C93.4051 104.19 94.4304 102.13 95.2011 99.3889L100.976 78.4783H115.92Z" fill="#1B3281"/>
<path d="M110.49 119.08L125.746 64.0587H146.733C151.364 64.0587 154.948 64.3321 157.504 64.9321C160.054 65.5067 162.054 66.4401 163.541 67.7561C165.404 69.4774 166.545 71.6081 167.014 74.1641C167.456 76.7201 167.194 79.6974 166.228 83.1934C164.518 89.3441 161.522 94.0574 157.253 97.3507C152.97 100.601 147.672 102.235 141.348 102.235H131.526L126.861 119.08H110.49ZM135.245 88.7974H140.522C143.934 88.7974 146.333 88.3761 147.738 87.5627C149.098 86.7387 150.065 85.2747 150.654 83.1934C151.244 81.0841 151.092 79.6094 150.201 78.7854C149.344 77.9654 147.153 77.5507 143.648 77.5507H138.381L135.245 88.7974Z" fill="#1B3281"/>
<path d="M183.832 119.081L183.984 115.225C181.571 117.031 179.127 118.397 176.67 119.25C174.223 120.119 171.618 120.561 168.827 120.561C164.588 120.561 161.632 119.409 159.923 117.179C158.235 114.946 157.958 111.739 159.11 107.649C160.212 103.611 162.174 100.639 165.003 98.7392C167.816 96.8165 172.515 95.4405 179.107 94.5605C179.943 94.4245 181.063 94.3152 182.466 94.1459C187.339 93.5819 190.075 92.2832 190.664 90.1645C190.971 89.0045 190.784 88.1485 190.064 87.6232C189.37 87.0779 188.071 86.8099 186.196 86.8099C184.64 86.8099 183.388 87.1325 182.362 87.8032C181.336 88.4805 180.571 89.4699 180.052 90.8619H165.462C166.779 86.2912 169.471 82.8379 173.512 80.5285C177.539 78.1792 182.848 77.0486 189.424 77.0486C192.516 77.0486 195.286 77.3379 197.734 77.9659C200.186 78.5672 201.978 79.4245 203.14 80.4619C204.571 81.7565 205.418 83.2325 205.659 84.8645C205.938 86.4925 205.632 88.8259 204.779 91.8792L198.503 114.515C198.302 115.257 198.263 115.918 198.372 116.519C198.503 117.093 198.754 117.583 199.196 117.934L198.859 119.081H183.832ZM187.47 100.951C185.88 101.59 183.815 102.202 181.248 102.874C177.218 103.955 174.95 105.398 174.459 107.183C174.119 108.331 174.256 109.215 174.818 109.887C175.371 110.526 176.332 110.849 177.687 110.849C180.171 110.849 182.166 110.221 183.652 108.981C185.143 107.725 186.258 105.753 187.038 103.033C187.174 102.454 187.294 102.038 187.371 101.727L187.47 100.951Z" fill="#1B3281"/>
<path d="M198.974 135.079L202.295 123.062H206.578C208.008 123.062 209.134 122.779 209.931 122.264C210.74 121.73 211.291 120.828 211.608 119.615C211.767 119.08 211.864 118.518 211.931 117.879C211.974 117.202 211.974 116.486 211.931 115.656L209.646 78.4791H224.794L224.559 103.114L237.783 78.4791H251.87L228.491 118.884C225.838 123.4 223.91 126.503 222.686 128.196C221.478 129.868 220.331 131.168 219.218 132.048C217.775 133.266 216.164 134.128 214.426 134.631C212.683 135.144 210.03 135.4 206.463 135.4C205.436 135.4 204.255 135.38 202.978 135.314C201.71 135.264 200.356 135.188 198.974 135.079Z" fill="#1B3281"/>
</g>
<defs>
<clipPath id="clip0_158_5582">
<rect width="271.623" height="71.452" fill="white" transform="translate(14 64)"/>
</clipPath>
</defs>
</svg>
