<svg width="300" height="200" viewBox="0 0 300 200" fill="none" xmlns="http://www.w3.org/2000/svg">
<g clip-path="url(#clip0_158_5609)">
<path d="M156.555 60.2856C157.42 59.8939 159.167 59.7347 159.365 60.9547C158.577 61.5178 156.627 61.0159 156.991 62.5052C157.218 63.6599 158.666 63.0397 159.47 63.2763C159.414 63.5293 159.297 64.0312 159.236 64.28C157.934 64.4473 156.607 64.4188 155.301 64.3168C154.852 63.7863 155.353 63.3865 155.701 62.9989C155.56 62.0523 155.446 60.6854 156.555 60.2856Z" fill="#233741"/>
<path d="M47.9232 62.7384C48.9342 62.7751 50.9442 62.0244 50.8512 63.6769C50.9199 67.6469 50.8309 71.6169 50.8795 75.591C50.928 76.052 50.8714 77.015 51.6115 76.8762C55.1987 76.9742 58.7899 76.8966 62.3771 76.9048C61.7017 75.2034 61.087 73.2326 59.4208 72.2493C58.0013 71.3313 56.2623 71.5638 54.6648 71.5434C54.592 70.6907 53.9773 69.487 55.0045 69.0137C57.5524 68.569 60.5451 68.7771 62.4176 70.7927C64.0716 72.3391 64.6378 74.5995 65.6812 76.5335C66.8176 77.3169 68.3868 76.8762 69.6607 76.6437C69.7012 74.1996 69.6364 71.7515 69.7092 69.3034C70.6192 69.2708 71.5291 69.2626 72.4391 69.2708C72.5806 71.7066 72.4917 74.1466 72.5119 76.5825C74.0689 76.966 75.6744 76.966 77.2638 76.8885C77.4903 72.1636 77.2719 67.4306 77.3851 62.7058C78.291 62.6568 79.2091 62.563 80.1069 62.7507C80.3212 64.9703 80.1433 67.2062 80.1999 69.434C80.1433 72.7471 80.3293 76.0724 80.0786 79.3855C79.108 79.6589 78.105 79.8262 77.098 79.7936C75.0759 79.7283 72.9729 80.0465 71.0438 79.2631C69.9964 79.5977 68.9085 79.8425 67.8044 79.7936C62.0051 79.7609 56.2097 79.8099 50.4144 79.7691C48.9949 79.8711 47.8504 78.6021 47.9272 77.2067C47.8948 72.384 47.911 67.5612 47.9232 62.7384Z" fill="#233741"/>
<path d="M83.0629 62.7464C84.078 62.7831 86.1122 62.0079 86.0354 63.6726C85.9868 69.038 86.2457 74.428 85.8817 79.7852C84.9434 79.7852 84.0052 79.773 83.0669 79.7363C82.986 74.0771 82.9941 68.4097 83.0629 62.7464Z" fill="#233741"/>
<path d="M116.573 62.706C117.495 62.653 118.417 62.6407 119.343 62.6693C119.501 65.0603 119.4 67.4594 119.428 69.8504C121.62 68.7569 124.136 68.6467 126.522 68.9813C127.869 69.2833 129.215 70.0218 129.874 71.2948C130.91 73.2288 130.546 75.5014 130.554 77.6027C130.433 78.4024 130.513 79.8754 129.32 79.753C123.384 79.8305 117.443 79.7571 111.506 79.7897C110.418 79.8958 109.015 79.4103 108.885 78.1495C108.683 75.9503 108.881 73.7306 108.788 71.5233C107.761 71.6253 106.475 71.2785 105.714 72.1883C105.249 72.6657 105.173 73.3553 105.132 73.9918C105.011 76.4358 105.205 78.888 105.051 81.332C104.716 82.1358 103.7 81.9685 103.009 82.1154C100.081 82.2949 96.522 82.6336 94.3543 80.2059C92.4738 77.8353 92.7285 74.5426 93.2421 71.7354C94.0914 71.7191 94.9367 71.7232 95.786 71.7436C95.8951 73.8857 95.2319 76.4195 96.7363 78.2107C98.1356 79.6347 100.324 79.4103 102.139 79.2715C102.228 76.7663 101.945 74.2121 102.564 71.7599C103.049 70.1605 104.631 69.218 106.188 68.965C107.999 68.7243 109.864 68.7977 111.639 69.2547C111.688 71.7966 111.57 74.3468 111.728 76.8846C113.314 76.9295 114.899 76.9213 116.488 76.9132C116.549 72.1761 116.387 67.439 116.573 62.706ZM119.42 72.4495C119.428 73.951 119.424 75.4525 119.436 76.954C122.154 77.0682 124.876 76.9989 127.594 77.0029C127.966 75.3301 127.994 73.0125 126.295 72.0619C124.095 71.1642 121.56 71.5396 119.42 72.4495Z" fill="#233741"/>
<path d="M179.258 62.7008C180.18 62.6518 181.111 62.6518 182.037 62.7008C182.211 67.3563 182.061 72.0158 182.118 76.6713C183.857 77.0344 185.677 77.0426 187.416 76.6713C187.496 74.3538 187.351 72.0362 187.48 69.7228C188.059 68.8129 189.385 69.429 190.291 69.2862C190.481 71.7261 190.36 74.1742 190.404 76.6183C191.957 76.9814 193.555 76.9447 195.14 76.8957C195.209 74.3538 195.164 71.8037 195.172 69.2576C196.107 69.2331 197.142 68.9312 198.007 69.4249C198.246 72.1382 198.072 74.8719 198.112 77.5893C198.129 78.4339 197.999 79.7682 196.859 79.707C194.157 79.8171 191.403 79.9966 188.754 79.3397C186.129 80.0089 183.359 79.9314 180.714 79.4173C177.9 80.0497 175 79.6906 172.141 79.7926C170.264 79.8334 168.064 79.711 166.746 78.1687C165.54 76.6795 165.84 74.6271 165.949 72.8523C166.734 72.738 167.522 72.6564 168.315 72.583C168.642 73.8968 168.23 75.741 169.674 76.4632C171.085 77.063 172.654 76.8998 174.155 76.9202C175.825 76.8712 177.532 77.0956 179.169 76.6346C179.234 71.9873 179.072 67.3399 179.258 62.7008Z" fill="#233741"/>
<path d="M122.663 63.941C123.557 63.7901 124.641 63.3372 125.409 64.0512C125.434 64.8631 125.919 66.2586 124.892 66.5727C124.144 66.7196 123.399 66.4748 122.671 66.3402C122.659 65.5405 122.655 64.7407 122.663 63.941Z" fill="#233741"/>
<path d="M67.6504 65.1365C68.3743 64.9489 69.1184 64.7448 69.8747 64.8632C70.6148 65.4548 70.1982 66.5442 70.3762 67.3521C69.4986 67.7071 68.5401 67.7234 67.6625 67.3684C67.6544 66.6258 67.6504 65.8791 67.6504 65.1365Z" fill="#233741"/>
<path d="M71.7031 67.291C71.8608 66.4791 71.4969 65.3978 72.3178 64.8593C73.0417 64.745 73.7535 64.9694 74.4491 65.1408C74.4451 65.8834 74.441 66.6301 74.433 67.3726C73.5432 67.7154 72.5645 67.7399 71.7031 67.291Z" fill="#233741"/>
<path d="M187.392 67.43C187.57 66.6058 187.088 65.4226 187.978 64.9044C188.653 64.8228 189.337 64.835 190.024 64.8105C190.372 65.6796 190.623 66.6915 190.065 67.5402C189.183 67.7605 188.265 67.6177 187.392 67.43Z" fill="#233741"/>
<path d="M155.886 65.9568C156.877 65.6834 157.909 65.6671 158.899 65.9608C158.875 70.1145 158.895 74.2722 158.891 78.4258C158.936 78.9684 158.835 79.9558 158.054 79.7886C157.359 79.6988 156.331 80.119 155.939 79.3234C155.818 74.8719 155.935 70.4123 155.886 65.9568Z" fill="#233741"/>
<path d="M172.399 67.6172C173.301 66.8746 174.534 67.1766 175.602 67.1847C175.61 67.5519 175.63 68.2823 175.643 68.6495C174.975 68.7107 174.304 68.7107 173.669 68.9147C173.499 69.4451 173.608 70 173.665 70.5427C174.421 70.555 175.173 70.5672 175.934 70.5794C175.938 70.9466 175.942 71.6811 175.946 72.0483C174.486 72.1177 173.01 72.2319 171.558 72.0483C170.81 71.6117 171.453 70.8161 171.825 70.3469C171.72 69.4207 171.611 68.2945 172.399 67.6172Z" fill="#233741"/>
<path d="M30.998 69.3796C32.9393 68.6166 35.0989 68.7757 37.125 69.0327C38.1684 69.1225 37.8813 70.3466 37.9379 71.0688C37.8853 73.9657 38.0309 76.8667 37.8166 79.7554C36.9107 79.6167 35.6165 80.2165 35.018 79.327C34.8886 76.728 35.0261 74.1207 34.9533 71.5176C33.7683 71.5421 32.0414 71.334 31.5561 72.7579C30.8888 75.712 31.5157 78.7844 31.1679 81.7833C27.9892 82.2484 24.3817 82.8319 21.4861 81.0611C18.5824 78.9761 18.7765 74.8307 19.4802 71.7012C20.2931 71.7053 21.11 71.7134 21.9269 71.7379C21.931 73.8474 21.4416 76.2751 22.8247 78.0785C24.1917 79.6861 26.5454 79.4127 28.4219 79.2413C28.4542 77.2094 28.3572 75.1693 28.4664 73.1374C28.5068 71.5339 29.4815 69.9508 30.998 69.3796Z" fill="#233741"/>
<path d="M137.409 69.38C139.52 68.5313 141.894 68.7843 144.062 69.2616C144.135 71.8118 144.078 74.3619 144.102 76.912C145.744 76.9161 147.382 76.9201 149.024 76.9161C149.546 74.3904 149.064 71.8036 149.238 69.2535C150.152 69.2535 151.07 69.2739 151.988 69.3269C152.154 72.5584 152.073 75.794 152.033 79.0255C151.629 79.2866 151.293 79.7436 150.759 79.7069C148.567 79.8783 146.363 79.7395 144.167 79.7803C144.09 81.2288 143.92 82.8486 142.784 83.8809C141.215 85.3457 138.926 85.1947 136.944 85.1866C136.39 85.1131 135.601 85.2763 135.322 84.6398C135.266 83.9911 135.237 83.3464 135.237 82.6977C136.932 82.5834 138.687 82.7548 140.321 82.1999C141.308 81.8367 141.231 80.6657 141.336 79.8048C139.241 79.8293 136.653 79.9925 135.318 77.9973C133.664 75.2677 134.198 70.706 137.409 69.38ZM138.097 72.1667C137.126 73.0929 137.357 74.6312 137.547 75.8266C138.173 77.3118 140.042 76.9609 141.32 77.0466C141.34 75.2024 141.336 73.3581 141.328 71.5139C140.244 71.6037 138.95 71.3058 138.097 72.1667Z" fill="#233741"/>
<path d="M41.812 69.3068C42.726 69.2701 43.644 69.2578 44.558 69.2578C44.6753 72.9912 44.5742 76.7245 44.6186 80.462C44.6389 81.8288 44.562 83.4446 43.4013 84.3667C42.1153 85.4479 40.3277 85.1623 38.7869 85.093C38.7222 84.3218 38.6696 83.5466 38.6211 82.7714C39.6726 82.5388 41.4278 82.9468 41.723 81.5391C41.8686 77.4671 41.6785 73.3829 41.812 69.3068Z" fill="#233741"/>
<path d="M57.5154 81.8733C58.4294 81.8244 59.3475 81.8285 60.2615 81.8897C60.2776 82.7057 60.2857 83.5258 60.2938 84.3419C59.5456 84.4887 58.7894 84.6928 58.025 84.5826C57.014 84.1011 57.5963 82.7547 57.5154 81.8733Z" fill="#233741"/>
<path d="M109.338 81.8729C110.215 81.7138 111.109 81.8484 111.983 81.9831C111.975 82.7012 111.971 83.4152 111.971 84.1333C111.793 84.2517 111.437 84.4924 111.259 84.6107C110.871 84.6107 110.094 84.6026 109.706 84.6026C109.528 84.4761 109.172 84.219 108.994 84.0925C109.079 83.354 108.905 82.5258 109.338 81.8729Z" fill="#233741"/>
<path d="M147.77 81.8693C148.655 81.7142 149.553 81.853 150.435 81.9835C150.281 82.7955 150.702 83.9257 149.929 84.4888C149.335 84.5826 148.74 84.6397 148.146 84.656C147.964 84.5132 147.6 84.2236 147.418 84.0807C147.503 83.3422 147.313 82.5099 147.77 81.8693Z" fill="#233741"/>
<path d="M193.474 82.1473C194.307 81.7637 195.245 81.6984 196.135 81.9024C196.628 82.4982 196.523 83.3713 196.361 84.0731C195.965 84.8279 194.917 84.4934 194.242 84.6729C194.064 84.5382 193.704 84.2649 193.522 84.1302C193.506 83.4692 193.49 82.8082 193.474 82.1473Z" fill="#233741"/>
<path d="M22.6834 84.1499C23.3466 83.338 24.4143 83.7623 25.2474 83.9867C25.0695 84.7211 25.5224 85.8391 24.7055 86.2716C24.0544 86.3042 23.4033 86.3124 22.7521 86.292C22.6996 85.578 22.6389 84.8639 22.6834 84.1499Z" fill="#233741"/>
<path d="M26.7959 83.9104C27.5562 83.7717 28.3206 83.6737 29.089 83.584C29.457 84.4571 29.4489 85.3997 29.2265 86.3136C28.4338 86.3014 27.6452 86.281 26.8566 86.2443C26.8242 85.4649 26.804 84.6856 26.7959 83.9104Z" fill="#233741"/>
<path d="M97.0353 83.6893C97.7228 83.6036 98.4103 83.7954 99.0857 83.9178C98.928 84.6767 99.3202 85.6968 98.6287 86.2435C98.0059 86.3088 97.379 86.3496 96.7562 86.3659C96.55 85.4887 95.9878 84.2401 97.0353 83.6893Z" fill="#233741"/>
<path d="M100.845 83.9839C101.443 83.3107 102.418 83.8533 103.17 83.886C103.154 84.6775 103.134 85.4691 103.102 86.2606C102.337 86.2892 101.573 86.3055 100.813 86.3178C100.732 85.567 100.166 84.5918 100.845 83.9839Z" fill="#233741"/>
<path d="M137.72 91.4248C145.157 90.1967 153.181 92.2612 158.98 97.1493C158.24 98.6018 157.613 100.165 156.521 101.389C155.607 102.278 154.431 101.319 153.577 100.826C149.125 97.7735 143.463 96.5046 138.169 97.6103C134.161 98.4264 130.521 100.858 128.184 104.241C124.9 108.888 124.14 115.057 125.551 120.516C126.865 125.723 130.554 130.37 135.512 132.447C142.035 135.23 149.946 133.663 155.32 129.138C155.87 128.685 156.813 127.918 157.355 128.807C158.337 130.056 160.076 131.264 159.809 133.043C151.074 141.26 136.26 142.419 126.829 134.744C116.731 126.608 115.125 110.067 123.133 99.932C126.687 95.354 132.042 92.3183 137.72 91.4248Z" fill="#233741"/>
<path d="M34.9492 93.8525C35.3011 92.8977 35.9684 91.8083 37.0886 91.743C38.9692 91.6573 40.8578 91.6533 42.7384 91.7471C44.1538 91.8001 44.6553 93.3098 45.1204 94.4074C50.6933 108.933 56.2379 123.47 61.831 137.984C61.734 138.245 61.5398 138.767 61.4387 139.024C59.6957 139.546 57.8515 139.342 56.0599 139.338C55.057 139.444 54.5959 138.437 54.3452 137.649C52.95 133.687 51.5102 129.742 50.1312 125.776C43.3288 125.776 36.5224 125.747 29.7161 125.792C28.3693 129.644 26.9417 133.471 25.5869 137.319C25.2715 138.049 25.0976 139.077 24.1957 139.297C22.5578 139.412 20.9118 139.383 19.2739 139.314C18.4247 139.367 17.6846 138.314 18.1416 137.539C23.7064 122.965 29.3763 108.427 34.9492 93.8525ZM39.9317 98.4182C36.9673 105.595 34.4235 112.931 31.819 120.247C37.1574 120.272 42.4957 120.263 47.8341 120.251C45.2983 112.935 42.7909 105.612 39.9317 98.4182Z" fill="#233741"/>
<path d="M70.7238 91.9281C71.2941 91.5568 72.0342 91.7608 72.6772 91.6914C77.3927 91.72 82.1123 91.6832 86.8278 91.7077C92.7728 91.8873 98.8795 93.9641 103.073 98.3462C107.506 102.818 109.447 109.297 109.326 115.516C109.467 121.75 107.522 128.262 103.057 132.722C98.6369 137.263 92.2066 139.311 86.0028 139.352C81.4248 139.36 76.8467 139.348 72.2687 139.36C71.658 139.299 70.9139 139.466 70.4569 138.94C69.7937 138.267 69.8543 137.206 69.8018 136.333C69.8098 122.468 69.8058 108.604 69.8018 94.7393C69.8543 93.7723 69.8543 92.5482 70.7238 91.9281ZM76.3493 97.6117C76.3493 109.558 76.3493 121.509 76.3493 133.456C81.9667 133.232 87.9157 134.264 93.1853 131.759C97.8644 129.702 101.015 125.002 101.799 119.987C102.491 115.52 102.273 110.766 100.412 106.596C98.8634 103.1 95.9111 100.284 92.3643 98.9052C87.2808 96.7998 81.6836 97.8933 76.3493 97.6117Z" fill="#233741"/>
<path d="M168.659 94.3355C168.545 93.1727 169.229 91.7242 170.531 91.7242C175.376 91.663 180.225 91.7283 185.07 91.6957C188.629 91.6222 192.358 92.4913 195.16 94.8007C201.093 99.6765 200.381 110.913 193.142 114.19C195.472 115.071 197.522 116.699 198.808 118.861C201.449 123.178 201.295 129.033 198.654 133.313C196.042 137.447 190.991 139.242 186.316 139.34C181.05 139.356 175.784 139.377 170.519 139.332C169.548 139.409 168.553 138.646 168.675 137.606C168.642 123.182 168.675 108.759 168.659 94.3355ZM175.465 97.6119C175.477 102.333 175.465 107.053 175.469 111.774C178.547 111.762 181.62 111.786 184.698 111.766C186.615 111.766 188.653 111.329 190.097 109.971C193.098 107.335 193.001 102.112 190.158 99.399C189.033 98.2933 187.48 97.6364 185.911 97.6282C182.429 97.5956 178.947 97.6364 175.465 97.6119ZM175.469 117.242C175.465 122.644 175.481 128.05 175.461 133.452C179.089 133.44 182.712 133.473 186.336 133.44C188.908 133.456 191.605 132.22 192.851 129.87C194.351 127.022 194.266 123.346 192.564 120.608C191.225 118.506 188.791 117.311 186.348 117.262C182.724 117.209 179.097 117.262 175.469 117.242Z" fill="#233741"/>
<path d="M221.285 64.0265C224.509 62.9493 227.833 64.2101 230.842 65.3648C237.822 68.2005 244.414 71.9013 250.954 75.6265C258.763 80.1024 266.346 84.9864 273.65 90.262C276.145 92.1879 278.83 93.9342 280.929 96.3211C282.959 98.6019 283.598 102.05 282.393 104.881C281.192 107.803 278.495 109.631 276.108 111.499C264.384 120.296 251.803 127.902 238.797 134.593C234.894 136.515 230.955 138.453 226.753 139.6C224.104 140.375 220.958 140.085 218.855 138.159C217.112 136.388 216.347 133.908 215.809 131.533C213.82 121.7 214.705 111.61 214.18 101.658C214.726 91.5432 213.771 81.2571 215.987 71.2892C216.691 68.3311 218.127 64.9609 221.285 64.0265ZM224.978 70.4324C224.598 73.0723 224.929 75.7529 224.8 78.4132C224.889 79.4373 224.569 80.6614 225.228 81.5345C227.012 81.7508 228.816 81.6243 230.611 81.7182C230.603 82.6036 230.595 83.4889 230.595 84.3784C227.76 84.4111 224.925 84.4111 222.09 84.3743C222.038 80.8899 222.228 77.3972 222.042 73.9169C222.171 72.4398 219.093 72.4439 219.203 73.9332C219.101 78.3765 219.142 82.828 219.215 87.2754C222.931 87.7323 226.684 87.3651 230.421 87.512C231.368 87.4018 232.585 87.7038 233.353 87.0632C233.705 85.2924 233.47 83.4645 233.547 81.6733C235.294 81.6243 237.062 81.7753 238.801 81.5345C239.472 80.9878 239.181 79.9882 239.29 79.2333C239.209 77.2626 239.517 75.2388 239.056 73.3089C238.36 72.5704 237.054 72.7091 236.37 73.3905C236.091 75.1246 236.261 76.8954 236.217 78.6458C235.323 78.6499 234.429 78.6539 233.539 78.658C233.466 76.2548 233.588 73.8475 233.511 71.4484C233.454 70.9751 233.515 70.1631 232.844 70.1345C231.097 69.8775 229.321 70.0366 227.562 69.9958C226.692 70.0448 225.734 69.9142 224.978 70.4324ZM242.097 75.8794C241.874 80.1187 242.056 84.3703 241.988 88.6136C242.008 90.0743 241.834 91.5759 242.214 93.008C243.035 93.3018 243.969 93.3385 244.766 92.9386C245.025 91.7799 244.956 90.5803 244.956 89.4011C244.875 84.9088 245.009 80.4125 244.883 75.9202C243.953 75.9039 243.023 75.8917 242.097 75.8794ZM247.795 78.76C247.492 84.46 247.726 90.1804 247.67 95.8886C244.879 95.958 242.085 95.9335 239.294 95.9172C239.302 94.0648 239.266 92.2124 239.161 90.364C236.111 90.0744 233.05 90.2702 229.997 90.209C228.399 90.2172 226.789 90.0948 225.208 90.3559C224.561 91.4045 224.885 92.7428 224.8 93.9138C224.949 97.3819 224.598 100.875 224.97 104.326C226.664 105.249 228.755 104.265 230.502 104.938C230.587 105.763 230.567 106.599 230.575 107.427C227.74 107.468 224.905 107.554 222.078 107.346C222.139 102.727 222.066 98.1082 222.127 93.4895C222.118 92.4449 222.171 91.3637 221.823 90.364C220.97 90.2131 219.316 89.7969 219.215 91.0903C219.049 96.1049 219.231 101.132 219.15 106.154C219.162 107.546 219.013 108.974 219.385 110.332C222.891 110.814 226.462 110.369 229.997 110.549C231.109 110.434 232.455 110.83 233.41 110.12C233.657 107.994 233.503 105.844 233.535 103.71C233.446 103.102 233.632 102.327 233.119 101.874C231.392 101.638 229.641 101.768 227.902 101.703C227.829 98.8712 227.809 96.0314 227.93 93.1998C230.708 93.1957 233.491 93.1671 236.273 93.2365C236.305 95.0522 235.962 96.9494 236.54 98.708C237.519 99.1568 238.643 98.9855 239.695 99.0303C248.074 98.8916 256.462 99.1895 264.837 98.8753C265.044 95.0685 265.088 91.2413 264.809 87.4345C262.043 87.4263 259.228 87.0836 256.49 87.5814C256.292 88.4423 256.235 89.3277 256.15 90.2049C254.339 90.2335 252.527 90.2253 250.719 90.1845C250.666 86.39 250.852 82.5872 250.602 78.7967C249.663 78.7804 248.725 78.7682 247.795 78.76ZM253.898 81.657C253.133 82.3179 253.396 83.4849 253.603 84.3417C254.488 84.5294 255.398 84.4927 256.3 84.5008C256.3 83.542 256.296 82.5872 256.296 81.6284C255.495 81.608 254.69 81.5305 253.898 81.657ZM236.572 84.6232C236.212 85.2393 236.087 86.0023 236.322 86.6837C236.471 87.6507 237.729 87.565 238.453 87.4222C239.496 87.1693 239.367 85.8514 239.185 85.0394C238.687 84.0969 237.393 84.3458 236.572 84.6232ZM267.765 93.926C267.543 98.4224 267.794 102.943 267.664 107.448C265.788 107.415 263.903 107.407 262.047 107.701C262.039 109.557 262.018 111.41 261.994 113.262C261.056 113.242 260.122 113.217 259.188 113.193C259.264 111.308 259.252 109.414 259.022 107.538C255.321 107.415 251.613 107.411 247.912 107.538C247.823 108.472 247.358 109.574 248.066 110.381C250.776 110.757 253.526 110.394 256.251 110.553C256.255 111.442 256.26 112.328 256.272 113.213C252.498 113.303 248.725 113.278 244.956 113.229C244.924 110.381 244.875 107.537 245.013 104.694C247.682 104.62 250.379 104.947 253.032 104.571C253.877 104.073 253.922 101.772 252.604 101.805C249.146 101.654 245.672 101.756 242.21 101.801C241.806 104.592 242.056 107.415 241.996 110.226C241.959 112.217 241.927 114.221 242.21 116.2C246.853 116.314 251.495 116.159 256.138 116.277C256.268 117.142 256.211 118.077 256.575 118.889C257.287 119.272 258.205 119.031 259.001 119.113C259.103 118.17 259.208 117.232 259.313 116.294C261.117 116.114 263.062 116.571 264.785 115.93C265.153 114.184 264.938 112.381 264.942 110.614C266.698 110.504 268.473 110.63 270.224 110.406C270.718 109.773 270.604 108.929 270.657 108.178C270.612 103.829 270.637 99.4751 270.649 95.1256C270.544 94.3789 270.794 92.9509 269.654 93.0896C268.95 93.0162 267.798 92.9427 267.765 93.926ZM230.753 96.0151C230.672 96.6557 230.571 97.2963 230.575 97.945C230.441 99.0344 231.901 99.1691 232.678 99.0018C233.972 98.7121 233.365 97.08 233.487 96.1252C232.573 96.0885 231.663 96.0518 230.753 96.0151ZM273.5 96.0885C273.375 99.8464 273.464 103.608 273.439 107.366C274.414 107.509 276.359 108.129 276.355 106.534C276.444 103.049 276.432 99.5567 276.303 96.0722C275.368 96.0396 274.43 96.0436 273.5 96.0885ZM236.314 102.613C236.067 106.142 236.346 109.696 236.208 113.233C234.502 113.291 232.779 113.123 231.088 113.384C230.187 113.996 230.259 116.302 231.622 116.204C234.122 116.338 236.629 116.241 239.132 116.155C239.383 111.377 239.343 106.579 239.136 101.801C238.206 101.915 236.536 101.283 236.314 102.613ZM256.85 101.833C255.875 102.221 256.276 103.6 256.413 104.412C257.141 104.836 258.027 104.832 258.832 104.665C259.378 103.878 259.418 102.686 258.884 101.891C258.225 101.711 257.505 101.638 256.85 101.833ZM262.463 101.833C261.731 102.498 262.152 103.669 261.998 104.551C262.722 104.632 263.454 104.796 264.19 104.71C265.165 104.432 265.157 103.159 264.874 102.372C264.522 101.425 263.236 101.731 262.463 101.833ZM219.736 113.348C218.766 113.915 219.336 115.274 219.231 116.2C220.052 116.208 220.881 116.253 221.702 116.147C222.244 115.502 222.252 114.559 222.013 113.788C221.532 113.033 220.476 113.168 219.736 113.348ZM225.431 113.384C224.545 113.817 224.767 115.033 224.933 115.82C225.6 116.526 226.749 116.114 227.614 116.281C227.712 115.441 228.031 114.555 227.712 113.731C227.153 113.087 226.159 113.131 225.431 113.384ZM219.199 119.239C219.194 122.075 218.964 124.931 219.368 127.751C226.28 127.763 233.191 127.73 240.103 127.775C240.726 127.685 241.551 127.906 241.979 127.31C242.226 125.56 242.085 123.789 242.121 122.03C242.991 122.047 243.86 122.063 244.738 122.083C244.948 122.977 244.584 124.242 245.429 124.846C246.169 124.915 246.921 124.858 247.67 124.833C247.799 122.948 247.803 121.063 247.702 119.178C244.899 118.852 242.072 118.913 239.266 119.129C239.165 121.01 239.132 122.895 239.161 124.78C233.507 124.809 227.853 124.764 222.195 124.809C222.167 123.891 222.135 122.973 222.11 122.055C226.502 121.969 230.898 122.14 235.282 121.998C236.758 122.12 236.746 119.643 235.776 119.109C233.329 118.758 230.838 119.068 228.375 118.974C225.317 119.076 222.228 118.705 219.199 119.239ZM250.626 119.146C250.65 120.088 250.679 121.031 250.711 121.977C251.601 121.981 252.49 121.981 253.388 121.985C253.441 121.092 253.659 120.162 253.344 119.292C252.507 118.807 251.524 119.072 250.626 119.146ZM222.143 130.88C221.969 131.684 221.686 132.802 222.426 133.406C223.202 133.781 224.161 133.659 224.881 133.194C225.002 132.341 224.889 131.476 224.828 130.623C223.93 130.668 222.98 130.501 222.143 130.88ZM228.003 130.721C227.61 131.545 227.772 132.492 227.716 133.377C228.65 133.463 229.701 133.838 230.542 133.218C230.684 132.406 230.664 131.578 230.692 130.758C229.798 130.688 228.892 130.558 228.003 130.721Z" fill="#BB131A"/>
<path d="M227.897 73.0232C228.767 73.011 229.64 72.9947 230.518 72.9824C230.595 74.8675 230.599 76.7566 230.534 78.6457C229.649 78.6457 228.759 78.6498 227.877 78.6498C227.833 76.777 227.841 74.9001 227.897 73.0232Z" fill="#BB131A"/>
<path d="M259.268 90.332C260.162 90.3361 261.052 90.3361 261.95 90.3402C262.059 92.1967 262.067 94.0572 261.97 95.9137C258.217 95.9341 254.464 95.9504 250.711 95.9015C250.715 95.0038 250.719 94.1062 250.727 93.2045C253.53 93.1759 256.336 93.2412 259.139 93.1596C259.179 92.2171 259.224 91.2746 259.268 90.332Z" fill="#BB131A"/>
<path d="M224.978 70.4329C225.735 69.9147 226.693 70.0452 227.563 69.9963C229.322 70.0371 231.097 69.878 232.844 70.135C233.516 70.1636 233.455 70.9755 233.512 71.4488C233.588 73.848 233.467 76.2553 233.54 78.6585C234.43 78.6544 235.323 78.6503 236.217 78.6462C236.262 76.8959 236.092 75.1251 236.371 73.391C237.054 72.7096 238.361 72.5709 239.056 73.3094C239.517 75.2393 239.21 77.2631 239.291 79.2338C239.181 79.9886 239.473 80.9883 238.801 81.535C237.062 81.7757 235.295 81.6248 233.548 81.6737C233.471 83.4649 233.706 85.2929 233.354 87.0637C232.585 87.7042 231.368 87.4023 230.422 87.5125C226.685 87.3656 222.932 87.7328 219.215 87.2758C219.142 82.8284 219.102 78.377 219.203 73.9336C219.094 72.4444 222.172 72.4403 222.042 73.9173C222.228 77.3977 222.038 80.8903 222.091 84.3748C224.926 84.4115 227.761 84.4115 230.596 84.3789C230.596 83.4894 230.604 82.604 230.612 81.7186C228.816 81.6248 227.013 81.7513 225.229 81.535C224.57 80.6619 224.889 79.4378 224.8 78.4137C224.93 75.7534 224.598 73.0727 224.978 70.4329ZM227.898 73.0238C227.842 74.9006 227.833 76.7775 227.878 78.6503C228.76 78.6503 229.649 78.6462 230.535 78.6462C230.6 76.7571 230.596 74.868 230.519 72.983C229.641 72.9952 228.768 73.0115 227.898 73.0238Z" fill="#ED1B24"/>
<path d="M242.098 75.8809C243.024 75.8931 243.954 75.9053 244.884 75.9217C245.009 80.4139 244.876 84.9103 244.957 89.4026C244.957 90.5817 245.026 91.7813 244.767 92.9401C243.97 93.3399 243.036 93.3032 242.215 93.0094C241.835 91.5773 242.009 90.0758 241.988 88.6151C242.057 84.3717 241.875 80.1202 242.098 75.8809Z" fill="#ED1B24"/>
<path d="M247.796 78.7598C248.726 78.7679 249.664 78.7802 250.602 78.7965C250.853 82.587 250.667 86.3897 250.72 90.1843C252.527 90.2251 254.339 90.2332 256.151 90.2047C256.236 89.3274 256.293 88.442 256.491 87.5811C259.229 87.0833 262.043 87.4261 264.81 87.4342C265.089 91.241 265.044 95.0682 264.838 98.875C256.462 99.1892 248.075 98.8913 239.695 99.0301C238.644 98.9852 237.519 99.1566 236.541 98.7077C235.962 96.9492 236.306 95.0519 236.274 93.2362C233.491 93.1669 230.709 93.1954 227.931 93.1995C227.809 96.0311 227.829 98.871 227.902 101.703C229.641 101.768 231.392 101.637 233.119 101.874C233.633 102.327 233.447 103.102 233.536 103.71C233.503 105.844 233.657 107.994 233.41 110.12C232.456 110.83 231.109 110.434 229.997 110.548C226.463 110.369 222.891 110.814 219.385 110.332C219.013 108.973 219.163 107.545 219.151 106.154C219.231 101.131 219.049 96.1046 219.215 91.0901C219.316 89.7966 220.97 90.2128 221.824 90.3638C222.172 91.3634 222.119 92.4447 222.127 93.4892C222.066 98.108 222.139 102.727 222.079 107.345C224.905 107.554 227.74 107.468 230.575 107.427C230.567 106.599 230.588 105.762 230.503 104.938C228.756 104.265 226.665 105.248 224.97 104.326C224.598 100.874 224.95 97.3817 224.8 93.9135C224.885 92.7425 224.562 91.4042 225.209 90.3556C226.79 90.0945 228.4 90.2169 229.997 90.2087C233.051 90.2699 236.112 90.0741 239.161 90.3638C239.266 92.2121 239.303 94.0645 239.295 95.9169C242.085 95.9332 244.88 95.9577 247.67 95.8883C247.727 90.1802 247.492 84.4598 247.796 78.7598ZM259.269 90.3311C259.225 91.2737 259.18 92.2162 259.14 93.1587C256.337 93.2403 253.53 93.175 250.728 93.2036C250.72 94.1053 250.716 95.0029 250.711 95.9006C254.465 95.9495 258.218 95.9332 261.971 95.9128C262.068 94.0563 262.06 92.1958 261.95 90.3393C261.053 90.3352 260.163 90.3352 259.269 90.3311Z" fill="#ED1B24"/>
<path d="M253.898 81.6567C254.691 81.5302 255.496 81.6077 256.297 81.6281C256.297 82.587 256.301 83.5417 256.301 84.5006C255.399 84.4924 254.489 84.5291 253.603 84.3415C253.397 83.4846 253.134 82.3177 253.898 81.6567Z" fill="#ED1B24"/>
<path d="M236.573 84.6246C237.394 84.3472 238.688 84.0983 239.186 85.0408C239.368 85.8528 239.497 87.1707 238.454 87.4236C237.73 87.5665 236.472 87.6521 236.323 86.6851C236.088 86.0037 236.213 85.2408 236.573 84.6246Z" fill="#ED1B24"/>
<path d="M267.766 93.9259C267.798 92.9426 268.951 93.0161 269.654 93.0895C270.795 92.9508 270.544 94.3788 270.649 95.1255C270.637 99.475 270.613 103.829 270.657 108.178C270.605 108.929 270.718 109.773 270.225 110.406C268.474 110.63 266.698 110.504 264.943 110.614C264.939 112.381 265.153 114.184 264.785 115.93C263.062 116.571 261.117 116.114 259.313 116.293C259.208 117.232 259.103 118.17 259.002 119.113C258.205 119.031 257.287 119.272 256.575 118.888C256.212 118.076 256.268 117.142 256.139 116.277C251.496 116.159 246.853 116.314 242.211 116.2C241.927 114.221 241.96 112.217 241.996 110.226C242.057 107.415 241.806 104.592 242.211 101.801C245.672 101.756 249.146 101.654 252.604 101.805C253.923 101.772 253.878 104.073 253.033 104.571C250.38 104.946 247.682 104.62 245.013 104.694C244.876 107.537 244.924 110.381 244.957 113.229C248.726 113.278 252.499 113.303 256.272 113.213C256.26 112.328 256.256 111.442 256.252 110.553C253.526 110.394 250.776 110.757 248.067 110.381C247.359 109.573 247.824 108.472 247.913 107.537C251.613 107.411 255.322 107.415 259.022 107.537C259.253 109.414 259.265 111.307 259.188 113.193C260.122 113.217 261.056 113.241 261.995 113.262C262.019 111.409 262.039 109.557 262.047 107.701C263.904 107.407 265.788 107.415 267.665 107.448C267.794 102.943 267.543 98.4223 267.766 93.9259Z" fill="#ED1B24"/>
<path d="M230.753 96.0156C231.663 96.0523 232.573 96.0891 233.487 96.1258C233.365 97.0805 233.972 98.7126 232.678 99.0023C231.901 99.1696 230.442 99.035 230.575 97.9455C230.571 97.2968 230.672 96.6562 230.753 96.0156Z" fill="#ED1B24"/>
<path d="M273.501 96.0885C274.431 96.0436 275.369 96.0396 276.303 96.0722C276.433 99.5567 276.445 103.049 276.356 106.534C276.36 108.129 274.415 107.509 273.44 107.366C273.464 103.608 273.375 99.8464 273.501 96.0885Z" fill="#ED1B24"/>
<path d="M236.314 102.613C236.536 101.282 238.207 101.915 239.137 101.801C239.343 106.579 239.384 111.377 239.133 116.155C236.629 116.24 234.122 116.338 231.623 116.204C230.26 116.302 230.187 113.996 231.089 113.384C232.779 113.123 234.502 113.29 236.209 113.233C236.346 109.696 236.067 106.142 236.314 102.613Z" fill="#ED1B24"/>
<path d="M256.85 101.833C257.506 101.637 258.225 101.711 258.885 101.89C259.418 102.686 259.378 103.877 258.832 104.665C258.027 104.832 257.142 104.836 256.414 104.412C256.276 103.6 255.876 102.221 256.85 101.833Z" fill="#ED1B24"/>
<path d="M262.464 101.834C263.237 101.732 264.523 101.426 264.874 102.373C265.158 103.16 265.166 104.433 264.191 104.711C263.455 104.796 262.723 104.633 261.999 104.552C262.153 103.67 261.732 102.499 262.464 101.834Z" fill="#ED1B24"/>
<path d="M219.737 113.349C220.477 113.169 221.533 113.035 222.014 113.79C222.252 114.561 222.244 115.503 221.702 116.148C220.881 116.254 220.052 116.209 219.231 116.201C219.337 115.275 218.766 113.916 219.737 113.349Z" fill="#ED1B24"/>
<path d="M225.431 113.384C226.159 113.131 227.154 113.086 227.712 113.731C228.032 114.555 227.712 115.44 227.615 116.281C226.75 116.114 225.601 116.526 224.934 115.82C224.768 115.032 224.546 113.816 225.431 113.384Z" fill="#ED1B24"/>
<path d="M219.199 119.24C222.228 118.706 225.318 119.077 228.375 118.975C230.838 119.069 233.329 118.759 235.776 119.11C236.747 119.644 236.759 122.121 235.283 121.998C230.899 122.141 226.503 121.97 222.111 122.056C222.135 122.974 222.167 123.892 222.196 124.81C227.854 124.765 233.507 124.81 239.161 124.781C239.133 122.896 239.165 121.011 239.266 119.13C242.073 118.914 244.9 118.853 247.702 119.179C247.804 121.064 247.8 122.949 247.67 124.834C246.922 124.859 246.17 124.916 245.43 124.846C244.584 124.242 244.948 122.978 244.738 122.084C243.86 122.064 242.991 122.047 242.121 122.031C242.085 123.79 242.227 125.56 241.98 127.311C241.551 127.906 240.726 127.686 240.103 127.776C233.192 127.731 226.28 127.764 219.369 127.751C218.964 124.932 219.195 122.076 219.199 119.24Z" fill="#ED1B24"/>
<path d="M250.626 119.146C251.524 119.073 252.507 118.808 253.344 119.293C253.659 120.162 253.441 121.092 253.388 121.986C252.49 121.982 251.601 121.982 250.711 121.978C250.679 121.031 250.65 120.089 250.626 119.146Z" fill="#ED1B24"/>
<path d="M222.144 130.88C222.981 130.501 223.931 130.668 224.829 130.623C224.89 131.476 225.003 132.341 224.881 133.194C224.162 133.659 223.203 133.781 222.427 133.406C221.687 132.802 221.97 131.684 222.144 130.88Z" fill="#ED1B24"/>
<path d="M228.003 130.721C228.893 130.558 229.799 130.689 230.692 130.758C230.664 131.578 230.684 132.406 230.543 133.218C229.702 133.838 228.65 133.463 227.716 133.377C227.772 132.492 227.611 131.545 228.003 130.721Z" fill="#ED1B24"/>
</g>
<defs>
<clipPath id="clip0_158_5609">
<rect width="265" height="80" fill="white" transform="translate(18 60)"/>
</clipPath>
</defs>
</svg>
