<svg width="300" height="200" viewBox="0 0 300 200" fill="none" xmlns="http://www.w3.org/2000/svg">
<g clip-path="url(#clip0_158_5660)">
<path d="M303.435 60.6953H-2.43457V140.221H303.435V60.6953Z" fill="white"/>
<path d="M49.9402 65.4727H2.3418V135.613H49.9402V65.4727Z" fill="#072769"/>
<path d="M298.742 65.4727H54.6328V135.613H298.742V65.4727Z" fill="#072769"/>
<path d="M69.8848 87.1758H85.4716V91.3658H75.1642V97.986H84.6336V102.176H75.1642V109.634H85.6392V113.824H69.8848V87.1758Z" fill="white"/>
<path d="M88.2373 94.1319H93.0139V96.8973H93.0977C94.6899 94.4671 97.0363 93.7129 98.8799 93.7129C101.562 93.7129 103.573 94.7185 104.662 97.1487C105.835 94.8023 108.349 93.7129 110.78 93.7129C115.64 93.7129 116.981 96.9811 116.981 101.339V113.657H111.869V102.009C111.869 100.165 111.869 97.5677 108.936 97.5677C105.5 97.5677 105.165 101.59 105.165 104.188V113.741H100.053V102.009C100.053 100.165 100.053 97.5677 97.1201 97.5677C93.6843 97.5677 93.3491 101.59 93.3491 104.188V113.741H88.2373V94.1319Z" fill="white"/>
<path d="M119.913 85.668H125.025V90.5284H119.913V85.668ZM119.913 94.1318H125.025V113.741H119.913V94.1318Z" fill="white"/>
<path d="M127.875 94.1319H132.4V98.5733H132.484C132.735 96.7297 134.83 93.7129 137.847 93.7129C138.35 93.7129 138.853 93.7129 139.355 93.8805V98.9923C138.853 98.7409 137.931 98.5733 137.093 98.5733C132.903 98.5733 132.903 103.769 132.903 106.534V113.741H127.791L127.875 94.1319Z" fill="white"/>
<path d="M141.282 95.1373C143.294 94.2155 145.892 93.6289 148.07 93.6289C154.02 93.6289 156.534 96.0591 156.534 101.841V104.355C156.534 106.283 156.618 107.791 156.618 109.216C156.702 110.724 156.702 112.065 156.869 113.573H152.428C152.177 112.568 152.176 111.227 152.176 110.64H152.093C150.919 112.819 148.405 114.076 146.059 114.076C142.623 114.076 139.188 111.981 139.188 108.294C139.188 105.361 140.612 103.685 142.539 102.679C144.467 101.758 146.981 101.59 149.16 101.59H152.009C152.009 98.4893 150.584 97.3999 147.567 97.3999C145.389 97.3999 143.294 98.2379 141.534 99.4949L141.282 95.1373ZM147.316 110.473C148.824 110.473 150.081 109.802 150.919 108.713C151.757 107.623 152.009 106.199 152.009 104.691H149.83C147.567 104.691 144.215 105.026 144.215 108.126C144.048 109.802 145.472 110.473 147.316 110.473Z" fill="white"/>
<path d="M160.64 97.9034H156.869V94.2162H160.64V90.2776L165.752 88.6016V94.1324H170.277V97.8196H165.752V107.038C165.752 108.714 166.255 110.306 168.182 110.306C169.104 110.306 170.026 110.054 170.529 109.803L170.696 113.825C169.607 114.161 168.434 114.328 166.925 114.328C162.903 114.328 160.724 111.898 160.724 107.959L160.64 97.9034Z" fill="white"/>
<path d="M187.54 112.652C185.696 113.657 183.518 114.16 180.836 114.16C174.383 114.16 170.612 110.473 170.612 104.02C170.612 98.4057 173.629 93.7129 179.746 93.7129C186.953 93.7129 189.048 98.7409 189.048 105.529H175.556C175.808 108.629 177.987 110.473 181.171 110.473C183.601 110.473 185.78 109.551 187.624 108.462L187.54 112.652ZM184.104 102.009C183.937 99.5789 182.847 97.4001 179.914 97.4001C177.065 97.4001 175.64 99.4113 175.389 102.009H184.104Z" fill="white"/>
<path d="M202.708 98.2379C201.2 97.7351 200.026 97.3999 198.099 97.3999C196.674 97.3999 195.082 97.9027 195.082 99.5787C195.082 102.679 203.965 100.668 203.965 107.791C203.965 112.4 199.943 114.16 195.753 114.16C193.825 114.16 191.814 113.825 189.97 113.322L190.306 109.132C191.898 109.97 193.574 110.389 195.334 110.389C196.591 110.389 198.686 109.886 198.686 107.959C198.686 104.104 189.803 106.702 189.803 99.6625C189.803 95.4725 193.49 93.6289 197.429 93.6289C199.859 93.6289 201.367 93.9641 202.959 94.3831L202.708 98.2379Z" fill="white"/>
<path d="M214.356 87.1758H220.893L231.033 107.036H231.116V87.1758H236.228V113.74H229.692L219.552 93.8798H219.468V113.74H214.356V87.1758Z" fill="white"/>
<path d="M240.334 87.1758H249.636C253.071 87.1758 258.183 88.1814 258.183 93.9636C258.183 97.0642 256.088 99.3268 252.904 99.9134V99.9972C256.507 100.332 258.937 102.763 258.937 106.031C258.937 112.735 252.904 113.657 249.552 113.657H240.25V87.1758H240.334ZM245.697 97.986H247.876C250.138 97.986 252.904 97.4832 252.904 94.7178C252.904 91.6172 250.222 91.4496 247.792 91.4496H245.697V97.986ZM245.697 109.634H248.211C250.641 109.634 253.658 109.048 253.658 105.947C253.658 102.511 250.809 101.925 248.211 101.925H245.697V109.634Z" fill="white"/>
<path d="M261.954 87.1758H269.161C277.29 87.1758 284.496 89.8574 284.496 100.416C284.496 110.975 277.29 113.657 269.161 113.657H261.954V87.1758ZM267.233 109.634H270.25C274.692 109.634 278.965 106.366 278.965 100.5C278.965 94.7178 274.692 91.3658 270.25 91.3658H267.233V109.634Z" fill="white"/>
<path d="M21.8676 108.127C22.538 90.6965 31.8398 75.4449 45.9182 65.4727H36.6164C25.1358 75.3611 17.7614 89.1881 17.2586 104.691C16.8396 115.92 20.1078 126.479 25.9738 135.529H28.6554C23.9626 127.317 21.5324 117.931 21.8676 108.127Z" fill="white"/>
<path d="M21.8676 108.127C22.538 90.6963 31.8398 75.4447 45.9182 65.4725L46.002 65.3887H36.6164C25.1358 75.3609 17.7614 89.1879 17.2586 104.691C17.2586 105.361 17.2586 106.032 17.2586 106.618C17.2586 117.093 20.443 126.982 25.9738 135.529H28.6554C24.2978 127.82 21.9514 119.188 21.9514 110.054C21.8676 109.384 21.8676 108.797 21.8676 108.127C21.7838 108.797 21.7838 109.467 21.7838 110.054C21.7838 119.188 24.214 127.82 28.5716 135.529H25.89C20.3592 126.982 17.1748 117.093 17.1748 106.618C17.1748 105.948 17.1748 105.277 17.1748 104.691C17.6776 89.1879 25.052 75.4447 36.5326 65.5563H45.8344C31.8398 75.4447 22.538 90.6963 21.8676 108.127Z" fill="white"/>
<path d="M33.3482 65.4727H26.0576C17.929 73.0147 12.3982 83.9925 11.1412 96.6463C9.63278 112.065 14.8284 126.311 24.1302 135.613H26.6442C18.5994 126.395 14.158 113.155 15.6664 98.9927C16.9234 84.8305 23.795 72.8471 33.3482 65.4727Z" fill="#FCAF17"/>
<path d="M26.0573 65.4727C17.9287 73.0147 12.3979 83.9925 11.0571 96.6463C10.8895 98.4061 10.8057 100.25 10.8057 102.009C10.8057 115.334 15.8337 127.401 24.0461 135.613H26.5601C19.5209 127.568 15.2471 116.423 15.2471 104.272C15.2471 102.512 15.3309 100.752 15.4985 98.9927C16.9231 84.8305 23.7947 72.8471 33.3479 65.4727C23.7947 72.8471 16.9231 84.8305 15.5823 98.9927C15.4147 100.752 15.3309 102.512 15.3309 104.272C15.3309 116.423 19.6047 127.568 26.6439 135.613H24.1299C15.9175 127.401 10.8895 115.334 10.8895 102.009C10.8895 100.25 10.9733 98.4899 11.1409 96.6463C12.3979 83.9925 18.0125 73.0985 26.0573 65.4727Z" fill="#FCAF17"/>
<path d="M41.3087 95.6398C41.3087 89.6062 39.4651 83.9916 36.3645 79.2988C37.6215 83.2374 38.1243 87.4274 38.2919 91.785C38.6271 103.768 33.1801 113.908 25.3867 121.869C34.9399 117.595 41.3087 107.037 41.3087 95.6398Z" fill="white"/>
<path d="M35.5273 102.762C35.2759 98.4882 33.8513 94.5496 31.5049 91.3652C32.4267 94.1306 33.0133 97.0636 33.2647 100.164C33.9351 108.628 30.4155 116.002 25.3037 121.952C31.8401 118.516 35.8625 110.807 35.5273 102.762Z" fill="#FCAF17"/>
<path d="M35.5273 102.764C35.3597 98.49 33.8513 94.5514 31.5049 91.367C32.4267 94.1324 33.0133 97.0654 33.2647 100.166C33.3485 100.92 33.3485 101.591 33.3485 102.261C33.3485 109.803 29.9965 116.507 25.3037 121.87C31.5049 118.518 35.5273 111.395 35.5273 103.686C35.5273 103.434 35.5273 103.099 35.5273 102.764C35.5273 103.099 35.5273 103.434 35.5273 103.769C35.5273 111.395 31.5887 118.602 25.3037 121.87C29.9965 116.423 33.3485 109.803 33.3485 102.177C33.3485 101.507 33.3485 100.753 33.2647 100.082C33.0133 96.9816 32.4267 94.0486 31.5049 91.2832C33.8513 94.6352 35.2759 98.5738 35.5273 102.764Z" fill="#FCAF17"/>
</g>
<defs>
<clipPath id="clip0_158_5660">
<rect width="300" height="200" fill="white"/>
</clipPath>
</defs>
</svg>
