<svg width="300" height="200" viewBox="0 0 300 200" fill="none" xmlns="http://www.w3.org/2000/svg">
<g clip-path="url(#clip0_158_5686)">
<path d="M151.768 50.7162C152.554 50.0478 152.142 48.5415 153.34 48.2855C154.172 48.056 154.653 48.8308 155.068 49.3961C154.786 49.5058 154.507 49.6222 154.232 49.7419C154.079 49.5324 153.778 49.1101 153.625 48.8973C153.36 49.3661 153.187 49.8782 153.084 50.4069C153.695 50.4136 154.311 50.4235 154.925 50.4368C154.922 50.633 154.915 51.0254 154.912 51.2216C153.874 51.2216 152.839 51.2216 151.801 51.2182C151.794 51.0919 151.778 50.8425 151.768 50.7162Z" fill="#00468C"/>
<path d="M80.398 51.4811C80.4444 50.7496 80.4709 49.6955 81.393 49.5326C82.1359 49.2765 82.7495 49.8086 83.0745 50.427C82.8789 50.6465 82.6633 50.8493 82.4543 51.0555C82.2586 50.8194 81.8706 50.3539 81.6749 50.1178C81.4693 50.5866 81.2868 51.0688 81.1276 51.5543C81.9236 51.6773 83.1608 51.2483 83.2172 52.4421C82.1293 52.5019 81.0414 52.4953 79.9535 52.5019C79.9071 52.3456 79.8175 52.0364 79.7744 51.8834C79.9303 51.7837 80.2421 51.5809 80.398 51.4811Z" fill="#00468C"/>
<path d="M67.2273 52.1356C67.7348 52.1289 68.2422 52.1289 68.7497 52.1289C68.7663 55.5405 68.7596 58.9521 68.7596 62.3603C68.8691 63.8999 67.622 65.2864 66.1726 65.6189C64.292 66.1476 62.1328 64.6414 62.03 62.6762C61.9703 61.2531 62.0201 59.8266 62.0267 58.4034C62.5408 58.4067 63.0582 58.4134 63.5756 58.4234C63.6121 59.8066 63.506 61.1999 63.6287 62.5831C63.7846 63.7735 65.3335 64.5449 66.3351 63.8068C67.0814 63.3811 67.2605 62.4601 67.2273 61.6654C67.2273 58.4899 67.2107 55.3111 67.2273 52.1356Z" fill="#00468C"/>
<path d="M84.3183 52.1152C84.8489 52.1219 85.3796 52.1285 85.9136 52.1385C85.9169 54.9682 85.9401 57.7979 85.9103 60.6276C85.9634 61.8745 84.9717 63.025 83.7179 63.1048C81.97 63.2079 80.2122 63.1247 78.4609 63.1247C78.4609 62.5894 78.4609 62.0507 78.4643 61.5154C80.0928 61.4655 81.7279 61.5453 83.3564 61.4821C83.8407 61.532 84.3382 61.1596 84.2751 60.6442C84.3481 57.8012 84.2519 54.9582 84.3183 52.1152Z" fill="#00468C"/>
<path d="M87.4363 52.1369C87.9504 52.1302 88.4678 52.1269 88.9819 52.1302C89.1577 55.7912 89.0416 59.4621 88.9819 63.1264C88.4645 63.1297 87.9471 63.1297 87.4297 63.1264C87.4363 59.4621 87.4231 55.8012 87.4363 52.1369Z" fill="#00468C"/>
<path d="M123.582 52.1796C124.08 52.1164 124.58 52.1098 125.081 52.0898C125.128 53.7258 125.104 55.3618 125.101 57.0011C126.318 56.1897 127.635 55.2288 129.184 55.3917C130.607 55.415 131.794 56.6685 131.99 58.0385C132.123 59.1192 132.139 60.2264 131.973 61.3038C131.758 62.441 130.607 63.1625 129.499 63.1359C127.728 63.1758 125.957 63.1259 124.189 63.1459C122.743 63.1259 121.257 63.3055 119.871 62.7868C119.128 63.0561 118.345 63.1958 117.556 63.1559C113.559 63.1027 109.556 63.2124 105.562 63.1027C105.46 63.0328 105.257 62.8932 105.158 62.8234C104.846 61.7128 105.088 60.5024 105.032 59.3519C104.969 58.6104 105.251 57.5996 104.478 57.144C103.871 56.632 102.869 57.2571 102.882 57.9953C102.786 60.1001 102.945 62.2082 102.826 64.3097C102.833 65.111 101.818 64.9415 101.287 65.0213C99.6486 65.008 97.9969 65.121 96.3684 64.9182C94.3518 64.6422 92.9953 62.2514 93.798 60.3727C94.123 59.2422 95.1611 58.6004 96.113 58.0518C96.3949 58.5007 96.6735 58.9529 96.9555 59.4051C96.3386 59.8607 95.5226 60.2032 95.2872 61.0045C94.8626 62.0752 95.788 63.2955 96.8891 63.3554C98.3319 63.4418 99.778 63.3654 101.221 63.3853C101.271 61.48 101.144 59.5714 101.277 57.6694C101.436 55.6511 104.176 54.6236 105.642 55.9836C107.237 57.3469 106.501 59.6778 106.647 61.5C110.743 61.47 114.843 61.5631 118.935 61.4501C118.992 59.5481 118.876 57.6461 118.988 55.7508C119.463 55.5746 119.977 55.5979 120.461 55.7309C120.693 57.6328 120.504 59.5581 120.564 61.47C121.532 61.5 122.507 61.5033 123.479 61.5033C123.532 58.3976 123.32 55.2687 123.582 52.1796ZM125.111 59.0194C125.108 59.8474 125.104 60.672 125.104 61.5C126.69 61.4667 128.282 61.5798 129.867 61.4468C130.657 61.2439 130.375 60.2564 130.454 59.6578C130.517 58.6503 130.415 57.2105 129.164 57.0177C127.589 56.9279 126.289 58.105 125.111 59.0194Z" fill="#00468C"/>
<path d="M152.544 52.1164C153.051 52.1862 153.695 51.9634 154.116 52.286C154.209 55.8971 154.142 59.5115 154.142 63.1226C153.615 63.1325 153.084 63.1392 152.56 63.1425C152.481 59.4683 152.514 55.7907 152.544 52.1164Z" fill="#00468C"/>
<path d="M167.499 52.1616C168.029 52.135 168.557 52.1117 169.091 52.0918C169.18 55.2207 169.074 58.3497 169.151 61.4786C173.761 61.4986 178.374 61.5418 182.985 61.4554C183.028 59.4869 182.925 57.5151 183.064 55.5499C183.568 55.6597 184.195 55.4967 184.613 55.8858C184.686 57.7445 184.61 59.6099 184.636 61.472C185.97 61.5119 187.303 61.5086 188.64 61.4753C188.679 59.5501 188.633 57.6248 188.669 55.6996C189.207 55.7095 189.744 55.7262 190.285 55.7428C190.255 57.6182 190.338 59.4935 190.255 61.3656C190.202 62.3964 189.217 63.1877 188.212 63.1345C186.779 63.1645 185.306 63.2775 183.936 62.7854C183.276 63.0015 182.597 63.1844 181.9 63.1512C178.136 63.1379 174.374 63.1412 170.613 63.1512C169.87 63.1778 169.151 62.9949 168.447 62.7887C166.365 63.4604 164.136 63.0414 161.99 63.1312C159.824 63.1478 158.192 60.7604 158.869 58.7221C159.174 57.4852 160.272 56.737 161.336 56.1917C161.582 56.6638 161.827 57.136 162.073 57.6115C161.433 58.0637 160.501 58.4295 160.408 59.3239C160.126 60.3381 160.948 61.482 162.003 61.4786C163.824 61.5385 165.645 61.4919 167.469 61.4786C167.535 58.373 167.479 55.2673 167.499 52.1616Z" fill="#00468C"/>
<path d="M127.565 52.5078C128.046 52.5178 128.53 52.5311 129.011 52.551C129.017 53.0731 129.017 53.5985 129.014 54.1238C128.53 54.1371 128.049 54.1438 127.568 54.1504C127.555 53.6018 127.555 53.0531 127.565 52.5078Z" fill="#00468C"/>
<path d="M183.047 52.5848C183.544 52.5814 184.042 52.5781 184.543 52.5781C184.523 53.1035 184.503 53.6289 184.483 54.1542C184.009 54.1443 183.541 54.1343 183.07 54.121C183.057 53.6089 183.05 53.0968 183.047 52.5848Z" fill="#00468C"/>
<path d="M80.6634 53.2702C81.1808 53.2569 81.6982 53.2469 82.2189 53.2402C82.3018 55.7773 82.262 58.3177 82.2421 60.8548C81.7115 60.8581 81.1841 60.8514 80.6568 60.8448C80.6601 58.321 80.6501 55.7939 80.6634 53.2702Z" fill="#00468C"/>
<path d="M163.346 56.7986C163.319 55.964 163.578 54.7537 164.646 54.8036C165.502 54.6539 165.86 55.5584 166.145 56.1768C165.545 56.0904 164.977 55.8809 164.397 55.7313C164.274 56.107 164.188 56.4927 164.102 56.8751C164.871 57.0114 166.165 56.5526 166.145 57.743C165.047 57.7729 163.953 57.7662 162.855 57.7729C162.828 57.6166 162.778 57.3107 162.752 57.1577C162.898 57.068 163.196 56.8884 163.346 56.7986Z" fill="#00468C"/>
<path d="M72.5437 55.5317C74.3778 54.8866 76.6 56.1003 76.8952 58.0588C77.0279 59.7113 76.9483 61.3772 76.9483 63.0365C77.0013 64.4962 75.8405 65.8462 74.4242 66.1022C73.5851 66.2086 72.736 66.1588 71.8969 66.1588C71.8903 65.6301 71.8836 65.0947 71.9533 64.5694C72.7659 64.4762 73.5884 64.556 74.3977 64.4363C74.9184 64.1903 75.1639 63.635 75.4856 63.1927C74.0528 63.1129 72.3546 63.3723 71.2767 62.1919C69.5221 60.3198 69.9002 56.4128 72.5437 55.5317ZM72.8853 57.1576C71.6581 57.7329 71.7675 59.3556 72.0329 60.4628C72.5702 61.7995 74.1755 61.4803 75.3164 61.5136C75.2932 60.3897 75.3994 59.2558 75.2435 58.1386C74.9284 57.2275 73.7642 56.6655 72.8853 57.1576Z" fill="#00468C"/>
<path d="M133.681 57.7313C134.264 55.4204 137.508 54.5692 139.16 56.265C140.696 57.5584 140.082 59.7464 140.182 61.4954C143.269 61.4854 146.357 61.532 149.445 61.4688C149.528 59.5635 149.399 57.6549 149.511 55.7529C149.989 55.6232 150.49 55.6432 150.984 55.6265C151.017 57.5352 151.04 59.4471 150.994 61.3591C151.03 62.3732 150.049 63.158 149.08 63.128C146.155 63.1679 143.223 63.138 140.294 63.1347C140.085 64.0258 139.77 64.9469 138.991 65.5022C137.903 66.4565 136.364 66.1173 135.047 66.1173C135.107 65.5786 135.173 65.0466 135.243 64.5113C136.026 64.4947 136.825 64.5778 137.604 64.4415C138.162 64.2353 138.414 63.6334 138.749 63.1846C137.336 63.1048 135.657 63.3874 134.59 62.2203C133.303 61.1097 133.488 59.2443 133.681 57.7313ZM136.059 57.206C134.895 57.8378 135.044 59.4371 135.329 60.5211C135.893 61.8113 137.468 61.4655 138.593 61.512C138.58 60.4447 138.646 59.3773 138.546 58.3132C138.347 57.2592 136.974 56.6041 136.059 57.206Z" fill="#00468C"/>
<path d="M119.001 64.4297C119.499 64.433 119.996 64.443 120.497 64.4563C120.484 64.9517 120.48 65.4505 120.427 65.9459C119.956 66.0124 119.479 66.0158 119.005 66.0224C118.998 65.4904 118.998 64.9584 119.001 64.4297Z" fill="#00468C"/>
<path d="M148.54 64.5087C149.027 64.4356 149.525 64.4256 150.022 64.4023C150.016 64.9177 150.016 65.4331 149.959 65.9452C149.618 66.0184 149.269 66.0682 148.921 66.0283C148.195 65.9585 148.589 64.9975 148.54 64.5087Z" fill="#00468C"/>
<path d="M187.75 64.4355C188.258 64.4422 188.769 64.4522 189.279 64.4721C189.279 64.9642 189.276 65.4564 189.276 65.9485C188.769 65.9518 188.261 65.9518 187.757 65.9518C187.75 65.4464 187.747 64.941 187.75 64.4355Z" fill="#00468C"/>
<path d="M96.8984 66.4004C97.4059 66.4004 97.91 66.407 98.4175 66.4137C98.4175 66.9158 98.4175 67.4179 98.4142 67.9233C97.91 67.92 97.4059 67.9167 96.9017 67.91C96.8984 67.4079 96.8984 66.9025 96.8984 66.4004Z" fill="#00468C"/>
<path d="M99.1807 66.4182C99.6948 66.4115 100.212 66.4082 100.73 66.4082C100.716 66.897 100.713 67.3858 100.667 67.8746C100.176 67.9311 99.6815 67.9211 99.1906 67.9344C99.1807 67.429 99.1807 66.9236 99.1807 66.4182Z" fill="#00468C"/>
<path d="M62.0068 75.4258C73.4794 75.4391 84.9519 75.4191 96.4244 75.4358C96.4145 78.8573 96.4244 82.2789 96.4211 85.7004C89.058 85.7071 81.6982 85.6938 74.3384 85.7071C74.3483 90.0364 74.3384 94.3657 74.3417 98.695C80.8856 98.6983 87.4262 98.695 93.9701 98.695C94.053 101.827 93.9203 104.956 94.0497 108.089C87.4792 108.112 80.9088 108.095 74.3417 108.098C74.3483 115.956 74.3318 123.816 74.3483 131.674C70.2356 131.684 66.1229 131.67 62.0102 131.684C62.0135 112.93 62.0168 94.1762 62.0068 75.4258Z" fill="#00468C"/>
<path d="M111.94 75.4357C116.55 75.4224 121.164 75.429 125.774 75.4324C132.62 94.1794 139.455 112.93 146.311 131.677C141.81 131.674 137.309 131.684 132.809 131.67C131.628 127.926 130.404 124.192 129.21 120.451C121.956 120.448 114.703 120.455 107.449 120.448C106.146 124.182 104.928 127.946 103.625 131.68C99.3695 131.667 95.1141 131.69 90.8555 131.667C97.9168 112.936 104.912 94.1794 111.94 75.4357ZM110.67 110.476C115.767 110.496 120.865 110.479 125.96 110.483C124.344 105.551 122.762 100.607 121.154 95.6757C120.205 92.733 119.213 89.8002 118.48 86.7943C116.059 94.748 113.346 102.605 110.67 110.476Z" fill="#00468C"/>
<path d="M150.255 75.4277C155.714 75.4277 161.174 75.4277 166.636 75.4277C170.828 75.4576 175.104 75.1684 179.19 76.3222C183.342 77.3696 187.359 79.9366 189.14 83.97C191.283 88.8878 190.609 95.2288 186.779 99.1425C185.319 100.679 183.409 101.703 181.396 102.311C184.377 103.036 187.313 104.433 189.269 106.873C192.069 110.242 192.517 114.983 191.648 119.143C190.861 123.047 188.347 126.515 184.944 128.547C181.061 130.921 176.42 131.636 171.936 131.672C164.709 131.679 157.482 131.676 150.255 131.672C150.258 112.925 150.265 94.1748 150.255 75.4277ZM162.59 85.1338C162.6 89.5362 162.593 93.9387 162.593 98.3412C165.525 98.3112 168.464 98.4409 171.389 98.2614C173.767 98.0951 176.371 97.0111 177.293 94.637C178.066 92.5089 178.129 89.9286 176.905 87.9535C175.552 85.8919 172.948 85.1969 170.62 85.1404C167.943 85.1171 165.266 85.1404 162.59 85.1338ZM162.596 106.837C162.593 111.874 162.593 116.915 162.593 121.956C165.717 121.893 168.852 122.096 171.966 121.827C174.45 121.634 177.037 120.344 178.026 117.929C178.988 115.449 178.918 112.493 177.648 110.135C176.384 107.888 173.714 106.983 171.276 106.887C168.384 106.767 165.489 106.867 162.596 106.837Z" fill="#00468C"/>
<path d="M69.5757 140.604C70.919 140.155 71.5624 142.387 70.1163 142.666C68.8128 143.032 68.3054 140.89 69.5757 140.604Z" fill="#00468C"/>
<path d="M101.356 140.871C101.93 140.864 102.501 140.861 103.075 140.857C103.075 142.025 103.078 143.188 103.051 144.355C104.487 143.511 106.667 143.597 107.549 145.187C108.554 147.132 108.424 150.041 106.477 151.365C104.948 152.386 103.015 151.973 101.366 151.518C101.36 147.97 101.373 144.419 101.356 140.871ZM103.078 145.529C103.151 147.188 102.889 148.914 103.207 150.54C104.159 150.79 105.383 150.696 105.924 149.749C106.55 148.585 106.584 147.006 105.861 145.878C105.214 144.944 103.983 145.183 103.078 145.529Z" fill="#00468C"/>
<path d="M130.225 140.863C130.782 140.863 131.339 140.859 131.903 140.863C131.907 142.04 131.91 143.22 131.89 144.397C132.858 143.945 133.953 143.619 135.018 143.935C135.976 144.178 136.567 145.169 136.567 146.123C136.626 148.035 136.56 149.947 136.59 151.859C136.033 151.856 135.479 151.856 134.925 151.859C134.882 149.95 135.048 148.028 134.842 146.13C134.543 144.81 132.819 145.062 131.963 145.651C131.814 147.713 131.946 149.791 131.907 151.859C131.343 151.856 130.782 151.856 130.222 151.856C130.235 148.191 130.228 144.527 130.225 140.863Z" fill="#00468C"/>
<path d="M145.157 140.869C145.728 140.863 146.301 140.859 146.879 140.859C146.875 142.026 146.882 143.194 146.855 144.364C147.97 143.759 149.436 143.543 150.534 144.301C151.741 145.142 152.02 146.751 151.953 148.131C151.923 149.541 151.194 151.001 149.874 151.603C148.378 152.321 146.676 151.919 145.161 151.503C145.164 147.959 145.167 144.414 145.157 140.869ZM146.882 145.521C146.869 147.204 146.869 148.886 146.885 150.569C147.734 150.605 148.756 150.841 149.416 150.136C150.404 149.069 150.378 147.323 149.801 146.063C149.217 144.969 147.85 145.129 146.882 145.521Z" fill="#00468C"/>
<path d="M153.15 140.901C153.668 140.259 154.908 140.568 154.968 141.429C155.174 142.274 154.132 143.032 153.412 142.53C152.805 142.254 152.636 141.336 153.15 140.901Z" fill="#00468C"/>
<path d="M183.913 140.859C184.473 140.863 185.031 140.866 185.594 140.876C185.594 143.011 185.581 145.149 185.604 147.287C186.51 146.16 187.405 145.019 188.334 143.905C188.958 143.909 189.581 143.915 190.208 143.925C189.203 145.106 188.238 146.319 187.226 147.493C188.002 148.494 188.779 149.498 189.568 150.492C189.75 150.532 190.115 150.615 190.298 150.655C190.291 150.984 190.278 151.639 190.271 151.965C189.588 151.876 188.788 151.959 188.274 151.41C187.279 150.353 186.497 149.119 185.598 147.982C185.585 149.272 185.591 150.562 185.598 151.852C185.031 151.852 184.467 151.856 183.906 151.859C183.929 148.191 183.916 144.524 183.913 140.859Z" fill="#00468C"/>
<path d="M62.0131 141.725C63.9534 141.735 65.8936 141.728 67.8372 141.731C67.8339 142.223 67.8339 142.719 67.8372 143.214C66.4608 143.214 65.0877 143.214 63.7146 143.214C63.7179 144.115 63.7179 145.02 63.7212 145.924C64.9384 145.924 66.159 145.921 67.3795 145.921C67.3795 146.376 67.3829 146.835 67.3829 147.298C66.159 147.294 64.9351 147.294 63.7112 147.294C63.7212 148.814 63.7146 150.333 63.7245 151.856C63.154 151.856 62.5802 151.856 62.0098 151.86C62.0164 148.481 62.0098 145.103 62.0131 141.725Z" fill="#00468C"/>
<path d="M94.968 141.711C95.6048 141.724 96.2482 141.708 96.8851 141.791C98.2084 145.106 99.2963 148.514 100.557 151.856C99.9099 151.856 99.2665 151.856 98.623 151.856C98.3743 151.091 98.1222 150.33 97.8701 149.568C96.507 149.575 95.1438 149.572 93.7806 149.572C93.5219 150.33 93.2665 151.091 93.0078 151.853C92.4042 151.856 91.8005 151.856 91.2002 151.859C92.4838 148.488 93.7043 145.089 94.968 141.711ZM94.2715 148.055C95.3162 148.065 96.3643 148.065 97.4091 148.059C96.8884 146.519 96.3511 144.983 95.9099 143.417C95.3527 144.96 94.8453 146.519 94.2715 148.055Z" fill="#00468C"/>
<path d="M120.786 141.732C123.111 141.822 126.013 141.247 127.711 143.265C129.373 145.423 129.29 148.991 127.207 150.85C125.413 152.353 122.919 151.737 120.779 151.857C120.786 148.482 120.776 145.107 120.786 141.732ZM122.56 143.178C122.56 145.583 122.564 147.983 122.56 150.387C123.874 150.381 125.529 150.56 126.371 149.303C127.257 147.89 127.207 145.962 126.504 144.485C125.718 143.075 123.947 143.162 122.56 143.178Z" fill="#00468C"/>
<path d="M160.48 151.857C160.494 148.482 160.48 145.107 160.487 141.732C162.291 141.815 164.222 141.45 165.923 142.205C167.621 143.066 167.472 145.742 165.784 146.55C167.82 147.235 167.999 150.251 166.218 151.315C164.47 152.283 162.378 151.708 160.48 151.857ZM162.205 143.185C162.208 144.12 162.208 145.054 162.208 145.992C162.968 145.965 163.741 146.032 164.494 145.872C165.582 145.573 165.737 143.874 164.733 143.375C163.927 143.076 163.041 143.222 162.205 143.185ZM162.208 147.222C162.208 148.309 162.208 149.403 162.212 150.494C163.084 150.444 164.009 150.567 164.839 150.231C165.628 149.842 165.681 148.795 165.419 148.06C164.772 146.92 163.28 147.305 162.208 147.222Z" fill="#00468C"/>
<path d="M84.0829 141.895C84.544 141.878 85.005 141.865 85.466 141.852C85.4627 142.537 85.466 143.228 85.4627 143.916C86.0696 143.913 86.6766 143.91 87.2836 143.913C87.2803 144.236 87.2736 144.881 87.2703 145.203C86.6667 145.197 86.063 145.197 85.4627 145.197C85.5423 146.856 85.2969 148.542 85.6086 150.181C86.0033 150.873 86.8524 150.474 87.4826 150.523C87.4726 150.972 87.4627 151.418 87.4527 151.87C86.6468 151.927 85.8143 152.08 85.0182 151.864C84.2886 151.631 83.8209 150.889 83.8375 150.138C83.7645 148.492 83.8342 146.843 83.8143 145.197C83.5556 145.2 83.0415 145.2 82.7861 145.203C82.7728 144.771 82.7629 144.342 82.7529 143.916C83.0216 143.916 83.5589 143.916 83.8275 143.916C83.9071 143.241 83.9934 142.566 84.0829 141.895Z" fill="#00468C"/>
<path d="M69.0215 143.923C69.5886 143.917 70.1591 143.913 70.7263 143.91C70.723 146.557 70.7196 149.207 70.7296 151.857C70.1624 151.857 69.5953 151.857 69.0314 151.861C69.0248 149.214 69.0381 146.57 69.0215 143.923Z" fill="#00468C"/>
<path d="M73.9603 144.572C74.7298 143.98 75.6618 143.76 76.6203 143.807C76.6369 144.319 76.6568 144.831 76.6767 145.346C75.7281 145.27 74.7795 145.383 73.9769 145.925C74.0068 147.903 73.9802 149.882 73.9968 151.86C73.433 151.857 72.8724 151.857 72.3086 151.86C72.3152 149.21 72.3119 146.563 72.3086 143.917C72.8691 143.913 73.4296 143.91 73.9935 143.91C73.9835 144.076 73.967 144.405 73.9603 144.572Z" fill="#00468C"/>
<path d="M78.3785 144.089C79.5294 143.617 80.8031 143.876 81.9905 144.049C81.9971 144.395 82.0137 145.09 82.0203 145.435C81.0253 145.336 79.6887 144.764 78.8628 145.552C78.3586 146.852 80.1397 146.958 80.9192 147.381C82.6306 147.826 83.0385 150.343 81.6488 151.374C80.3487 152.352 78.5974 151.969 77.1447 151.62C77.1447 151.274 77.1447 150.586 77.1447 150.24C78.1331 150.493 79.1978 150.882 80.216 150.546C80.8263 150.347 81.0916 149.442 80.5344 149.027C79.7284 148.548 78.7732 148.381 77.9938 147.856C76.7036 146.982 76.886 144.644 78.3785 144.089Z" fill="#00468C"/>
<path d="M138.288 144.113C139.754 143.873 141.522 143.434 142.786 144.468C143.854 145.503 143.463 147.139 143.526 148.469C143.592 149.33 143.177 150.593 144.351 150.819C144.355 151.179 144.361 151.541 144.375 151.903C143.519 152.043 142.63 152.007 142 151.332C140.992 151.983 139.648 152.269 138.554 151.657C137.181 150.916 137.157 148.608 138.534 147.86C139.559 147.238 140.799 147.291 141.95 147.258C141.741 146.633 141.88 145.735 141.227 145.363C140.242 144.947 139.164 145.33 138.196 145.596C138.222 145.1 138.255 144.605 138.288 144.113ZM139.35 149.057C139.114 149.543 139.197 150.248 139.718 150.524C140.408 150.939 141.201 150.547 141.867 150.274C141.857 149.626 141.851 148.977 141.841 148.329C141.002 148.445 139.92 148.279 139.35 149.057Z" fill="#00468C"/>
<path d="M153.084 143.91C153.655 143.913 154.229 143.913 154.799 143.917C154.792 146.564 154.796 149.214 154.799 151.861C154.222 151.857 153.652 151.857 153.081 151.857C153.108 149.207 153.098 146.56 153.084 143.91Z" fill="#00468C"/>
<path d="M169.101 144.109C170.706 143.823 173.041 143.321 174.016 145.05C174.553 146.573 174.172 148.229 174.305 149.808C174.155 150.43 174.756 150.606 175.187 150.846C175.18 151.122 175.167 151.674 175.16 151.95C174.305 152.029 173.426 151.993 172.786 151.344C171.794 151.973 170.487 152.249 169.403 151.687C167.953 151.005 167.94 148.571 169.349 147.836C170.371 147.238 171.595 147.301 172.739 147.255C172.53 146.629 172.669 145.758 172.033 145.366C171.064 144.954 169.996 145.319 169.041 145.582C169.058 145.09 169.077 144.598 169.101 144.109ZM170.145 149.014C169.883 149.542 169.996 150.254 170.547 150.56C171.164 150.829 171.923 150.703 172.477 150.337C172.716 149.699 172.63 149 172.683 148.335C171.827 148.435 170.776 148.299 170.145 149.014Z" fill="#00468C"/>
<path d="M175.992 143.875C176.633 143.925 177.365 143.806 177.866 144.318C178.855 143.845 180.022 143.613 181.074 144.028C181.866 144.397 182.317 145.262 182.364 146.117C182.473 148.029 182.37 149.944 182.414 151.859C181.836 151.856 181.259 151.856 180.686 151.856C180.649 149.947 180.788 148.029 180.623 146.127C180.307 144.747 178.616 145.186 177.691 145.611C177.677 147.693 177.681 149.774 177.691 151.859C177.117 151.856 176.55 151.856 175.982 151.859C175.999 149.196 175.986 146.536 175.992 143.875Z" fill="#00468C"/>
<path d="M109.187 143.923C109.747 143.916 110.308 143.916 110.868 143.916C110.872 145.542 110.848 147.168 110.862 148.794C110.858 149.432 110.968 150.201 111.611 150.516C112.367 150.816 113.13 150.43 113.847 150.207C113.847 148.109 113.847 146.014 113.847 143.919C114.437 143.916 115.031 143.916 115.624 143.919C115.618 146.579 115.618 149.236 115.624 151.896C114.961 151.856 114.251 151.903 113.681 151.501C112.643 151.95 111.402 152.249 110.344 151.687C109.532 151.291 109.23 150.324 109.197 149.482C109.157 147.63 109.207 145.775 109.187 143.923Z" fill="#00468C"/>
<path d="M189.011 75.4722C205.667 66.3048 222.337 57.1574 239 48C231.694 59.904 225.335 72.443 220.765 85.667C216.583 97.7472 213.83 110.403 213.422 123.211C213.087 130.064 213.677 136.931 214.659 143.714C206.961 132.455 202.652 118.888 202.586 105.232C202.47 95.004 204.689 84.7593 209.011 75.4922C202.344 75.4622 195.674 75.5088 189.011 75.4722Z" fill="#EF2E24"/>
</g>
<defs>
<clipPath id="clip0_158_5686">
<rect width="177" height="104" fill="white" transform="translate(62 48)"/>
</clipPath>
</defs>
</svg>
