<?xml version="1.0" encoding="UTF-8"?>
<svg id="Layer_2" data-name="Layer 2" xmlns="http://www.w3.org/2000/svg" viewBox="0 0 1344.34 263.21">
  <defs>
    <style>
      .cls-1 {
        fill: #14894b;
      }

      .cls-1, .cls-2, .cls-3, .cls-4, .cls-5, .cls-6, .cls-7 {
        stroke-width: 0px;
      }

      .cls-2 {
        fill: #cf3438;
      }

      .cls-3 {
        fill: #030304;
      }

      .cls-4 {
        fill: #040405;
      }

      .cls-5 {
        fill: #010101;
      }

      .cls-6 {
        fill: #060607;
      }

      .cls-7 {
        fill: #050506;
      }
    </style>
  </defs>
  <g id="Layer_1-2" data-name="Layer 1">
    <path class="cls-2" d="m365.64,152.37c-3.74,9.48-7.31,18.49-10.85,27.51-5.75,14.67-11.4,29.38-17.26,44-5.62,14.02-20.42,23.69-35.41,24.24-13.43.5-24.05-4.82-32.57-14.59-4.66-5.34-6.88-12.03-8.47-18.98-2.15-9.38.8-17.82,4.04-26.24,5.87-15.29,11.93-30.51,17.89-45.77,6.46-16.53,12.95-33.04,19.32-49.6,6.08-15.81,11.85-31.75,18.09-47.5,2.66-6.71,5.03-13.53,7.75-20.2,5.96-14.65,16.9-22.88,32.77-24.69,21.29-2.43,37.76,11.35,43.74,29.04,7.45,22.01,16.53,43.47,24.92,65.17,12.92,33.4,26.18,66.69,38.68,100.25,7.98,21.43-5.02,45.59-27.12,51.61-19.63,5.35-38.91-3.49-47.04-21.63-6.22-13.88-11.23-28.31-16.76-42.49-3.85-9.86-7.68-19.73-11.72-30.12Z"/>
    <path class="cls-1" d="m.06,206.59c-.6-7.95,3.27-15.29,6.16-22.85,6.4-16.77,12.94-33.49,19.47-50.21,9.88-25.31,19.86-50.59,29.66-75.93,4.75-12.28,9.09-24.71,14.56-36.71C76.21,7.02,95.87-2.03,110.11.39c18.34,3.12,29.34,13.46,34.22,30.99,2.86,10.25-.07,19.69-3.78,29.15-20.12,51.36-40.19,102.74-60.07,154.2-3.24,8.38-6.47,16.54-13.27,22.78-13.25,12.18-36.57,14.88-51.39,2.52C4.91,230.93.04,221.25.06,206.59Z"/>
    <path class="cls-5" d="m235.63.48c18.86-.69,34.8,12.14,39.36,30.71,2.33,9.48.56,18.53-2.94,27.49-20.54,52.68-41.03,105.38-61.4,158.13-3.77,9.77-8.54,18.71-17.62,24.42-15.04,9.45-32.59,9.89-46.94-1.49-7.8-6.18-12.86-14.36-14.71-24.55-1.81-9.96.45-19,4.18-28.01,3.47-8.39,6.72-16.87,10.04-25.32,4.43-11.26,8.87-22.52,13.22-33.81,3.92-10.18,7.65-20.44,11.59-30.62,3.01-7.78,6.26-15.47,9.32-23.24,3.17-8.03,6.2-16.1,9.35-24.14,3.49-8.91,6.71-17.95,10.63-26.67C206.62,8.01,219.1.95,235.63.48Z"/>
    <path class="cls-6" d="m658.2,25.31c1.83,8.06,3.72,16.11,5.47,24.19,3.87,17.89,7.64,35.8,11.5,53.7,4.42,20.53,8.86,41.06,13.35,61.58,2.54,11.63,5.12,23.25,7.85,34.84.49,2.08.19,2.65-1.93,2.59-4.5-.11-9-.07-13.49-.01-1.45.02-1.82-.29-2.2-1.96-2.17-9.66-4.33-19.32-6.39-28.99-2.52-11.78-5.19-23.54-7.63-35.34-2.06-9.94-4.5-19.8-6.66-29.72-1.52-6.97-2.85-13.99-5.21-21.19-16.37,42.07-32.75,84.14-49.45,127.06-3.84-9.77-7.34-18.67-10.85-27.57-3.07-7.78-6.17-15.54-9.21-23.33-3.7-9.46-7.36-18.94-11.04-28.41-2.94-7.58-5.88-15.17-8.82-22.75-2.72-7.01-5.44-14.02-8.18-21.02-.42-1.07-.46-2.87-1.86-2.73-1.27.13-1.21,1.8-1.46,3.01-3.47,16.35-6.99,32.69-10.54,49.02-3.7,17.04-7.45,34.06-11.17,51.09-.76,3.48-1.64,6.94-2.2,10.45-.31,1.95-1.23,2.42-3,2.4-5.12-.07-10.24-.02-15.42-.02,12.91-58.89,25.8-117.63,38.76-176.76,2.28,2.16,2.65,4.82,3.53,7.12,13.81,35.87,27.54,71.77,41.29,107.66,2.98,7.77,6,15.53,8.94,23.32.3.81.3,1.89,1.37,1.83.75-.04,1-.99,1.27-1.71,5.16-13.91,10.22-27.86,15.52-41.72,4.83-12.63,10.03-25.12,14.88-37.75,4.17-10.84,7.99-21.81,12.11-32.67,3.01-7.94,6.26-15.78,9.37-23.68.3-.77.44-1.61.65-2.42.29-.03.58-.06.87-.08Z"/>
    <path class="cls-4" d="m818.15,170.42c-5.1,10.96-12.34,19.27-22.23,25.32-9.77,5.97-20.21,8.59-31.74,7.97-10.77-.58-20.47-3.6-29.41-9.53-11.16-7.4-18.67-17.62-22.61-30.26-1.58-5.06-1.75-10.52-1.89-15.91-.43-17.02,6.17-31.05,18.43-42.3,12.76-11.71,28.12-16.2,45.31-13.63,24.57,3.68,40.13,17.92,47.39,41.39,1.91,6.18,1.71,12.74,1.76,19.19.02,2.47-1.64,2.02-3.07,2.02-9.62.01-19.24.01-28.86.01-19.86,0-39.73.04-59.59-.04-2.66-.01-3.72.13-2.76,3.38,4.33,14.78,14.32,24.01,28.78,27.57,12.86,3.17,24.8.21,34.56-9.6,3.96-3.98,8.48-6.86,14.76-5.69,3.46.64,7.14.11,11.18.11Zm-13.41-30.47c-4.42-20-21.48-32.66-41.75-31.33-16.08,1.05-32.84,16.44-34.03,31.33h75.78Z"/>
    <path class="cls-7" d="m1239.85,94.31c5.82,0,11.32.19,16.8-.08,2.61-.13,3.7.9,4.71,3.04,10.46,22.05,21,44.06,31.51,66.08.37.77.77,1.53,1.37,2.74,2.68-6.16,5.21-11.96,7.72-17.77,3.31-7.66,6.61-15.33,9.9-23,3.46-8.06,6.99-16.09,10.27-24.22.8-1.98,2.26-3.72,2.38-6,.06-1.12,1.1-.76,1.74-.76,5.86-.03,11.72-.02,18.08-.02-2.13,4.89-4.1,9.47-6.11,14.03-16.07,36.42-32.16,72.82-48.23,109.25-6.37,14.45-12.7,28.93-19,43.42-.67,1.55-1.52,2.23-3.31,2.19-5.24-.13-10.5-.16-15.74,0-2.84.09-2.71-.87-1.73-2.97,4.45-9.49,8.78-19.04,13.16-28.57,5.73-12.48,11.47-24.95,17.21-37.42,1.1-2.4,1.8-4.97,3.34-7.18,1.24-1.77.89-3.59-.07-5.5-11.87-23.56-23.58-47.2-35.58-70.7-2.78-5.46-5.74-10.82-8.45-16.55Z"/>
    <path class="cls-7" d="m1028.02,132.95c-5.3,0-10.3-.14-15.29.06-2.34.09-3.48-.75-4.57-2.78-5.26-9.82-13.16-16.81-24.07-19.3-23.54-5.39-45.8,12.4-46.28,36.27-.53,26.16,23.23,45.24,48.45,37.78,8.68-2.57,15.31-8.28,20.14-15.9,1.15-1.82,2.36-2.53,4.49-2.46,4.62.16,9.25.09,13.87.02,1.96-.03,2.33.46,1.56,2.38-7.48,18.8-21.59,30.36-40.87,34.46-18.32,3.89-35.16-.92-48.64-14.43-8.1-8.12-13.78-17.78-15.69-29.45-2.61-15.95-.46-30.81,9-44.22,9.05-12.83,21.23-20.45,36.91-22.61,18.35-2.53,33.99,2.97,46.96,15.78,6.63,6.54,10.71,12.7,14.02,24.4Z"/>
    <path class="cls-3" d="m1129.81,184.22c-3.81,4.34-6.54,8.38-10.47,11.51-9.01,7.19-19.19,8.95-30.29,8.29-9.19-.55-17.11-3.77-23.28-10.51-5.42-5.92-8.23-13.18-9.79-21.1-.88-4.47-.69-8.87-.72-13.28-.13-20.48,0-40.96-.13-61.45-.02-2.83.68-3.63,3.47-3.43,3.6.27,7.25.23,10.86,0,2.48-.15,3.06.65,3.05,3.07-.1,22.48-.26,44.96.06,67.44.11,7.64,2.17,14.98,9.25,19.56,4.55,2.94,9.74,3.43,14.94,2.83,6.86-.8,13.26-2.79,19-7.06,4.14-3.09,6.35-7.33,8.39-11.61,4.88-10.23,5.45-21.37,5.63-32.46.2-12.86.1-25.73,0-38.59-.02-2.31.39-3.35,3.03-3.17,3.86.25,7.74.18,11.61.02,2.03-.08,2.46.61,2.46,2.53-.06,34.22-.06,68.44,0,102.66,0,2.08-.49,2.86-2.69,2.76-3.86-.17-7.75-.16-11.61,0-2.12.08-2.85-.56-2.79-2.72.14-4.82.04-9.65.04-15.28Z"/>
    <path class="cls-4" d="m868.47,110c3.67-3.67,5.97-7.86,9.52-11.24,6.2-5.9,13.54-7.37,21.42-6.26,7.36,1.04,7.3,1.46,7.3,9.06,0,4,.03,8-.03,12-.01.77.53,1.86-.48,2.28-.8.32-1.56-.21-2.36-.69-3.47-2.09-7.02-4.04-11.31-3.81-8.83.48-13.91,6.3-18.06,13.07-4.19,6.83-6.04,14.42-6.03,22.46.03,17.37-.05,34.74.08,52.11.02,2.66-.7,3.44-3.32,3.26-3.48-.23-7.01-.25-10.49,0-2.78.2-3.58-.6-3.54-3.46.17-12.99.07-25.99.07-38.99,0-20.74.05-41.49-.06-62.23-.01-2.6.57-3.47,3.25-3.3,3.86.25,7.75.19,11.62.01,2.07-.09,2.49.67,2.43,2.54-.12,4.39-.04,8.79-.04,13.19Z"/>
    <path class="cls-6" d="m1198.41,110.8c4.88-12.17,13.53-18.47,25.77-18.71,1.12-.02,2.27-.04,3.36.17q7.8,1.48,7.79,9.53c0,3.75.02,7.5-.02,11.24-.01.95.49,2.25-.42,2.79-1.09.64-2.03-.56-2.85-1.1-6.15-4.04-12.5-4.78-18.92-.93-6.68,4-10.47,10.36-13.18,17.42-2.16,5.62-2.82,11.52-2.83,17.49-.02,16.62-.08,33.24.07,49.85.03,2.95-.73,3.92-3.7,3.68-3.35-.27-6.76-.26-10.11,0-2.79.22-3.53-.6-3.51-3.45.14-19.99.07-39.98.07-59.97,0-13.74.07-27.49-.06-41.23-.02-2.57.57-3.51,3.27-3.33,3.61.24,7.26.26,10.86,0,2.78-.2,3.27.87,3.17,3.36-.19,4.36-.01,8.74,0,13.11-.26,1.06-.5,2.12.26,3.33.37-1.23.67-2.24.98-3.25Z"/>
  </g>
</svg>