<svg width="1096" height="733" viewBox="0 0 1096 733" fill="none" xmlns="http://www.w3.org/2000/svg">
<mask id="mask0_157_2070" style="mask-type:luminance" maskUnits="userSpaceOnUse" x="0" y="160" width="414" height="413">
<path d="M413.428 160H0V573H413.428V160Z" fill="white"/>
</mask>
<g mask="url(#mask0_157_2070)">
<path d="M263.929 566.427C250.561 537.449 237.465 509.366 224.797 481.089C223.203 477.549 222.66 472.415 223.981 468.914C245.237 411.737 266.882 354.676 293.307 298.354C293.307 331.144 293.307 363.934 293.307 396.723C293.307 407.302 293.307 417.921 293.268 428.501C293.164 449.79 282.646 466.217 261.714 477.783H353.656C325.133 469.614 326.143 448.144 326.376 426.362C326.843 385.404 326.492 344.408 326.57 303.411C326.57 289.097 329.135 276.845 346.039 272.527C349.731 271.594 351.985 265.059 354.899 261.092C350.624 258.486 346.467 253.857 342.114 253.663C321.674 252.885 301.001 251.757 280.832 254.129C273.799 254.946 264.861 264.242 261.986 271.671C245.276 315.158 230.121 359.266 214.383 403.102C212.051 409.636 209.331 416.054 204.512 428.423C172.181 344.563 141.793 265.643 110.355 184.116C177.699 151.988 243.683 150.86 307.452 186.878C382.49 229.314 418.94 296.332 412.8 382.253C406.35 472.765 351.091 539.083 263.968 566.349L263.929 566.427Z" fill="black"/>
<path d="M253.757 568.373C143.823 590.544 40.806 531.032 9.48512 430.564C-24.2062 322.315 37.6973 220.64 103.409 191.818C110.715 210.683 117.981 229.509 126.686 251.991H51.4147C50.0546 254.091 48.6557 256.153 47.2956 258.253C51.3759 263.388 55.5727 268.483 59.5364 273.734C64.9767 280.89 74.7305 288.086 74.8858 295.438C76.0908 347.559 76.3235 399.758 74.0696 451.801C73.6815 460.513 59.6141 468.604 50.2489 478.717H138.227C103.564 467.592 112.463 439.821 112.23 416.444C111.88 379.376 112.152 342.308 116.932 304.384C133.836 347.403 150.701 390.423 167.605 433.48C171.996 444.644 174.949 456.701 181.167 466.737C185.17 473.194 193.641 477.084 200.597 481.439C206.037 484.863 215.169 485.679 217.501 490.269C230.208 515.318 241.322 541.184 253.757 568.411V568.373Z" fill="#CF3438"/>
</g>
<path d="M483.471 337.461H502.502V313.765L512.715 300.059H522.23V337.461H560.758V352.794H522.23V423.881L537.317 437.355H567.025V445.951L559.133 453.617H527.569L502.502 430.618V352.794H483.471V337.461ZM609.632 337.461H667.657L692.723 360.692V430.618L667.657 453.617H609.632L584.566 430.618V360.692L609.632 337.461ZM673.227 367.197L658.141 353.723H619.38L604.062 367.197V423.881L619.38 437.355H658.141L673.227 423.881V367.197ZM806.591 439.446L785.006 453.617H750.192L724.894 430.618V337.461H744.622V423.881L759.708 437.355H781.989L806.591 421.558V337.461H826.087V453.617H806.591V439.446ZM884.336 337.461H936.325L944.216 345.127V353.723H894.084L878.766 367.197V423.881L894.084 437.355H945.145V445.951L937.253 453.617H884.336L859.27 430.618V360.692L884.336 337.461ZM1053.91 367.197L1038.83 353.723H1013.99L990.783 368.823V453.617H971.287V291.231L978.947 283.564H990.783V350.703L1010.51 337.461H1048.34L1073.64 360.692V453.617H1053.91V367.197Z" fill="black"/>
</svg>
