<?xml version="1.0" encoding="UTF-8"?>
<svg id="Layer_2" data-name="Layer 2" xmlns="http://www.w3.org/2000/svg" viewBox="0 0 106.39 106.18">
  <defs>
    <style>
      .cls-1 {
        stroke-width: 0px;
      }
    </style>
  </defs>
  <g id="Layer_1-2" data-name="Layer 1">
    <path class="cls-1" d="m67.92,104.49c-3.44-7.45-6.81-14.67-10.07-21.94-.41-.91-.55-2.23-.21-3.13,5.47-14.7,11.04-29.37,17.84-43.85,0,8.43,0,16.86,0,25.29,0,2.72,0,5.45-.01,8.17q-.04,8.21-8.12,12.67h23.66c-7.34-2.1-7.08-7.62-7.02-13.22.12-10.53.03-21.07.05-31.61,0-3.68.66-6.83,5.01-7.94.95-.24,1.53-1.92,2.28-2.94-1.1-.67-2.17-1.86-3.29-1.91-5.26-.2-10.58-.49-15.77.12-1.81.21-4.11,2.6-4.85,4.51-4.3,11.18-8.2,22.52-12.25,33.79-.6,1.68-1.3,3.33-2.54,6.51-8.32-21.56-16.14-41.85-24.23-62.81,17.33-8.26,34.31-8.55,50.72.71,19.31,10.91,28.69,28.14,27.11,50.23-1.66,23.27-15.88,40.32-38.3,47.33Z"/>
    <path class="cls-1" d="m65.3,104.99c-28.29,5.7-54.8-9.6-62.86-35.43C-6.23,41.73,9.7,15.59,26.61,8.18c1.88,4.85,3.75,9.69,5.99,15.47H13.23c-.35.54-.71,1.07-1.06,1.61,1.05,1.32,2.13,2.63,3.15,3.98,1.4,1.84,3.91,3.69,3.95,5.58.31,13.4.37,26.82-.21,40.2-.1,2.24-3.72,4.32-6.13,6.92h22.64c-8.92-2.86-6.63-10-6.69-16.01-.09-9.53-.02-19.06,1.21-28.81,4.35,11.06,8.69,22.12,13.04,33.19,1.13,2.87,1.89,5.97,3.49,8.55,1.03,1.66,3.21,2.66,5,3.78,1.4.88,3.75,1.09,4.35,2.27,3.27,6.44,6.13,13.09,9.33,20.09Z"/>
  </g>
</svg>