<svg width="170" height="64" viewBox="0 0 170 64" fill="none" xmlns="http://www.w3.org/2000/svg">
<g clip-path="url(#clip0_120_5720)">
<path d="M40.9379 62.9814C38.8644 58.4909 36.8331 54.1391 34.8682 49.7571C34.621 49.2086 34.5367 48.413 34.7416 47.8705C38.0386 39.0101 41.396 30.1677 45.4947 21.4399C45.4947 26.5211 45.4947 31.6023 45.4947 36.6835C45.4947 38.3229 45.4947 39.9684 45.4886 41.6079C45.4726 44.907 43.8411 47.4526 40.5943 49.2448H54.8554C50.4312 47.979 50.5879 44.6518 50.6241 41.2764C50.6964 34.9295 50.6421 28.5765 50.6542 22.2235C50.6542 20.0054 51.052 18.1067 53.674 17.4376C54.2466 17.293 54.5962 16.2804 55.0482 15.6656C54.3852 15.2617 53.7403 14.5444 53.0652 14.5143C49.8947 14.3938 46.6881 14.219 43.5598 14.5866C42.4688 14.7132 41.0825 16.1538 40.6365 17.305C38.0447 24.0438 35.6939 30.879 33.2528 37.672C32.8912 38.6846 32.4692 39.6791 31.7218 41.5959C26.7069 28.6006 21.9934 16.3708 17.1172 3.73714C27.5628 -1.24158 37.7975 -1.41637 47.6887 4.16509C59.3278 10.7411 64.9816 21.1265 64.0292 34.4412C63.0287 48.4672 54.4575 58.7441 40.9439 62.9694L40.9379 62.9814Z" fill="black"/>
<path d="M39.3601 63.2829C22.3083 66.7186 6.3294 57.4965 1.47123 41.9275C-3.75461 25.1529 5.8472 9.39704 16.0397 4.93066C17.1729 7.854 18.3 10.7713 19.6502 14.2552H7.97491C7.76394 14.5807 7.54695 14.9002 7.33599 15.2256C7.96888 16.0213 8.61985 16.8109 9.23465 17.6246C10.0785 18.7336 11.5914 19.8487 11.6155 20.9879C11.8024 29.0648 11.8385 37.1537 11.4889 45.2185C11.4287 46.5686 9.24671 47.8224 7.79408 49.3895H21.4403C16.0638 47.6656 17.4441 43.362 17.4079 39.7395C17.3537 33.9953 17.3959 28.2511 18.1373 22.3743C20.7592 29.0407 23.3752 35.7071 25.9971 42.3795C26.6782 44.1094 27.1363 45.9779 28.1007 47.533C28.7216 48.5336 30.0356 49.1364 31.1145 49.8114C31.9583 50.3419 33.3748 50.4684 33.7364 51.1797C35.7074 55.0614 37.4313 59.0697 39.3601 63.2889V63.2829Z" fill="#CF3438"/>
</g>
<path d="M74.991 27.5H77.943V23.828L79.527 21.704H81.003V27.5H86.979V29.876H81.003V40.892L83.343 42.98H87.951V44.312L86.727 45.5H81.831L77.943 41.936V29.876H74.991V27.5ZM94.5598 27.5H103.56L107.448 31.1V41.936L103.56 45.5H94.5598L90.6718 41.936V31.1L94.5598 27.5ZM104.424 32.108L102.084 30.02H96.0718L93.6958 32.108V40.892L96.0718 42.98H102.084L104.424 40.892V32.108ZM125.11 43.304L121.762 45.5H116.362L112.438 41.936V27.5H115.498V40.892L117.838 42.98H121.294L125.11 40.532V27.5H128.134V45.5H125.11V43.304ZM137.169 27.5H145.233L146.457 28.688V30.02H138.681L136.305 32.108V40.892L138.681 42.98H146.601V44.312L145.377 45.5H137.169L133.281 41.936V31.1L137.169 27.5ZM163.472 32.108L161.132 30.02H157.28L153.68 32.36V45.5H150.656V20.336L151.844 19.148H153.68V29.552L156.74 27.5H162.608L166.532 31.1V45.5H163.472V32.108Z" fill="black"/>
<defs>
<clipPath id="clip0_120_5720">
<rect width="64.1266" height="64" fill="white"/>
</clipPath>
</defs>
</svg>
