<svg width="1080" height="1080" viewBox="0 0 1080 1080" fill="none" xmlns="http://www.w3.org/2000/svg">
<g clip-path="url(#clip0_147_916)">
<mask id="mask0_147_916" style="mask-type:luminance" maskUnits="userSpaceOnUse" x="62" y="57" width="997" height="909">
<path d="M62.667 57.3335H1058.67V965.334H62.667V57.3335Z" fill="white"/>
</mask>
<g mask="url(#mask0_147_916)">
<mask id="mask1_147_916" style="mask-type:luminance" maskUnits="userSpaceOnUse" x="0" y="-1" width="1113" height="1023">
<path d="M0.078125 506.214L777.516 -0.208008L1112.94 514.719L335.5 1021.14L0.078125 506.214Z" fill="white"/>
</mask>
<g mask="url(#mask1_147_916)">
<mask id="mask2_147_916" style="mask-type:luminance" maskUnits="userSpaceOnUse" x="0" y="-1" width="1113" height="1023">
<path d="M0.078125 506.214L777.516 -0.208008L1112.94 514.719L335.5 1021.14L0.078125 506.214Z" fill="white"/>
</mask>
<g mask="url(#mask2_147_916)">
<path d="M130.344 422.084L653.234 81.4744C655.271 80.1515 657.333 78.8754 659.432 77.6515C661.526 76.4275 663.651 75.2556 665.802 74.141C667.958 73.0212 670.135 71.9535 672.344 70.9431C674.547 69.9327 676.776 68.9744 679.031 68.0733C681.281 67.1671 683.557 66.3233 685.849 65.5317C688.146 64.74 690.458 64.0056 692.786 63.3285C695.12 62.6515 697.463 62.0317 699.823 61.4692C702.187 60.9067 704.557 60.4067 706.942 59.9587C709.328 59.516 711.724 59.1254 714.13 58.7973C716.531 58.4692 718.942 58.2035 721.359 57.9952C723.781 57.7817 726.203 57.6306 728.625 57.5421C731.052 57.4535 733.474 57.4223 735.901 57.4483C738.328 57.4796 740.755 57.5629 743.177 57.714C745.599 57.8598 748.015 58.0681 750.427 58.3337C752.838 58.5994 755.245 58.9223 757.64 59.3077C760.036 59.6931 762.422 60.1358 764.797 60.6358C767.172 61.1358 769.531 61.6983 771.88 62.3129C774.224 62.9327 776.557 63.6046 778.87 64.339C781.182 65.0681 783.479 65.8546 785.75 66.6983C788.026 67.5421 790.281 68.4431 792.51 69.3962C794.745 70.3546 796.948 71.365 799.13 72.4275C801.312 73.49 803.463 74.6046 805.594 75.7712C807.719 76.9431 809.817 78.1619 811.88 79.4327C813.948 80.7087 815.984 82.0265 817.984 83.4015C819.984 84.7712 821.953 86.1931 823.885 87.6619C825.817 89.1306 827.713 90.641 829.573 92.2035C831.427 93.766 833.245 95.3702 835.026 97.0212C836.802 98.6723 838.541 100.365 840.239 102.105C841.932 103.839 843.583 105.615 845.192 107.433C846.802 109.25 848.364 111.105 849.885 112.995C851.401 114.891 852.87 116.823 854.291 118.787C855.719 120.75 857.088 122.75 858.416 124.787L1034.32 394.839C1035.65 396.87 1036.92 398.933 1038.15 401.032C1039.37 403.125 1040.54 405.25 1041.66 407.407C1042.78 409.558 1043.84 411.74 1044.85 413.943C1045.86 416.151 1046.82 418.381 1047.72 420.631C1048.63 422.886 1049.47 425.157 1050.27 427.454C1051.06 429.745 1051.79 432.058 1052.47 434.391C1053.15 436.719 1053.77 439.063 1054.33 441.428C1054.89 443.787 1055.39 446.157 1055.84 448.542C1056.29 450.928 1056.67 453.323 1057 455.73C1057.33 458.136 1057.59 460.547 1057.81 462.964C1058.02 465.381 1058.17 467.803 1058.25 470.224C1058.35 472.651 1058.37 475.079 1058.35 477.506C1058.32 479.933 1058.23 482.355 1058.08 484.776C1057.94 487.198 1057.73 489.615 1057.46 492.026C1057.2 494.438 1056.87 496.844 1056.49 499.24C1056.1 501.636 1055.66 504.021 1055.16 506.396C1054.66 508.771 1054.1 511.131 1053.48 513.48C1052.87 515.823 1052.19 518.157 1051.46 520.469C1050.73 522.782 1049.94 525.079 1049.1 527.355C1048.25 529.631 1047.35 531.881 1046.4 534.11C1045.44 536.344 1044.44 538.547 1043.37 540.73C1042.31 542.912 1041.19 545.068 1040.03 547.193C1038.85 549.318 1037.64 551.417 1036.36 553.485C1035.09 555.547 1033.77 557.584 1032.4 559.584C1031.03 561.589 1029.6 563.553 1028.14 565.485C1026.67 567.417 1025.16 569.313 1023.59 571.172C1022.03 573.032 1020.43 574.849 1018.78 576.625C1017.12 578.407 1015.43 580.141 1013.7 581.839C1011.96 583.537 1010.18 585.188 1008.36 586.797C1006.55 588.401 1004.69 589.969 1002.8 591.485C1000.91 593 998.979 594.469 997.01 595.896C995.047 597.318 993.047 598.693 991.01 600.016L468.12 940.625C466.083 941.948 464.021 943.224 461.927 944.448C459.828 945.672 457.703 946.839 455.552 947.959C453.396 949.079 451.219 950.146 449.01 951.157C446.807 952.167 444.578 953.125 442.323 954.026C440.073 954.928 437.797 955.776 435.505 956.568C433.208 957.36 430.896 958.094 428.567 958.771C426.239 959.448 423.89 960.068 421.531 960.631C419.172 961.188 416.797 961.693 414.411 962.141C412.026 962.584 409.63 962.974 407.229 963.303C404.823 963.631 402.411 963.896 399.995 964.105C397.578 964.318 395.156 964.464 392.729 964.558C390.302 964.646 387.88 964.678 385.453 964.651C383.026 964.62 380.599 964.532 378.177 964.386C375.755 964.24 373.338 964.032 370.927 963.766C368.515 963.5 366.109 963.178 363.713 962.792C361.317 962.407 358.932 961.964 356.557 961.464C354.187 960.964 351.823 960.401 349.479 959.787C347.13 959.167 344.802 958.495 342.484 957.761C340.172 957.032 337.88 956.245 335.604 955.401C333.328 954.553 331.073 953.657 328.844 952.698C326.614 951.745 324.406 950.735 322.224 949.672C320.041 948.61 317.89 947.495 315.76 946.323C313.635 945.157 311.541 943.938 309.474 942.662C307.406 941.391 305.37 940.073 303.37 938.698C301.37 937.329 299.401 935.907 297.469 934.438C295.536 932.969 293.64 931.454 291.786 929.896C289.927 928.334 288.109 926.73 286.328 925.079C284.552 923.428 282.812 921.735 281.12 919.995C279.422 918.261 277.771 916.485 276.161 914.667C274.552 912.849 272.989 910.995 271.474 909.099C269.953 907.209 268.484 905.276 267.062 903.313C265.64 901.344 264.265 899.344 262.942 897.313L87.031 627.261C85.7081 625.23 84.4321 623.162 83.2081 621.068C81.9841 618.974 80.8123 616.849 79.6977 614.693C78.5779 612.542 77.5102 610.36 76.4998 608.157C75.4893 605.948 74.531 603.719 73.63 601.469C72.7237 599.214 71.88 596.943 71.0883 594.646C70.2966 592.355 69.5623 590.042 68.8852 587.709C68.2081 585.381 67.5883 583.037 67.0258 580.672C66.4633 578.313 65.9633 575.938 65.5154 573.553C65.0727 571.167 64.6821 568.776 64.3539 566.37C64.0258 563.964 63.7602 561.553 63.5518 559.136C63.3383 556.719 63.1873 554.297 63.0987 551.875C63.0102 549.448 62.9789 547.021 63.005 544.594C63.0362 542.167 63.1196 539.745 63.2706 537.323C63.4164 534.901 63.6248 532.485 63.8904 530.073C64.156 527.657 64.4789 525.256 64.8643 522.86C65.2498 520.464 65.6925 518.079 66.1925 515.704C66.6925 513.329 67.255 510.969 67.8696 508.62C68.4893 506.276 69.1612 503.943 69.8956 501.631C70.6248 499.318 71.4112 497.021 72.255 494.745C73.0987 492.469 73.9998 490.219 74.9529 487.985C75.9112 485.756 76.9216 483.547 77.9841 481.37C79.0466 479.188 80.1612 477.032 81.3279 474.907C82.4998 472.782 83.7185 470.683 84.9893 468.615C86.2654 466.547 87.5831 464.516 88.9581 462.511C90.3279 460.511 91.7498 458.542 93.2185 456.61C94.6873 454.683 96.1977 452.787 97.7602 450.928C99.3227 449.068 100.927 447.25 102.578 445.474C104.229 443.693 105.922 441.959 107.661 440.261C109.396 438.563 111.172 436.912 112.989 435.303C114.807 433.693 116.661 432.131 118.552 430.615C120.448 429.099 122.38 427.625 124.344 426.204C126.312 424.782 128.307 423.407 130.344 422.084Z" fill="#EAF1F2"/>
</g>
</g>
</g>
<mask id="mask3_147_916" style="mask-type:luminance" maskUnits="userSpaceOnUse" x="23" y="218" width="1038" height="556">
<path d="M23.7285 218.964H1060V773.25H23.7285V218.964Z" fill="white"/>
</mask>
<g mask="url(#mask3_147_916)">
<mask id="mask4_147_916" style="mask-type:luminance" maskUnits="userSpaceOnUse" x="23" y="219" width="1038" height="555">
<path d="M37.7129 300.183L151.63 342.761C152.833 340.61 155.156 339.152 157.812 339.152C159.291 339.152 160.671 339.605 161.812 340.376L200.156 299.271C199.411 298.355 198.895 297.251 198.687 296.032L37.8223 299.553C37.791 299.766 37.7598 299.98 37.7129 300.183ZM431.942 599.917L432.166 599.923L451.562 492.568C450.176 492.11 448.989 491.245 448.135 490.11L389.958 521.256C390.234 522.006 390.385 522.813 390.385 523.657C390.385 525.881 389.338 527.865 387.702 529.146L429.327 600.412C430.135 600.094 431.02 599.917 431.942 599.917ZM434.182 600.277C435.984 600.87 437.458 602.162 438.286 603.829L584.4 557.136C584.333 556.761 584.301 556.37 584.301 555.975C584.301 555.183 584.437 554.423 584.682 553.709L459.557 489.995C458.275 491.771 456.171 492.928 453.801 492.928H453.577L434.182 600.277ZM438.989 607.506C438.958 607.87 438.9 608.225 438.822 608.568L608.786 676.391C609.973 675.495 611.452 674.964 613.062 674.964C613.692 674.964 614.307 675.048 614.89 675.199L600.14 603.605C600.005 603.61 599.874 603.61 599.744 603.61C596.338 603.61 593.494 601.23 592.822 598.053L438.989 607.506ZM438.051 610.454C436.822 612.532 434.546 613.928 431.942 613.928C430.854 613.928 429.812 613.683 428.89 613.24L328.697 760.949C329.395 761.579 329.968 762.344 330.369 763.204L606.062 682.949C606.015 682.631 605.994 682.303 605.994 681.969C605.994 680.48 606.458 679.105 607.255 677.969L438.051 610.454ZM427.192 612.11C426.088 611.115 425.301 609.782 425.005 608.271L214.729 618.355C214.567 619.975 213.864 621.428 212.791 622.532L320.468 760.032C321.494 759.459 322.682 759.131 323.947 759.131C325.041 759.131 326.072 759.376 326.999 759.813L427.192 612.11ZM424.906 606.24C425.093 604.298 426.088 602.584 427.551 601.433L385.926 530.167C385.119 530.49 384.239 530.667 383.312 530.667C380.994 530.667 378.932 529.558 377.645 527.85L214.333 615.277C214.458 615.615 214.557 615.969 214.63 616.329L424.906 606.24ZM599.744 589.6C603.15 589.6 605.994 591.985 606.666 595.162L621.02 594.282C621.14 592.855 621.692 591.553 622.541 590.495L595.4 561.735C594.9 562.074 594.359 562.355 593.775 562.563L599.348 589.615C599.479 589.605 599.609 589.6 599.744 589.6ZM606.791 597.193C606.557 599.969 604.692 602.287 602.15 603.199L617.208 676.292C618.676 677.344 619.718 678.943 620.036 680.787L748.265 727.402C748.531 726.537 748.958 725.745 749.51 725.058L632.098 600.626C630.958 601.412 629.567 601.876 628.072 601.876C624.661 601.876 621.822 599.485 621.15 596.308L606.791 597.193ZM592.697 596.021C592.926 593.245 594.791 590.928 597.338 590.021L591.765 562.969C591.64 562.975 591.505 562.98 591.374 562.98C588.588 562.98 586.176 561.386 585.031 559.068L440.02 605.407L592.697 596.021ZM620.062 682.964C619.572 686.36 616.63 688.975 613.062 688.975C610.213 688.975 607.755 687.308 606.635 684.896L330.947 765.157C330.994 765.475 331.02 765.803 331.02 766.136C331.02 770.001 327.848 773.141 323.947 773.141C320.041 773.141 316.874 770.001 316.874 766.136C316.874 765.907 316.885 765.683 316.906 765.459L111.921 715.287C110.869 717.844 108.333 719.641 105.374 719.641C101.468 719.641 98.3014 716.511 98.3014 712.641C98.3014 709.844 99.9525 707.428 102.348 706.308L34.4421 486.48C34.0931 486.532 33.7389 486.558 33.3691 486.558C29.4681 486.558 26.3014 483.423 26.3014 479.553C26.3014 476.063 28.8796 473.167 32.2493 472.636L29.8743 305.636C26.4108 305.188 23.7285 302.245 23.7285 298.693C23.7285 294.818 26.8952 291.683 30.8014 291.683C34.3066 291.683 37.2129 294.209 37.7754 297.521L198.64 294.011C199.067 290.548 202.046 287.86 205.661 287.86C209.156 287.86 212.062 290.376 212.63 293.678L401.781 288.933C402.202 285.459 405.182 282.771 408.801 282.771C411.27 282.771 413.442 284.016 414.708 285.923L539.598 228.105C539.406 227.469 539.301 226.792 539.301 226.089C539.301 222.219 542.463 219.084 546.369 219.084C550.281 219.084 553.442 222.219 553.442 226.089C553.442 226.511 553.406 226.928 553.333 227.334L766.348 298.074C767.515 295.792 769.9 294.23 772.656 294.23C775.854 294.23 778.557 296.334 779.432 299.219L931.447 277.042V277.037C931.447 273.167 934.609 270.032 938.515 270.032C942.421 270.032 945.583 273.167 945.583 277.037C945.583 278.605 945.062 280.053 944.187 281.219L987.093 323.719C989.676 324.329 991.708 326.344 992.328 328.902L993.999 330.563L993.708 330.824L1051.56 491.787C1052.01 491.699 1052.47 491.652 1052.94 491.652C1056.85 491.652 1060.02 494.792 1060.02 498.657C1060.02 502.527 1056.85 505.667 1052.94 505.667C1052.36 505.667 1051.81 505.594 1051.27 505.469L1017.95 586.87C1020.05 588.089 1021.45 590.339 1021.45 592.912C1021.45 596.782 1018.28 599.923 1014.37 599.923C1014.23 599.923 1014.1 599.917 1013.96 599.907L992.364 703.506C995.078 704.48 997.02 707.063 997.02 710.094C997.02 713.959 993.848 717.094 989.942 717.094C986.041 717.094 982.869 713.959 982.869 710.094C982.869 709.115 983.078 708.183 983.442 707.339L904.687 659.553C903.39 661.089 901.437 662.068 899.26 662.068C896.947 662.068 894.895 660.969 893.604 659.271L762.057 730.298C761.624 733.756 758.645 736.428 755.041 736.428C751.145 736.428 747.989 733.318 747.968 729.459L620.062 682.964ZM591.374 548.969C592.562 548.969 593.682 549.261 594.666 549.777L686.708 424.699C686.077 424.084 685.567 423.355 685.202 422.542L528.39 466.209L588.161 549.73C589.124 549.245 590.213 548.969 591.374 548.969ZM596.322 550.969C596.9 551.532 597.385 552.193 597.739 552.923L816.15 484.782C816.098 484.454 816.077 484.12 816.077 483.777C816.077 482.766 816.291 481.808 816.676 480.938L697.505 423.631C696.234 425.48 694.088 426.693 691.661 426.693C690.468 426.693 689.348 426.407 688.369 425.891L596.322 550.969ZM598.354 554.865C598.411 555.23 598.442 555.6 598.442 555.975V556.021L777.468 583.209C778.354 580.344 781.046 578.261 784.229 578.261C784.765 578.261 785.296 578.318 785.801 578.433L820.317 490.199C818.739 489.516 817.463 488.282 816.734 486.735L598.354 554.865ZM598.135 558.032C597.869 558.886 597.447 559.667 596.9 560.344L624.041 589.11C625.187 588.324 626.577 587.86 628.072 587.86C631.479 587.86 634.317 590.245 634.989 593.423L774.63 584.839L598.135 558.032ZM585.619 551.902C585.874 551.542 586.171 551.209 586.489 550.907L526.296 466.792L460.817 485.021C460.854 485.318 460.874 485.62 460.874 485.923C460.874 486.714 460.739 487.475 460.494 488.188L585.619 551.902ZM635.119 595.454C634.999 596.876 634.447 598.183 633.598 599.235L751.01 723.662C752.156 722.881 753.546 722.417 755.041 722.417C756.02 722.417 756.952 722.615 757.807 722.975L781.963 591.907C779.619 591.12 777.822 589.152 777.307 586.714L635.119 595.454ZM759.676 724.131C760.833 725.126 761.656 726.485 761.973 728.032L892.098 657.777L892.562 657.318C892.317 656.605 892.187 655.855 892.187 655.063C892.187 654.089 892.39 653.157 892.755 652.308L789.656 589.756C788.364 591.292 786.411 592.271 784.229 592.271L783.979 592.266L759.676 724.131ZM787.713 579.173C789.854 580.376 791.301 582.652 791.301 585.271C791.301 586.245 791.093 587.178 790.729 588.021L893.827 650.579C894.312 650.006 894.89 649.501 895.531 649.105L825.963 490.204C825.098 490.574 824.145 490.782 823.145 490.782C822.859 490.782 822.583 490.766 822.307 490.73L787.713 579.173ZM989.942 703.084C990.083 703.084 990.223 703.089 990.359 703.1L1011.95 599.501C1010.66 599.032 1009.54 598.193 1008.72 597.126L905.895 652.636C906.176 653.391 906.328 654.209 906.328 655.063C906.328 656.042 906.13 656.975 905.76 657.818L984.515 705.605C985.807 704.063 987.765 703.084 989.942 703.084ZM1049.36 504.699C1049.15 504.579 1048.94 504.438 1048.74 504.292L984.604 568.318C985.494 569.49 986.02 570.943 986.02 572.521C986.02 573.443 985.838 574.324 985.515 575.12L1008.84 588.553C1010.13 586.938 1012.13 585.907 1014.37 585.907C1014.95 585.907 1015.52 585.98 1016.05 586.105L1049.36 504.699ZM1047.29 502.865C1046.5 501.829 1046 500.574 1045.9 499.209L830.14 484.803C830.104 485.068 830.046 485.334 829.979 485.589L973.411 568.162C974.708 566.553 976.703 565.516 978.947 565.516C980.52 565.516 981.973 566.027 983.145 566.886L1047.29 502.865ZM1046.03 497.178C1046.47 495.136 1047.81 493.423 1049.63 492.469L992.187 332.646C991.369 335.199 989.124 337.12 986.38 337.48L829.182 480.126C829.671 480.917 829.999 481.803 830.14 482.756L1046.03 497.178ZM1007.74 595.339C1007.46 594.584 1007.3 593.766 1007.3 592.912C1007.3 591.995 1007.48 591.115 1007.81 590.308L984.479 576.881C983.187 578.495 981.187 579.527 978.947 579.527C977.374 579.527 975.921 579.016 974.744 578.157L903.395 649.381C903.968 649.792 904.484 650.292 904.911 650.855L1007.74 595.339ZM899.26 648.058C900.036 648.058 900.781 648.183 901.479 648.412L973.291 576.725C972.406 575.553 971.874 574.1 971.874 572.521C971.874 571.6 972.057 570.725 972.38 569.917L829.156 487.469C828.765 488.089 828.281 488.652 827.718 489.126L897.411 648.303C897.999 648.146 898.619 648.058 899.26 648.058ZM823.145 476.771C824.963 476.771 826.619 477.449 827.874 478.563L983.562 337.287C982.249 336.928 981.093 336.209 980.208 335.24L698.656 418.678C698.708 419.011 698.734 419.344 698.734 419.693C698.734 420.428 698.619 421.141 698.406 421.803L817.781 479.214C819.077 477.719 820.999 476.771 823.145 476.771ZM979.02 333.469C978.609 332.579 978.374 331.579 978.374 330.532C978.374 327.115 980.843 324.271 984.114 323.652L942.734 282.662C941.557 283.532 940.098 284.042 938.515 284.042C936.281 284.042 934.281 283.016 932.989 281.407L699.609 416.277L979.02 333.469ZM931.953 279.652C931.874 279.459 931.801 279.256 931.744 279.053L779.729 301.235C779.729 305.11 776.562 308.24 772.656 308.24C771.551 308.24 770.51 307.995 769.583 307.548L696.432 414.521C696.702 414.771 696.958 415.037 697.187 415.324L931.953 279.652ZM767.885 306.407C766.473 305.131 765.588 303.287 765.588 301.235C765.588 300.813 765.619 300.402 765.697 299.995L552.682 229.256C552.338 229.923 551.895 230.527 551.369 231.042L688.307 413.521C689.301 412.99 690.447 412.683 691.661 412.683C692.76 412.683 693.807 412.933 694.739 413.381L767.885 306.407ZM684.645 420.589C684.609 420.298 684.588 419.995 684.588 419.693V419.626L475.989 387.376C475.624 388.527 474.973 389.553 474.114 390.37L527.13 464.449L684.645 420.589ZM684.906 417.62C685.249 416.516 685.859 415.527 686.661 414.735L549.723 232.261C548.729 232.798 547.583 233.094 546.369 233.094C545.635 233.094 544.932 232.985 544.265 232.777L473.182 379.49C475.067 380.751 476.301 382.886 476.301 385.303V385.37L684.906 417.62ZM542.416 231.902C541.645 231.381 540.984 230.714 540.468 229.943L415.577 287.756C415.77 288.396 415.869 289.074 415.869 289.771C415.869 291.912 414.906 293.829 413.385 295.11L466.38 378.891C467.255 378.511 468.218 378.298 469.229 378.298C469.968 378.298 470.671 378.407 471.338 378.615L542.416 231.902ZM411.65 296.188C410.781 296.568 409.817 296.782 408.801 296.782C405.307 296.782 402.4 294.266 401.827 290.964L212.676 295.709C212.661 295.865 212.635 296.027 212.604 296.183L462.952 382.074C463.38 381.266 463.958 380.553 464.65 379.964L411.65 296.188ZM472.442 391.548C471.479 392.037 470.39 392.308 469.229 392.308H469.197L455.869 479.225C457.833 479.813 459.432 481.23 460.26 483.068L525.036 465.032L472.442 391.548ZM467.166 392.006C465.374 391.464 463.89 390.24 463.015 388.641L338.551 433.745C338.65 434.204 338.702 434.683 338.702 435.173C338.702 437.396 337.656 439.376 336.02 440.662L380.697 517.152C381.505 516.829 382.39 516.657 383.312 516.657C385.63 516.657 387.692 517.761 388.979 519.469L447.156 488.329C446.88 487.574 446.734 486.766 446.734 485.923C446.734 482.053 449.895 478.917 453.801 478.917H453.838L467.166 392.006ZM462.161 385.146C462.171 384.751 462.213 384.365 462.286 383.99L211.937 298.094C211.749 298.454 211.531 298.798 211.281 299.115L309.505 398.74C310.671 397.896 312.109 397.402 313.656 397.402C316.916 397.402 319.65 399.579 320.479 402.542L462.161 385.146ZM376.666 526.058C376.39 525.313 376.239 524.501 376.239 523.657C376.239 522.891 376.364 522.157 376.593 521.464L264.171 465.73C262.895 467.542 260.775 468.725 258.374 468.725C257.979 468.725 257.583 468.693 257.208 468.631L210.807 611.391C211.817 611.886 212.692 612.605 213.354 613.49L376.666 526.058ZM377.515 519.652C377.906 519.089 378.385 518.594 378.921 518.173L334.244 441.683C333.437 442.001 332.551 442.178 331.63 442.178C328.947 442.178 326.609 440.693 325.411 438.506L265.296 460.292C265.395 460.756 265.447 461.235 265.447 461.725C265.447 462.485 265.317 463.23 265.088 463.917L377.515 519.652ZM331.63 428.167C334.317 428.167 336.65 429.646 337.848 431.839L460.437 387.407L320.729 404.563C320.676 406.725 319.645 408.646 318.051 409.896L329.015 428.662C329.822 428.339 330.702 428.167 331.63 428.167ZM324.702 436.6C324.609 436.136 324.557 435.662 324.557 435.173C324.557 432.949 325.604 430.964 327.239 429.683L316.275 410.912C315.468 411.235 314.583 411.412 313.656 411.412C312.13 411.412 310.718 410.933 309.562 410.115C294.348 425.876 279.145 441.636 263.947 457.412C264.187 457.714 264.406 458.042 264.593 458.386L324.702 436.6ZM308.083 408.714C307.145 407.527 306.588 406.027 306.588 404.402C306.588 403.891 306.645 403.391 306.749 402.912L163.999 349.558C163.76 349.985 163.473 350.381 163.156 350.745L254.583 455.808C255.676 455.115 256.979 454.714 258.374 454.714C259.895 454.714 261.312 455.193 262.463 456.006L308.083 408.714ZM307.473 401.006C307.64 400.709 307.827 400.428 308.036 400.157L209.817 300.537C208.65 301.381 207.213 301.876 205.661 301.876C204.176 301.876 202.801 301.428 201.661 300.646L163.312 341.761C164.296 342.964 164.885 344.49 164.885 346.162C164.885 346.673 164.827 347.173 164.723 347.652L307.473 401.006ZM255.249 468.011C252.911 466.865 251.301 464.485 251.301 461.725V461.641L159.697 447.256C159.109 449.11 157.77 450.636 156.02 451.475L206.572 610.756C206.932 610.704 207.307 610.673 207.687 610.673C208.088 610.673 208.479 610.709 208.859 610.771L255.249 468.011ZM251.624 459.631C251.916 458.704 252.4 457.855 253.025 457.136L161.604 352.074C160.687 352.646 159.635 353.027 158.494 353.136L154.312 438.287C157.562 438.923 160.015 441.756 160.015 445.167V445.245L251.624 459.631ZM317.4 763.485C317.739 762.662 318.234 761.912 318.848 761.282L211.171 623.777C210.14 624.355 208.952 624.683 207.687 624.683C206.02 624.683 204.494 624.115 203.286 623.162L111.182 708.641C111.979 709.777 112.442 711.157 112.442 712.641C112.442 712.87 112.437 713.089 112.416 713.313L317.4 763.485ZM105.374 705.631C107.041 705.631 108.567 706.209 109.781 707.162L201.885 621.678C201.088 620.542 200.619 619.167 200.619 617.678C200.619 616.386 200.973 615.178 201.583 614.141L38.1973 484.673C37.666 485.162 37.0618 485.579 36.4004 485.886L104.307 705.714C104.656 705.662 105.015 705.631 105.374 705.631ZM202.864 612.558C203.38 612.079 203.968 611.678 204.614 611.37L154.062 452.084C153.702 452.141 153.327 452.167 152.942 452.167C150.088 452.167 147.619 450.485 146.51 448.068C111.124 458.214 75.7546 468.412 40.3743 478.594C40.4212 478.907 40.4473 479.23 40.4473 479.553C40.4473 480.844 40.0931 482.053 39.4785 483.089L202.864 612.558ZM34.3014 472.61C35.4264 472.751 36.4733 473.162 37.3691 473.771L152.307 350.563C151.327 349.36 150.739 347.829 150.739 346.162C150.739 345.646 150.796 345.141 150.906 344.662L36.9889 302.089C35.9577 303.933 34.1035 305.261 31.9212 305.605L34.3014 472.61ZM38.8743 475.152C39.2493 475.61 39.5566 476.11 39.8118 476.646L145.937 446.12C145.895 445.813 145.874 445.49 145.874 445.167C145.874 441.527 148.676 438.532 152.26 438.193L156.447 353.032C155.484 352.85 154.593 352.469 153.817 351.938L38.8743 475.152Z" fill="white"/>
</mask>
<g mask="url(#mask4_147_916)">
<path d="M23.7285 219.084V773.141H1060V219.084H23.7285Z" fill="url(#paint0_linear_147_916)"/>
</g>
</g>
<g opacity="0.37">
<mask id="mask5_147_916" style="mask-type:luminance" maskUnits="userSpaceOnUse" x="120" y="180" width="772" height="498">
<path d="M120 180H892V677.333H120V180Z" fill="white"/>
</mask>
<g mask="url(#mask5_147_916)">
<mask id="mask6_147_916" style="mask-type:luminance" maskUnits="userSpaceOnUse" x="0" y="-1" width="1113" height="1023">
<path d="M0.078125 506.213L777.516 -0.208496L1112.94 514.719L335.5 1021.14L0.078125 506.213Z" fill="white"/>
</mask>
<g mask="url(#mask6_147_916)">
<path d="M124.635 676.828C176.489 649.599 225.297 614.781 274.562 583.146C323.823 551.516 373.693 519.453 423.213 487.51C522.239 423.641 621.359 359.932 720.573 296.38C776.776 260.333 833.01 224.328 889.265 188.364C889.719 188.015 890.088 187.599 890.385 187.109C890.677 186.62 890.87 186.088 890.969 185.526C891.062 184.963 891.052 184.406 890.937 183.844C890.818 183.286 890.604 182.765 890.292 182.286C889.984 181.812 889.594 181.406 889.13 181.073C888.667 180.739 888.156 180.505 887.604 180.364C887.052 180.224 886.489 180.187 885.922 180.26C885.354 180.328 884.823 180.5 884.318 180.776C686.318 308.557 487.771 435.562 289.364 562.729C261.271 580.745 233.234 598.901 205.203 617.021C177.172 635.135 148.271 652.453 121.995 672.771C121.724 672.948 121.5 673.167 121.318 673.432C121.135 673.698 121.015 673.984 120.948 674.302C120.88 674.614 120.875 674.927 120.937 675.245C120.995 675.557 121.109 675.849 121.286 676.12C121.463 676.391 121.682 676.614 121.948 676.797C122.213 676.979 122.5 677.099 122.812 677.167C123.13 677.234 123.443 677.239 123.76 677.177C124.073 677.12 124.364 677 124.635 676.828Z" fill="#6C8DBC"/>
</g>
</g>
<mask id="mask7_147_916" style="mask-type:luminance" maskUnits="userSpaceOnUse" x="218" y="704" width="221" height="140">
<path d="M218.667 704H438.667V844H218.667V704Z" fill="white"/>
</mask>
<g mask="url(#mask7_147_916)">
<mask id="mask8_147_916" style="mask-type:luminance" maskUnits="userSpaceOnUse" x="0" y="-1" width="1113" height="1023">
<path d="M0.078125 506.213L777.516 -0.208496L1112.94 514.719L335.5 1021.14L0.078125 506.213Z" fill="white"/>
</mask>
<g mask="url(#mask8_147_916)">
<mask id="mask9_147_916" style="mask-type:luminance" maskUnits="userSpaceOnUse" x="0" y="-1" width="1113" height="1023">
<path d="M0.078125 506.213L777.516 -0.208496L1112.94 514.719L335.5 1021.14L0.078125 506.213Z" fill="white"/>
</mask>
<g mask="url(#mask9_147_916)">
<path d="M222.349 843.213C260.125 822.546 296.511 799.307 333.167 776.697C351.474 765.38 369.776 754.026 388.063 742.63C404.563 732.338 423.495 723.067 437.87 709.937C438.328 709.385 438.578 708.749 438.62 708.036C438.656 707.317 438.485 706.661 438.094 706.062C437.703 705.458 437.167 705.031 436.495 704.781C435.828 704.531 435.146 704.499 434.453 704.697C416.261 711.687 399.636 724.77 383.13 735.062C364.865 746.447 346.61 757.869 328.365 769.328C291.943 792.244 255.063 814.614 219.886 839.432C219.63 839.598 219.417 839.802 219.245 840.052C219.073 840.302 218.959 840.578 218.896 840.874C218.834 841.171 218.828 841.468 218.886 841.765C218.938 842.062 219.052 842.343 219.214 842.593C219.38 842.848 219.589 843.062 219.839 843.234C220.089 843.406 220.365 843.52 220.662 843.583C220.959 843.645 221.255 843.651 221.552 843.593C221.849 843.541 222.125 843.427 222.38 843.265L222.349 843.213Z" fill="#6C8DBC"/>
</g>
</g>
</g>
<mask id="mask10_147_916" style="mask-type:luminance" maskUnits="userSpaceOnUse" x="334" y="544" width="108" height="160">
<path d="M334.667 544H441.334V704H334.667V544Z" fill="white"/>
</mask>
<g mask="url(#mask10_147_916)">
<mask id="mask11_147_916" style="mask-type:luminance" maskUnits="userSpaceOnUse" x="0" y="-1" width="1113" height="1023">
<path d="M0.078125 506.213L777.516 -0.208496L1112.94 514.719L335.5 1021.14L0.078125 506.213Z" fill="white"/>
</mask>
<g mask="url(#mask11_147_916)">
<mask id="mask12_147_916" style="mask-type:luminance" maskUnits="userSpaceOnUse" x="0" y="-1" width="1113" height="1023">
<path d="M0.078125 506.213L777.516 -0.208496L1112.94 514.719L335.5 1021.14L0.078125 506.213Z" fill="white"/>
</mask>
<g mask="url(#mask12_147_916)">
<path d="M335.234 547.458C365.125 599.833 398.645 650.755 431.817 701.13C432.177 701.687 432.63 702.151 433.177 702.526C433.718 702.895 434.317 703.151 434.963 703.291C435.609 703.427 436.26 703.432 436.911 703.312C437.562 703.192 438.161 702.947 438.718 702.588C439.27 702.229 439.734 701.776 440.109 701.229C440.484 700.682 440.739 700.088 440.875 699.442C441.01 698.791 441.02 698.145 440.895 697.494C440.776 696.843 440.536 696.244 440.171 695.687C407.687 644.901 374.859 593.526 339.192 544.885C339.01 544.661 338.791 544.473 338.536 544.333C338.286 544.187 338.015 544.093 337.729 544.052C337.442 544.005 337.156 544.015 336.875 544.078C336.588 544.14 336.328 544.25 336.083 544.406C335.838 544.562 335.63 544.76 335.463 544.994C335.291 545.229 335.166 545.489 335.093 545.77C335.015 546.046 334.994 546.333 335.02 546.619C335.052 546.911 335.13 547.187 335.26 547.442L335.234 547.458Z" fill="#6C8DBC"/>
</g>
</g>
</g>
<mask id="mask13_147_916" style="mask-type:luminance" maskUnits="userSpaceOnUse" x="438" y="706" width="269" height="74">
<path d="M438.667 706.667H706.667V780H438.667V706.667Z" fill="white"/>
</mask>
<g mask="url(#mask13_147_916)">
<mask id="mask14_147_916" style="mask-type:luminance" maskUnits="userSpaceOnUse" x="0" y="-1" width="1113" height="1023">
<path d="M0.078125 506.214L777.516 -0.208008L1112.94 514.719L335.5 1021.14L0.078125 506.214Z" fill="white"/>
</mask>
<g mask="url(#mask14_147_916)">
<mask id="mask15_147_916" style="mask-type:luminance" maskUnits="userSpaceOnUse" x="0" y="-1" width="1113" height="1023">
<path d="M0.078125 506.214L777.516 -0.208008L1112.94 514.719L335.5 1021.14L0.078125 506.214Z" fill="white"/>
</mask>
<g mask="url(#mask15_147_916)">
<path d="M441.141 711.927C460.599 720.771 482.365 724.834 503.01 730.089C524.5 735.563 546.021 740.808 567.562 746.25C611.526 757.266 655.536 768.151 699.583 778.896C707.005 780.719 709.349 769.016 702.021 767.344C657.969 756.479 613.937 745.703 569.932 735.021C548.365 729.808 526.771 724.396 505.245 719.406C484.474 714.552 463.463 708.089 442.182 706.88C439.484 706.74 438.802 710.88 441.12 711.906L441.141 711.927Z" fill="#6C8DBC"/>
</g>
</g>
</g>
<mask id="mask16_147_916" style="mask-type:luminance" maskUnits="userSpaceOnUse" x="781" y="334" width="216" height="150">
<path d="M781.334 334.667H996.001V484H781.334V334.667Z" fill="white"/>
</mask>
<g mask="url(#mask16_147_916)">
<mask id="mask17_147_916" style="mask-type:luminance" maskUnits="userSpaceOnUse" x="0" y="-1" width="1113" height="1023">
<path d="M0.0791016 506.214L777.517 -0.208008L1112.94 514.719L335.501 1021.14L0.0791016 506.214Z" fill="white"/>
</mask>
<g mask="url(#mask17_147_916)">
<mask id="mask18_147_916" style="mask-type:luminance" maskUnits="userSpaceOnUse" x="0" y="-1" width="1113" height="1023">
<path d="M0.0791016 506.214L777.517 -0.208008L1112.94 514.719L335.501 1021.14L0.0791016 506.214Z" fill="white"/>
</mask>
<g mask="url(#mask18_147_916)">
<path d="M992.079 336.36C955.157 358.506 919.777 383.172 884.11 407.25C866.272 419.292 848.444 431.375 830.631 443.495C814.548 454.433 795.86 464.349 782.11 478.162C781.652 478.714 781.407 479.349 781.365 480.068C781.324 480.782 781.496 481.443 781.892 482.042C782.282 482.641 782.813 483.068 783.485 483.323C784.157 483.573 784.834 483.599 785.527 483.407C803.428 475.688 819.49 462.021 835.558 451.063C853.355 438.954 871.142 426.803 888.912 414.62C924.423 390.256 960.386 366.37 994.543 340.141C994.793 339.974 995.006 339.766 995.178 339.516C995.35 339.266 995.47 338.995 995.532 338.698C995.595 338.401 995.595 338.105 995.543 337.802C995.485 337.506 995.376 337.23 995.209 336.974C995.043 336.724 994.834 336.511 994.584 336.339C994.334 336.167 994.063 336.052 993.767 335.985C993.47 335.922 993.173 335.922 992.871 335.974C992.574 336.032 992.298 336.141 992.043 336.308L992.079 336.36Z" fill="#6C8DBC"/>
</g>
</g>
</g>
<mask id="mask19_147_916" style="mask-type:luminance" maskUnits="userSpaceOnUse" x="673" y="322" width="109" height="161">
<path d="M673.334 322.667H781.334V482.667H673.334V322.667Z" fill="white"/>
</mask>
<g mask="url(#mask19_147_916)">
<mask id="mask20_147_916" style="mask-type:luminance" maskUnits="userSpaceOnUse" x="0" y="-1" width="1113" height="1023">
<path d="M0.0791016 506.214L777.517 -0.208008L1112.94 514.719L335.501 1021.14L0.0791016 506.214Z" fill="white"/>
</mask>
<g mask="url(#mask20_147_916)">
<mask id="mask21_147_916" style="mask-type:luminance" maskUnits="userSpaceOnUse" x="0" y="-1" width="1113" height="1023">
<path d="M0.0791016 506.214L777.517 -0.208008L1112.94 514.719L335.501 1021.14L0.0791016 506.214Z" fill="white"/>
</mask>
<g mask="url(#mask21_147_916)">
<path d="M674.371 326.553C704.449 378.834 738.033 429.683 771.496 479.87C771.855 480.422 772.309 480.886 772.855 481.261C773.402 481.636 773.996 481.891 774.642 482.027C775.293 482.162 775.939 482.172 776.59 482.047C777.241 481.928 777.84 481.688 778.397 481.323C778.949 480.964 779.413 480.511 779.788 479.964C780.163 479.417 780.418 478.823 780.553 478.178C780.689 477.532 780.699 476.881 780.574 476.23C780.454 475.579 780.215 474.98 779.85 474.422C747.178 423.725 714.168 372.506 678.329 323.975C678.142 323.751 677.923 323.568 677.673 323.422C677.418 323.282 677.152 323.188 676.866 323.141C676.579 323.1 676.293 323.105 676.006 323.167C675.725 323.23 675.46 323.339 675.22 323.495C674.975 323.657 674.767 323.85 674.595 324.089C674.428 324.323 674.303 324.579 674.225 324.86C674.152 325.141 674.126 325.422 674.158 325.714C674.189 326.001 674.267 326.277 674.397 326.537L674.371 326.553Z" fill="#6C8DBC"/>
</g>
</g>
</g>
<mask id="mask22_147_916" style="mask-type:luminance" maskUnits="userSpaceOnUse" x="730" y="484" width="57" height="272">
<path d="M730.667 484H786.667V756H730.667V484Z" fill="white"/>
</mask>
<g mask="url(#mask22_147_916)">
<mask id="mask23_147_916" style="mask-type:luminance" maskUnits="userSpaceOnUse" x="0" y="-1" width="1113" height="1023">
<path d="M0.078125 506.213L777.516 -0.208496L1112.94 514.719L335.5 1021.14L0.078125 506.213Z" fill="white"/>
</mask>
<g mask="url(#mask23_147_916)">
<mask id="mask24_147_916" style="mask-type:luminance" maskUnits="userSpaceOnUse" x="0" y="-1" width="1113" height="1023">
<path d="M0.078125 506.213L777.516 -0.208496L1112.94 514.719L335.5 1021.14L0.078125 506.213Z" fill="white"/>
</mask>
<g mask="url(#mask24_147_916)">
<path d="M781.021 486.167C773.5 506.136 770.864 527.995 766.984 548.906C762.937 570.698 759.073 592.552 755.125 614.391C747.041 659 739.099 703.63 731.297 748.271C729.974 755.755 741.547 758.219 742.854 750.714C750.729 706.068 758.562 661.417 766.354 616.761C770.114 594.906 773.979 573.052 777.661 551.182C781.198 530.177 786.281 508.62 786.057 487.25C786.021 484.703 781.979 483.636 781.036 486.188L781.021 486.167Z" fill="#6C8DBC"/>
</g>
</g>
</g>
<mask id="mask25_147_916" style="mask-type:luminance" maskUnits="userSpaceOnUse" x="222" y="366" width="240" height="93">
<path d="M222.667 366.667H461.334V458.667H222.667V366.667Z" fill="white"/>
</mask>
<g mask="url(#mask25_147_916)">
<mask id="mask26_147_916" style="mask-type:luminance" maskUnits="userSpaceOnUse" x="0" y="-1" width="1113" height="1023">
<path d="M0.078125 506.214L777.516 -0.208008L1112.94 514.719L335.5 1021.14L0.078125 506.214Z" fill="white"/>
</mask>
<g mask="url(#mask26_147_916)">
<mask id="mask27_147_916" style="mask-type:luminance" maskUnits="userSpaceOnUse" x="0" y="-1" width="1113" height="1023">
<path d="M0.078125 506.214L777.516 -0.208008L1112.94 514.719L335.5 1021.14L0.078125 506.214Z" fill="white"/>
</mask>
<g mask="url(#mask27_147_916)">
<path d="M224.552 373.324C299.651 403.678 376.536 429.912 452.661 457.626C459.119 459.969 463.984 450.245 457.494 447.959C380.76 420.714 304.328 391.829 226.661 367.266C223.203 366.173 221.177 371.928 224.562 373.282L224.552 373.324Z" fill="#6C8DBC"/>
</g>
</g>
</g>
<mask id="mask28_147_916" style="mask-type:luminance" maskUnits="userSpaceOnUse" x="677" y="285" width="4" height="4">
<path d="M677.334 285.334H680.001V288.001H677.334V285.334Z" fill="white"/>
</mask>
<g mask="url(#mask28_147_916)">
<mask id="mask29_147_916" style="mask-type:luminance" maskUnits="userSpaceOnUse" x="0" y="-1" width="1113" height="1023">
<path d="M0.0791016 506.214L777.517 -0.20752L1112.94 514.72L335.501 1021.14L0.0791016 506.214Z" fill="white"/>
</mask>
<g mask="url(#mask29_147_916)">
<mask id="mask30_147_916" style="mask-type:luminance" maskUnits="userSpaceOnUse" x="0" y="-1" width="1113" height="1023">
<path d="M0.0791016 506.214L777.517 -0.20752L1112.94 514.72L335.501 1021.14L0.0791016 506.214Z" fill="white"/>
</mask>
<g mask="url(#mask30_147_916)">
<path d="M679.167 287.469C679.365 287.339 679.495 287.157 679.542 286.922C679.594 286.688 679.553 286.469 679.423 286.266C679.287 286.063 679.105 285.938 678.87 285.891C678.636 285.839 678.417 285.881 678.214 286.011C678.016 286.141 677.891 286.328 677.839 286.563C677.787 286.797 677.829 287.016 677.959 287.214C678.094 287.417 678.277 287.542 678.511 287.594C678.745 287.641 678.964 287.599 679.167 287.469Z" fill="#6C8DBC"/>
</g>
</g>
</g>
<mask id="mask31_147_916" style="mask-type:luminance" maskUnits="userSpaceOnUse" x="644" y="197" width="23" height="133">
<path d="M644 197.334H666.667V329.334H644V197.334Z" fill="white"/>
</mask>
<g mask="url(#mask31_147_916)">
<mask id="mask32_147_916" style="mask-type:luminance" maskUnits="userSpaceOnUse" x="0" y="-1" width="1113" height="1023">
<path d="M0.078125 506.214L777.516 -0.20752L1112.94 514.72L335.5 1021.14L0.078125 506.214Z" fill="white"/>
</mask>
<g mask="url(#mask32_147_916)">
<mask id="mask33_147_916" style="mask-type:luminance" maskUnits="userSpaceOnUse" x="0" y="-1" width="1113" height="1023">
<path d="M0.078125 506.214L777.516 -0.20752L1112.94 514.72L335.5 1021.14L0.078125 506.214Z" fill="white"/>
</mask>
<g mask="url(#mask33_147_916)">
<path d="M666.453 326.178C664.797 303.204 662.869 280.407 660.135 257.501C657.994 239.454 659.515 214.975 650.692 198.886C649.255 196.303 645.651 197.527 645.036 199.933C642.573 209.673 645.375 219.537 646.651 229.449C648.203 240.881 649.771 252.293 651.343 263.683C654.271 284.99 657.958 305.897 661.817 327.017C662.307 329.657 666.531 328.839 666.411 326.173L666.453 326.178Z" fill="#6C8DBC"/>
</g>
</g>
</g>
</g>
<path d="M118.001 686.953V342.078H159.376V494.328H338.23V342.078H379.605V686.953H338.23V528.307H159.376V686.953H118.001Z" fill="black"/>
<path d="M563.867 692.87C540.211 692.87 518.773 688.188 499.554 678.828C480.346 669.469 464.992 654.932 453.492 635.224C442.002 615.516 436.263 590.391 436.263 559.849V342.078H477.638V560.328C477.638 593.844 485.685 618.156 501.784 633.266C517.877 648.365 538.898 655.911 564.846 655.911C590.789 655.911 611.643 648.365 627.409 633.266C643.185 618.156 651.075 593.844 651.075 560.328V342.078H692.45V559.849C692.45 590.391 686.7 615.516 675.2 635.224C663.711 654.932 648.273 669.469 628.888 678.828C609.513 688.188 587.836 692.87 563.867 692.87Z" fill="black"/>
<path d="M749.109 686.953V342.078H870.297C894.599 342.078 914.719 345.943 930.651 353.661C946.578 361.385 958.484 371.901 966.359 385.203C974.245 398.495 978.193 413.359 978.193 429.786C978.193 452.12 972.198 469.693 960.214 482.495C948.224 495.302 933.859 504.172 917.109 509.099C929.911 511.406 941.573 516.505 952.089 524.391C962.599 532.266 970.891 542.115 976.964 553.932C983.047 565.755 986.089 578.724 986.089 592.849C986.089 610.266 981.818 626.12 973.276 640.411C964.734 654.693 952.089 666.016 935.339 674.391C918.589 682.766 898.224 686.953 874.255 686.953H749.109ZM790.484 492.849H867.339C889.349 492.849 906.266 487.677 918.089 477.328C929.922 466.984 935.839 452.615 935.839 434.224C935.839 416.807 930.005 402.849 918.339 392.349C906.682 381.839 889.198 376.578 865.88 376.578H790.484V492.849ZM790.484 652.474H869.818C893.453 652.474 911.677 646.974 924.484 635.974C937.302 624.964 943.714 609.599 943.714 589.891C943.714 570.516 936.974 555.005 923.505 543.349C910.047 531.682 891.818 525.849 868.818 525.849H790.484V652.474Z" fill="black"/>
</g>
<defs>
<linearGradient id="paint0_linear_147_916" x1="2.02664" y1="700.02" x2="1105.54" y2="372.481" gradientUnits="userSpaceOnUse">
<stop stop-color="#01F6FF"/>
<stop offset="0.00390625" stop-color="#02F5FF"/>
<stop offset="0.0078125" stop-color="#02F5FE"/>
<stop offset="0.0117188" stop-color="#03F4FE"/>
<stop offset="0.015625" stop-color="#04F4FE"/>
<stop offset="0.0195312" stop-color="#04F3FE"/>
<stop offset="0.0234375" stop-color="#05F2FE"/>
<stop offset="0.0273438" stop-color="#05F2FE"/>
<stop offset="0.03125" stop-color="#06F1FE"/>
<stop offset="0.0351562" stop-color="#07F1FE"/>
<stop offset="0.0390625" stop-color="#07F0FD"/>
<stop offset="0.0429688" stop-color="#08F0FD"/>
<stop offset="0.046875" stop-color="#08EFFD"/>
<stop offset="0.0507813" stop-color="#09EEFD"/>
<stop offset="0.0546875" stop-color="#0AEEFD"/>
<stop offset="0.0585938" stop-color="#0AEDFD"/>
<stop offset="0.0625" stop-color="#0BEDFD"/>
<stop offset="0.0664062" stop-color="#0BECFD"/>
<stop offset="0.0703125" stop-color="#0CEBFC"/>
<stop offset="0.0742188" stop-color="#0DEBFC"/>
<stop offset="0.078125" stop-color="#0DEAFC"/>
<stop offset="0.0820313" stop-color="#0EEAFC"/>
<stop offset="0.0859375" stop-color="#0FE9FC"/>
<stop offset="0.0898438" stop-color="#0FE8FC"/>
<stop offset="0.09375" stop-color="#10E8FC"/>
<stop offset="0.0976563" stop-color="#10E7FB"/>
<stop offset="0.101563" stop-color="#11E7FB"/>
<stop offset="0.105469" stop-color="#12E6FB"/>
<stop offset="0.109375" stop-color="#12E5FB"/>
<stop offset="0.113281" stop-color="#13E5FB"/>
<stop offset="0.117188" stop-color="#13E4FB"/>
<stop offset="0.121094" stop-color="#14E4FB"/>
<stop offset="0.125" stop-color="#15E3FB"/>
<stop offset="0.128906" stop-color="#15E3FA"/>
<stop offset="0.132812" stop-color="#16E2FA"/>
<stop offset="0.136719" stop-color="#16E1FA"/>
<stop offset="0.140625" stop-color="#17E1FA"/>
<stop offset="0.144531" stop-color="#18E0FA"/>
<stop offset="0.148438" stop-color="#18E0FA"/>
<stop offset="0.152344" stop-color="#19DFFA"/>
<stop offset="0.15625" stop-color="#19DEF9"/>
<stop offset="0.160156" stop-color="#1ADEF9"/>
<stop offset="0.164063" stop-color="#1BDDF9"/>
<stop offset="0.167969" stop-color="#1BDDF9"/>
<stop offset="0.171875" stop-color="#1CDCF9"/>
<stop offset="0.175781" stop-color="#1DDBF9"/>
<stop offset="0.179688" stop-color="#1DDBF9"/>
<stop offset="0.183594" stop-color="#1EDAF9"/>
<stop offset="0.1875" stop-color="#1EDAF8"/>
<stop offset="0.191406" stop-color="#1FD9F8"/>
<stop offset="0.195313" stop-color="#20D8F8"/>
<stop offset="0.199219" stop-color="#20D8F8"/>
<stop offset="0.203125" stop-color="#21D7F8"/>
<stop offset="0.207031" stop-color="#21D7F8"/>
<stop offset="0.210938" stop-color="#22D6F8"/>
<stop offset="0.214844" stop-color="#23D6F8"/>
<stop offset="0.21875" stop-color="#23D5F7"/>
<stop offset="0.222656" stop-color="#24D4F7"/>
<stop offset="0.226563" stop-color="#24D4F7"/>
<stop offset="0.230469" stop-color="#25D3F7"/>
<stop offset="0.234375" stop-color="#26D3F7"/>
<stop offset="0.238281" stop-color="#26D2F7"/>
<stop offset="0.242188" stop-color="#27D1F7"/>
<stop offset="0.246094" stop-color="#28D1F6"/>
<stop offset="0.25" stop-color="#28D0F6"/>
<stop offset="0.253906" stop-color="#29D0F6"/>
<stop offset="0.257813" stop-color="#29CFF6"/>
<stop offset="0.261719" stop-color="#2ACEF6"/>
<stop offset="0.265625" stop-color="#2BCEF6"/>
<stop offset="0.269531" stop-color="#2BCDF6"/>
<stop offset="0.273438" stop-color="#2CCDF6"/>
<stop offset="0.277344" stop-color="#2CCCF5"/>
<stop offset="0.28125" stop-color="#2DCBF5"/>
<stop offset="0.285156" stop-color="#2ECBF5"/>
<stop offset="0.289062" stop-color="#2ECAF5"/>
<stop offset="0.292969" stop-color="#2FCAF5"/>
<stop offset="0.296875" stop-color="#2FC9F5"/>
<stop offset="0.300781" stop-color="#30C9F5"/>
<stop offset="0.304688" stop-color="#31C8F4"/>
<stop offset="0.308594" stop-color="#31C7F4"/>
<stop offset="0.3125" stop-color="#32C7F4"/>
<stop offset="0.316406" stop-color="#32C6F4"/>
<stop offset="0.320312" stop-color="#33C6F4"/>
<stop offset="0.324219" stop-color="#34C5F4"/>
<stop offset="0.328125" stop-color="#34C4F4"/>
<stop offset="0.332031" stop-color="#35C4F4"/>
<stop offset="0.335938" stop-color="#36C3F3"/>
<stop offset="0.339844" stop-color="#36C3F3"/>
<stop offset="0.34375" stop-color="#37C2F3"/>
<stop offset="0.347656" stop-color="#37C1F3"/>
<stop offset="0.351563" stop-color="#38C1F3"/>
<stop offset="0.355469" stop-color="#39C0F3"/>
<stop offset="0.359375" stop-color="#39C0F3"/>
<stop offset="0.363281" stop-color="#3ABFF3"/>
<stop offset="0.367188" stop-color="#3ABEF2"/>
<stop offset="0.371094" stop-color="#3BBEF2"/>
<stop offset="0.375" stop-color="#3CBDF2"/>
<stop offset="0.378906" stop-color="#3CBDF2"/>
<stop offset="0.382813" stop-color="#3DBCF2"/>
<stop offset="0.386719" stop-color="#3DBCF2"/>
<stop offset="0.390625" stop-color="#3EBBF2"/>
<stop offset="0.394531" stop-color="#3FBAF1"/>
<stop offset="0.398438" stop-color="#3FBAF1"/>
<stop offset="0.402344" stop-color="#40B9F1"/>
<stop offset="0.40625" stop-color="#41B9F1"/>
<stop offset="0.410156" stop-color="#41B8F1"/>
<stop offset="0.414062" stop-color="#42B7F1"/>
<stop offset="0.417969" stop-color="#42B7F1"/>
<stop offset="0.421875" stop-color="#43B6F1"/>
<stop offset="0.425781" stop-color="#44B6F0"/>
<stop offset="0.429688" stop-color="#44B5F0"/>
<stop offset="0.433594" stop-color="#45B4F0"/>
<stop offset="0.4375" stop-color="#45B4F0"/>
<stop offset="0.441406" stop-color="#46B3F0"/>
<stop offset="0.445312" stop-color="#47B3F0"/>
<stop offset="0.449219" stop-color="#47B2F0"/>
<stop offset="0.453125" stop-color="#48B2EF"/>
<stop offset="0.457031" stop-color="#48B1EF"/>
<stop offset="0.460938" stop-color="#49B0EF"/>
<stop offset="0.464844" stop-color="#4AB0EF"/>
<stop offset="0.46875" stop-color="#4AAFEF"/>
<stop offset="0.472656" stop-color="#4BAFEF"/>
<stop offset="0.476563" stop-color="#4BAEEF"/>
<stop offset="0.480469" stop-color="#4CADEF"/>
<stop offset="0.484375" stop-color="#4DADEE"/>
<stop offset="0.488281" stop-color="#4DACEE"/>
<stop offset="0.492188" stop-color="#4EACEE"/>
<stop offset="0.496094" stop-color="#4FABEE"/>
<stop offset="0.5" stop-color="#4FAAEE"/>
<stop offset="0.503906" stop-color="#50AAEE"/>
<stop offset="0.507812" stop-color="#50A9EE"/>
<stop offset="0.511719" stop-color="#51A9EE"/>
<stop offset="0.515625" stop-color="#52A8ED"/>
<stop offset="0.519531" stop-color="#52A7ED"/>
<stop offset="0.523438" stop-color="#53A7ED"/>
<stop offset="0.527344" stop-color="#53A6ED"/>
<stop offset="0.53125" stop-color="#54A6ED"/>
<stop offset="0.535156" stop-color="#55A5ED"/>
<stop offset="0.539063" stop-color="#55A5ED"/>
<stop offset="0.542969" stop-color="#56A4EC"/>
<stop offset="0.546875" stop-color="#56A3EC"/>
<stop offset="0.550781" stop-color="#57A3EC"/>
<stop offset="0.554688" stop-color="#58A2EC"/>
<stop offset="0.558594" stop-color="#58A2EC"/>
<stop offset="0.5625" stop-color="#59A1EC"/>
<stop offset="0.566406" stop-color="#59A0EC"/>
<stop offset="0.570313" stop-color="#5AA0EC"/>
<stop offset="0.574219" stop-color="#5B9FEB"/>
<stop offset="0.578125" stop-color="#5B9FEB"/>
<stop offset="0.582031" stop-color="#5C9EEB"/>
<stop offset="0.585938" stop-color="#5D9DEB"/>
<stop offset="0.589844" stop-color="#5D9DEB"/>
<stop offset="0.59375" stop-color="#5E9CEB"/>
<stop offset="0.597656" stop-color="#5E9CEB"/>
<stop offset="0.601563" stop-color="#5F9BEA"/>
<stop offset="0.605469" stop-color="#609AEA"/>
<stop offset="0.609375" stop-color="#609AEA"/>
<stop offset="0.613281" stop-color="#6199EA"/>
<stop offset="0.617188" stop-color="#6199EA"/>
<stop offset="0.621094" stop-color="#6298EA"/>
<stop offset="0.625" stop-color="#6398EA"/>
<stop offset="0.628906" stop-color="#6397EA"/>
<stop offset="0.632813" stop-color="#6496E9"/>
<stop offset="0.636719" stop-color="#6496E9"/>
<stop offset="0.640625" stop-color="#6595E9"/>
<stop offset="0.644531" stop-color="#6695E9"/>
<stop offset="0.648438" stop-color="#6694E9"/>
<stop offset="0.652344" stop-color="#6793E9"/>
<stop offset="0.65625" stop-color="#6893E9"/>
<stop offset="0.660156" stop-color="#6892E9"/>
<stop offset="0.664063" stop-color="#6992E8"/>
<stop offset="0.667969" stop-color="#6991E8"/>
<stop offset="0.671875" stop-color="#6A90E8"/>
<stop offset="0.675781" stop-color="#6B90E8"/>
<stop offset="0.679688" stop-color="#6B8FE8"/>
<stop offset="0.683594" stop-color="#6C8FE8"/>
<stop offset="0.6875" stop-color="#6C8EE8"/>
<stop offset="0.691406" stop-color="#6D8DE7"/>
<stop offset="0.695313" stop-color="#6E8DE7"/>
<stop offset="0.699219" stop-color="#6E8CE7"/>
<stop offset="0.703125" stop-color="#6F8CE7"/>
<stop offset="0.707031" stop-color="#6F8BE7"/>
<stop offset="0.710938" stop-color="#708BE7"/>
<stop offset="0.714844" stop-color="#718AE7"/>
<stop offset="0.71875" stop-color="#7189E7"/>
<stop offset="0.722656" stop-color="#7289E6"/>
<stop offset="0.726563" stop-color="#7288E6"/>
<stop offset="0.730469" stop-color="#7388E6"/>
<stop offset="0.734375" stop-color="#7487E6"/>
<stop offset="0.738281" stop-color="#7486E6"/>
<stop offset="0.742188" stop-color="#7586E6"/>
<stop offset="0.746094" stop-color="#7685E6"/>
<stop offset="0.75" stop-color="#7685E5"/>
<stop offset="0.753906" stop-color="#7784E5"/>
<stop offset="0.757813" stop-color="#7783E5"/>
<stop offset="0.761719" stop-color="#7883E5"/>
<stop offset="0.765625" stop-color="#7982E5"/>
<stop offset="0.769531" stop-color="#7982E5"/>
<stop offset="0.773438" stop-color="#7A81E5"/>
<stop offset="0.777344" stop-color="#7A80E5"/>
<stop offset="0.78125" stop-color="#7B80E4"/>
<stop offset="0.785156" stop-color="#7C7FE4"/>
<stop offset="0.789062" stop-color="#7C7FE4"/>
<stop offset="0.792969" stop-color="#7D7EE4"/>
<stop offset="0.796875" stop-color="#7D7EE4"/>
<stop offset="0.800781" stop-color="#7E7DE4"/>
<stop offset="0.804688" stop-color="#7F7CE4"/>
<stop offset="0.808594" stop-color="#7F7CE4"/>
<stop offset="0.8125" stop-color="#807BE3"/>
<stop offset="0.816406" stop-color="#807BE3"/>
<stop offset="0.820312" stop-color="#817AE3"/>
<stop offset="0.824219" stop-color="#8279E3"/>
<stop offset="0.828125" stop-color="#8279E3"/>
<stop offset="0.832031" stop-color="#8378E3"/>
<stop offset="0.835937" stop-color="#8478E3"/>
<stop offset="0.839844" stop-color="#8477E2"/>
<stop offset="0.84375" stop-color="#8576E2"/>
<stop offset="0.847656" stop-color="#8576E2"/>
<stop offset="0.851563" stop-color="#8675E2"/>
<stop offset="0.855469" stop-color="#8775E2"/>
<stop offset="0.859375" stop-color="#8774E2"/>
<stop offset="0.863281" stop-color="#8873E2"/>
<stop offset="0.867188" stop-color="#8873E2"/>
<stop offset="0.871094" stop-color="#8972E1"/>
<stop offset="0.875" stop-color="#8A72E1"/>
<stop offset="0.878906" stop-color="#8A71E1"/>
<stop offset="0.882812" stop-color="#8B71E1"/>
<stop offset="0.886719" stop-color="#8B70E1"/>
<stop offset="0.890625" stop-color="#8C6FE1"/>
<stop offset="0.894531" stop-color="#8D6FE1"/>
<stop offset="0.898437" stop-color="#8D6EE0"/>
<stop offset="0.902344" stop-color="#8E6EE0"/>
<stop offset="0.90625" stop-color="#8F6DE0"/>
<stop offset="0.910156" stop-color="#8F6CE0"/>
<stop offset="0.914063" stop-color="#906CE0"/>
<stop offset="0.917969" stop-color="#906BE0"/>
<stop offset="0.921875" stop-color="#916BE0"/>
<stop offset="0.925781" stop-color="#926AE0"/>
<stop offset="0.929688" stop-color="#9269DF"/>
<stop offset="0.933594" stop-color="#9369DF"/>
<stop offset="0.9375" stop-color="#9368DF"/>
<stop offset="0.941406" stop-color="#9468DF"/>
<stop offset="0.945312" stop-color="#9567DF"/>
<stop offset="0.949219" stop-color="#9567DF"/>
<stop offset="0.953125" stop-color="#9666DF"/>
<stop offset="0.957031" stop-color="#9665DF"/>
<stop offset="0.960937" stop-color="#9765DE"/>
<stop offset="0.964844" stop-color="#9864DE"/>
<stop offset="0.96875" stop-color="#9864DE"/>
<stop offset="0.972656" stop-color="#9963DE"/>
<stop offset="0.976563" stop-color="#9962DE"/>
<stop offset="0.980469" stop-color="#9A62DE"/>
<stop offset="0.984375" stop-color="#9B61DE"/>
<stop offset="0.988281" stop-color="#9B61DD"/>
<stop offset="0.992188" stop-color="#9C60DD"/>
<stop offset="0.996094" stop-color="#9D5FDD"/>
<stop offset="1" stop-color="#9D5FDD"/>
</linearGradient>
<clipPath id="clip0_147_916">
<rect width="1080" height="1080" fill="white"/>
</clipPath>
</defs>
</svg>
