<svg xmlns="http://www.w3.org/2000/svg" xmlns:xlink="http://www.w3.org/1999/xlink" width="1920" zoomAndPan="magnify" viewBox="0 0 1440 809.999993" height="1080" preserveAspectRatio="xMidYMid meet" version="1.0"><defs><filter x="0%" y="0%" width="100%" height="100%" id="c131ce47b5"><feColorMatrix values="0 0 0 0 1 0 0 0 0 1 0 0 0 0 1 0 0 0 1 0" color-interpolation-filters="sRGB"/></filter><g/><clipPath id="8ea88568bf"><path d="M 699.039062 263.570312 L 1243.539062 263.570312 L 1243.539062 557.570312 L 699.039062 557.570312 Z M 699.039062 263.570312 " clip-rule="nonzero"/></clipPath><clipPath id="ff29ca2840"><path d="M 706.382812 306.664062 L 766.238281 329.242188 C 766.871094 328.101562 768.09375 327.328125 769.488281 327.328125 C 770.265625 327.328125 770.992188 327.570312 771.589844 327.980469 L 791.738281 306.175781 C 791.34375 305.691406 791.074219 305.105469 790.964844 304.460938 L 706.441406 306.328125 C 706.425781 306.441406 706.40625 306.554688 706.382812 306.664062 Z M 913.527344 465.625 L 913.648438 465.628906 L 923.835938 408.691406 C 923.109375 408.453125 922.484375 407.992188 922.035156 407.390625 L 891.46875 423.910156 C 891.613281 424.304688 891.691406 424.734375 891.691406 425.183594 C 891.691406 426.363281 891.140625 427.414062 890.285156 428.09375 L 912.152344 465.886719 C 912.578125 465.71875 913.042969 465.625 913.527344 465.625 Z M 914.703125 465.816406 C 915.652344 466.132812 916.425781 466.816406 916.863281 467.699219 L 993.632812 442.9375 C 993.601562 442.738281 993.582031 442.53125 993.582031 442.320312 C 993.582031 441.902344 993.65625 441.5 993.78125 441.121094 L 928.039062 407.328125 C 927.363281 408.269531 926.261719 408.886719 925.011719 408.886719 L 924.894531 408.882812 Z M 917.230469 469.652344 C 917.214844 469.84375 917.183594 470.03125 917.140625 470.214844 L 1006.449219 506.1875 C 1007.074219 505.710938 1007.851562 505.425781 1008.695312 505.425781 C 1009.027344 505.425781 1009.347656 505.472656 1009.65625 505.554688 L 1001.90625 467.582031 C 1001.835938 467.585938 1001.765625 467.585938 1001.695312 467.585938 C 999.910156 467.585938 998.414062 466.320312 998.058594 464.636719 Z M 916.738281 471.214844 C 916.09375 472.316406 914.898438 473.058594 913.527344 473.058594 C 912.957031 473.058594 912.410156 472.925781 911.921875 472.691406 L 859.28125 551.03125 C 859.644531 551.363281 859.945312 551.769531 860.160156 552.226562 L 1005.015625 509.664062 C 1004.992188 509.492188 1004.980469 509.320312 1004.980469 509.144531 C 1004.980469 508.355469 1005.226562 507.625 1005.644531 507.023438 Z M 911.03125 472.09375 C 910.453125 471.5625 910.039062 470.855469 909.882812 470.054688 L 799.394531 475.40625 C 799.3125 476.261719 798.941406 477.035156 798.375 477.621094 L 854.953125 550.542969 C 855.492188 550.242188 856.117188 550.066406 856.78125 550.066406 C 857.355469 550.066406 857.902344 550.195312 858.386719 550.429688 Z M 909.832031 468.980469 C 909.929688 467.949219 910.453125 467.039062 911.222656 466.429688 L 889.351562 428.636719 C 888.925781 428.804688 888.460938 428.898438 887.976562 428.898438 C 886.757812 428.898438 885.675781 428.3125 885 427.40625 L 799.1875 473.773438 C 799.253906 473.953125 799.304688 474.140625 799.34375 474.328125 Z M 1001.695312 460.15625 C 1003.488281 460.15625 1004.980469 461.421875 1005.335938 463.105469 L 1012.878906 462.636719 C 1012.941406 461.878906 1013.230469 461.191406 1013.675781 460.628906 L 999.417969 445.375 C 999.152344 445.558594 998.867188 445.707031 998.5625 445.816406 L 1001.492188 460.164062 C 1001.558594 460.15625 1001.628906 460.15625 1001.695312 460.15625 Z M 1005.398438 464.179688 C 1005.277344 465.65625 1004.300781 466.882812 1002.960938 467.367188 L 1010.871094 506.132812 C 1011.644531 506.6875 1012.191406 507.539062 1012.359375 508.515625 L 1079.738281 533.238281 C 1079.875 532.78125 1080.101562 532.359375 1080.390625 531.996094 L 1018.699219 466.003906 C 1018.097656 466.417969 1017.367188 466.664062 1016.582031 466.664062 C 1014.792969 466.664062 1013.296875 465.398438 1012.945312 463.714844 Z M 997.996094 463.5625 C 998.117188 462.089844 999.097656 460.859375 1000.433594 460.378906 L 997.503906 446.03125 C 997.4375 446.035156 997.367188 446.039062 997.300781 446.039062 C 995.835938 446.039062 994.570312 445.191406 993.964844 443.964844 L 917.773438 468.539062 Z M 1012.375 509.671875 C 1012.117188 511.472656 1010.570312 512.859375 1008.695312 512.859375 C 1007.199219 512.859375 1005.90625 511.972656 1005.320312 510.695312 L 860.460938 553.261719 C 860.484375 553.429688 860.5 553.601562 860.5 553.78125 C 860.5 555.832031 858.835938 557.496094 856.78125 557.496094 C 854.730469 557.496094 853.066406 555.832031 853.066406 553.78125 C 853.066406 553.660156 853.074219 553.539062 853.082031 553.421875 L 745.375 526.816406 C 744.824219 528.171875 743.492188 529.125 741.9375 529.125 C 739.886719 529.125 738.21875 527.460938 738.21875 525.410156 C 738.21875 523.925781 739.089844 522.648438 740.347656 522.050781 L 704.664062 405.464844 C 704.484375 405.492188 704.296875 405.507812 704.101562 405.507812 C 702.050781 405.507812 700.390625 403.84375 700.390625 401.789062 C 700.390625 399.941406 701.742188 398.40625 703.515625 398.125 L 702.265625 309.554688 C 700.445312 309.316406 699.039062 307.757812 699.039062 305.871094 C 699.039062 303.816406 700.699219 302.15625 702.753906 302.15625 C 704.59375 302.15625 706.121094 303.492188 706.417969 305.25 L 790.941406 303.386719 C 791.167969 301.550781 792.734375 300.128906 794.628906 300.128906 C 796.46875 300.128906 797.992188 301.460938 798.292969 303.210938 L 897.679688 300.695312 C 897.902344 298.855469 899.46875 297.425781 901.367188 297.425781 C 902.667969 297.425781 903.808594 298.089844 904.472656 299.097656 L 970.09375 268.433594 C 969.992188 268.097656 969.9375 267.738281 969.9375 267.367188 C 969.9375 265.3125 971.601562 263.652344 973.652344 263.652344 C 975.707031 263.652344 977.371094 265.3125 977.371094 267.367188 C 977.371094 267.589844 977.347656 267.808594 977.3125 268.023438 L 1089.238281 305.542969 C 1089.851562 304.332031 1091.105469 303.507812 1092.550781 303.507812 C 1094.234375 303.507812 1095.652344 304.621094 1096.113281 306.152344 L 1175.984375 294.386719 C 1175.984375 292.335938 1177.648438 290.671875 1179.699219 290.671875 C 1181.753906 290.671875 1183.414062 292.335938 1183.414062 294.386719 C 1183.414062 295.21875 1183.140625 295.984375 1182.679688 296.601562 L 1205.226562 319.144531 C 1206.582031 319.46875 1207.652344 320.535156 1207.976562 321.894531 L 1208.855469 322.773438 L 1208.703125 322.914062 L 1239.101562 408.277344 C 1239.335938 408.230469 1239.578125 408.207031 1239.824219 408.207031 C 1241.878906 408.207031 1243.542969 409.871094 1243.542969 411.925781 C 1243.542969 413.976562 1241.878906 415.640625 1239.824219 415.640625 C 1239.523438 415.640625 1239.226562 415.601562 1238.945312 415.535156 L 1221.441406 458.707031 C 1222.539062 459.351562 1223.277344 460.546875 1223.277344 461.914062 C 1223.277344 463.964844 1221.609375 465.628906 1219.558594 465.628906 C 1219.488281 465.628906 1219.417969 465.625 1219.34375 465.621094 L 1207.996094 520.566406 C 1209.421875 521.082031 1210.441406 522.453125 1210.441406 524.058594 C 1210.441406 526.109375 1208.777344 527.773438 1206.722656 527.773438 C 1204.671875 527.773438 1203.007812 526.109375 1203.007812 524.058594 C 1203.007812 523.539062 1203.113281 523.042969 1203.308594 522.597656 L 1161.925781 497.253906 C 1161.246094 498.070312 1160.21875 498.589844 1159.074219 498.589844 C 1157.859375 498.589844 1156.78125 498.007812 1156.101562 497.105469 L 1086.984375 534.773438 C 1086.753906 536.609375 1085.191406 538.027344 1083.296875 538.027344 C 1081.25 538.027344 1079.59375 536.375 1079.582031 534.332031 Z M 997.300781 438.605469 C 997.925781 438.605469 998.511719 438.761719 999.03125 439.035156 L 1047.394531 372.699219 C 1047.0625 372.375 1046.792969 371.984375 1046.601562 371.558594 L 964.207031 394.714844 L 995.613281 439.011719 C 996.117188 438.753906 996.691406 438.605469 997.300781 438.605469 Z M 999.898438 439.667969 C 1000.203125 439.964844 1000.457031 440.316406 1000.644531 440.703125 L 1115.40625 404.566406 C 1115.378906 404.390625 1115.367188 404.214844 1115.367188 404.03125 C 1115.367188 403.496094 1115.480469 402.988281 1115.683594 402.527344 L 1053.066406 372.132812 C 1052.394531 373.113281 1051.269531 373.757812 1049.992188 373.757812 C 1049.367188 373.757812 1048.78125 373.605469 1048.261719 373.332031 Z M 1000.96875 441.734375 C 1001 441.925781 1001.015625 442.121094 1001.015625 442.320312 L 1001.015625 442.347656 L 1095.082031 456.765625 C 1095.546875 455.246094 1096.960938 454.140625 1098.632812 454.140625 C 1098.917969 454.140625 1099.195312 454.171875 1099.460938 454.234375 L 1117.597656 407.4375 C 1116.765625 407.074219 1116.09375 406.421875 1115.710938 405.601562 Z M 1000.851562 443.414062 C 1000.710938 443.867188 1000.492188 444.277344 1000.203125 444.640625 L 1014.464844 459.894531 C 1015.066406 459.476562 1015.796875 459.230469 1016.582031 459.230469 C 1018.371094 459.230469 1019.863281 460.5 1020.21875 462.183594 L 1093.589844 457.628906 Z M 994.277344 440.164062 C 994.410156 439.972656 994.566406 439.796875 994.734375 439.632812 L 963.105469 395.023438 L 928.699219 404.691406 C 928.71875 404.847656 928.730469 405.007812 928.730469 405.167969 C 928.730469 405.589844 928.660156 405.992188 928.53125 406.371094 Z M 1020.285156 463.257812 C 1020.222656 464.011719 1019.933594 464.707031 1019.484375 465.265625 L 1081.179688 531.257812 C 1081.78125 530.839844 1082.511719 530.597656 1083.296875 530.597656 C 1083.8125 530.597656 1084.300781 530.703125 1084.75 530.890625 L 1097.445312 461.378906 C 1096.210938 460.960938 1095.265625 459.917969 1094.996094 458.625 Z M 1085.730469 531.503906 C 1086.339844 532.03125 1086.773438 532.753906 1086.9375 533.570312 L 1155.3125 496.3125 L 1155.554688 496.070312 C 1155.425781 495.691406 1155.359375 495.292969 1155.359375 494.875 C 1155.359375 494.355469 1155.464844 493.863281 1155.65625 493.414062 L 1101.484375 460.238281 C 1100.804688 461.054688 1099.78125 461.570312 1098.632812 461.570312 L 1098.503906 461.570312 Z M 1100.464844 454.625 C 1101.589844 455.261719 1102.347656 456.472656 1102.347656 457.859375 C 1102.347656 458.378906 1102.242188 458.871094 1102.050781 459.320312 L 1156.222656 492.496094 C 1156.476562 492.191406 1156.777344 491.925781 1157.117188 491.714844 L 1120.5625 407.441406 C 1120.105469 407.636719 1119.605469 407.746094 1119.082031 407.746094 C 1118.929688 407.746094 1118.785156 407.738281 1118.640625 407.71875 Z M 1206.722656 520.34375 C 1206.796875 520.34375 1206.871094 520.34375 1206.941406 520.347656 L 1218.289062 465.40625 C 1217.605469 465.15625 1217.015625 464.714844 1216.589844 464.144531 L 1162.558594 493.585938 C 1162.707031 493.988281 1162.789062 494.421875 1162.789062 494.875 C 1162.789062 495.394531 1162.683594 495.886719 1162.492188 496.335938 L 1203.871094 521.679688 C 1204.550781 520.859375 1205.578125 520.34375 1206.722656 520.34375 Z M 1237.945312 415.128906 C 1237.832031 415.0625 1237.722656 414.988281 1237.617188 414.914062 L 1203.917969 448.867188 C 1204.386719 449.488281 1204.660156 450.257812 1204.660156 451.097656 C 1204.660156 451.585938 1204.566406 452.050781 1204.398438 452.476562 L 1216.652344 459.597656 C 1217.332031 458.742188 1218.382812 458.195312 1219.558594 458.195312 C 1219.863281 458.195312 1220.160156 458.234375 1220.441406 458.300781 Z M 1236.855469 414.15625 C 1236.441406 413.605469 1236.179688 412.941406 1236.121094 412.214844 L 1122.757812 404.574219 C 1122.738281 404.714844 1122.707031 404.855469 1122.671875 404.992188 L 1198.039062 448.785156 C 1198.71875 447.929688 1199.765625 447.382812 1200.945312 447.382812 C 1201.773438 447.382812 1202.535156 447.652344 1203.152344 448.109375 Z M 1236.195312 411.140625 C 1236.425781 410.054688 1237.132812 409.148438 1238.085938 408.640625 L 1207.902344 323.878906 C 1207.472656 325.234375 1206.292969 326.25 1204.851562 326.441406 L 1122.253906 402.09375 C 1122.507812 402.511719 1122.683594 402.984375 1122.757812 403.492188 Z M 1216.074219 463.199219 C 1215.925781 462.796875 1215.84375 462.363281 1215.84375 461.914062 C 1215.84375 461.425781 1215.9375 460.960938 1216.109375 460.53125 L 1203.851562 453.410156 C 1203.171875 454.265625 1202.125 454.8125 1200.945312 454.8125 C 1200.117188 454.8125 1199.355469 454.542969 1198.738281 454.085938 L 1161.246094 491.859375 C 1161.550781 492.078125 1161.820312 492.34375 1162.042969 492.644531 Z M 1159.074219 491.160156 C 1159.480469 491.160156 1159.875 491.222656 1160.238281 491.34375 L 1197.972656 453.328125 C 1197.507812 452.707031 1197.230469 451.9375 1197.230469 451.097656 C 1197.230469 450.609375 1197.324219 450.144531 1197.496094 449.714844 L 1122.238281 405.992188 C 1122.035156 406.320312 1121.78125 406.617188 1121.484375 406.867188 L 1158.101562 491.289062 C 1158.410156 491.203125 1158.738281 491.160156 1159.074219 491.160156 Z M 1119.082031 400.316406 C 1120.035156 400.316406 1120.90625 400.675781 1121.566406 401.265625 L 1203.371094 326.339844 C 1202.679688 326.152344 1202.074219 325.769531 1201.609375 325.253906 L 1053.667969 369.507812 C 1053.695312 369.683594 1053.710938 369.859375 1053.710938 370.042969 C 1053.710938 370.433594 1053.648438 370.8125 1053.539062 371.164062 L 1116.261719 401.613281 C 1116.945312 400.816406 1117.953125 400.316406 1119.082031 400.316406 Z M 1200.984375 324.316406 C 1200.769531 323.839844 1200.644531 323.3125 1200.644531 322.757812 C 1200.644531 320.945312 1201.941406 319.4375 1203.660156 319.109375 L 1181.917969 297.367188 C 1181.296875 297.828125 1180.53125 298.101562 1179.699219 298.101562 C 1178.527344 298.101562 1177.476562 297.558594 1176.796875 296.703125 L 1054.171875 368.230469 Z M 1176.253906 295.773438 C 1176.210938 295.671875 1176.175781 295.5625 1176.144531 295.457031 L 1096.269531 307.21875 C 1096.269531 309.273438 1094.605469 310.9375 1092.550781 310.9375 C 1091.972656 310.9375 1091.425781 310.804688 1090.9375 310.566406 L 1052.5 367.300781 C 1052.640625 367.433594 1052.777344 367.574219 1052.898438 367.726562 Z M 1090.046875 309.964844 C 1089.304688 309.285156 1088.839844 308.308594 1088.839844 307.21875 C 1088.839844 306.996094 1088.855469 306.777344 1088.894531 306.5625 L 976.96875 269.046875 C 976.789062 269.398438 976.558594 269.71875 976.28125 269.992188 L 1048.230469 366.769531 C 1048.753906 366.488281 1049.355469 366.328125 1049.992188 366.328125 C 1050.574219 366.328125 1051.125 366.460938 1051.609375 366.695312 Z M 1046.308594 370.519531 C 1046.289062 370.363281 1046.277344 370.207031 1046.277344 370.042969 L 1046.277344 370.007812 L 936.671875 352.902344 C 936.480469 353.515625 936.140625 354.058594 935.6875 354.492188 L 963.542969 393.78125 Z M 1046.445312 368.945312 C 1046.625 368.359375 1046.945312 367.835938 1047.367188 367.414062 L 975.414062 270.636719 C 974.890625 270.921875 974.289062 271.082031 973.652344 271.082031 C 973.269531 271.082031 972.894531 271.023438 972.546875 270.914062 L 935.195312 348.722656 C 936.1875 349.390625 936.835938 350.523438 936.835938 351.804688 L 936.835938 351.839844 Z M 971.574219 270.449219 C 971.171875 270.171875 970.820312 269.820312 970.550781 269.410156 L 904.929688 300.070312 C 905.03125 300.410156 905.082031 300.769531 905.082031 301.140625 C 905.082031 302.273438 904.578125 303.292969 903.777344 303.972656 L 931.625 348.402344 C 932.082031 348.203125 932.589844 348.089844 933.121094 348.089844 C 933.507812 348.089844 933.878906 348.148438 934.226562 348.257812 Z M 902.867188 304.542969 C 902.410156 304.746094 901.902344 304.855469 901.367188 304.855469 C 899.53125 304.855469 898.003906 303.523438 897.707031 301.773438 L 798.316406 304.289062 C 798.308594 304.371094 798.296875 304.457031 798.28125 304.539062 L 929.820312 350.09375 C 930.046875 349.664062 930.351562 349.285156 930.710938 348.972656 Z M 934.808594 355.117188 C 934.300781 355.375 933.730469 355.519531 933.121094 355.519531 L 933.101562 355.519531 L 926.101562 401.617188 C 927.132812 401.929688 927.972656 402.679688 928.40625 403.65625 L 962.441406 394.089844 Z M 932.035156 355.359375 C 931.09375 355.074219 930.316406 354.421875 929.855469 353.574219 L 864.457031 377.496094 C 864.507812 377.742188 864.535156 377.992188 864.535156 378.253906 C 864.535156 379.433594 863.984375 380.484375 863.128906 381.167969 L 886.601562 421.730469 C 887.027344 421.558594 887.492188 421.46875 887.976562 421.46875 C 889.195312 421.46875 890.277344 422.054688 890.953125 422.960938 L 921.523438 406.445312 C 921.378906 406.046875 921.300781 405.617188 921.300781 405.167969 C 921.300781 403.117188 922.960938 401.453125 925.011719 401.453125 L 925.03125 401.453125 Z M 929.40625 351.722656 C 929.410156 351.511719 929.433594 351.308594 929.472656 351.109375 L 797.929688 305.554688 C 797.832031 305.746094 797.714844 305.925781 797.582031 306.097656 L 849.195312 358.929688 C 849.808594 358.484375 850.5625 358.222656 851.375 358.222656 C 853.089844 358.222656 854.527344 359.375 854.960938 360.949219 Z M 884.484375 426.457031 C 884.339844 426.058594 884.261719 425.628906 884.261719 425.183594 C 884.261719 424.777344 884.324219 424.386719 884.445312 424.019531 L 825.375 394.460938 C 824.703125 395.421875 823.589844 396.050781 822.328125 396.050781 C 822.121094 396.050781 821.914062 396.03125 821.714844 396 L 797.335938 471.710938 C 797.867188 471.972656 798.324219 472.355469 798.671875 472.824219 Z M 884.929688 423.058594 C 885.136719 422.757812 885.386719 422.496094 885.667969 422.273438 L 862.195312 381.707031 C 861.769531 381.875 861.304688 381.96875 860.820312 381.96875 C 859.410156 381.96875 858.179688 381.183594 857.550781 380.023438 L 825.964844 391.578125 C 826.015625 391.820312 826.042969 392.074219 826.042969 392.335938 C 826.042969 392.742188 825.976562 393.132812 825.855469 393.5 Z M 860.820312 374.539062 C 862.230469 374.539062 863.460938 375.324219 864.089844 376.484375 L 928.5 352.921875 L 855.09375 362.019531 C 855.066406 363.167969 854.523438 364.183594 853.683594 364.847656 L 859.445312 374.800781 C 859.871094 374.632812 860.332031 374.539062 860.820312 374.539062 Z M 857.179688 379.011719 C 857.132812 378.765625 857.105469 378.511719 857.105469 378.253906 C 857.105469 377.074219 857.65625 376.023438 858.511719 375.34375 L 852.753906 365.386719 C 852.328125 365.558594 851.863281 365.652344 851.375 365.652344 C 850.574219 365.652344 849.832031 365.398438 849.226562 364.964844 C 841.230469 373.320312 833.242188 381.683594 825.257812 390.050781 C 825.382812 390.210938 825.5 390.382812 825.597656 390.566406 Z M 848.445312 364.222656 C 847.953125 363.589844 847.660156 362.796875 847.660156 361.9375 C 847.660156 361.664062 847.691406 361.398438 847.746094 361.144531 L 772.738281 332.847656 C 772.613281 333.074219 772.464844 333.285156 772.296875 333.476562 L 820.335938 389.199219 C 820.910156 388.832031 821.597656 388.617188 822.328125 388.617188 C 823.128906 388.617188 823.871094 388.871094 824.476562 389.304688 Z M 848.128906 360.132812 C 848.214844 359.976562 848.3125 359.824219 848.421875 359.683594 L 796.8125 306.851562 C 796.199219 307.296875 795.445312 307.558594 794.628906 307.558594 C 793.851562 307.558594 793.128906 307.320312 792.527344 306.910156 L 772.378906 328.710938 C 772.894531 329.351562 773.207031 330.160156 773.207031 331.046875 C 773.207031 331.316406 773.175781 331.582031 773.121094 331.839844 Z M 820.6875 395.667969 C 819.457031 395.0625 818.613281 393.796875 818.613281 392.335938 L 818.613281 392.289062 L 770.480469 384.660156 C 770.171875 385.644531 769.464844 386.457031 768.546875 386.898438 L 795.109375 471.375 C 795.300781 471.347656 795.496094 471.332031 795.695312 471.332031 C 795.90625 471.332031 796.113281 471.347656 796.3125 471.382812 Z M 818.78125 391.226562 C 818.933594 390.734375 819.191406 390.285156 819.519531 389.902344 L 771.480469 334.183594 C 771 334.488281 770.445312 334.6875 769.847656 334.746094 L 767.648438 379.90625 C 769.355469 380.242188 770.648438 381.746094 770.648438 383.554688 L 770.648438 383.597656 Z M 853.34375 552.375 C 853.523438 551.9375 853.78125 551.539062 854.105469 551.207031 L 797.527344 478.28125 C 796.984375 478.585938 796.359375 478.761719 795.695312 478.761719 C 794.820312 478.761719 794.015625 478.460938 793.382812 477.953125 L 744.988281 523.289062 C 745.40625 523.890625 745.652344 524.621094 745.652344 525.410156 C 745.652344 525.53125 745.648438 525.648438 745.636719 525.769531 Z M 741.9375 521.695312 C 742.8125 521.695312 743.613281 521.996094 744.25 522.503906 L 792.644531 477.167969 C 792.226562 476.566406 791.980469 475.835938 791.980469 475.046875 C 791.980469 474.359375 792.167969 473.722656 792.488281 473.171875 L 706.636719 404.507812 C 706.359375 404.765625 706.042969 404.984375 705.695312 405.148438 L 741.375 521.734375 C 741.558594 521.710938 741.746094 521.695312 741.9375 521.695312 Z M 793.164062 472.328125 C 793.433594 472.078125 793.742188 471.863281 794.078125 471.699219 L 767.519531 387.222656 C 767.328125 387.253906 767.132812 387.269531 766.929688 387.269531 C 765.429688 387.269531 764.132812 386.375 763.550781 385.09375 C 744.957031 390.472656 726.371094 395.882812 707.785156 401.28125 C 707.808594 401.449219 707.820312 401.617188 707.820312 401.789062 C 707.820312 402.476562 707.632812 403.117188 707.3125 403.667969 Z M 704.589844 398.109375 C 705.183594 398.183594 705.730469 398.402344 706.203125 398.726562 L 766.597656 333.378906 C 766.082031 332.742188 765.773438 331.929688 765.773438 331.046875 C 765.773438 330.773438 765.804688 330.507812 765.859375 330.25 L 706.003906 307.671875 C 705.460938 308.648438 704.488281 309.355469 703.34375 309.539062 Z M 706.996094 399.457031 C 707.191406 399.699219 707.355469 399.964844 707.488281 400.25 L 763.25 384.0625 C 763.226562 383.894531 763.214844 383.726562 763.214844 383.554688 C 763.214844 381.621094 764.6875 380.035156 766.574219 379.855469 L 768.773438 334.691406 C 768.265625 334.59375 767.800781 334.390625 767.390625 334.113281 Z M 706.996094 399.457031 " clip-rule="nonzero"/></clipPath><linearGradient x1="-50.964838" gradientTransform="matrix(0.223761, 0, 0, 0.223741, 699.03741, 263.650958)" y1="1140.002876" x2="2544.227418" gradientUnits="userSpaceOnUse" y2="376.912972" id="5dad2833ec"><stop stop-opacity="1" stop-color="rgb(0.439453%, 96.472168%, 99.90387%)" offset="0"/><stop stop-opacity="1" stop-color="rgb(0.679016%, 96.240234%, 99.85199%)" offset="0.00390625"/><stop stop-opacity="1" stop-color="rgb(0.918579%, 96.008301%, 99.80011%)" offset="0.0078125"/><stop stop-opacity="1" stop-color="rgb(1.156616%, 95.776367%, 99.74823%)" offset="0.0117187"/><stop stop-opacity="1" stop-color="rgb(1.396179%, 95.545959%, 99.697876%)" offset="0.015625"/><stop stop-opacity="1" stop-color="rgb(1.634216%, 95.314026%, 99.645996%)" offset="0.0195312"/><stop stop-opacity="1" stop-color="rgb(1.873779%, 95.082092%, 99.594116%)" offset="0.0234375"/><stop stop-opacity="1" stop-color="rgb(2.111816%, 94.850159%, 99.542236%)" offset="0.0273438"/><stop stop-opacity="1" stop-color="rgb(2.351379%, 94.619751%, 99.490356%)" offset="0.03125"/><stop stop-opacity="1" stop-color="rgb(2.590942%, 94.387817%, 99.438477%)" offset="0.0351562"/><stop stop-opacity="1" stop-color="rgb(2.830505%, 94.155884%, 99.388123%)" offset="0.0390625"/><stop stop-opacity="1" stop-color="rgb(3.068542%, 93.92395%, 99.336243%)" offset="0.0429688"/><stop stop-opacity="1" stop-color="rgb(3.308105%, 93.693542%, 99.284363%)" offset="0.046875"/><stop stop-opacity="1" stop-color="rgb(3.546143%, 93.461609%, 99.232483%)" offset="0.0507812"/><stop stop-opacity="1" stop-color="rgb(3.785706%, 93.229675%, 99.180603%)" offset="0.0546875"/><stop stop-opacity="1" stop-color="rgb(4.023743%, 92.997742%, 99.128723%)" offset="0.0585937"/><stop stop-opacity="1" stop-color="rgb(4.263306%, 92.767334%, 99.078369%)" offset="0.0625"/><stop stop-opacity="1" stop-color="rgb(4.502869%, 92.5354%, 99.026489%)" offset="0.0664062"/><stop stop-opacity="1" stop-color="rgb(4.742432%, 92.303467%, 98.974609%)" offset="0.0703125"/><stop stop-opacity="1" stop-color="rgb(4.980469%, 92.071533%, 98.922729%)" offset="0.0742187"/><stop stop-opacity="1" stop-color="rgb(5.220032%, 91.841125%, 98.872375%)" offset="0.078125"/><stop stop-opacity="1" stop-color="rgb(5.458069%, 91.609192%, 98.820496%)" offset="0.0820312"/><stop stop-opacity="1" stop-color="rgb(5.697632%, 91.377258%, 98.768616%)" offset="0.0859375"/><stop stop-opacity="1" stop-color="rgb(5.935669%, 91.145325%, 98.716736%)" offset="0.0898437"/><stop stop-opacity="1" stop-color="rgb(6.175232%, 90.914917%, 98.664856%)" offset="0.09375"/><stop stop-opacity="1" stop-color="rgb(6.414795%, 90.682983%, 98.612976%)" offset="0.0976562"/><stop stop-opacity="1" stop-color="rgb(6.654358%, 90.45105%, 98.562622%)" offset="0.101562"/><stop stop-opacity="1" stop-color="rgb(6.892395%, 90.219116%, 98.510742%)" offset="0.105469"/><stop stop-opacity="1" stop-color="rgb(7.131958%, 89.988708%, 98.458862%)" offset="0.109375"/><stop stop-opacity="1" stop-color="rgb(7.369995%, 89.756775%, 98.406982%)" offset="0.113281"/><stop stop-opacity="1" stop-color="rgb(7.609558%, 89.524841%, 98.355103%)" offset="0.117187"/><stop stop-opacity="1" stop-color="rgb(7.847595%, 89.292908%, 98.303223%)" offset="0.121094"/><stop stop-opacity="1" stop-color="rgb(8.087158%, 89.060974%, 98.252869%)" offset="0.125"/><stop stop-opacity="1" stop-color="rgb(8.326721%, 88.829041%, 98.200989%)" offset="0.128906"/><stop stop-opacity="1" stop-color="rgb(8.566284%, 88.598633%, 98.149109%)" offset="0.132812"/><stop stop-opacity="1" stop-color="rgb(8.804321%, 88.366699%, 98.097229%)" offset="0.136719"/><stop stop-opacity="1" stop-color="rgb(9.043884%, 88.134766%, 98.045349%)" offset="0.140625"/><stop stop-opacity="1" stop-color="rgb(9.281921%, 87.902832%, 97.993469%)" offset="0.144531"/><stop stop-opacity="1" stop-color="rgb(9.521484%, 87.672424%, 97.943115%)" offset="0.148437"/><stop stop-opacity="1" stop-color="rgb(9.759521%, 87.440491%, 97.891235%)" offset="0.152344"/><stop stop-opacity="1" stop-color="rgb(9.999084%, 87.208557%, 97.839355%)" offset="0.15625"/><stop stop-opacity="1" stop-color="rgb(10.237122%, 86.976624%, 97.787476%)" offset="0.160156"/><stop stop-opacity="1" stop-color="rgb(10.476685%, 86.746216%, 97.735596%)" offset="0.164062"/><stop stop-opacity="1" stop-color="rgb(10.716248%, 86.514282%, 97.683716%)" offset="0.167969"/><stop stop-opacity="1" stop-color="rgb(10.955811%, 86.282349%, 97.633362%)" offset="0.171875"/><stop stop-opacity="1" stop-color="rgb(11.193848%, 86.050415%, 97.581482%)" offset="0.175781"/><stop stop-opacity="1" stop-color="rgb(11.433411%, 85.820007%, 97.529602%)" offset="0.179687"/><stop stop-opacity="1" stop-color="rgb(11.671448%, 85.588074%, 97.477722%)" offset="0.183594"/><stop stop-opacity="1" stop-color="rgb(11.911011%, 85.35614%, 97.425842%)" offset="0.1875"/><stop stop-opacity="1" stop-color="rgb(12.149048%, 85.124207%, 97.373962%)" offset="0.191406"/><stop stop-opacity="1" stop-color="rgb(12.388611%, 84.893799%, 97.323608%)" offset="0.195312"/><stop stop-opacity="1" stop-color="rgb(12.628174%, 84.661865%, 97.271729%)" offset="0.199219"/><stop stop-opacity="1" stop-color="rgb(12.867737%, 84.429932%, 97.219849%)" offset="0.203125"/><stop stop-opacity="1" stop-color="rgb(13.105774%, 84.197998%, 97.167969%)" offset="0.207031"/><stop stop-opacity="1" stop-color="rgb(13.345337%, 83.96759%, 97.116089%)" offset="0.210938"/><stop stop-opacity="1" stop-color="rgb(13.583374%, 83.735657%, 97.064209%)" offset="0.214844"/><stop stop-opacity="1" stop-color="rgb(13.822937%, 83.503723%, 97.013855%)" offset="0.21875"/><stop stop-opacity="1" stop-color="rgb(14.060974%, 83.27179%, 96.961975%)" offset="0.222656"/><stop stop-opacity="1" stop-color="rgb(14.300537%, 83.039856%, 96.910095%)" offset="0.226562"/><stop stop-opacity="1" stop-color="rgb(14.5401%, 82.807922%, 96.858215%)" offset="0.230469"/><stop stop-opacity="1" stop-color="rgb(14.779663%, 82.577515%, 96.806335%)" offset="0.234375"/><stop stop-opacity="1" stop-color="rgb(15.0177%, 82.345581%, 96.754456%)" offset="0.238281"/><stop stop-opacity="1" stop-color="rgb(15.257263%, 82.113647%, 96.704102%)" offset="0.242188"/><stop stop-opacity="1" stop-color="rgb(15.4953%, 81.881714%, 96.652222%)" offset="0.246094"/><stop stop-opacity="1" stop-color="rgb(15.734863%, 81.651306%, 96.600342%)" offset="0.25"/><stop stop-opacity="1" stop-color="rgb(15.9729%, 81.419373%, 96.548462%)" offset="0.253906"/><stop stop-opacity="1" stop-color="rgb(16.212463%, 81.187439%, 96.496582%)" offset="0.257812"/><stop stop-opacity="1" stop-color="rgb(16.452026%, 80.955505%, 96.444702%)" offset="0.261719"/><stop stop-opacity="1" stop-color="rgb(16.691589%, 80.725098%, 96.394348%)" offset="0.265625"/><stop stop-opacity="1" stop-color="rgb(16.929626%, 80.493164%, 96.342468%)" offset="0.269531"/><stop stop-opacity="1" stop-color="rgb(17.169189%, 80.26123%, 96.290588%)" offset="0.273438"/><stop stop-opacity="1" stop-color="rgb(17.407227%, 80.029297%, 96.238708%)" offset="0.277344"/><stop stop-opacity="1" stop-color="rgb(17.64679%, 79.798889%, 96.186829%)" offset="0.28125"/><stop stop-opacity="1" stop-color="rgb(17.884827%, 79.566956%, 96.134949%)" offset="0.285156"/><stop stop-opacity="1" stop-color="rgb(18.12439%, 79.335022%, 96.084595%)" offset="0.289062"/><stop stop-opacity="1" stop-color="rgb(18.363953%, 79.103088%, 96.032715%)" offset="0.292969"/><stop stop-opacity="1" stop-color="rgb(18.603516%, 78.872681%, 95.980835%)" offset="0.296875"/><stop stop-opacity="1" stop-color="rgb(18.841553%, 78.640747%, 95.928955%)" offset="0.300781"/><stop stop-opacity="1" stop-color="rgb(19.081116%, 78.408813%, 95.877075%)" offset="0.304687"/><stop stop-opacity="1" stop-color="rgb(19.319153%, 78.17688%, 95.825195%)" offset="0.308594"/><stop stop-opacity="1" stop-color="rgb(19.558716%, 77.946472%, 95.774841%)" offset="0.3125"/><stop stop-opacity="1" stop-color="rgb(19.796753%, 77.714539%, 95.722961%)" offset="0.316406"/><stop stop-opacity="1" stop-color="rgb(20.036316%, 77.482605%, 95.671082%)" offset="0.320313"/><stop stop-opacity="1" stop-color="rgb(20.275879%, 77.250671%, 95.619202%)" offset="0.324219"/><stop stop-opacity="1" stop-color="rgb(20.515442%, 77.020264%, 95.567322%)" offset="0.328125"/><stop stop-opacity="1" stop-color="rgb(20.753479%, 76.78833%, 95.515442%)" offset="0.332031"/><stop stop-opacity="1" stop-color="rgb(20.993042%, 76.556396%, 95.465088%)" offset="0.335938"/><stop stop-opacity="1" stop-color="rgb(21.231079%, 76.324463%, 95.413208%)" offset="0.339844"/><stop stop-opacity="1" stop-color="rgb(21.470642%, 76.092529%, 95.361328%)" offset="0.34375"/><stop stop-opacity="1" stop-color="rgb(21.708679%, 75.860596%, 95.309448%)" offset="0.347656"/><stop stop-opacity="1" stop-color="rgb(21.948242%, 75.630188%, 95.257568%)" offset="0.351562"/><stop stop-opacity="1" stop-color="rgb(22.187805%, 75.398254%, 95.205688%)" offset="0.355469"/><stop stop-opacity="1" stop-color="rgb(22.427368%, 75.166321%, 95.155334%)" offset="0.359375"/><stop stop-opacity="1" stop-color="rgb(22.665405%, 74.934387%, 95.103455%)" offset="0.363281"/><stop stop-opacity="1" stop-color="rgb(22.904968%, 74.703979%, 95.051575%)" offset="0.367188"/><stop stop-opacity="1" stop-color="rgb(23.143005%, 74.472046%, 94.999695%)" offset="0.371094"/><stop stop-opacity="1" stop-color="rgb(23.382568%, 74.240112%, 94.947815%)" offset="0.375"/><stop stop-opacity="1" stop-color="rgb(23.620605%, 74.008179%, 94.895935%)" offset="0.378906"/><stop stop-opacity="1" stop-color="rgb(23.860168%, 73.777771%, 94.845581%)" offset="0.382812"/><stop stop-opacity="1" stop-color="rgb(24.099731%, 73.545837%, 94.793701%)" offset="0.386719"/><stop stop-opacity="1" stop-color="rgb(24.339294%, 73.313904%, 94.741821%)" offset="0.390625"/><stop stop-opacity="1" stop-color="rgb(24.577332%, 73.08197%, 94.689941%)" offset="0.394531"/><stop stop-opacity="1" stop-color="rgb(24.816895%, 72.851562%, 94.638062%)" offset="0.398438"/><stop stop-opacity="1" stop-color="rgb(25.054932%, 72.619629%, 94.586182%)" offset="0.402344"/><stop stop-opacity="1" stop-color="rgb(25.294495%, 72.387695%, 94.535828%)" offset="0.40625"/><stop stop-opacity="1" stop-color="rgb(25.532532%, 72.155762%, 94.483948%)" offset="0.410156"/><stop stop-opacity="1" stop-color="rgb(25.772095%, 71.925354%, 94.432068%)" offset="0.414062"/><stop stop-opacity="1" stop-color="rgb(26.011658%, 71.69342%, 94.380188%)" offset="0.417969"/><stop stop-opacity="1" stop-color="rgb(26.251221%, 71.461487%, 94.328308%)" offset="0.421875"/><stop stop-opacity="1" stop-color="rgb(26.489258%, 71.229553%, 94.276428%)" offset="0.425781"/><stop stop-opacity="1" stop-color="rgb(26.728821%, 70.999146%, 94.226074%)" offset="0.429687"/><stop stop-opacity="1" stop-color="rgb(26.966858%, 70.767212%, 94.174194%)" offset="0.433594"/><stop stop-opacity="1" stop-color="rgb(27.206421%, 70.535278%, 94.122314%)" offset="0.4375"/><stop stop-opacity="1" stop-color="rgb(27.444458%, 70.303345%, 94.070435%)" offset="0.441406"/><stop stop-opacity="1" stop-color="rgb(27.684021%, 70.071411%, 94.018555%)" offset="0.445312"/><stop stop-opacity="1" stop-color="rgb(27.923584%, 69.839478%, 93.966675%)" offset="0.449219"/><stop stop-opacity="1" stop-color="rgb(28.163147%, 69.60907%, 93.916321%)" offset="0.453125"/><stop stop-opacity="1" stop-color="rgb(28.401184%, 69.377136%, 93.864441%)" offset="0.457031"/><stop stop-opacity="1" stop-color="rgb(28.640747%, 69.145203%, 93.812561%)" offset="0.460937"/><stop stop-opacity="1" stop-color="rgb(28.878784%, 68.913269%, 93.760681%)" offset="0.464844"/><stop stop-opacity="1" stop-color="rgb(29.118347%, 68.682861%, 93.708801%)" offset="0.46875"/><stop stop-opacity="1" stop-color="rgb(29.356384%, 68.450928%, 93.656921%)" offset="0.472656"/><stop stop-opacity="1" stop-color="rgb(29.595947%, 68.218994%, 93.606567%)" offset="0.476563"/><stop stop-opacity="1" stop-color="rgb(29.83551%, 67.987061%, 93.554688%)" offset="0.480469"/><stop stop-opacity="1" stop-color="rgb(30.075073%, 67.756653%, 93.502808%)" offset="0.484375"/><stop stop-opacity="1" stop-color="rgb(30.31311%, 67.524719%, 93.450928%)" offset="0.488281"/><stop stop-opacity="1" stop-color="rgb(30.552673%, 67.292786%, 93.399048%)" offset="0.492188"/><stop stop-opacity="1" stop-color="rgb(30.79071%, 67.060852%, 93.347168%)" offset="0.496094"/><stop stop-opacity="1" stop-color="rgb(31.030273%, 66.830444%, 93.296814%)" offset="0.5"/><stop stop-opacity="1" stop-color="rgb(31.268311%, 66.598511%, 93.244934%)" offset="0.503906"/><stop stop-opacity="1" stop-color="rgb(31.507874%, 66.366577%, 93.193054%)" offset="0.507812"/><stop stop-opacity="1" stop-color="rgb(31.747437%, 66.134644%, 93.141174%)" offset="0.511719"/><stop stop-opacity="1" stop-color="rgb(31.987%, 65.904236%, 93.089294%)" offset="0.515625"/><stop stop-opacity="1" stop-color="rgb(32.225037%, 65.672302%, 93.037415%)" offset="0.519531"/><stop stop-opacity="1" stop-color="rgb(32.4646%, 65.440369%, 92.987061%)" offset="0.523438"/><stop stop-opacity="1" stop-color="rgb(32.702637%, 65.208435%, 92.935181%)" offset="0.527344"/><stop stop-opacity="1" stop-color="rgb(32.9422%, 64.978027%, 92.883301%)" offset="0.53125"/><stop stop-opacity="1" stop-color="rgb(33.180237%, 64.746094%, 92.831421%)" offset="0.535156"/><stop stop-opacity="1" stop-color="rgb(33.4198%, 64.51416%, 92.779541%)" offset="0.539063"/><stop stop-opacity="1" stop-color="rgb(33.659363%, 64.282227%, 92.727661%)" offset="0.542969"/><stop stop-opacity="1" stop-color="rgb(33.898926%, 64.051819%, 92.677307%)" offset="0.546875"/><stop stop-opacity="1" stop-color="rgb(34.136963%, 63.819885%, 92.625427%)" offset="0.550781"/><stop stop-opacity="1" stop-color="rgb(34.376526%, 63.587952%, 92.573547%)" offset="0.554688"/><stop stop-opacity="1" stop-color="rgb(34.614563%, 63.356018%, 92.521667%)" offset="0.558594"/><stop stop-opacity="1" stop-color="rgb(34.854126%, 63.124084%, 92.471313%)" offset="0.5625"/><stop stop-opacity="1" stop-color="rgb(35.092163%, 62.892151%, 92.419434%)" offset="0.566406"/><stop stop-opacity="1" stop-color="rgb(35.331726%, 62.661743%, 92.367554%)" offset="0.570312"/><stop stop-opacity="1" stop-color="rgb(35.571289%, 62.42981%, 92.315674%)" offset="0.574219"/><stop stop-opacity="1" stop-color="rgb(35.810852%, 62.197876%, 92.263794%)" offset="0.578125"/><stop stop-opacity="1" stop-color="rgb(36.048889%, 61.965942%, 92.211914%)" offset="0.582031"/><stop stop-opacity="1" stop-color="rgb(36.288452%, 61.735535%, 92.16156%)" offset="0.585938"/><stop stop-opacity="1" stop-color="rgb(36.526489%, 61.503601%, 92.10968%)" offset="0.589844"/><stop stop-opacity="1" stop-color="rgb(36.766052%, 61.271667%, 92.0578%)" offset="0.59375"/><stop stop-opacity="1" stop-color="rgb(37.004089%, 61.039734%, 92.00592%)" offset="0.597656"/><stop stop-opacity="1" stop-color="rgb(37.243652%, 60.809326%, 91.954041%)" offset="0.601562"/><stop stop-opacity="1" stop-color="rgb(37.483215%, 60.577393%, 91.902161%)" offset="0.605469"/><stop stop-opacity="1" stop-color="rgb(37.722778%, 60.345459%, 91.851807%)" offset="0.609375"/><stop stop-opacity="1" stop-color="rgb(37.960815%, 60.113525%, 91.799927%)" offset="0.613281"/><stop stop-opacity="1" stop-color="rgb(38.200378%, 59.883118%, 91.748047%)" offset="0.617187"/><stop stop-opacity="1" stop-color="rgb(38.438416%, 59.651184%, 91.696167%)" offset="0.621094"/><stop stop-opacity="1" stop-color="rgb(38.677979%, 59.41925%, 91.644287%)" offset="0.625"/><stop stop-opacity="1" stop-color="rgb(38.916016%, 59.187317%, 91.592407%)" offset="0.628906"/><stop stop-opacity="1" stop-color="rgb(39.155579%, 58.956909%, 91.542053%)" offset="0.632813"/><stop stop-opacity="1" stop-color="rgb(39.393616%, 58.724976%, 91.490173%)" offset="0.636719"/><stop stop-opacity="1" stop-color="rgb(39.633179%, 58.493042%, 91.438293%)" offset="0.640625"/><stop stop-opacity="1" stop-color="rgb(39.872742%, 58.261108%, 91.386414%)" offset="0.644531"/><stop stop-opacity="1" stop-color="rgb(40.112305%, 58.030701%, 91.334534%)" offset="0.648438"/><stop stop-opacity="1" stop-color="rgb(40.350342%, 57.798767%, 91.282654%)" offset="0.652344"/><stop stop-opacity="1" stop-color="rgb(40.589905%, 57.566833%, 91.2323%)" offset="0.65625"/><stop stop-opacity="1" stop-color="rgb(40.827942%, 57.3349%, 91.18042%)" offset="0.660156"/><stop stop-opacity="1" stop-color="rgb(41.067505%, 57.104492%, 91.12854%)" offset="0.664062"/><stop stop-opacity="1" stop-color="rgb(41.305542%, 56.872559%, 91.07666%)" offset="0.667969"/><stop stop-opacity="1" stop-color="rgb(41.545105%, 56.640625%, 91.02478%)" offset="0.671875"/><stop stop-opacity="1" stop-color="rgb(41.784668%, 56.408691%, 90.9729%)" offset="0.675781"/><stop stop-opacity="1" stop-color="rgb(42.024231%, 56.176758%, 90.922546%)" offset="0.679688"/><stop stop-opacity="1" stop-color="rgb(42.262268%, 55.944824%, 90.870667%)" offset="0.683594"/><stop stop-opacity="1" stop-color="rgb(42.501831%, 55.714417%, 90.818787%)" offset="0.6875"/><stop stop-opacity="1" stop-color="rgb(42.739868%, 55.482483%, 90.766907%)" offset="0.691406"/><stop stop-opacity="1" stop-color="rgb(42.979431%, 55.250549%, 90.715027%)" offset="0.695312"/><stop stop-opacity="1" stop-color="rgb(43.217468%, 55.018616%, 90.663147%)" offset="0.699219"/><stop stop-opacity="1" stop-color="rgb(43.457031%, 54.788208%, 90.612793%)" offset="0.703125"/><stop stop-opacity="1" stop-color="rgb(43.696594%, 54.556274%, 90.560913%)" offset="0.707031"/><stop stop-opacity="1" stop-color="rgb(43.936157%, 54.324341%, 90.509033%)" offset="0.710937"/><stop stop-opacity="1" stop-color="rgb(44.174194%, 54.092407%, 90.457153%)" offset="0.714844"/><stop stop-opacity="1" stop-color="rgb(44.413757%, 53.862%, 90.405273%)" offset="0.71875"/><stop stop-opacity="1" stop-color="rgb(44.651794%, 53.630066%, 90.353394%)" offset="0.722656"/><stop stop-opacity="1" stop-color="rgb(44.891357%, 53.398132%, 90.30304%)" offset="0.726562"/><stop stop-opacity="1" stop-color="rgb(45.129395%, 53.166199%, 90.25116%)" offset="0.730469"/><stop stop-opacity="1" stop-color="rgb(45.368958%, 52.935791%, 90.19928%)" offset="0.734375"/><stop stop-opacity="1" stop-color="rgb(45.608521%, 52.703857%, 90.1474%)" offset="0.738281"/><stop stop-opacity="1" stop-color="rgb(45.848083%, 52.471924%, 90.09552%)" offset="0.742188"/><stop stop-opacity="1" stop-color="rgb(46.086121%, 52.23999%, 90.04364%)" offset="0.746094"/><stop stop-opacity="1" stop-color="rgb(46.325684%, 52.009583%, 89.993286%)" offset="0.75"/><stop stop-opacity="1" stop-color="rgb(46.563721%, 51.777649%, 89.941406%)" offset="0.753906"/><stop stop-opacity="1" stop-color="rgb(46.803284%, 51.545715%, 89.889526%)" offset="0.757812"/><stop stop-opacity="1" stop-color="rgb(47.041321%, 51.313782%, 89.837646%)" offset="0.761719"/><stop stop-opacity="1" stop-color="rgb(47.280884%, 51.083374%, 89.785767%)" offset="0.765625"/><stop stop-opacity="1" stop-color="rgb(47.520447%, 50.85144%, 89.733887%)" offset="0.769531"/><stop stop-opacity="1" stop-color="rgb(47.76001%, 50.619507%, 89.683533%)" offset="0.773438"/><stop stop-opacity="1" stop-color="rgb(47.998047%, 50.387573%, 89.631653%)" offset="0.777344"/><stop stop-opacity="1" stop-color="rgb(48.23761%, 50.15564%, 89.579773%)" offset="0.78125"/><stop stop-opacity="1" stop-color="rgb(48.475647%, 49.923706%, 89.527893%)" offset="0.785156"/><stop stop-opacity="1" stop-color="rgb(48.71521%, 49.693298%, 89.476013%)" offset="0.789063"/><stop stop-opacity="1" stop-color="rgb(48.953247%, 49.461365%, 89.424133%)" offset="0.792969"/><stop stop-opacity="1" stop-color="rgb(49.19281%, 49.229431%, 89.373779%)" offset="0.796875"/><stop stop-opacity="1" stop-color="rgb(49.432373%, 48.997498%, 89.321899%)" offset="0.800781"/><stop stop-opacity="1" stop-color="rgb(49.671936%, 48.76709%, 89.27002%)" offset="0.804688"/><stop stop-opacity="1" stop-color="rgb(49.909973%, 48.535156%, 89.21814%)" offset="0.808594"/><stop stop-opacity="1" stop-color="rgb(50.149536%, 48.303223%, 89.16626%)" offset="0.8125"/><stop stop-opacity="1" stop-color="rgb(50.387573%, 48.071289%, 89.11438%)" offset="0.816406"/><stop stop-opacity="1" stop-color="rgb(50.627136%, 47.840881%, 89.064026%)" offset="0.820312"/><stop stop-opacity="1" stop-color="rgb(50.865173%, 47.608948%, 89.012146%)" offset="0.824219"/><stop stop-opacity="1" stop-color="rgb(51.104736%, 47.377014%, 88.960266%)" offset="0.828125"/><stop stop-opacity="1" stop-color="rgb(51.344299%, 47.145081%, 88.908386%)" offset="0.832031"/><stop stop-opacity="1" stop-color="rgb(51.583862%, 46.914673%, 88.856506%)" offset="0.835938"/><stop stop-opacity="1" stop-color="rgb(51.821899%, 46.682739%, 88.804626%)" offset="0.839844"/><stop stop-opacity="1" stop-color="rgb(52.061462%, 46.450806%, 88.754272%)" offset="0.84375"/><stop stop-opacity="1" stop-color="rgb(52.2995%, 46.218872%, 88.702393%)" offset="0.847656"/><stop stop-opacity="1" stop-color="rgb(52.539062%, 45.988464%, 88.650513%)" offset="0.851562"/><stop stop-opacity="1" stop-color="rgb(52.7771%, 45.756531%, 88.598633%)" offset="0.855469"/><stop stop-opacity="1" stop-color="rgb(53.016663%, 45.524597%, 88.546753%)" offset="0.859375"/><stop stop-opacity="1" stop-color="rgb(53.256226%, 45.292664%, 88.494873%)" offset="0.863281"/><stop stop-opacity="1" stop-color="rgb(53.495789%, 45.062256%, 88.444519%)" offset="0.867187"/><stop stop-opacity="1" stop-color="rgb(53.733826%, 44.830322%, 88.392639%)" offset="0.871094"/><stop stop-opacity="1" stop-color="rgb(53.973389%, 44.598389%, 88.340759%)" offset="0.875"/><stop stop-opacity="1" stop-color="rgb(54.211426%, 44.366455%, 88.288879%)" offset="0.878906"/><stop stop-opacity="1" stop-color="rgb(54.450989%, 44.136047%, 88.237%)" offset="0.882812"/><stop stop-opacity="1" stop-color="rgb(54.689026%, 43.904114%, 88.18512%)" offset="0.886719"/><stop stop-opacity="1" stop-color="rgb(54.928589%, 43.67218%, 88.134766%)" offset="0.890625"/><stop stop-opacity="1" stop-color="rgb(55.168152%, 43.440247%, 88.082886%)" offset="0.894531"/><stop stop-opacity="1" stop-color="rgb(55.407715%, 43.208313%, 88.031006%)" offset="0.898437"/><stop stop-opacity="1" stop-color="rgb(55.645752%, 42.976379%, 87.979126%)" offset="0.902344"/><stop stop-opacity="1" stop-color="rgb(55.885315%, 42.745972%, 87.927246%)" offset="0.90625"/><stop stop-opacity="1" stop-color="rgb(56.123352%, 42.514038%, 87.875366%)" offset="0.910156"/><stop stop-opacity="1" stop-color="rgb(56.362915%, 42.282104%, 87.825012%)" offset="0.914062"/><stop stop-opacity="1" stop-color="rgb(56.600952%, 42.050171%, 87.773132%)" offset="0.917969"/><stop stop-opacity="1" stop-color="rgb(56.840515%, 41.819763%, 87.721252%)" offset="0.921875"/><stop stop-opacity="1" stop-color="rgb(57.080078%, 41.58783%, 87.669373%)" offset="0.925781"/><stop stop-opacity="1" stop-color="rgb(57.319641%, 41.355896%, 87.617493%)" offset="0.929688"/><stop stop-opacity="1" stop-color="rgb(57.557678%, 41.123962%, 87.565613%)" offset="0.933594"/><stop stop-opacity="1" stop-color="rgb(57.797241%, 40.893555%, 87.515259%)" offset="0.9375"/><stop stop-opacity="1" stop-color="rgb(58.035278%, 40.661621%, 87.463379%)" offset="0.941406"/><stop stop-opacity="1" stop-color="rgb(58.274841%, 40.429688%, 87.411499%)" offset="0.945312"/><stop stop-opacity="1" stop-color="rgb(58.512878%, 40.197754%, 87.359619%)" offset="0.949219"/><stop stop-opacity="1" stop-color="rgb(58.752441%, 39.967346%, 87.307739%)" offset="0.953125"/><stop stop-opacity="1" stop-color="rgb(58.992004%, 39.735413%, 87.255859%)" offset="0.957031"/><stop stop-opacity="1" stop-color="rgb(59.231567%, 39.503479%, 87.205505%)" offset="0.960938"/><stop stop-opacity="1" stop-color="rgb(59.469604%, 39.271545%, 87.153625%)" offset="0.964844"/><stop stop-opacity="1" stop-color="rgb(59.709167%, 39.041138%, 87.101746%)" offset="0.96875"/><stop stop-opacity="1" stop-color="rgb(59.947205%, 38.809204%, 87.049866%)" offset="0.972656"/><stop stop-opacity="1" stop-color="rgb(60.186768%, 38.577271%, 86.997986%)" offset="0.976562"/><stop stop-opacity="1" stop-color="rgb(60.424805%, 38.345337%, 86.946106%)" offset="0.980469"/><stop stop-opacity="1" stop-color="rgb(60.664368%, 38.114929%, 86.895752%)" offset="0.984375"/><stop stop-opacity="1" stop-color="rgb(60.903931%, 37.882996%, 86.843872%)" offset="0.988281"/><stop stop-opacity="1" stop-color="rgb(61.143494%, 37.651062%, 86.791992%)" offset="0.992188"/><stop stop-opacity="1" stop-color="rgb(61.381531%, 37.419128%, 86.740112%)" offset="0.996094"/><stop stop-opacity="1" stop-color="rgb(61.621094%, 37.188721%, 86.688232%)" offset="1"/></linearGradient><mask id="f371d1efae"><g filter="url(#c131ce47b5)"><rect x="-144" width="1728" fill="#000000" y="-80.999999" height="971.999992" fill-opacity="0.37"/></g></mask><clipPath id="754089449c"><path d="M 33 31 L 560 31 L 560 511 L 33 511 Z M 33 31 " clip-rule="nonzero"/></clipPath><clipPath id="b5605f522b"><path d="M 0.578125 268.441406 L 410.945312 1.128906 L 589.425781 275.125 L 179.058594 542.4375 Z M 0.578125 268.441406 " clip-rule="nonzero"/></clipPath><clipPath id="da556c3833"><path d="M 0.578125 268.441406 L 410.945312 1.128906 L 589.425781 275.125 L 179.058594 542.4375 Z M 0.578125 268.441406 " clip-rule="nonzero"/></clipPath><clipPath id="81f62ae2eb"><path d="M 64 96 L 471 96 L 471 359 L 64 359 Z M 64 96 " clip-rule="nonzero"/></clipPath><clipPath id="fecd01ab10"><path d="M 0.578125 268.441406 L 410.945312 1.128906 L 589.425781 275.125 L 179.058594 542.4375 Z M 0.578125 268.441406 " clip-rule="nonzero"/></clipPath><clipPath id="16879ac400"><path d="M 0.578125 268.441406 L 410.945312 1.128906 L 589.425781 275.125 L 179.058594 542.4375 Z M 0.578125 268.441406 " clip-rule="nonzero"/></clipPath><clipPath id="6f645934e7"><path d="M 116 373 L 233 373 L 233 447 L 116 447 Z M 116 373 " clip-rule="nonzero"/></clipPath><clipPath id="0d44b413e0"><path d="M 0.578125 268.441406 L 410.945312 1.128906 L 589.425781 275.125 L 179.058594 542.4375 Z M 0.578125 268.441406 " clip-rule="nonzero"/></clipPath><clipPath id="21ed99682b"><path d="M 0.578125 268.441406 L 410.945312 1.128906 L 589.425781 275.125 L 179.058594 542.4375 Z M 0.578125 268.441406 " clip-rule="nonzero"/></clipPath><clipPath id="6194f86d89"><path d="M 177 288 L 234 288 L 234 373 L 177 373 Z M 177 288 " clip-rule="nonzero"/></clipPath><clipPath id="0c012b17df"><path d="M 0.578125 268.441406 L 410.945312 1.128906 L 589.425781 275.125 L 179.058594 542.4375 Z M 0.578125 268.441406 " clip-rule="nonzero"/></clipPath><clipPath id="c83587d676"><path d="M 0.578125 268.441406 L 410.945312 1.128906 L 589.425781 275.125 L 179.058594 542.4375 Z M 0.578125 268.441406 " clip-rule="nonzero"/></clipPath><clipPath id="3517068c3f"><path d="M 232 374 L 374 374 L 374 413 L 232 413 Z M 232 374 " clip-rule="nonzero"/></clipPath><clipPath id="d34e221555"><path d="M 0.578125 268.441406 L 410.945312 1.128906 L 589.425781 275.125 L 179.058594 542.4375 Z M 0.578125 268.441406 " clip-rule="nonzero"/></clipPath><clipPath id="1fa2620912"><path d="M 0.578125 268.441406 L 410.945312 1.128906 L 589.425781 275.125 L 179.058594 542.4375 Z M 0.578125 268.441406 " clip-rule="nonzero"/></clipPath><clipPath id="e9583cbf48"><path d="M 412 178 L 526 178 L 526 257 L 412 257 Z M 412 178 " clip-rule="nonzero"/></clipPath><clipPath id="f296a89c97"><path d="M 0.578125 268.441406 L 410.945312 1.128906 L 589.425781 275.125 L 179.058594 542.4375 Z M 0.578125 268.441406 " clip-rule="nonzero"/></clipPath><clipPath id="67cebf227e"><path d="M 0.578125 268.441406 L 410.945312 1.128906 L 589.425781 275.125 L 179.058594 542.4375 Z M 0.578125 268.441406 " clip-rule="nonzero"/></clipPath><clipPath id="4669dd965c"><path d="M 356 171 L 413 171 L 413 256 L 356 256 Z M 356 171 " clip-rule="nonzero"/></clipPath><clipPath id="f381700928"><path d="M 0.578125 268.441406 L 410.945312 1.128906 L 589.425781 275.125 L 179.058594 542.4375 Z M 0.578125 268.441406 " clip-rule="nonzero"/></clipPath><clipPath id="4d3fa00742"><path d="M 0.578125 268.441406 L 410.945312 1.128906 L 589.425781 275.125 L 179.058594 542.4375 Z M 0.578125 268.441406 " clip-rule="nonzero"/></clipPath><clipPath id="d08f7ee2e3"><path d="M 386 257 L 416 257 L 416 400 L 386 400 Z M 386 257 " clip-rule="nonzero"/></clipPath><clipPath id="539528210b"><path d="M 0.578125 268.441406 L 410.945312 1.128906 L 589.425781 275.125 L 179.058594 542.4375 Z M 0.578125 268.441406 " clip-rule="nonzero"/></clipPath><clipPath id="d283933645"><path d="M 0.578125 268.441406 L 410.945312 1.128906 L 589.425781 275.125 L 179.058594 542.4375 Z M 0.578125 268.441406 " clip-rule="nonzero"/></clipPath><clipPath id="ef13dc902a"><path d="M 118 195 L 244 195 L 244 243 L 118 243 Z M 118 195 " clip-rule="nonzero"/></clipPath><clipPath id="3e451c650f"><path d="M 0.578125 268.441406 L 410.945312 1.128906 L 589.425781 275.125 L 179.058594 542.4375 Z M 0.578125 268.441406 " clip-rule="nonzero"/></clipPath><clipPath id="6a2e6864b3"><path d="M 0.578125 268.441406 L 410.945312 1.128906 L 589.425781 275.125 L 179.058594 542.4375 Z M 0.578125 268.441406 " clip-rule="nonzero"/></clipPath><clipPath id="6d45495476"><path d="M 358 152 L 360 152 L 360 154 L 358 154 Z M 358 152 " clip-rule="nonzero"/></clipPath><clipPath id="56f93b3636"><path d="M 0.578125 268.441406 L 410.945312 1.128906 L 589.425781 275.125 L 179.058594 542.4375 Z M 0.578125 268.441406 " clip-rule="nonzero"/></clipPath><clipPath id="f34df119c9"><path d="M 0.578125 268.441406 L 410.945312 1.128906 L 589.425781 275.125 L 179.058594 542.4375 Z M 0.578125 268.441406 " clip-rule="nonzero"/></clipPath><clipPath id="8416d30f9c"><path d="M 340 105 L 353 105 L 353 175 L 340 175 Z M 340 105 " clip-rule="nonzero"/></clipPath><clipPath id="dd3e711bfd"><path d="M 0.578125 268.441406 L 410.945312 1.128906 L 589.425781 275.125 L 179.058594 542.4375 Z M 0.578125 268.441406 " clip-rule="nonzero"/></clipPath><clipPath id="d714fd4fae"><path d="M 0.578125 268.441406 L 410.945312 1.128906 L 589.425781 275.125 L 179.058594 542.4375 Z M 0.578125 268.441406 " clip-rule="nonzero"/></clipPath><clipPath id="acb99ce30f"><rect x="0" width="590" y="0" height="544"/></clipPath><clipPath id="99557a1bdd"><path d="M 179 252 L 312.882812 252 L 312.882812 523 L 179 523 Z M 179 252 " clip-rule="nonzero"/></clipPath><clipPath id="2906d4a90f"><path d="M 276.828125 252 L 338 252 L 338 379.96875 L 276.828125 379.96875 Z M 276.828125 252 " clip-rule="nonzero"/></clipPath><clipPath id="9341af8eb3"><path d="M 276.828125 252 L 340.578125 252 L 340.578125 379.96875 L 276.828125 379.96875 Z M 276.828125 252 " clip-rule="nonzero"/></clipPath><clipPath id="e8cfa71d9f"><path d="M 463 252 L 489.289062 252 L 489.289062 523 L 463 523 Z M 463 252 " clip-rule="nonzero"/></clipPath><clipPath id="5f4da1d1dd"><path d="M 346.789062 252 L 489.289062 252 L 489.289062 523 L 346.789062 523 Z M 346.789062 252 " clip-rule="nonzero"/></clipPath><clipPath id="66946d1730"><path d="M 315.039062 395.246094 L 339 395.246094 L 339 523 L 315.039062 523 Z M 315.039062 395.246094 " clip-rule="nonzero"/></clipPath><clipPath id="8b4c67afa9"><path d="M 315.039062 395.246094 L 378.789062 395.246094 L 378.789062 523 L 315.039062 523 Z M 315.039062 395.246094 " clip-rule="nonzero"/></clipPath><clipPath id="16e535f0ff"><path d="M 488.96875 252 L 623 252 L 623 523 L 488.96875 523 Z M 488.96875 252 " clip-rule="nonzero"/></clipPath><clipPath id="a018f0fdb0"><path d="M 488.96875 252 L 694 252 L 694 523 L 488.96875 523 Z M 488.96875 252 " clip-rule="nonzero"/></clipPath><clipPath id="6c637d8e50"><path d="M 463 408.6875 L 603.960938 408.6875 L 603.960938 523 L 463 523 Z M 463 408.6875 " clip-rule="nonzero"/></clipPath><clipPath id="2666a95bdf"><path d="M 459.960938 408.6875 L 603.960938 408.6875 L 603.960938 523 L 459.960938 523 Z M 459.960938 408.6875 " clip-rule="nonzero"/></clipPath></defs><g clip-path="url(#8ea88568bf)"><g clip-path="url(#ff29ca2840)"><path fill="url(#5dad2833ec)" d="M 699.039062 263.652344 L 699.039062 557.496094 L 1243.539062 557.496094 L 1243.539062 263.652344 Z M 699.039062 263.652344 " fill-rule="nonzero"/></g></g><g mask="url(#f371d1efae)"><g transform="matrix(1, 0, 0, 1, 666, 133)"><g clip-path="url(#acb99ce30f)"><g clip-path="url(#754089449c)"><g clip-path="url(#b5605f522b)"><g clip-path="url(#da556c3833)"><path fill="#c6dadd" d="M 69.324219 224.054688 L 345.257812 44.3125 C 346.332031 43.613281 347.421875 42.9375 348.527344 42.292969 C 349.632812 41.648438 350.753906 41.03125 351.890625 40.441406 C 353.027344 39.851562 354.175781 39.289062 355.339844 38.753906 C 356.503906 38.21875 357.679688 37.714844 358.871094 37.238281 C 360.058594 36.761719 361.257812 36.316406 362.46875 35.898438 C 363.679688 35.480469 364.898438 35.09375 366.128906 34.734375 C 367.359375 34.378906 368.597656 34.050781 369.84375 33.753906 C 371.089844 33.457031 372.339844 33.191406 373.597656 32.957031 C 374.859375 32.722656 376.121094 32.519531 377.390625 32.34375 C 378.660156 32.171875 379.933594 32.03125 381.207031 31.917969 C 382.484375 31.808594 383.761719 31.730469 385.042969 31.683594 C 386.320312 31.632812 387.601562 31.617188 388.882812 31.632812 C 390.160156 31.648438 391.441406 31.695312 392.71875 31.773438 C 393.996094 31.847656 395.273438 31.957031 396.546875 32.097656 C 397.820312 32.238281 399.085938 32.410156 400.351562 32.613281 C 401.617188 32.816406 402.875 33.050781 404.128906 33.316406 C 405.382812 33.578125 406.628906 33.875 407.867188 34.199219 C 409.105469 34.523438 410.332031 34.882812 411.554688 35.265625 C 412.777344 35.652344 413.988281 36.070312 415.1875 36.515625 C 416.386719 36.960938 417.578125 37.433594 418.753906 37.9375 C 419.929688 38.441406 421.09375 38.976562 422.246094 39.535156 C 423.398438 40.097656 424.535156 40.6875 425.65625 41.300781 C 426.777344 41.917969 427.886719 42.5625 428.976562 43.234375 C 430.066406 43.90625 431.140625 44.601562 432.195312 45.328125 C 433.253906 46.050781 434.289062 46.800781 435.3125 47.574219 C 436.332031 48.351562 437.332031 49.148438 438.3125 49.972656 C 439.289062 50.796875 440.25 51.644531 441.1875 52.515625 C 442.128906 53.386719 443.042969 54.28125 443.941406 55.195312 C 444.835938 56.113281 445.707031 57.050781 446.554688 58.007812 C 447.402344 58.96875 448.230469 59.945312 449.03125 60.945312 C 449.832031 61.945312 450.605469 62.964844 451.355469 64 C 452.109375 65.039062 452.832031 66.09375 453.53125 67.167969 L 546.359375 209.675781 C 547.058594 210.746094 547.730469 211.835938 548.375 212.941406 C 549.023438 214.050781 549.640625 215.171875 550.230469 216.304688 C 550.820312 217.441406 551.382812 218.59375 551.917969 219.757812 C 552.449219 220.921875 552.957031 222.097656 553.433594 223.285156 C 553.910156 224.476562 554.355469 225.675781 554.773438 226.886719 C 555.191406 228.097656 555.578125 229.316406 555.933594 230.546875 C 556.292969 231.777344 556.617188 233.011719 556.914062 234.257812 C 557.210938 235.503906 557.476562 236.757812 557.714844 238.015625 C 557.949219 239.273438 558.152344 240.539062 558.324219 241.808594 C 558.5 243.078125 558.640625 244.347656 558.75 245.625 C 558.863281 246.898438 558.941406 248.179688 558.988281 249.457031 C 559.035156 250.738281 559.054688 252.015625 559.039062 253.296875 C 559.023438 254.578125 558.976562 255.859375 558.898438 257.136719 C 558.820312 258.414062 558.710938 259.691406 558.570312 260.960938 C 558.429688 262.234375 558.261719 263.503906 558.058594 264.769531 C 557.855469 266.035156 557.621094 267.292969 557.355469 268.542969 C 557.09375 269.796875 556.796875 271.042969 556.472656 272.28125 C 556.144531 273.519531 555.789062 274.75 555.402344 275.972656 C 555.015625 277.191406 554.601562 278.402344 554.15625 279.605469 C 553.710938 280.804688 553.234375 281.992188 552.730469 283.171875 C 552.226562 284.347656 551.695312 285.511719 551.136719 286.664062 C 550.574219 287.816406 549.984375 288.953125 549.367188 290.074219 C 548.75 291.195312 548.105469 292.300781 547.4375 293.394531 C 546.765625 294.484375 546.066406 295.558594 545.34375 296.613281 C 544.621094 297.667969 543.871094 298.707031 543.09375 299.726562 C 542.320312 300.746094 541.519531 301.746094 540.699219 302.726562 C 539.875 303.707031 539.027344 304.667969 538.15625 305.605469 C 537.285156 306.542969 536.390625 307.460938 535.472656 308.355469 C 534.558594 309.25 533.621094 310.121094 532.664062 310.972656 C 531.703125 311.820312 530.722656 312.644531 529.726562 313.445312 C 528.726562 314.246094 527.707031 315.023438 526.667969 315.773438 C 525.632812 316.523438 524.578125 317.25 523.503906 317.949219 L 247.570312 497.691406 C 246.496094 498.390625 245.40625 499.0625 244.300781 499.707031 C 243.195312 500.351562 242.074219 500.96875 240.9375 501.5625 C 239.800781 502.152344 238.652344 502.714844 237.488281 503.246094 C 236.324219 503.78125 235.148438 504.285156 233.957031 504.761719 C 232.769531 505.238281 231.570312 505.683594 230.359375 506.101562 C 229.148438 506.519531 227.929688 506.90625 226.699219 507.265625 C 225.46875 507.621094 224.230469 507.949219 222.984375 508.246094 C 221.738281 508.542969 220.488281 508.808594 219.226562 509.042969 C 217.96875 509.277344 216.707031 509.484375 215.4375 509.65625 C 214.167969 509.828125 212.894531 509.96875 211.621094 510.082031 C 210.34375 510.191406 209.066406 510.269531 207.785156 510.320312 C 206.507812 510.367188 205.226562 510.382812 203.945312 510.367188 C 202.664062 510.351562 201.386719 510.308594 200.109375 510.230469 C 198.828125 510.152344 197.554688 510.042969 196.28125 509.902344 C 195.007812 509.761719 193.738281 509.589844 192.476562 509.386719 C 191.210938 509.183594 189.953125 508.949219 188.699219 508.6875 C 187.445312 508.421875 186.199219 508.125 184.960938 507.800781 C 183.722656 507.476562 182.492188 507.121094 181.273438 506.734375 C 180.050781 506.347656 178.839844 505.933594 177.640625 505.484375 C 176.441406 505.039062 175.25 504.566406 174.074219 504.0625 C 172.894531 503.558594 171.730469 503.027344 170.582031 502.464844 C 169.429688 501.902344 168.292969 501.316406 167.171875 500.699219 C 166.046875 500.082031 164.941406 499.4375 163.851562 498.765625 C 162.761719 498.09375 161.6875 497.398438 160.632812 496.671875 C 159.574219 495.949219 158.535156 495.199219 157.515625 494.425781 C 156.496094 493.652344 155.496094 492.851562 154.515625 492.027344 C 153.535156 491.203125 152.578125 490.355469 151.636719 489.484375 C 150.699219 488.613281 149.78125 487.71875 148.886719 486.804688 C 147.992188 485.886719 147.121094 484.949219 146.273438 483.992188 C 145.425781 483.035156 144.597656 482.054688 143.796875 481.054688 C 142.996094 480.054688 142.222656 479.039062 141.472656 478 C 140.71875 476.960938 139.996094 475.90625 139.296875 474.835938 L 46.46875 332.328125 C 45.769531 331.253906 45.097656 330.164062 44.449219 329.058594 C 43.804688 327.953125 43.1875 326.832031 42.597656 325.695312 C 42.007812 324.558594 41.445312 323.40625 40.910156 322.242188 C 40.375 321.078125 39.871094 319.902344 39.394531 318.714844 C 38.917969 317.527344 38.472656 316.328125 38.054688 315.117188 C 37.636719 313.90625 37.25 312.683594 36.894531 311.453125 C 36.535156 310.226562 36.207031 308.988281 35.910156 307.742188 C 35.617188 306.496094 35.347656 305.242188 35.113281 303.984375 C 34.878906 302.726562 34.675781 301.460938 34.503906 300.191406 C 34.328125 298.925781 34.1875 297.652344 34.078125 296.375 C 33.964844 295.101562 33.886719 293.824219 33.839844 292.542969 C 33.789062 291.261719 33.773438 289.984375 33.789062 288.703125 C 33.804688 287.421875 33.851562 286.144531 33.929688 284.863281 C 34.007812 283.585938 34.117188 282.3125 34.257812 281.039062 C 34.394531 279.765625 34.566406 278.496094 34.769531 277.230469 C 34.972656 275.96875 35.207031 274.707031 35.472656 273.457031 C 35.734375 272.203125 36.03125 270.957031 36.355469 269.71875 C 36.683594 268.480469 37.039062 267.25 37.425781 266.03125 C 37.808594 264.808594 38.226562 263.597656 38.671875 262.398438 C 39.117188 261.195312 39.589844 260.007812 40.09375 258.832031 C 40.597656 257.652344 41.132812 256.488281 41.691406 255.335938 C 42.253906 254.1875 42.84375 253.050781 43.460938 251.925781 C 44.078125 250.804688 44.71875 249.699219 45.390625 248.609375 C 46.0625 247.515625 46.761719 246.445312 47.484375 245.386719 C 48.207031 244.332031 48.957031 243.292969 49.730469 242.273438 C 50.507812 241.253906 51.304688 240.253906 52.128906 239.273438 C 52.953125 238.292969 53.800781 237.332031 54.671875 236.394531 C 55.542969 235.457031 56.4375 234.539062 57.351562 233.644531 C 58.269531 232.75 59.207031 231.878906 60.164062 231.027344 C 61.125 230.179688 62.105469 229.355469 63.101562 228.554688 C 64.101562 227.753906 65.121094 226.976562 66.15625 226.226562 C 67.195312 225.476562 68.25 224.75 69.324219 224.054688 Z M 69.324219 224.054688 " fill-opacity="1" fill-rule="nonzero"/></g></g></g><g clip-path="url(#81f62ae2eb)"><g clip-path="url(#fecd01ab10)"><g clip-path="url(#16879ac400)"><path fill="#6c8dbc" d="M 66.3125 358.484375 C 93.675781 344.113281 119.429688 325.738281 145.429688 309.046875 C 171.425781 292.351562 197.742188 275.433594 223.875 258.578125 C 276.128906 224.875 328.4375 191.253906 380.792969 157.71875 C 410.453125 138.695312 440.125 119.695312 469.8125 100.71875 C 470.050781 100.535156 470.246094 100.3125 470.402344 100.054688 C 470.554688 99.796875 470.660156 99.519531 470.710938 99.222656 C 470.757812 98.925781 470.753906 98.628906 470.691406 98.332031 C 470.632812 98.039062 470.519531 97.765625 470.355469 97.511719 C 470.191406 97.257812 469.984375 97.046875 469.738281 96.871094 C 469.496094 96.695312 469.226562 96.570312 468.933594 96.496094 C 468.640625 96.421875 468.347656 96.402344 468.046875 96.441406 C 467.75 96.476562 467.46875 96.570312 467.203125 96.710938 C 362.714844 164.144531 257.941406 231.167969 153.238281 298.269531 C 138.414062 307.78125 123.617188 317.363281 108.828125 326.921875 C 94.035156 336.484375 78.785156 345.617188 64.917969 356.34375 C 64.777344 356.433594 64.65625 356.550781 64.5625 356.691406 C 64.464844 356.832031 64.398438 356.984375 64.367188 357.148438 C 64.332031 357.3125 64.328125 357.480469 64.359375 357.648438 C 64.390625 357.8125 64.453125 357.96875 64.542969 358.109375 C 64.636719 358.25 64.753906 358.371094 64.894531 358.464844 C 65.03125 358.5625 65.183594 358.625 65.351562 358.660156 C 65.515625 358.695312 65.683594 358.699219 65.847656 358.667969 C 66.015625 358.636719 66.167969 358.574219 66.3125 358.484375 Z M 66.3125 358.484375 " fill-opacity="1" fill-rule="nonzero"/></g></g></g><g clip-path="url(#6f645934e7)"><g clip-path="url(#0d44b413e0)"><g clip-path="url(#21ed99682b)"><path fill="#6c8dbc" d="M 117.875 446.285156 C 137.8125 435.378906 157.011719 423.117188 176.355469 411.183594 C 186.015625 405.210938 195.671875 399.21875 205.324219 393.207031 C 214.03125 387.773438 224.023438 382.882812 231.605469 375.957031 C 231.847656 375.664062 231.980469 375.328125 232.003906 374.953125 C 232.023438 374.574219 231.929688 374.226562 231.726562 373.910156 C 231.519531 373.589844 231.238281 373.367188 230.882812 373.234375 C 230.527344 373.101562 230.167969 373.085938 229.804688 373.1875 C 220.203125 376.878906 211.429688 383.78125 202.722656 389.214844 C 193.082031 395.222656 183.449219 401.25 173.820312 407.296875 C 154.601562 419.390625 135.140625 431.191406 116.574219 444.289062 C 116.441406 444.375 116.328125 444.488281 116.238281 444.617188 C 116.148438 444.75 116.085938 444.894531 116.054688 445.050781 C 116.019531 445.207031 116.019531 445.363281 116.046875 445.523438 C 116.078125 445.679688 116.136719 445.824219 116.222656 445.960938 C 116.308594 446.09375 116.417969 446.207031 116.550781 446.296875 C 116.683594 446.386719 116.828125 446.449219 116.984375 446.480469 C 117.140625 446.515625 117.296875 446.515625 117.457031 446.488281 C 117.613281 446.457031 117.757812 446.398438 117.890625 446.3125 Z M 117.875 446.285156 " fill-opacity="1" fill-rule="nonzero"/></g></g></g><g clip-path="url(#6194f86d89)"><g clip-path="url(#0c012b17df)"><g clip-path="url(#c83587d676)"><path fill="#6c8dbc" d="M 177.449219 290.214844 C 193.21875 317.851562 210.910156 344.722656 228.414062 371.308594 C 228.601562 371.601562 228.84375 371.84375 229.128906 372.042969 C 229.417969 372.238281 229.734375 372.375 230.074219 372.445312 C 230.414062 372.519531 230.757812 372.523438 231.101562 372.457031 C 231.445312 372.394531 231.761719 372.269531 232.054688 372.078125 C 232.347656 371.886719 232.589844 371.648438 232.789062 371.359375 C 232.984375 371.070312 233.121094 370.757812 233.191406 370.414062 C 233.265625 370.074219 233.269531 369.730469 233.203125 369.390625 C 233.140625 369.046875 233.011719 368.726562 232.824219 368.4375 C 215.679688 341.632812 198.355469 314.523438 179.535156 288.855469 C 179.332031 288.609375 179.074219 288.464844 178.761719 288.414062 C 178.449219 288.367188 178.160156 288.429688 177.894531 288.601562 C 177.628906 288.777344 177.453125 289.015625 177.371094 289.320312 C 177.289062 289.628906 177.316406 289.921875 177.460938 290.207031 Z M 177.449219 290.214844 " fill-opacity="1" fill-rule="nonzero"/></g></g></g><g clip-path="url(#3517068c3f)"><g clip-path="url(#d34e221555)"><g clip-path="url(#1fa2620912)"><path fill="#6c8dbc" d="M 233.332031 377.007812 C 243.601562 381.671875 255.089844 383.816406 265.980469 386.585938 C 277.324219 389.476562 288.679688 392.246094 300.046875 395.117188 C 323.246094 400.929688 346.46875 406.671875 369.714844 412.34375 C 373.632812 413.308594 374.867188 407.132812 371.003906 406.246094 C 347.753906 400.515625 324.519531 394.828125 301.296875 389.191406 C 289.914062 386.441406 278.523438 383.585938 267.160156 380.949219 C 256.199219 378.390625 245.113281 374.980469 233.882812 374.34375 C 232.457031 374.265625 232.097656 376.453125 233.324219 376.992188 Z M 233.332031 377.007812 " fill-opacity="1" fill-rule="nonzero"/></g></g></g><g clip-path="url(#e9583cbf48)"><g clip-path="url(#f296a89c97)"><g clip-path="url(#67cebf227e)"><path fill="#6c8dbc" d="M 524.066406 178.816406 C 504.582031 190.503906 485.910156 203.519531 467.089844 216.226562 C 457.675781 222.578125 448.269531 228.957031 438.871094 235.351562 C 430.382812 241.121094 420.523438 246.355469 413.265625 253.648438 C 413.023438 253.9375 412.894531 254.273438 412.871094 254.652344 C 412.847656 255.027344 412.941406 255.375 413.148438 255.691406 C 413.355469 256.011719 413.636719 256.234375 413.988281 256.367188 C 414.34375 256.5 414.703125 256.515625 415.066406 256.414062 C 424.511719 252.339844 432.992188 245.128906 441.46875 239.34375 C 450.863281 232.953125 460.246094 226.542969 469.625 220.113281 C 488.363281 207.253906 507.339844 194.652344 525.367188 180.8125 C 525.5 180.722656 525.613281 180.613281 525.703125 180.480469 C 525.792969 180.351562 525.855469 180.207031 525.886719 180.050781 C 525.921875 179.890625 525.921875 179.734375 525.894531 179.578125 C 525.863281 179.421875 525.804688 179.273438 525.71875 179.140625 C 525.632812 179.007812 525.519531 178.894531 525.390625 178.804688 C 525.257812 178.714844 525.113281 178.652344 524.957031 178.617188 C 524.800781 178.585938 524.644531 178.585938 524.484375 178.613281 C 524.328125 178.644531 524.183594 178.703125 524.046875 178.789062 Z M 524.066406 178.816406 " fill-opacity="1" fill-rule="nonzero"/></g></g></g><g clip-path="url(#4669dd965c)"><g clip-path="url(#f381700928)"><g clip-path="url(#4d3fa00742)"><path fill="#6c8dbc" d="M 356.410156 173.640625 C 372.28125 201.230469 390.003906 228.0625 407.664062 254.546875 C 407.851562 254.839844 408.09375 255.082031 408.378906 255.28125 C 408.667969 255.476562 408.984375 255.613281 409.324219 255.683594 C 409.664062 255.757812 410.007812 255.761719 410.351562 255.695312 C 410.695312 255.632812 411.011719 255.503906 411.304688 255.316406 C 411.597656 255.125 411.839844 254.886719 412.039062 254.597656 C 412.234375 254.308594 412.371094 253.996094 412.441406 253.652344 C 412.515625 253.3125 412.519531 252.96875 412.453125 252.625 C 412.390625 252.28125 412.261719 251.964844 412.074219 251.671875 C 394.832031 224.917969 377.410156 197.890625 358.496094 172.277344 C 358.296875 172.035156 358.039062 171.886719 357.726562 171.839844 C 357.410156 171.792969 357.121094 171.855469 356.855469 172.027344 C 356.589844 172.199219 356.417969 172.441406 356.335938 172.746094 C 356.25 173.050781 356.28125 173.347656 356.421875 173.628906 Z M 356.410156 173.640625 " fill-opacity="1" fill-rule="nonzero"/></g></g></g><g clip-path="url(#d08f7ee2e3)"><g clip-path="url(#539528210b)"><g clip-path="url(#d283933645)"><path fill="#6c8dbc" d="M 412.691406 257.867188 C 408.71875 268.410156 407.332031 279.941406 405.285156 290.976562 C 403.148438 302.476562 401.109375 314.011719 399.023438 325.53125 C 394.761719 349.074219 390.570312 372.625 386.453125 396.183594 C 385.753906 400.132812 391.859375 401.433594 392.550781 397.472656 C 396.703125 373.914062 400.839844 350.351562 404.949219 326.785156 C 406.933594 315.25 408.976562 303.71875 410.917969 292.179688 C 412.785156 281.09375 415.464844 269.71875 415.347656 258.441406 C 415.328125 257.097656 413.195312 256.535156 412.699219 257.882812 Z M 412.691406 257.867188 " fill-opacity="1" fill-rule="nonzero"/></g></g></g><g clip-path="url(#ef13dc902a)"><g clip-path="url(#3e451c650f)"><g clip-path="url(#6a2e6864b3)"><path fill="#6c8dbc" d="M 119.039062 198.320312 C 158.667969 214.339844 199.242188 228.183594 239.414062 242.808594 C 242.820312 244.042969 245.386719 238.914062 241.964844 237.707031 C 201.46875 223.332031 161.136719 208.085938 120.152344 195.125 C 118.328125 194.546875 117.257812 197.585938 119.042969 198.300781 Z M 119.039062 198.320312 " fill-opacity="1" fill-rule="nonzero"/></g></g></g><g clip-path="url(#6d45495476)"><g clip-path="url(#56f93b3636)"><g clip-path="url(#f34df119c9)"><path fill="#6c8dbc" d="M 358.941406 153.015625 C 359.046875 152.949219 359.113281 152.851562 359.140625 152.726562 C 359.164062 152.601562 359.144531 152.488281 359.074219 152.382812 C 359.003906 152.273438 358.910156 152.207031 358.785156 152.183594 C 358.660156 152.15625 358.546875 152.175781 358.4375 152.246094 C 358.332031 152.316406 358.265625 152.414062 358.242188 152.535156 C 358.214844 152.660156 358.234375 152.777344 358.304688 152.882812 C 358.375 152.988281 358.472656 153.054688 358.59375 153.082031 C 358.71875 153.105469 358.835938 153.085938 358.941406 153.015625 Z M 358.941406 153.015625 " fill-opacity="1" fill-rule="nonzero"/></g></g></g><g clip-path="url(#8416d30f9c)"><g clip-path="url(#dd3e711bfd)"><g clip-path="url(#d714fd4fae)"><path fill="#6c8dbc" d="M 352.230469 173.445312 C 351.359375 161.320312 350.34375 149.289062 348.898438 137.199219 C 347.769531 127.679688 348.570312 114.761719 343.914062 106.269531 C 343.15625 104.90625 341.253906 105.550781 340.929688 106.820312 C 339.632812 111.960938 341.109375 117.167969 341.78125 122.398438 C 342.601562 128.429688 343.429688 134.453125 344.261719 140.464844 C 345.804688 151.707031 347.75 162.742188 349.785156 173.882812 C 350.042969 175.277344 352.273438 174.847656 352.210938 173.4375 Z M 352.230469 173.445312 " fill-opacity="1" fill-rule="nonzero"/></g></g></g></g></g></g><g clip-path="url(#99557a1bdd)"><path fill="#13894b" d="M 309.917969 255.261719 C 332.425781 263.992188 343.675781 289.519531 334.777344 312.027344 L 263.730469 494.601562 C 254.996094 517.101562 229.464844 528.355469 206.960938 519.625 C 184.621094 510.890625 173.367188 485.359375 182.101562 462.851562 L 253.148438 280.113281 C 261.882812 257.777344 287.410156 246.523438 309.917969 255.261719 " fill-opacity="1" fill-rule="evenodd"/><path fill="#13894b" d="M 309.917969 255.261719 C 287.410156 246.523438 261.882812 257.777344 253.148438 280.113281 L 182.101562 462.851562 C 173.367188 485.359375 184.621094 510.890625 206.960938 519.625 C 229.464844 528.355469 254.996094 517.101562 263.730469 494.601562 L 334.777344 312.027344 C 343.675781 289.519531 332.425781 263.992188 309.917969 255.261719 Z M 561.347656 255.261719 C 538.847656 263.992188 527.59375 289.519531 536.324219 312.027344 L 607.371094 494.601562 C 616.273438 517.101562 641.800781 528.355469 664.144531 519.625 C 686.648438 510.890625 697.898438 485.359375 689.167969 462.851562 L 617.957031 280.113281 C 609.21875 257.777344 583.691406 246.523438 561.347656 255.261719 Z M 451.84375 255.261719 C 474.179688 263.992188 485.433594 289.519531 476.703125 312.027344 L 405.65625 494.601562 C 396.921875 517.101562 371.390625 528.355469 348.886719 519.625 C 326.378906 510.890625 315.125 485.359375 323.859375 462.851562 L 395.074219 280.113281 C 403.808594 257.777344 429.335938 246.523438 451.84375 255.261719 " fill-opacity="1" fill-rule="evenodd"/></g><g clip-path="url(#2906d4a90f)"><path fill="#13894b" d="M 309.960938 255.261719 C 332.464844 263.992188 343.71875 289.519531 334.816406 312.027344 L 263.769531 494.601562 C 255.039062 517.101562 229.507812 528.355469 207 519.625 C 184.660156 510.890625 173.410156 485.359375 182.140625 462.851562 L 253.191406 280.113281 C 261.921875 257.777344 287.453125 246.523438 309.960938 255.261719 " fill-opacity="1" fill-rule="evenodd"/></g><g clip-path="url(#9341af8eb3)"><path fill="#13894b" d="M 309.960938 255.261719 C 287.453125 246.523438 261.921875 257.777344 253.191406 280.113281 L 182.140625 462.851562 C 173.410156 485.359375 184.660156 510.890625 207 519.625 C 229.507812 528.355469 255.039062 517.101562 263.769531 494.601562 L 334.816406 312.027344 C 343.71875 289.519531 332.464844 263.992188 309.960938 255.261719 Z M 561.390625 255.261719 C 538.886719 263.992188 527.632812 289.519531 536.363281 312.027344 L 607.414062 494.601562 C 616.3125 517.101562 641.84375 528.355469 664.183594 519.625 C 686.6875 510.890625 697.941406 485.359375 689.210938 462.851562 L 617.996094 280.113281 C 609.261719 257.777344 583.730469 246.523438 561.390625 255.261719 Z M 451.882812 255.261719 C 474.21875 263.992188 485.472656 289.519531 476.742188 312.027344 L 405.695312 494.601562 C 396.960938 517.101562 371.429688 528.355469 348.925781 519.625 C 326.417969 510.890625 315.164062 485.359375 323.898438 462.851562 L 395.113281 280.113281 C 403.847656 257.777344 429.375 246.523438 451.882812 255.261719 " fill-opacity="1" fill-rule="evenodd"/></g><g clip-path="url(#e8cfa71d9f)"><path fill="#d03438" d="M 594.691406 255.261719 C 617.199219 263.992188 628.453125 289.519531 619.714844 312.027344 L 548.503906 494.601562 C 539.769531 517.101562 514.238281 528.355469 491.902344 519.625 C 469.394531 510.890625 458.140625 485.359375 466.875 462.851562 L 537.921875 280.113281 C 546.65625 257.777344 572.183594 246.523438 594.691406 255.261719 " fill-opacity="1" fill-rule="evenodd"/></g><g clip-path="url(#5f4da1d1dd)"><path fill="#000000" d="M 311.011719 255.261719 C 288.503906 246.523438 262.972656 257.777344 254.242188 280.113281 L 183.191406 462.851562 C 174.460938 485.359375 185.710938 510.890625 208.050781 519.625 C 230.558594 528.355469 256.089844 517.101562 264.820312 494.601562 L 335.867188 312.027344 C 344.769531 289.519531 333.515625 263.992188 311.011719 255.261719 Z M 562.441406 255.261719 C 539.9375 263.992188 528.683594 289.519531 537.414062 312.027344 L 608.464844 494.601562 C 617.363281 517.101562 642.894531 528.355469 665.234375 519.625 C 687.738281 510.890625 698.992188 485.359375 690.261719 462.851562 L 619.046875 280.113281 C 610.3125 257.777344 584.78125 246.523438 562.441406 255.261719 Z M 452.933594 255.261719 C 475.269531 263.992188 486.523438 289.519531 477.792969 312.027344 L 406.746094 494.601562 C 398.011719 517.101562 372.480469 528.355469 349.976562 519.625 C 327.46875 510.890625 316.214844 485.359375 324.949219 462.851562 L 396.164062 280.113281 C 404.898438 257.777344 430.425781 246.523438 452.933594 255.261719 " fill-opacity="1" fill-rule="evenodd"/></g><g clip-path="url(#66946d1730)"><path fill="#000000" d="M 311.011719 255.261719 C 333.515625 263.992188 344.769531 289.519531 335.867188 312.027344 L 264.820312 494.601562 C 256.089844 517.101562 230.558594 528.355469 208.050781 519.625 C 185.710938 510.890625 174.460938 485.359375 183.191406 462.851562 L 254.242188 280.113281 C 262.972656 257.777344 288.503906 246.523438 311.011719 255.261719 " fill-opacity="1" fill-rule="evenodd"/></g><g clip-path="url(#8b4c67afa9)"><path fill="#000000" d="M 311.011719 255.261719 C 288.503906 246.523438 262.972656 257.777344 254.242188 280.113281 L 183.191406 462.851562 C 174.460938 485.359375 185.710938 510.890625 208.050781 519.625 C 230.558594 528.355469 256.089844 517.101562 264.820312 494.601562 L 335.867188 312.027344 C 344.769531 289.519531 333.515625 263.992188 311.011719 255.261719 Z M 562.441406 255.261719 C 539.9375 263.992188 528.683594 289.519531 537.414062 312.027344 L 608.464844 494.601562 C 617.363281 517.101562 642.894531 528.355469 665.234375 519.625 C 687.738281 510.890625 698.992188 485.359375 690.261719 462.851562 L 619.046875 280.113281 C 610.3125 257.777344 584.78125 246.523438 562.441406 255.261719 Z M 452.933594 255.261719 C 475.269531 263.992188 486.523438 289.519531 477.792969 312.027344 L 406.746094 494.601562 C 398.011719 517.101562 372.480469 528.355469 349.976562 519.625 C 327.46875 510.890625 316.214844 485.359375 324.949219 462.851562 L 396.164062 280.113281 C 404.898438 257.777344 430.425781 246.523438 452.933594 255.261719 " fill-opacity="1" fill-rule="evenodd"/></g><g clip-path="url(#16e535f0ff)"><path fill="#d03438" d="M 594.691406 255.261719 C 617.199219 263.992188 628.453125 289.519531 619.714844 312.027344 L 548.503906 494.601562 C 539.769531 517.101562 514.238281 528.355469 491.902344 519.625 C 469.394531 510.890625 458.140625 485.359375 466.875 462.851562 L 537.921875 280.113281 C 546.65625 257.777344 572.183594 246.523438 594.691406 255.261719 " fill-opacity="1" fill-rule="evenodd"/></g><g clip-path="url(#a018f0fdb0)"><path fill="#d03438" d="M 311.011719 255.261719 C 288.503906 246.523438 262.972656 257.777344 254.242188 280.113281 L 183.191406 462.851562 C 174.460938 485.359375 185.710938 510.890625 208.050781 519.625 C 230.558594 528.355469 256.089844 517.101562 264.820312 494.601562 L 335.867188 312.027344 C 344.769531 289.519531 333.515625 263.992188 311.011719 255.261719 Z M 562.441406 255.261719 C 539.9375 263.992188 528.683594 289.519531 537.414062 312.027344 L 608.464844 494.601562 C 617.363281 517.101562 642.894531 528.355469 665.234375 519.625 C 687.738281 510.890625 698.992188 485.359375 690.261719 462.851562 L 619.046875 280.113281 C 610.3125 257.777344 584.78125 246.523438 562.441406 255.261719 Z M 452.933594 255.261719 C 475.269531 263.992188 486.523438 289.519531 477.792969 312.027344 L 406.746094 494.601562 C 398.011719 517.101562 372.480469 528.355469 349.976562 519.625 C 327.46875 510.890625 316.214844 485.359375 324.949219 462.851562 L 396.164062 280.113281 C 404.898438 257.777344 430.425781 246.523438 452.933594 255.261719 " fill-opacity="1" fill-rule="evenodd"/></g><g clip-path="url(#6c637d8e50)"><path fill="#d03438" d="M 594.769531 255.261719 C 617.277344 263.992188 628.53125 289.519531 619.792969 312.027344 L 548.578125 494.601562 C 539.84375 517.101562 514.316406 528.355469 491.980469 519.625 C 469.46875 510.890625 458.21875 485.359375 466.953125 462.851562 L 537.996094 280.113281 C 546.730469 257.777344 572.261719 246.523438 594.769531 255.261719 " fill-opacity="1" fill-rule="evenodd"/></g><g clip-path="url(#2666a95bdf)"><path fill="#d03438" d="M 311.085938 255.261719 C 288.578125 246.523438 263.050781 257.777344 254.316406 280.113281 L 183.269531 462.851562 C 174.535156 485.359375 185.789062 510.890625 208.128906 519.625 C 230.632812 528.355469 256.164062 517.101562 264.898438 494.601562 L 335.945312 312.027344 C 344.84375 289.519531 333.59375 263.992188 311.085938 255.261719 Z M 562.515625 255.261719 C 540.015625 263.992188 528.761719 289.519531 537.492188 312.027344 L 608.539062 494.601562 C 617.441406 517.101562 642.96875 528.355469 665.3125 519.625 C 687.816406 510.890625 699.066406 485.359375 690.335938 462.851562 L 619.125 280.113281 C 610.386719 257.777344 584.859375 246.523438 562.515625 255.261719 Z M 453.011719 255.261719 C 475.347656 263.992188 486.601562 289.519531 477.871094 312.027344 L 406.824219 494.601562 C 398.089844 517.101562 372.558594 528.355469 350.054688 519.625 C 327.546875 510.890625 316.292969 485.359375 325.027344 462.851562 L 396.242188 280.113281 C 404.976562 257.777344 430.503906 246.523438 453.011719 255.261719 " fill-opacity="1" fill-rule="evenodd"/></g><g fill="#000000" fill-opacity="1"><g transform="translate(647.685022, 496.813121)"><g/></g></g><g fill="#000000" fill-opacity="1"><g transform="translate(709.571737, 496.813121)"><g><path d="M 19.234375 0 L 19.234375 -181.984375 L 41.078125 -181.984375 L 41.078125 -101.65625 L 135.453125 -101.65625 L 135.453125 -181.984375 L 157.296875 -181.984375 L 157.296875 0 L 135.453125 0 L 135.453125 -83.71875 L 41.078125 -83.71875 L 41.078125 0 Z M 19.234375 0 "/></g></g></g><g fill="#000000" fill-opacity="1"><g transform="translate(879.078411, 496.813121)"><g><path d="M 85.015625 3.125 C 72.535156 3.125 61.222656 0.65625 51.078125 -4.28125 C 40.941406 -9.226562 32.835938 -16.898438 26.765625 -27.296875 C 20.703125 -37.691406 17.671875 -50.953125 17.671875 -67.078125 L 17.671875 -181.984375 L 39.515625 -181.984375 L 39.515625 -66.8125 C 39.515625 -49.132812 43.757812 -36.304688 52.25 -28.328125 C 60.75 -20.359375 71.84375 -16.375 85.53125 -16.375 C 99.226562 -16.375 110.234375 -20.359375 118.546875 -28.328125 C 126.867188 -36.304688 131.03125 -49.132812 131.03125 -66.8125 L 131.03125 -181.984375 L 152.875 -181.984375 L 152.875 -67.078125 C 152.875 -50.953125 149.835938 -37.691406 143.765625 -27.296875 C 137.703125 -16.898438 129.554688 -9.226562 119.328125 -4.28125 C 109.109375 0.65625 97.671875 3.125 85.015625 3.125 Z M 85.015625 3.125 "/></g></g></g><g fill="#000000" fill-opacity="1"><g transform="translate(1042.605523, 496.813121)"><g><path d="M 19.234375 0 L 19.234375 -181.984375 L 83.1875 -181.984375 C 96.019531 -181.984375 106.640625 -179.945312 115.046875 -175.875 C 123.453125 -171.800781 129.734375 -166.253906 133.890625 -159.234375 C 138.046875 -152.222656 140.125 -144.382812 140.125 -135.71875 C 140.125 -123.925781 136.960938 -114.648438 130.640625 -107.890625 C 124.316406 -101.128906 116.734375 -96.453125 107.890625 -93.859375 C 114.648438 -92.640625 120.800781 -89.953125 126.34375 -85.796875 C 131.894531 -81.640625 136.273438 -76.441406 139.484375 -70.203125 C 142.691406 -63.960938 144.296875 -57.113281 144.296875 -49.65625 C 144.296875 -40.46875 142.039062 -32.101562 137.53125 -24.5625 C 133.019531 -17.03125 126.34375 -11.050781 117.5 -6.625 C 108.664062 -2.207031 97.925781 0 85.28125 0 Z M 41.078125 -102.4375 L 81.640625 -102.4375 C 93.242188 -102.4375 102.164062 -105.164062 108.40625 -110.625 C 114.644531 -116.082031 117.765625 -123.664062 117.765625 -133.375 C 117.765625 -142.5625 114.6875 -149.925781 108.53125 -155.46875 C 102.382812 -161.019531 93.160156 -163.796875 80.859375 -163.796875 L 41.078125 -163.796875 Z M 41.078125 -18.203125 L 82.9375 -18.203125 C 95.414062 -18.203125 105.035156 -21.101562 111.796875 -26.90625 C 118.554688 -32.71875 121.9375 -40.820312 121.9375 -51.21875 C 121.9375 -61.445312 118.378906 -69.632812 111.265625 -75.78125 C 104.160156 -81.9375 94.546875 -85.015625 82.421875 -85.015625 L 41.078125 -85.015625 Z M 41.078125 -18.203125 "/></g></g></g></svg>