<svg width="743" height="733" viewBox="0 0 743 733" fill="none" xmlns="http://www.w3.org/2000/svg">
<g clip-path="url(#clip0_157_1532)">
<mask id="mask0_157_1532" style="mask-type:luminance" maskUnits="userSpaceOnUse" x="0" y="0" width="743" height="743">
<path d="M743 0H0V743H743V0Z" fill="white"/>
</mask>
<g mask="url(#mask0_157_1532)">
<mask id="mask1_157_1532" style="mask-type:luminance" maskUnits="userSpaceOnUse" x="43" y="39" width="686" height="626">
<path d="M43.1133 39.4434H728.326V664.114H43.1133V39.4434Z" fill="white"/>
</mask>
<g mask="url(#mask1_157_1532)">
<mask id="mask2_157_1532" style="mask-type:luminance" maskUnits="userSpaceOnUse" x="0" y="-1" width="766" height="704">
<path d="M0.0546875 348.257L534.903 -0.142578L765.662 354.108L230.813 702.507L0.0546875 348.257Z" fill="white"/>
</mask>
<g mask="url(#mask2_157_1532)">
<mask id="mask3_157_1532" style="mask-type:luminance" maskUnits="userSpaceOnUse" x="0" y="-1" width="766" height="704">
<path d="M0.0546875 348.257L534.903 -0.142578L765.662 354.108L230.813 702.507L0.0546875 348.257Z" fill="white"/>
</mask>
<g mask="url(#mask3_157_1532)">
<path d="M89.6727 290.379L449.402 56.0518C450.803 55.1417 452.222 54.2637 453.666 53.4218C455.106 52.5797 456.568 51.7735 458.048 51.0067C459.531 50.2363 461.029 49.5017 462.549 48.8066C464.064 48.1115 465.598 47.4522 467.149 46.8323C468.697 46.2089 470.263 45.6284 471.84 45.0838C473.42 44.5391 475.01 44.0339 476.612 43.5681C478.218 43.1023 479.83 42.6759 481.453 42.2889C483.08 41.9019 484.71 41.558 486.351 41.2498C487.992 40.9452 489.641 40.6765 491.296 40.4508C492.948 40.225 494.606 40.0422 496.269 39.8989C497.935 39.7521 499.602 39.6481 501.268 39.5872C502.938 39.5263 504.604 39.5048 506.273 39.5227C507.943 39.5442 509.613 39.6015 511.279 39.7055C512.945 39.8058 514.607 39.9491 516.267 40.1318C517.926 40.3146 519.581 40.5368 521.229 40.8019C522.877 41.067 524.519 41.3716 526.153 41.7156C527.787 42.0596 529.41 42.4465 531.026 42.8694C532.638 43.2958 534.243 43.758 535.835 44.2632C537.425 44.7648 539.005 45.3059 540.568 45.8864C542.134 46.4669 543.685 47.0867 545.218 47.7424C546.756 48.4018 548.272 49.0969 549.773 49.8278C551.274 50.5588 552.754 51.3256 554.22 52.1282C555.682 52.9344 557.125 53.7729 558.544 54.6472C559.967 55.525 561.368 56.4316 562.744 57.3775C564.119 58.3198 565.474 59.2981 566.803 60.3085C568.132 61.319 569.437 62.358 570.716 63.433C571.992 64.5079 573.243 65.6116 574.468 66.7474C575.69 67.8833 576.886 69.0478 578.054 70.2449C579.219 71.4378 580.355 72.6596 581.462 73.9103C582.569 75.1604 583.644 76.4365 584.69 77.7368C585.733 79.0412 586.744 80.3703 587.721 81.7215C588.704 83.0719 589.646 84.4479 590.559 85.8492L711.575 271.635C712.49 273.032 713.363 274.452 714.21 275.896C715.049 277.335 715.854 278.797 716.624 280.281C717.395 281.761 718.124 283.262 718.819 284.778C719.514 286.297 720.174 287.831 720.793 289.379C721.419 290.93 721.997 292.493 722.548 294.073C723.091 295.649 723.593 297.24 724.061 298.845C724.529 300.447 724.956 302.059 725.341 303.687C725.726 305.309 726.07 306.94 726.38 308.581C726.689 310.222 726.951 311.87 727.178 313.526C727.405 315.181 727.584 316.84 727.735 318.502C727.879 320.165 727.983 321.832 728.038 323.497C728.106 325.167 728.12 326.837 728.106 328.507C728.086 330.177 728.024 331.843 727.921 333.508C727.824 335.175 727.68 336.837 727.494 338.496C727.315 340.155 727.088 341.811 726.827 343.459C726.559 345.107 726.256 346.748 725.912 348.382C725.568 350.016 725.183 351.64 724.756 353.256C724.336 354.868 723.869 356.473 723.366 358.064C722.864 359.655 722.321 361.235 721.743 362.801C721.158 364.367 720.539 365.915 719.885 367.448C719.225 368.985 718.537 370.501 717.801 372.003C717.072 373.504 716.301 374.987 715.503 376.449C714.691 377.911 713.859 379.355 712.978 380.778C712.104 382.196 711.196 383.598 710.254 384.973C709.311 386.353 708.328 387.704 707.323 389.033C706.312 390.362 705.273 391.667 704.193 392.946C703.12 394.225 702.019 395.475 700.884 396.697C699.742 397.923 698.579 399.116 697.389 400.284C696.192 401.452 694.967 402.588 693.715 403.695C692.47 404.799 691.19 405.877 689.89 406.92C688.59 407.962 687.261 408.973 685.907 409.955C684.556 410.933 683.18 411.879 681.779 412.789L322.05 647.116C320.649 648.026 319.23 648.904 317.79 649.746C316.345 650.588 314.884 651.391 313.404 652.161C311.921 652.932 310.423 653.666 308.903 654.361C307.388 655.056 305.854 655.715 304.303 656.335C302.755 656.956 301.189 657.539 299.612 658.084C298.032 658.629 296.441 659.134 294.839 659.599C293.237 660.065 291.621 660.492 289.999 660.879C288.376 661.262 286.742 661.61 285.1 661.918C283.459 662.223 281.811 662.491 280.159 662.717C278.504 662.943 276.845 663.125 275.183 663.269C273.52 663.415 271.854 663.516 270.184 663.581C268.514 663.641 266.848 663.663 265.178 663.645C263.509 663.623 261.839 663.563 260.173 663.462C258.506 663.362 256.844 663.219 255.185 663.036C253.526 662.853 251.87 662.631 250.222 662.366C248.574 662.101 246.933 661.796 245.299 661.452C243.668 661.108 242.042 660.721 240.429 660.298C238.813 659.872 237.212 659.409 235.617 658.905C234.027 658.403 232.45 657.862 230.884 657.281C229.318 656.698 227.767 656.081 226.233 655.421C224.699 654.766 223.18 654.071 221.679 653.34C220.177 652.609 218.697 651.842 217.232 651.036C215.77 650.233 214.33 649.395 212.908 648.517C211.485 647.643 210.084 646.736 208.708 645.79C207.332 644.848 205.978 643.87 204.649 642.859C203.319 641.849 202.014 640.806 200.739 639.734C199.46 638.66 198.209 637.556 196.984 636.421C195.762 635.285 194.565 634.12 193.401 632.923C192.233 631.73 191.097 630.508 189.989 629.257C188.882 628.007 187.807 626.731 186.765 625.427C185.719 624.127 184.708 622.797 183.73 621.446C182.751 620.092 181.805 618.716 180.895 617.319L59.875 431.533C58.9649 430.135 58.087 428.713 57.245 427.272C56.4029 425.832 55.5967 424.37 54.8299 422.886C54.0595 421.407 53.325 419.905 52.6299 418.39C51.9347 416.87 51.2754 415.337 50.6556 413.789C50.0321 412.237 49.4516 410.675 48.907 409.095C48.3623 407.519 47.8571 405.927 47.3913 404.322C46.9255 402.721 46.4991 401.108 46.1121 399.481C45.7252 397.858 45.3812 396.224 45.073 394.584C44.7685 392.942 44.4997 391.297 44.274 389.642C44.0482 387.987 43.8655 386.328 43.7221 384.665C43.5753 383.002 43.4714 381.336 43.4104 379.67C43.3495 378 43.328 376.331 43.346 374.661C43.3674 372.991 43.4248 371.325 43.5287 369.659C43.629 367.992 43.7724 366.33 43.9551 364.671C44.1378 363.009 44.36 361.357 44.6251 359.709C44.8903 358.06 45.1949 356.42 45.5388 354.786C45.8828 353.152 46.2698 351.528 46.6926 349.912C47.119 348.3 47.5812 346.695 48.0864 345.104C48.5881 343.513 49.1291 341.932 49.7096 340.367C50.2901 338.801 50.91 337.253 51.5657 335.716C52.225 334.183 52.9201 332.663 53.651 331.165C54.382 329.664 55.1488 328.181 55.9514 326.719C56.7577 325.257 57.5961 323.813 58.4704 322.39C59.3483 320.967 60.2548 319.57 61.2007 318.191C62.1431 316.815 63.1213 315.46 64.1317 314.131C65.1422 312.805 66.1813 311.501 67.2563 310.222C68.3312 308.943 69.4349 307.692 70.5707 306.47C71.7066 305.245 72.8713 304.052 74.0676 302.884C75.2613 301.715 76.4831 300.58 77.7331 299.473C78.9838 298.365 80.2593 297.291 81.5602 296.248C82.8646 295.205 84.1938 294.191 85.5449 293.213C86.8988 292.235 88.2713 291.289 89.6727 290.379Z" fill="#EAF1F2"/>
</g>
</g>
</g>
<mask id="mask4_157_1532" style="mask-type:luminance" maskUnits="userSpaceOnUse" x="16" y="150" width="714" height="382">
<path d="M16.3242 150.639H729.241V531.967H16.3242V150.639Z" fill="white"/>
</mask>
<g mask="url(#mask4_157_1532)">
<mask id="mask5_157_1532" style="mask-type:luminance" maskUnits="userSpaceOnUse" x="16" y="150" width="714" height="382">
<path d="M25.945 206.515L104.316 235.807C105.143 234.327 106.741 233.324 108.569 233.324C109.586 233.324 110.536 233.636 111.321 234.166L137.7 205.887C137.187 205.257 136.832 204.498 136.689 203.659L26.0202 206.081C25.9987 206.228 25.9772 206.375 25.945 206.515ZM297.16 412.721L297.314 412.725L310.658 338.869C309.704 338.553 308.888 337.958 308.3 337.178L268.277 358.605C268.466 359.121 268.57 359.676 268.57 360.257C268.57 361.787 267.85 363.152 266.725 364.033L295.361 413.061C295.917 412.842 296.526 412.721 297.16 412.721ZM298.701 412.968C299.941 413.376 300.955 414.265 301.524 415.412L402.045 383.289C401.999 383.031 401.977 382.762 401.977 382.49C401.977 381.945 402.071 381.423 402.239 380.931L316.158 337.098C315.276 338.32 313.829 339.116 312.198 339.116H312.044L298.701 412.968ZM302.008 417.942C301.987 418.192 301.947 418.436 301.893 418.672L418.822 465.332C419.639 464.716 420.656 464.35 421.764 464.35C422.197 464.35 422.62 464.408 423.021 464.512L412.874 415.258C412.781 415.261 412.691 415.261 412.602 415.261C410.258 415.261 408.302 413.624 407.839 411.438L302.008 417.942ZM301.363 419.97C300.517 421.399 298.951 422.36 297.16 422.36C296.411 422.36 295.695 422.191 295.06 421.886L226.131 523.505C226.611 523.938 227.006 524.464 227.282 525.056L416.948 469.844C416.916 469.625 416.901 469.399 416.901 469.169C416.901 468.145 417.221 467.199 417.769 466.418L301.363 419.97ZM293.892 421.109C293.133 420.425 292.591 419.507 292.388 418.468L147.725 425.405C147.614 426.52 147.13 427.519 146.392 428.279L220.47 522.874C221.176 522.48 221.993 522.254 222.863 522.254C223.616 522.254 224.325 522.423 224.963 522.723L293.892 421.109ZM292.319 417.071C292.448 415.735 293.133 414.555 294.139 413.764L265.503 364.735C264.947 364.957 264.342 365.079 263.704 365.079C262.11 365.079 260.691 364.316 259.806 363.141L147.453 423.288C147.539 423.52 147.607 423.764 147.657 424.012L292.319 417.071ZM412.602 405.623C414.945 405.623 416.901 407.264 417.364 409.449L427.239 408.844C427.321 407.862 427.701 406.967 428.285 406.239L409.613 386.453C409.269 386.686 408.897 386.879 408.495 387.023L412.329 405.633C412.419 405.626 412.509 405.623 412.602 405.623ZM417.45 410.847C417.289 412.756 416.006 414.351 414.257 414.979L424.616 465.264C425.626 465.988 426.343 467.088 426.562 468.356L514.778 500.426C514.961 499.831 515.255 499.286 515.635 498.813L434.86 413.208C434.076 413.749 433.119 414.068 432.09 414.068C429.744 414.068 427.79 412.423 427.328 410.238L417.45 410.847ZM407.753 410.04C407.911 408.131 409.194 406.537 410.946 405.913L407.112 387.302C407.026 387.306 406.933 387.309 406.843 387.309C404.927 387.309 403.267 386.213 402.48 384.618L302.717 416.498L407.753 410.04ZM426.58 469.854C426.242 472.19 424.218 473.989 421.764 473.989C419.804 473.989 418.113 472.842 417.342 471.183L227.679 526.4C227.712 526.618 227.729 526.844 227.729 527.073C227.729 529.732 225.547 531.892 222.863 531.892C220.176 531.892 217.997 529.732 217.997 527.073C217.997 526.916 218.005 526.762 218.019 526.607L76.9974 492.091C76.2737 493.85 74.529 495.086 72.4933 495.086C69.8061 495.086 67.6276 492.933 67.6276 490.271C67.6276 488.346 68.7635 486.684 70.4115 485.914L23.6948 334.68C23.4547 334.716 23.211 334.734 22.9566 334.734C20.2728 334.734 18.0943 332.577 18.0943 329.915C18.0943 327.514 19.868 325.521 22.1862 325.156L20.5523 210.266C18.1695 209.958 16.3242 207.933 16.3242 205.49C16.3242 202.824 18.5028 200.667 21.1901 200.667C23.6016 200.667 25.601 202.405 25.988 204.683L136.657 202.269C136.951 199.886 139 198.037 141.487 198.037C143.891 198.037 145.891 199.768 146.281 202.04L276.41 198.775C276.7 196.385 278.75 194.536 281.24 194.536C282.938 194.536 284.433 195.392 285.304 196.704L371.223 156.928C371.091 156.49 371.019 156.025 371.019 155.541C371.019 152.878 373.194 150.722 375.882 150.722C378.573 150.722 380.747 152.878 380.747 155.541C380.747 155.831 380.723 156.118 380.672 156.397L527.219 205.064C528.022 203.494 529.663 202.419 531.559 202.419C533.759 202.419 535.618 203.867 536.22 205.852L640.801 190.595V190.591C640.801 187.929 642.976 185.772 645.663 185.772C648.351 185.772 650.526 187.929 650.526 190.591C650.526 191.67 650.168 192.666 649.566 193.468L679.083 222.707C680.86 223.126 682.258 224.513 682.685 226.272L683.834 227.415L683.634 227.595L723.434 338.331C723.744 338.271 724.06 338.238 724.384 338.238C727.073 338.238 729.254 340.399 729.254 343.058C729.254 345.72 727.073 347.88 724.384 347.88C723.985 347.88 723.606 347.83 723.235 347.744L700.312 403.745C701.756 404.583 702.72 406.131 702.72 407.902C702.72 410.564 700.539 412.725 697.849 412.725C697.753 412.725 697.663 412.721 697.567 412.714L682.71 483.986C684.577 484.656 685.913 486.433 685.913 488.518C685.913 491.177 683.73 493.334 681.043 493.334C678.36 493.334 676.177 491.177 676.177 488.518C676.177 487.845 676.321 487.204 676.572 486.623L622.391 453.748C621.499 454.805 620.155 455.478 618.657 455.478C617.066 455.478 615.654 454.722 614.766 453.554L524.267 502.418C523.969 504.797 521.92 506.635 519.44 506.635C516.76 506.635 514.589 504.496 514.574 501.841L426.58 469.854ZM406.843 377.67C407.661 377.67 408.431 377.871 409.108 378.226L472.43 292.177C471.995 291.754 471.645 291.253 471.393 290.693L363.513 320.735L404.633 378.194C405.295 377.86 406.045 377.67 406.843 377.67ZM410.247 379.046C410.645 379.434 410.979 379.888 411.222 380.391L561.481 333.512C561.445 333.286 561.431 333.057 561.431 332.821C561.431 332.125 561.578 331.466 561.843 330.868L479.857 291.442C478.983 292.715 477.507 293.549 475.837 293.549C475.016 293.549 474.246 293.352 473.572 292.997L410.247 379.046ZM411.645 381.727C411.684 381.978 411.706 382.232 411.706 382.49V382.522L534.869 401.226C535.479 399.255 537.331 397.822 539.52 397.822C539.889 397.822 540.254 397.861 540.602 397.94L564.348 337.239C563.262 336.769 562.384 335.92 561.883 334.856L411.645 381.727ZM411.495 383.905C411.312 384.493 411.021 385.03 410.645 385.496L429.317 405.286C430.105 404.745 431.062 404.426 432.09 404.426C434.434 404.426 436.386 406.067 436.849 408.253L532.917 402.348L411.495 383.905ZM402.884 379.688C403.059 379.44 403.264 379.211 403.483 379.004L362.072 321.136L317.025 333.677C317.05 333.881 317.064 334.089 317.064 334.297C317.064 334.841 316.971 335.365 316.803 335.855L402.884 379.688ZM436.938 409.65C436.856 410.629 436.476 411.528 435.892 412.252L516.667 497.853C517.455 497.315 518.412 496.996 519.44 496.996C520.114 496.996 520.755 497.132 521.343 497.38L537.961 407.21C536.349 406.669 535.113 405.315 534.758 403.638L436.938 409.65ZM522.629 498.175C523.425 498.86 523.991 499.795 524.209 500.859L613.73 452.526L614.049 452.21C613.881 451.72 613.791 451.204 613.791 450.659C613.791 449.989 613.931 449.348 614.182 448.764L543.254 405.73C542.365 406.787 541.022 407.461 539.52 407.461L539.348 407.457L522.629 498.175ZM541.917 398.45C543.39 399.277 544.386 400.843 544.386 402.645C544.386 403.315 544.243 403.957 543.992 404.537L614.92 447.574C615.253 447.18 615.651 446.833 616.092 446.56L568.232 337.242C567.637 337.497 566.981 337.64 566.293 337.64C566.096 337.64 565.907 337.629 565.717 337.604L541.917 398.45ZM681.043 483.696C681.14 483.696 681.237 483.699 681.33 483.707L696.184 412.434C695.297 412.112 694.526 411.535 693.962 410.801L623.222 448.989C623.415 449.509 623.52 450.072 623.52 450.659C623.52 451.333 623.384 451.974 623.129 452.554L677.31 485.43C678.199 484.369 679.546 483.696 681.043 483.696ZM721.921 347.214C721.776 347.132 721.632 347.035 721.494 346.934L677.371 390.982C677.983 391.788 678.345 392.788 678.345 393.873C678.345 394.508 678.22 395.114 677.998 395.661L694.044 404.903C694.932 403.792 696.308 403.082 697.849 403.082C698.248 403.082 698.64 403.133 699.005 403.219L721.921 347.214ZM720.497 345.953C719.953 345.24 719.609 344.376 719.54 343.437L571.105 333.527C571.081 333.709 571.041 333.892 570.995 334.067L669.671 390.874C670.563 389.768 671.935 389.054 673.479 389.054C674.561 389.054 675.561 389.406 676.367 389.997L720.497 345.953ZM719.63 342.04C719.932 340.635 720.854 339.457 722.106 338.8L682.588 228.848C682.025 230.605 680.481 231.926 678.593 232.174L570.446 330.309C570.783 330.853 571.008 331.463 571.105 332.118L719.63 342.04ZM693.288 409.571C693.095 409.052 692.985 408.489 692.985 407.902C692.985 407.271 693.109 406.665 693.336 406.11L677.285 396.873C676.396 397.983 675.02 398.693 673.479 398.693C672.397 398.693 671.397 398.342 670.588 397.751L621.502 446.75C621.896 447.033 622.251 447.377 622.545 447.764L693.288 409.571ZM618.657 445.84C619.191 445.84 619.704 445.926 620.184 446.083L669.588 396.765C668.979 395.959 668.613 394.96 668.613 393.873C668.613 393.24 668.739 392.638 668.961 392.082L570.428 335.361C570.159 335.787 569.827 336.174 569.439 336.501L617.385 446.008C617.79 445.9 618.216 445.84 618.657 445.84ZM566.293 328.001C567.544 328.001 568.683 328.467 569.547 329.234L676.654 232.041C675.751 231.794 674.956 231.299 674.347 230.633L480.649 288.035C480.685 288.264 480.703 288.493 480.703 288.733C480.703 289.239 480.624 289.729 480.477 290.185L562.603 329.682C563.495 328.653 564.817 328.001 566.293 328.001ZM673.529 229.414C673.247 228.802 673.085 228.114 673.085 227.394C673.085 225.043 674.784 223.086 677.034 222.661L648.566 194.461C647.756 195.06 646.752 195.41 645.663 195.41C644.127 195.41 642.751 194.705 641.862 193.598L481.305 286.383L673.529 229.414ZM641.149 192.39C641.095 192.257 641.044 192.118 641.005 191.978L536.425 207.239C536.425 209.904 534.246 212.058 531.559 212.058C530.798 212.058 530.082 211.889 529.444 211.582L479.119 285.175C479.305 285.347 479.481 285.53 479.639 285.728L641.149 192.39ZM528.276 210.797C527.305 209.919 526.696 208.65 526.696 207.239C526.696 206.948 526.717 206.665 526.771 206.385L380.225 157.72C379.988 158.179 379.683 158.594 379.321 158.948L473.53 284.487C474.213 284.122 475.002 283.911 475.837 283.911C476.593 283.911 477.313 284.083 477.955 284.391L528.276 210.797ZM471.01 289.35C470.986 289.149 470.971 288.941 470.971 288.733V288.687L327.463 266.5C327.212 267.292 326.764 267.998 326.173 268.56L362.646 319.524L471.01 289.35ZM471.19 287.307C471.426 286.548 471.845 285.867 472.397 285.322L378.189 159.787C377.505 160.156 376.717 160.36 375.882 160.36C375.377 160.36 374.893 160.285 374.434 160.142L325.532 261.075C326.828 261.943 327.677 263.411 327.677 265.074V265.12L471.19 287.307ZM373.162 159.54C372.632 159.182 372.177 158.723 371.822 158.192L285.901 197.965C286.034 198.406 286.102 198.872 286.102 199.352C286.102 200.825 285.44 202.143 284.393 203.025L320.852 260.663C321.454 260.402 322.117 260.255 322.812 260.255C323.32 260.255 323.804 260.33 324.263 260.473L373.162 159.54ZM283.2 203.766C282.602 204.028 281.939 204.175 281.24 204.175C278.836 204.175 276.836 202.444 276.442 200.172L146.313 203.437C146.303 203.544 146.285 203.656 146.264 203.763L318.494 262.853C318.788 262.297 319.186 261.806 319.662 261.401L283.2 203.766ZM325.022 269.371C324.36 269.707 323.611 269.893 322.812 269.893H322.79L313.621 329.689C314.972 330.094 316.072 331.068 316.642 332.333L361.205 319.925L325.022 269.371ZM321.393 269.686C320.16 269.313 319.139 268.471 318.537 267.371L232.91 298.401C232.979 298.716 233.014 299.046 233.014 299.383C233.014 300.912 232.295 302.274 231.169 303.159L261.905 355.781C262.461 355.559 263.07 355.441 263.704 355.441C265.299 355.441 266.718 356.2 267.603 357.375L307.627 335.952C307.437 335.433 307.336 334.877 307.336 334.297C307.336 331.635 309.511 329.477 312.198 329.477H312.224L321.393 269.686ZM317.95 264.966C317.956 264.694 317.985 264.429 318.036 264.171L145.805 205.078C145.675 205.325 145.525 205.562 145.353 205.78L212.928 274.318C213.73 273.738 214.719 273.398 215.784 273.398C218.026 273.398 219.907 274.896 220.478 276.934L317.95 264.966ZM259.132 361.908C258.942 361.396 258.838 360.837 258.838 360.257C258.838 359.73 258.924 359.225 259.082 358.748L181.74 320.405C180.862 321.652 179.403 322.465 177.752 322.465C177.48 322.465 177.207 322.443 176.949 322.401L145.027 420.614C145.722 420.955 146.324 421.45 146.78 422.058L259.132 361.908ZM259.716 357.501C259.985 357.114 260.315 356.773 260.684 356.484L229.947 303.862C229.392 304.08 228.783 304.202 228.149 304.202C226.303 304.202 224.695 303.18 223.871 301.676L182.514 316.664C182.582 316.983 182.618 317.313 182.618 317.65C182.618 318.173 182.528 318.685 182.371 319.158L259.716 357.501ZM228.149 294.563C229.998 294.563 231.603 295.581 232.427 297.089L316.763 266.522L220.65 278.324C220.613 279.812 219.904 281.133 218.807 281.993L226.35 294.904C226.905 294.681 227.511 294.563 228.149 294.563ZM223.383 300.365C223.319 300.045 223.283 299.719 223.283 299.383C223.283 297.853 224.003 296.487 225.128 295.606L217.585 282.692C217.03 282.914 216.421 283.036 215.784 283.036C214.734 283.036 213.762 282.707 212.967 282.144C202.5 292.987 192.041 303.829 181.586 314.683C181.751 314.89 181.901 315.116 182.03 315.353L223.383 300.365ZM211.95 281.18C211.304 280.363 210.921 279.332 210.921 278.214C210.921 277.862 210.96 277.518 211.032 277.189L112.825 240.483C112.661 240.777 112.463 241.049 112.245 241.3L175.144 313.579C175.895 313.102 176.792 312.826 177.752 312.826C178.798 312.826 179.773 313.156 180.565 313.715L211.95 281.18ZM211.53 275.877C211.645 275.673 211.773 275.48 211.917 275.293L144.346 206.758C143.543 207.339 142.555 207.68 141.487 207.68C140.465 207.68 139.519 207.371 138.735 206.833L112.352 235.119C113.029 235.947 113.435 236.996 113.435 238.147C113.435 238.498 113.395 238.842 113.323 239.172L211.53 275.877ZM175.602 321.974C173.993 321.186 172.886 319.548 172.886 317.65V317.592L109.866 307.696C109.461 308.971 108.54 310.021 107.336 310.598L142.114 420.178C142.361 420.142 142.619 420.12 142.881 420.12C143.157 420.12 143.426 420.145 143.687 420.188L175.602 321.974ZM173.108 316.209C173.309 315.571 173.642 314.987 174.072 314.493L111.177 242.214C110.547 242.607 109.823 242.869 109.038 242.944L106.161 301.525C108.397 301.963 110.084 303.912 110.084 306.258V306.312L173.108 316.209ZM218.359 525.249C218.593 524.683 218.933 524.167 219.356 523.734L145.278 429.135C144.568 429.533 143.751 429.759 142.881 429.759C141.734 429.759 140.684 429.368 139.853 428.712L76.489 487.519C77.0373 488.3 77.3558 489.25 77.3558 490.271C77.3558 490.428 77.3524 490.579 77.3379 490.733L218.359 525.249ZM72.4933 485.448C73.6401 485.448 74.69 485.846 75.5251 486.501L138.889 427.691C138.341 426.91 138.018 425.964 138.018 424.94C138.018 424.051 138.262 423.22 138.682 422.506L26.2782 333.437C25.9127 333.773 25.497 334.06 25.042 334.272L71.7592 485.505C71.9993 485.469 72.2463 485.448 72.4933 485.448ZM139.563 421.417C139.918 421.088 140.322 420.812 140.767 420.6L105.989 311.017C105.741 311.056 105.483 311.074 105.218 311.074C103.255 311.074 101.556 309.917 100.793 308.254C76.4491 315.234 52.1162 322.25 27.7759 329.255C27.8082 329.47 27.8261 329.693 27.8261 329.915C27.8261 330.803 27.5825 331.635 27.1596 332.347L139.563 421.417ZM23.598 325.138C24.3719 325.235 25.0922 325.518 25.7084 325.937L104.781 241.174C104.107 240.347 103.703 239.293 103.703 238.147C103.703 237.792 103.742 237.444 103.818 237.115L25.4469 207.826C24.7375 209.095 23.4618 210.008 21.9605 210.245L23.598 325.138ZM26.744 326.887C27.002 327.202 27.2134 327.546 27.3889 327.915L100.399 306.914C100.37 306.703 100.356 306.481 100.356 306.258C100.356 303.754 102.283 301.694 104.749 301.461L107.63 242.873C106.967 242.748 106.354 242.486 105.82 242.12L26.744 326.887Z" fill="white"/>
</mask>
<g mask="url(#mask5_157_1532)">
<path d="M16.3242 150.722V531.892H729.241V150.722H16.3242Z" fill="url(#paint0_linear_157_1532)"/>
</g>
</g>
<g opacity="0.37">
<mask id="mask6_157_1532" style="mask-type:luminance" maskUnits="userSpaceOnUse" x="82" y="123" width="532" height="343">
<g opacity="0.37">
<path d="M82.5547 123.833H613.662V465.98H82.5547V123.833Z" fill="white"/>
</g>
</mask>
<g mask="url(#mask6_157_1532)">
<mask id="mask7_157_1532" style="mask-type:luminance" maskUnits="userSpaceOnUse" x="0" y="-1" width="766" height="704">
<g opacity="0.37">
<path d="M0.0527344 348.256L534.901 -0.143555L765.66 354.107L230.811 702.506L0.0527344 348.256Z" fill="white"/>
</g>
</mask>
<g mask="url(#mask7_157_1532)">
<path d="M85.7439 465.633C121.418 446.9 154.996 422.947 188.888 401.183C222.778 379.423 257.087 357.365 291.155 335.389C359.281 291.45 427.472 247.62 495.727 203.899C534.393 179.1 573.08 154.33 611.781 129.588C612.093 129.348 612.347 129.061 612.552 128.724C612.752 128.388 612.885 128.022 612.953 127.635C613.017 127.248 613.01 126.865 612.931 126.478C612.849 126.094 612.702 125.736 612.488 125.406C612.276 125.08 612.007 124.801 611.688 124.572C611.37 124.342 611.018 124.181 610.638 124.084C610.259 123.988 609.871 123.962 609.481 124.012C609.09 124.059 608.725 124.178 608.378 124.367C472.161 212.276 335.568 299.651 199.071 387.137C179.744 399.531 160.456 412.022 141.172 424.488C121.887 436.95 102.005 448.864 83.9277 462.842C83.7412 462.964 83.5871 463.114 83.4619 463.297C83.336 463.48 83.2535 463.676 83.2074 463.895C83.1606 464.11 83.1571 464.325 83.1998 464.544C83.2397 464.758 83.3181 464.959 83.4399 465.146C83.5617 465.332 83.7123 465.486 83.8953 465.612C84.0776 465.737 84.2751 465.819 84.4897 465.866C84.7085 465.912 84.9238 465.916 85.1419 465.873C85.3573 465.834 85.5575 465.751 85.7439 465.633Z" fill="#6C8DBC"/>
</g>
</g>
<mask id="mask8_157_1532" style="mask-type:luminance" maskUnits="userSpaceOnUse" x="150" y="484" width="152" height="97">
<g opacity="0.37">
<path d="M150.434 484.326H301.785V580.641H150.434V484.326Z" fill="white"/>
</g>
</mask>
<g mask="url(#mask8_157_1532)">
<mask id="mask9_157_1532" style="mask-type:luminance" maskUnits="userSpaceOnUse" x="0" y="-1" width="766" height="704">
<g opacity="0.37">
<path d="M0.0527344 348.256L534.901 -0.143555L765.66 354.107L230.811 702.506L0.0527344 348.256Z" fill="white"/>
</g>
</mask>
<g mask="url(#mask9_157_1532)">
<mask id="mask10_157_1532" style="mask-type:luminance" maskUnits="userSpaceOnUse" x="0" y="-1" width="766" height="704">
<g opacity="0.37">
<path d="M0.0527344 348.256L534.901 -0.143555L765.66 354.107L230.811 702.506L0.0527344 348.256Z" fill="white"/>
</g>
</mask>
<g mask="url(#mask10_157_1532)">
<path d="M152.967 580.099C178.955 565.881 203.987 549.894 229.205 534.339C241.8 526.553 254.391 518.742 266.972 510.902C278.323 503.821 291.348 497.443 301.237 488.41C301.552 488.031 301.724 487.593 301.753 487.103C301.778 486.608 301.66 486.157 301.391 485.744C301.122 485.329 300.754 485.035 300.291 484.863C299.832 484.691 299.363 484.669 298.886 484.805C286.371 489.614 274.934 498.615 263.578 505.695C251.012 513.528 238.454 521.386 225.902 529.269C200.845 545.035 175.473 560.424 151.272 577.498C151.096 577.612 150.95 577.753 150.831 577.925C150.713 578.097 150.635 578.287 150.591 578.49C150.549 578.694 150.544 578.899 150.584 579.103C150.62 579.307 150.699 579.501 150.81 579.673C150.924 579.848 151.068 579.995 151.24 580.114C151.412 580.232 151.602 580.31 151.806 580.354C152.01 580.396 152.214 580.401 152.418 580.361C152.623 580.325 152.813 580.247 152.988 580.135L152.967 580.099Z" fill="#6C8DBC"/>
</g>
</g>
</g>
<mask id="mask11_157_1532" style="mask-type:luminance" maskUnits="userSpaceOnUse" x="230" y="374" width="74" height="111">
<g opacity="0.37">
<path d="M230.238 374.252H303.621V484.326H230.238V374.252Z" fill="white"/>
</g>
</mask>
<g mask="url(#mask11_157_1532)">
<mask id="mask12_157_1532" style="mask-type:luminance" maskUnits="userSpaceOnUse" x="0" y="-1" width="766" height="704">
<g opacity="0.37">
<path d="M0.0527344 348.256L534.901 -0.143555L765.66 354.107L230.811 702.506L0.0527344 348.256Z" fill="white"/>
</g>
</mask>
<g mask="url(#mask12_157_1532)">
<mask id="mask13_157_1532" style="mask-type:luminance" maskUnits="userSpaceOnUse" x="0" y="-1" width="766" height="704">
<g opacity="0.37">
<path d="M0.0527344 348.256L534.901 -0.143555L765.66 354.107L230.811 702.506L0.0527344 348.256Z" fill="white"/>
</g>
</mask>
<g mask="url(#mask13_157_1532)">
<path d="M230.627 376.631C251.191 412.663 274.252 447.695 297.073 482.352C297.32 482.735 297.632 483.054 298.008 483.312C298.381 483.566 298.793 483.742 299.237 483.838C299.681 483.932 300.129 483.935 300.577 483.853C301.025 483.77 301.437 483.602 301.82 483.355C302.2 483.108 302.519 482.796 302.777 482.42C303.035 482.043 303.211 481.635 303.304 481.19C303.397 480.742 303.404 480.298 303.318 479.85C303.236 479.402 303.071 478.99 302.82 478.607C280.472 443.668 257.888 408.324 233.35 374.861C233.225 374.707 233.074 374.577 232.899 374.481C232.727 374.381 232.54 374.316 232.344 374.288C232.146 374.255 231.949 374.262 231.756 374.306C231.559 374.348 231.38 374.424 231.211 374.531C231.043 374.639 230.9 374.775 230.785 374.936C230.666 375.098 230.58 375.276 230.53 375.47C230.476 375.66 230.462 375.857 230.48 376.054C230.502 376.255 230.556 376.445 230.645 376.62L230.627 376.631Z" fill="#6C8DBC"/>
</g>
</g>
</g>
<mask id="mask14_157_1532" style="mask-type:luminance" maskUnits="userSpaceOnUse" x="301" y="486" width="186" height="51">
<g opacity="0.37">
<path d="M301.785 486.16H486.159V536.611H301.785V486.16Z" fill="white"/>
</g>
</mask>
<g mask="url(#mask14_157_1532)">
<mask id="mask15_157_1532" style="mask-type:luminance" maskUnits="userSpaceOnUse" x="0" y="-1" width="766" height="704">
<g opacity="0.37">
<path d="M0.0527344 348.256L534.901 -0.143555L765.66 354.107L230.811 702.506L0.0527344 348.256Z" fill="white"/>
</g>
</mask>
<g mask="url(#mask15_157_1532)">
<mask id="mask16_157_1532" style="mask-type:luminance" maskUnits="userSpaceOnUse" x="0" y="-1" width="766" height="704">
<g opacity="0.37">
<path d="M0.0527344 348.256L534.901 -0.143555L765.66 354.107L230.811 702.506L0.0527344 348.256Z" fill="white"/>
</g>
</mask>
<g mask="url(#mask16_157_1532)">
<path d="M303.488 489.779C316.874 495.864 331.848 498.659 346.051 502.274C360.836 506.04 375.641 509.648 390.461 513.392C420.706 520.971 450.984 528.459 481.286 535.851C486.392 537.106 488.005 529.054 482.964 527.904C452.657 520.429 422.365 513.016 392.091 505.667C377.254 502.081 362.398 498.357 347.589 494.924C333.299 491.585 318.844 487.139 304.204 486.307C302.348 486.211 301.879 489.059 303.473 489.765L303.488 489.779Z" fill="#6C8DBC"/>
</g>
</g>
</g>
<mask id="mask17_157_1532" style="mask-type:luminance" maskUnits="userSpaceOnUse" x="537" y="230" width="149" height="103">
<g opacity="0.37">
<path d="M537.527 230.238H685.21V332.974H537.527V230.238Z" fill="white"/>
</g>
</mask>
<g mask="url(#mask17_157_1532)">
<mask id="mask18_157_1532" style="mask-type:luminance" maskUnits="userSpaceOnUse" x="0" y="-1" width="766" height="704">
<g opacity="0.37">
<path d="M0.0527344 348.256L534.901 -0.143555L765.66 354.107L230.811 702.506L0.0527344 348.256Z" fill="white"/>
</g>
</mask>
<g mask="url(#mask18_157_1532)">
<mask id="mask19_157_1532" style="mask-type:luminance" maskUnits="userSpaceOnUse" x="0" y="-1" width="766" height="704">
<g opacity="0.37">
<path d="M0.0527344 348.256L534.901 -0.143555L765.66 354.107L230.811 702.506L0.0527344 348.256Z" fill="white"/>
</g>
</mask>
<g mask="url(#mask19_157_1532)">
<path d="M682.512 231.403C657.111 246.638 632.771 263.608 608.234 280.173C595.962 288.457 583.697 296.77 571.442 305.108C560.378 312.633 547.521 319.455 538.062 328.957C537.746 329.337 537.578 329.774 537.549 330.269C537.521 330.76 537.639 331.215 537.912 331.627C538.18 332.039 538.545 332.333 539.007 332.508C539.47 332.68 539.936 332.698 540.412 332.566C552.728 327.255 563.778 317.853 574.832 310.314C587.075 301.984 599.312 293.624 611.537 285.243C635.968 268.481 660.709 252.049 684.208 234.004C684.38 233.889 684.526 233.746 684.644 233.574C684.763 233.402 684.845 233.216 684.888 233.011C684.931 232.807 684.931 232.603 684.896 232.395C684.856 232.191 684.781 232.001 684.666 231.825C684.552 231.653 684.408 231.507 684.236 231.388C684.064 231.27 683.877 231.191 683.674 231.145C683.469 231.102 683.265 231.102 683.057 231.137C682.853 231.177 682.663 231.252 682.488 231.367L682.512 231.403Z" fill="#6C8DBC"/>
</g>
</g>
</g>
<mask id="mask20_157_1532" style="mask-type:luminance" maskUnits="userSpaceOnUse" x="463" y="221" width="75" height="112">
<g opacity="0.37">
<path d="M463.229 221.982H537.529V332.056H463.229V221.982Z" fill="white"/>
</g>
</mask>
<g mask="url(#mask20_157_1532)">
<mask id="mask21_157_1532" style="mask-type:luminance" maskUnits="userSpaceOnUse" x="0" y="-1" width="766" height="704">
<g opacity="0.37">
<path d="M0.0546875 348.256L534.903 -0.143555L765.662 354.107L230.813 702.506L0.0546875 348.256Z" fill="white"/>
</g>
</mask>
<g mask="url(#mask21_157_1532)">
<mask id="mask22_157_1532" style="mask-type:luminance" maskUnits="userSpaceOnUse" x="0" y="-1" width="766" height="704">
<g opacity="0.37">
<path d="M0.0546875 348.256L534.903 -0.143555L765.662 354.107L230.813 702.506L0.0546875 348.256Z" fill="white"/>
</g>
</mask>
<g mask="url(#mask22_157_1532)">
<path d="M463.943 224.656C484.635 260.623 507.74 295.605 530.761 330.132C531.008 330.512 531.321 330.831 531.696 331.089C532.073 331.347 532.481 331.522 532.926 331.616C533.374 331.709 533.818 331.716 534.266 331.63C534.714 331.548 535.126 331.383 535.509 331.132C535.889 330.885 536.208 330.573 536.466 330.197C536.724 329.82 536.899 329.412 536.992 328.968C537.086 328.524 537.093 328.076 537.007 327.628C536.924 327.18 536.76 326.768 536.509 326.384C514.031 291.506 491.322 256.27 466.666 222.882C466.537 222.728 466.387 222.602 466.215 222.502C466.039 222.405 465.856 222.341 465.659 222.308C465.462 222.28 465.265 222.284 465.068 222.326C464.874 222.37 464.692 222.444 464.527 222.552C464.358 222.663 464.215 222.796 464.097 222.96C463.982 223.121 463.896 223.298 463.842 223.491C463.792 223.684 463.774 223.878 463.796 224.078C463.818 224.276 463.871 224.466 463.961 224.645L463.943 224.656Z" fill="#6C8DBC"/>
</g>
</g>
</g>
<mask id="mask23_157_1532" style="mask-type:luminance" maskUnits="userSpaceOnUse" x="502" y="332" width="40" height="189">
<g opacity="0.37">
<path d="M502.672 332.974H541.198V520.1H502.672V332.974Z" fill="white"/>
</g>
</mask>
<g mask="url(#mask23_157_1532)">
<mask id="mask24_157_1532" style="mask-type:luminance" maskUnits="userSpaceOnUse" x="0" y="-1" width="766" height="704">
<g opacity="0.37">
<path d="M0.0546875 348.256L534.903 -0.143555L765.662 354.107L230.813 702.506L0.0546875 348.256Z" fill="white"/>
</g>
</mask>
<g mask="url(#mask24_157_1532)">
<mask id="mask25_157_1532" style="mask-type:luminance" maskUnits="userSpaceOnUse" x="0" y="-1" width="766" height="704">
<g opacity="0.37">
<path d="M0.0546875 348.256L534.903 -0.143555L765.662 354.107L230.813 702.506L0.0546875 348.256Z" fill="white"/>
</g>
</mask>
<g mask="url(#mask25_157_1532)">
<path d="M537.314 334.465C532.14 348.203 530.326 363.241 527.657 377.627C524.873 392.619 522.214 407.654 519.498 422.678C513.937 453.368 508.473 484.072 503.106 514.783C502.195 519.932 510.157 521.627 511.056 516.464C516.474 485.749 521.863 455.031 527.223 424.309C529.81 409.274 532.469 394.239 535.002 379.193C537.436 364.742 540.933 349.912 540.778 335.21C540.754 333.458 537.973 332.724 537.324 334.48L537.314 334.465Z" fill="#6C8DBC"/>
</g>
</g>
</g>
<mask id="mask26_157_1532" style="mask-type:luminance" maskUnits="userSpaceOnUse" x="153" y="252" width="165" height="64">
<g opacity="0.37">
<path d="M153.186 252.253H317.38V315.546H153.186V252.253Z" fill="white"/>
</g>
</mask>
<g mask="url(#mask26_157_1532)">
<mask id="mask27_157_1532" style="mask-type:luminance" maskUnits="userSpaceOnUse" x="0" y="-1" width="766" height="704">
<g opacity="0.37">
<path d="M0.0527344 348.256L534.901 -0.143555L765.66 354.107L230.811 702.506L0.0527344 348.256Z" fill="white"/>
</g>
</mask>
<g mask="url(#mask27_157_1532)">
<mask id="mask28_157_1532" style="mask-type:luminance" maskUnits="userSpaceOnUse" x="0" y="-1" width="766" height="704">
<g opacity="0.37">
<path d="M0.0527344 348.256L534.901 -0.143555L765.66 354.107L230.811 702.506L0.0527344 348.256Z" fill="white"/>
</g>
</mask>
<g mask="url(#mask28_157_1532)">
<path d="M154.482 256.832C206.147 277.715 259.041 295.763 311.412 314.829C315.855 316.441 319.202 309.751 314.737 308.179C261.947 289.435 209.364 269.563 155.932 252.665C153.553 251.913 152.16 255.872 154.488 256.804L154.482 256.832Z" fill="#6C8DBC"/>
</g>
</g>
</g>
<mask id="mask29_157_1532" style="mask-type:luminance" maskUnits="userSpaceOnUse" x="465" y="196" width="3" height="3">
<g opacity="0.37">
<path d="M465.98 196.299H467.815V198.134H465.98V196.299Z" fill="white"/>
</g>
</mask>
<g mask="url(#mask29_157_1532)">
<mask id="mask30_157_1532" style="mask-type:luminance" maskUnits="userSpaceOnUse" x="0" y="-1" width="766" height="704">
<g opacity="0.37">
<path d="M0.0546875 348.256L534.903 -0.143555L765.662 354.107L230.813 702.506L0.0546875 348.256Z" fill="white"/>
</g>
</mask>
<g mask="url(#mask30_157_1532)">
<mask id="mask31_157_1532" style="mask-type:luminance" maskUnits="userSpaceOnUse" x="0" y="-1" width="766" height="704">
<g opacity="0.37">
<path d="M0.0546875 348.256L534.903 -0.143555L765.662 354.107L230.813 702.506L0.0546875 348.256Z" fill="white"/>
</g>
</mask>
<g mask="url(#mask31_157_1532)">
<path d="M467.241 197.768C467.377 197.678 467.467 197.553 467.499 197.391C467.535 197.23 467.507 197.08 467.417 196.94C467.324 196.8 467.198 196.714 467.037 196.682C466.876 196.646 466.725 196.675 466.585 196.764C466.449 196.854 466.363 196.983 466.327 197.144C466.292 197.305 466.321 197.456 466.41 197.592C466.503 197.732 466.629 197.818 466.79 197.854C466.951 197.886 467.101 197.857 467.241 197.768Z" fill="#6C8DBC"/>
</g>
</g>
</g>
<mask id="mask32_157_1532" style="mask-type:luminance" maskUnits="userSpaceOnUse" x="443" y="135" width="16" height="92">
<g opacity="0.37">
<path d="M443.047 135.758H458.641V226.569H443.047V135.758Z" fill="white"/>
</g>
</mask>
<g mask="url(#mask32_157_1532)">
<mask id="mask33_157_1532" style="mask-type:luminance" maskUnits="userSpaceOnUse" x="0" y="-1" width="766" height="704">
<g opacity="0.37">
<path d="M0.0527344 348.256L534.901 -0.143555L765.66 354.107L230.811 702.506L0.0527344 348.256Z" fill="white"/>
</g>
</mask>
<g mask="url(#mask33_157_1532)">
<mask id="mask34_157_1532" style="mask-type:luminance" maskUnits="userSpaceOnUse" x="0" y="-1" width="766" height="704">
<g opacity="0.37">
<path d="M0.0527344 348.256L534.901 -0.143555L765.66 354.107L230.811 702.506L0.0527344 348.256Z" fill="white"/>
</g>
</mask>
<g mask="url(#mask34_157_1532)">
<path d="M458.494 224.397C457.355 208.592 456.029 192.909 454.148 177.15C452.675 164.734 453.721 147.894 447.651 136.825C446.663 135.048 444.183 135.89 443.76 137.545C442.066 144.246 443.993 151.032 444.871 157.851C445.939 165.716 447.018 173.567 448.099 181.403C450.114 196.062 452.65 210.445 455.305 224.975C455.642 226.791 458.548 226.228 458.465 224.394L458.494 224.397Z" fill="#6C8DBC"/>
</g>
</g>
</g>
</g>
<path d="M81.1797 472.598V235.337H109.644V340.079H232.689V235.337H261.154V472.598H232.689V363.456H109.644V472.598H81.1797Z" fill="black"/>
<path d="M387.92 476.669C371.645 476.669 356.897 473.448 343.675 467.008C330.46 460.57 319.897 450.569 311.986 437.01C304.081 423.452 300.133 406.167 300.133 385.155V235.337H328.597V385.485C328.597 408.543 334.133 425.268 345.209 435.663C356.28 446.051 370.742 451.242 388.593 451.242C406.441 451.242 420.788 446.051 431.634 435.663C442.487 425.268 447.916 408.543 447.916 385.485V235.337H476.38V385.155C476.38 406.167 472.424 423.452 464.513 437.01C456.609 450.569 445.988 460.57 432.652 467.008C419.322 473.448 404.409 476.669 387.92 476.669Z" fill="black"/>
<path d="M515.359 472.598V235.337H598.732C615.451 235.337 629.293 237.996 640.254 243.306C651.211 248.619 659.402 255.854 664.819 265.005C670.245 274.15 672.961 284.376 672.961 295.677C672.961 311.042 668.836 323.131 660.592 331.939C652.343 340.749 642.461 346.852 630.937 350.241C639.744 351.828 647.767 355.336 655.002 360.761C662.233 366.179 667.937 372.955 672.115 381.085C676.3 389.218 678.393 398.141 678.393 407.858C678.393 419.84 675.455 430.747 669.578 440.579C663.701 450.404 655.002 458.194 643.479 463.956C631.955 469.718 617.945 472.598 601.455 472.598H515.359ZM543.824 339.062H596.697C611.839 339.062 623.478 335.504 631.611 328.384C639.752 321.268 643.823 311.382 643.823 298.73C643.823 286.748 639.809 277.145 631.783 269.921C623.764 262.691 611.735 259.072 595.693 259.072H543.824V339.062ZM543.824 448.878H598.403C614.663 448.878 627.2 445.094 636.011 437.526C644.829 429.952 649.24 419.381 649.24 405.823C649.24 392.494 644.604 381.823 635.337 373.804C626.079 365.777 613.538 361.765 597.715 361.765H543.824V448.878Z" fill="black"/>
</g>
</g>
<defs>
<linearGradient id="paint0_linear_157_1532" x1="1.39415" y1="481.588" x2="760.57" y2="256.253" gradientUnits="userSpaceOnUse">
<stop stop-color="#01F6FF"/>
<stop offset="0.00390625" stop-color="#02F5FF"/>
<stop offset="0.0078125" stop-color="#02F5FE"/>
<stop offset="0.0117188" stop-color="#03F4FE"/>
<stop offset="0.015625" stop-color="#04F4FE"/>
<stop offset="0.0195312" stop-color="#04F3FE"/>
<stop offset="0.0234375" stop-color="#05F2FE"/>
<stop offset="0.0273438" stop-color="#05F2FE"/>
<stop offset="0.03125" stop-color="#06F1FE"/>
<stop offset="0.0351562" stop-color="#07F1FE"/>
<stop offset="0.0390625" stop-color="#07F0FD"/>
<stop offset="0.0429688" stop-color="#08F0FD"/>
<stop offset="0.046875" stop-color="#08EFFD"/>
<stop offset="0.0507813" stop-color="#09EEFD"/>
<stop offset="0.0546875" stop-color="#0AEEFD"/>
<stop offset="0.0585938" stop-color="#0AEDFD"/>
<stop offset="0.0625" stop-color="#0BEDFD"/>
<stop offset="0.0664062" stop-color="#0BECFD"/>
<stop offset="0.0703125" stop-color="#0CEBFC"/>
<stop offset="0.0742188" stop-color="#0DEBFC"/>
<stop offset="0.078125" stop-color="#0DEAFC"/>
<stop offset="0.0820313" stop-color="#0EEAFC"/>
<stop offset="0.0859375" stop-color="#0FE9FC"/>
<stop offset="0.0898438" stop-color="#0FE8FC"/>
<stop offset="0.09375" stop-color="#10E8FC"/>
<stop offset="0.0976563" stop-color="#10E7FB"/>
<stop offset="0.101563" stop-color="#11E7FB"/>
<stop offset="0.105469" stop-color="#12E6FB"/>
<stop offset="0.109375" stop-color="#12E5FB"/>
<stop offset="0.113281" stop-color="#13E5FB"/>
<stop offset="0.117188" stop-color="#13E4FB"/>
<stop offset="0.121094" stop-color="#14E4FB"/>
<stop offset="0.125" stop-color="#15E3FB"/>
<stop offset="0.128906" stop-color="#15E3FA"/>
<stop offset="0.132812" stop-color="#16E2FA"/>
<stop offset="0.136719" stop-color="#16E1FA"/>
<stop offset="0.140625" stop-color="#17E1FA"/>
<stop offset="0.144531" stop-color="#18E0FA"/>
<stop offset="0.148438" stop-color="#18E0FA"/>
<stop offset="0.152344" stop-color="#19DFFA"/>
<stop offset="0.15625" stop-color="#19DEF9"/>
<stop offset="0.160156" stop-color="#1ADEF9"/>
<stop offset="0.164063" stop-color="#1BDDF9"/>
<stop offset="0.167969" stop-color="#1BDDF9"/>
<stop offset="0.171875" stop-color="#1CDCF9"/>
<stop offset="0.175781" stop-color="#1DDBF9"/>
<stop offset="0.179688" stop-color="#1DDBF9"/>
<stop offset="0.183594" stop-color="#1EDAF9"/>
<stop offset="0.1875" stop-color="#1EDAF8"/>
<stop offset="0.191406" stop-color="#1FD9F8"/>
<stop offset="0.195313" stop-color="#20D8F8"/>
<stop offset="0.199219" stop-color="#20D8F8"/>
<stop offset="0.203125" stop-color="#21D7F8"/>
<stop offset="0.207031" stop-color="#21D7F8"/>
<stop offset="0.210938" stop-color="#22D6F8"/>
<stop offset="0.214844" stop-color="#23D6F8"/>
<stop offset="0.21875" stop-color="#23D5F7"/>
<stop offset="0.222656" stop-color="#24D4F7"/>
<stop offset="0.226563" stop-color="#24D4F7"/>
<stop offset="0.230469" stop-color="#25D3F7"/>
<stop offset="0.234375" stop-color="#26D3F7"/>
<stop offset="0.238281" stop-color="#26D2F7"/>
<stop offset="0.242188" stop-color="#27D1F7"/>
<stop offset="0.246094" stop-color="#28D1F6"/>
<stop offset="0.25" stop-color="#28D0F6"/>
<stop offset="0.253906" stop-color="#29D0F6"/>
<stop offset="0.257813" stop-color="#29CFF6"/>
<stop offset="0.261719" stop-color="#2ACEF6"/>
<stop offset="0.265625" stop-color="#2BCEF6"/>
<stop offset="0.269531" stop-color="#2BCDF6"/>
<stop offset="0.273438" stop-color="#2CCDF6"/>
<stop offset="0.277344" stop-color="#2CCCF5"/>
<stop offset="0.28125" stop-color="#2DCBF5"/>
<stop offset="0.285156" stop-color="#2ECBF5"/>
<stop offset="0.289062" stop-color="#2ECAF5"/>
<stop offset="0.292969" stop-color="#2FCAF5"/>
<stop offset="0.296875" stop-color="#2FC9F5"/>
<stop offset="0.300781" stop-color="#30C9F5"/>
<stop offset="0.304688" stop-color="#31C8F4"/>
<stop offset="0.308594" stop-color="#31C7F4"/>
<stop offset="0.3125" stop-color="#32C7F4"/>
<stop offset="0.316406" stop-color="#32C6F4"/>
<stop offset="0.320312" stop-color="#33C6F4"/>
<stop offset="0.324219" stop-color="#34C5F4"/>
<stop offset="0.328125" stop-color="#34C4F4"/>
<stop offset="0.332031" stop-color="#35C4F4"/>
<stop offset="0.335938" stop-color="#36C3F3"/>
<stop offset="0.339844" stop-color="#36C3F3"/>
<stop offset="0.34375" stop-color="#37C2F3"/>
<stop offset="0.347656" stop-color="#37C1F3"/>
<stop offset="0.351563" stop-color="#38C1F3"/>
<stop offset="0.355469" stop-color="#39C0F3"/>
<stop offset="0.359375" stop-color="#39C0F3"/>
<stop offset="0.363281" stop-color="#3ABFF3"/>
<stop offset="0.367188" stop-color="#3ABEF2"/>
<stop offset="0.371094" stop-color="#3BBEF2"/>
<stop offset="0.375" stop-color="#3CBDF2"/>
<stop offset="0.378906" stop-color="#3CBDF2"/>
<stop offset="0.382813" stop-color="#3DBCF2"/>
<stop offset="0.386719" stop-color="#3DBCF2"/>
<stop offset="0.390625" stop-color="#3EBBF2"/>
<stop offset="0.394531" stop-color="#3FBAF1"/>
<stop offset="0.398438" stop-color="#3FBAF1"/>
<stop offset="0.402344" stop-color="#40B9F1"/>
<stop offset="0.40625" stop-color="#41B9F1"/>
<stop offset="0.410156" stop-color="#41B8F1"/>
<stop offset="0.414062" stop-color="#42B7F1"/>
<stop offset="0.417969" stop-color="#42B7F1"/>
<stop offset="0.421875" stop-color="#43B6F1"/>
<stop offset="0.425781" stop-color="#44B6F0"/>
<stop offset="0.429688" stop-color="#44B5F0"/>
<stop offset="0.433594" stop-color="#45B4F0"/>
<stop offset="0.4375" stop-color="#45B4F0"/>
<stop offset="0.441406" stop-color="#46B3F0"/>
<stop offset="0.445312" stop-color="#47B3F0"/>
<stop offset="0.449219" stop-color="#47B2F0"/>
<stop offset="0.453125" stop-color="#48B2EF"/>
<stop offset="0.457031" stop-color="#48B1EF"/>
<stop offset="0.460938" stop-color="#49B0EF"/>
<stop offset="0.464844" stop-color="#4AB0EF"/>
<stop offset="0.46875" stop-color="#4AAFEF"/>
<stop offset="0.472656" stop-color="#4BAFEF"/>
<stop offset="0.476563" stop-color="#4BAEEF"/>
<stop offset="0.480469" stop-color="#4CADEF"/>
<stop offset="0.484375" stop-color="#4DADEE"/>
<stop offset="0.488281" stop-color="#4DACEE"/>
<stop offset="0.492188" stop-color="#4EACEE"/>
<stop offset="0.496094" stop-color="#4FABEE"/>
<stop offset="0.5" stop-color="#4FAAEE"/>
<stop offset="0.503906" stop-color="#50AAEE"/>
<stop offset="0.507812" stop-color="#50A9EE"/>
<stop offset="0.511719" stop-color="#51A9EE"/>
<stop offset="0.515625" stop-color="#52A8ED"/>
<stop offset="0.519531" stop-color="#52A7ED"/>
<stop offset="0.523438" stop-color="#53A7ED"/>
<stop offset="0.527344" stop-color="#53A6ED"/>
<stop offset="0.53125" stop-color="#54A6ED"/>
<stop offset="0.535156" stop-color="#55A5ED"/>
<stop offset="0.539063" stop-color="#55A5ED"/>
<stop offset="0.542969" stop-color="#56A4EC"/>
<stop offset="0.546875" stop-color="#56A3EC"/>
<stop offset="0.550781" stop-color="#57A3EC"/>
<stop offset="0.554688" stop-color="#58A2EC"/>
<stop offset="0.558594" stop-color="#58A2EC"/>
<stop offset="0.5625" stop-color="#59A1EC"/>
<stop offset="0.566406" stop-color="#59A0EC"/>
<stop offset="0.570313" stop-color="#5AA0EC"/>
<stop offset="0.574219" stop-color="#5B9FEB"/>
<stop offset="0.578125" stop-color="#5B9FEB"/>
<stop offset="0.582031" stop-color="#5C9EEB"/>
<stop offset="0.585938" stop-color="#5D9DEB"/>
<stop offset="0.589844" stop-color="#5D9DEB"/>
<stop offset="0.59375" stop-color="#5E9CEB"/>
<stop offset="0.597656" stop-color="#5E9CEB"/>
<stop offset="0.601563" stop-color="#5F9BEA"/>
<stop offset="0.605469" stop-color="#609AEA"/>
<stop offset="0.609375" stop-color="#609AEA"/>
<stop offset="0.613281" stop-color="#6199EA"/>
<stop offset="0.617188" stop-color="#6199EA"/>
<stop offset="0.621094" stop-color="#6298EA"/>
<stop offset="0.625" stop-color="#6398EA"/>
<stop offset="0.628906" stop-color="#6397EA"/>
<stop offset="0.632813" stop-color="#6496E9"/>
<stop offset="0.636719" stop-color="#6496E9"/>
<stop offset="0.640625" stop-color="#6595E9"/>
<stop offset="0.644531" stop-color="#6695E9"/>
<stop offset="0.648438" stop-color="#6694E9"/>
<stop offset="0.652344" stop-color="#6793E9"/>
<stop offset="0.65625" stop-color="#6893E9"/>
<stop offset="0.660156" stop-color="#6892E9"/>
<stop offset="0.664063" stop-color="#6992E8"/>
<stop offset="0.667969" stop-color="#6991E8"/>
<stop offset="0.671875" stop-color="#6A90E8"/>
<stop offset="0.675781" stop-color="#6B90E8"/>
<stop offset="0.679688" stop-color="#6B8FE8"/>
<stop offset="0.683594" stop-color="#6C8FE8"/>
<stop offset="0.6875" stop-color="#6C8EE8"/>
<stop offset="0.691406" stop-color="#6D8DE7"/>
<stop offset="0.695313" stop-color="#6E8DE7"/>
<stop offset="0.699219" stop-color="#6E8CE7"/>
<stop offset="0.703125" stop-color="#6F8CE7"/>
<stop offset="0.707031" stop-color="#6F8BE7"/>
<stop offset="0.710938" stop-color="#708BE7"/>
<stop offset="0.714844" stop-color="#718AE7"/>
<stop offset="0.71875" stop-color="#7189E7"/>
<stop offset="0.722656" stop-color="#7289E6"/>
<stop offset="0.726563" stop-color="#7288E6"/>
<stop offset="0.730469" stop-color="#7388E6"/>
<stop offset="0.734375" stop-color="#7487E6"/>
<stop offset="0.738281" stop-color="#7486E6"/>
<stop offset="0.742188" stop-color="#7586E6"/>
<stop offset="0.746094" stop-color="#7685E6"/>
<stop offset="0.75" stop-color="#7685E5"/>
<stop offset="0.753906" stop-color="#7784E5"/>
<stop offset="0.757813" stop-color="#7783E5"/>
<stop offset="0.761719" stop-color="#7883E5"/>
<stop offset="0.765625" stop-color="#7982E5"/>
<stop offset="0.769531" stop-color="#7982E5"/>
<stop offset="0.773438" stop-color="#7A81E5"/>
<stop offset="0.777344" stop-color="#7A80E5"/>
<stop offset="0.78125" stop-color="#7B80E4"/>
<stop offset="0.785156" stop-color="#7C7FE4"/>
<stop offset="0.789062" stop-color="#7C7FE4"/>
<stop offset="0.792969" stop-color="#7D7EE4"/>
<stop offset="0.796875" stop-color="#7D7EE4"/>
<stop offset="0.800781" stop-color="#7E7DE4"/>
<stop offset="0.804688" stop-color="#7F7CE4"/>
<stop offset="0.808594" stop-color="#7F7CE4"/>
<stop offset="0.8125" stop-color="#807BE3"/>
<stop offset="0.816406" stop-color="#807BE3"/>
<stop offset="0.820312" stop-color="#817AE3"/>
<stop offset="0.824219" stop-color="#8279E3"/>
<stop offset="0.828125" stop-color="#8279E3"/>
<stop offset="0.832031" stop-color="#8378E3"/>
<stop offset="0.835937" stop-color="#8478E3"/>
<stop offset="0.839844" stop-color="#8477E2"/>
<stop offset="0.84375" stop-color="#8576E2"/>
<stop offset="0.847656" stop-color="#8576E2"/>
<stop offset="0.851563" stop-color="#8675E2"/>
<stop offset="0.855469" stop-color="#8775E2"/>
<stop offset="0.859375" stop-color="#8774E2"/>
<stop offset="0.863281" stop-color="#8873E2"/>
<stop offset="0.867188" stop-color="#8873E2"/>
<stop offset="0.871094" stop-color="#8972E1"/>
<stop offset="0.875" stop-color="#8A72E1"/>
<stop offset="0.878906" stop-color="#8A71E1"/>
<stop offset="0.882812" stop-color="#8B71E1"/>
<stop offset="0.886719" stop-color="#8B70E1"/>
<stop offset="0.890625" stop-color="#8C6FE1"/>
<stop offset="0.894531" stop-color="#8D6FE1"/>
<stop offset="0.898437" stop-color="#8D6EE0"/>
<stop offset="0.902344" stop-color="#8E6EE0"/>
<stop offset="0.90625" stop-color="#8F6DE0"/>
<stop offset="0.910156" stop-color="#8F6CE0"/>
<stop offset="0.914063" stop-color="#906CE0"/>
<stop offset="0.917969" stop-color="#906BE0"/>
<stop offset="0.921875" stop-color="#916BE0"/>
<stop offset="0.925781" stop-color="#926AE0"/>
<stop offset="0.929688" stop-color="#9269DF"/>
<stop offset="0.933594" stop-color="#9369DF"/>
<stop offset="0.9375" stop-color="#9368DF"/>
<stop offset="0.941406" stop-color="#9468DF"/>
<stop offset="0.945312" stop-color="#9567DF"/>
<stop offset="0.949219" stop-color="#9567DF"/>
<stop offset="0.953125" stop-color="#9666DF"/>
<stop offset="0.957031" stop-color="#9665DF"/>
<stop offset="0.960937" stop-color="#9765DE"/>
<stop offset="0.964844" stop-color="#9864DE"/>
<stop offset="0.96875" stop-color="#9864DE"/>
<stop offset="0.972656" stop-color="#9963DE"/>
<stop offset="0.976563" stop-color="#9962DE"/>
<stop offset="0.980469" stop-color="#9A62DE"/>
<stop offset="0.984375" stop-color="#9B61DE"/>
<stop offset="0.988281" stop-color="#9B61DD"/>
<stop offset="0.992188" stop-color="#9C60DD"/>
<stop offset="0.996094" stop-color="#9D5FDD"/>
<stop offset="1" stop-color="#9D5FDD"/>
</linearGradient>
<clipPath id="clip0_157_1532">
<rect width="743" height="733" fill="white"/>
</clipPath>
</defs>
</svg>
